G04 #@! TF.GenerationSoftware,KiCad,Pcbnew,(5.1.6)-1*
G04 #@! TF.CreationDate,2021-03-27T23:23:02-04:00*
G04 #@! TF.ProjectId,STM8Feather,53544d38-4665-4617-9468-65722e6b6963,rev?*
G04 #@! TF.SameCoordinates,Original*
G04 #@! TF.FileFunction,Soldermask,Bot*
G04 #@! TF.FilePolarity,Negative*
%FSLAX46Y46*%
G04 Gerber Fmt 4.6, Leading zero omitted, Abs format (unit mm)*
G04 Created by KiCad (PCBNEW (5.1.6)-1) date 2021-03-27 23:23:02*
%MOMM*%
%LPD*%
G01*
G04 APERTURE LIST*
%ADD10C,0.100000*%
G04 APERTURE END LIST*
D10*
G36*
X44563512Y-46093927D02*
G01*
X44712812Y-46123624D01*
X44876784Y-46191544D01*
X45024354Y-46290147D01*
X45149853Y-46415646D01*
X45248456Y-46563216D01*
X45316376Y-46727188D01*
X45351000Y-46901259D01*
X45351000Y-47078741D01*
X45316376Y-47252812D01*
X45248456Y-47416784D01*
X45149853Y-47564354D01*
X45024354Y-47689853D01*
X44876784Y-47788456D01*
X44712812Y-47856376D01*
X44563512Y-47886073D01*
X44538742Y-47891000D01*
X44361258Y-47891000D01*
X44336488Y-47886073D01*
X44187188Y-47856376D01*
X44023216Y-47788456D01*
X43875646Y-47689853D01*
X43750147Y-47564354D01*
X43651544Y-47416784D01*
X43583624Y-47252812D01*
X43549000Y-47078741D01*
X43549000Y-46901259D01*
X43583624Y-46727188D01*
X43651544Y-46563216D01*
X43750147Y-46415646D01*
X43875646Y-46290147D01*
X44023216Y-46191544D01*
X44187188Y-46123624D01*
X44336488Y-46093927D01*
X44361258Y-46089000D01*
X44538742Y-46089000D01*
X44563512Y-46093927D01*
G37*
G36*
X57263512Y-46093927D02*
G01*
X57412812Y-46123624D01*
X57576784Y-46191544D01*
X57724354Y-46290147D01*
X57849853Y-46415646D01*
X57948456Y-46563216D01*
X58016376Y-46727188D01*
X58051000Y-46901259D01*
X58051000Y-47078741D01*
X58016376Y-47252812D01*
X57948456Y-47416784D01*
X57849853Y-47564354D01*
X57724354Y-47689853D01*
X57576784Y-47788456D01*
X57412812Y-47856376D01*
X57263512Y-47886073D01*
X57238742Y-47891000D01*
X57061258Y-47891000D01*
X57036488Y-47886073D01*
X56887188Y-47856376D01*
X56723216Y-47788456D01*
X56575646Y-47689853D01*
X56450147Y-47564354D01*
X56351544Y-47416784D01*
X56283624Y-47252812D01*
X56249000Y-47078741D01*
X56249000Y-46901259D01*
X56283624Y-46727188D01*
X56351544Y-46563216D01*
X56450147Y-46415646D01*
X56575646Y-46290147D01*
X56723216Y-46191544D01*
X56887188Y-46123624D01*
X57036488Y-46093927D01*
X57061258Y-46089000D01*
X57238742Y-46089000D01*
X57263512Y-46093927D01*
G37*
G36*
X36943512Y-46093927D02*
G01*
X37092812Y-46123624D01*
X37256784Y-46191544D01*
X37404354Y-46290147D01*
X37529853Y-46415646D01*
X37628456Y-46563216D01*
X37696376Y-46727188D01*
X37731000Y-46901259D01*
X37731000Y-47078741D01*
X37696376Y-47252812D01*
X37628456Y-47416784D01*
X37529853Y-47564354D01*
X37404354Y-47689853D01*
X37256784Y-47788456D01*
X37092812Y-47856376D01*
X36943512Y-47886073D01*
X36918742Y-47891000D01*
X36741258Y-47891000D01*
X36716488Y-47886073D01*
X36567188Y-47856376D01*
X36403216Y-47788456D01*
X36255646Y-47689853D01*
X36130147Y-47564354D01*
X36031544Y-47416784D01*
X35963624Y-47252812D01*
X35929000Y-47078741D01*
X35929000Y-46901259D01*
X35963624Y-46727188D01*
X36031544Y-46563216D01*
X36130147Y-46415646D01*
X36255646Y-46290147D01*
X36403216Y-46191544D01*
X36567188Y-46123624D01*
X36716488Y-46093927D01*
X36741258Y-46089000D01*
X36918742Y-46089000D01*
X36943512Y-46093927D01*
G37*
G36*
X39483512Y-46093927D02*
G01*
X39632812Y-46123624D01*
X39796784Y-46191544D01*
X39944354Y-46290147D01*
X40069853Y-46415646D01*
X40168456Y-46563216D01*
X40236376Y-46727188D01*
X40271000Y-46901259D01*
X40271000Y-47078741D01*
X40236376Y-47252812D01*
X40168456Y-47416784D01*
X40069853Y-47564354D01*
X39944354Y-47689853D01*
X39796784Y-47788456D01*
X39632812Y-47856376D01*
X39483512Y-47886073D01*
X39458742Y-47891000D01*
X39281258Y-47891000D01*
X39256488Y-47886073D01*
X39107188Y-47856376D01*
X38943216Y-47788456D01*
X38795646Y-47689853D01*
X38670147Y-47564354D01*
X38571544Y-47416784D01*
X38503624Y-47252812D01*
X38469000Y-47078741D01*
X38469000Y-46901259D01*
X38503624Y-46727188D01*
X38571544Y-46563216D01*
X38670147Y-46415646D01*
X38795646Y-46290147D01*
X38943216Y-46191544D01*
X39107188Y-46123624D01*
X39256488Y-46093927D01*
X39281258Y-46089000D01*
X39458742Y-46089000D01*
X39483512Y-46093927D01*
G37*
G36*
X42023512Y-46093927D02*
G01*
X42172812Y-46123624D01*
X42336784Y-46191544D01*
X42484354Y-46290147D01*
X42609853Y-46415646D01*
X42708456Y-46563216D01*
X42776376Y-46727188D01*
X42811000Y-46901259D01*
X42811000Y-47078741D01*
X42776376Y-47252812D01*
X42708456Y-47416784D01*
X42609853Y-47564354D01*
X42484354Y-47689853D01*
X42336784Y-47788456D01*
X42172812Y-47856376D01*
X42023512Y-47886073D01*
X41998742Y-47891000D01*
X41821258Y-47891000D01*
X41796488Y-47886073D01*
X41647188Y-47856376D01*
X41483216Y-47788456D01*
X41335646Y-47689853D01*
X41210147Y-47564354D01*
X41111544Y-47416784D01*
X41043624Y-47252812D01*
X41009000Y-47078741D01*
X41009000Y-46901259D01*
X41043624Y-46727188D01*
X41111544Y-46563216D01*
X41210147Y-46415646D01*
X41335646Y-46290147D01*
X41483216Y-46191544D01*
X41647188Y-46123624D01*
X41796488Y-46093927D01*
X41821258Y-46089000D01*
X41998742Y-46089000D01*
X42023512Y-46093927D01*
G37*
G36*
X47103512Y-46093927D02*
G01*
X47252812Y-46123624D01*
X47416784Y-46191544D01*
X47564354Y-46290147D01*
X47689853Y-46415646D01*
X47788456Y-46563216D01*
X47856376Y-46727188D01*
X47891000Y-46901259D01*
X47891000Y-47078741D01*
X47856376Y-47252812D01*
X47788456Y-47416784D01*
X47689853Y-47564354D01*
X47564354Y-47689853D01*
X47416784Y-47788456D01*
X47252812Y-47856376D01*
X47103512Y-47886073D01*
X47078742Y-47891000D01*
X46901258Y-47891000D01*
X46876488Y-47886073D01*
X46727188Y-47856376D01*
X46563216Y-47788456D01*
X46415646Y-47689853D01*
X46290147Y-47564354D01*
X46191544Y-47416784D01*
X46123624Y-47252812D01*
X46089000Y-47078741D01*
X46089000Y-46901259D01*
X46123624Y-46727188D01*
X46191544Y-46563216D01*
X46290147Y-46415646D01*
X46415646Y-46290147D01*
X46563216Y-46191544D01*
X46727188Y-46123624D01*
X46876488Y-46093927D01*
X46901258Y-46089000D01*
X47078742Y-46089000D01*
X47103512Y-46093927D01*
G37*
G36*
X49643512Y-46093927D02*
G01*
X49792812Y-46123624D01*
X49956784Y-46191544D01*
X50104354Y-46290147D01*
X50229853Y-46415646D01*
X50328456Y-46563216D01*
X50396376Y-46727188D01*
X50431000Y-46901259D01*
X50431000Y-47078741D01*
X50396376Y-47252812D01*
X50328456Y-47416784D01*
X50229853Y-47564354D01*
X50104354Y-47689853D01*
X49956784Y-47788456D01*
X49792812Y-47856376D01*
X49643512Y-47886073D01*
X49618742Y-47891000D01*
X49441258Y-47891000D01*
X49416488Y-47886073D01*
X49267188Y-47856376D01*
X49103216Y-47788456D01*
X48955646Y-47689853D01*
X48830147Y-47564354D01*
X48731544Y-47416784D01*
X48663624Y-47252812D01*
X48629000Y-47078741D01*
X48629000Y-46901259D01*
X48663624Y-46727188D01*
X48731544Y-46563216D01*
X48830147Y-46415646D01*
X48955646Y-46290147D01*
X49103216Y-46191544D01*
X49267188Y-46123624D01*
X49416488Y-46093927D01*
X49441258Y-46089000D01*
X49618742Y-46089000D01*
X49643512Y-46093927D01*
G37*
G36*
X52183512Y-46093927D02*
G01*
X52332812Y-46123624D01*
X52496784Y-46191544D01*
X52644354Y-46290147D01*
X52769853Y-46415646D01*
X52868456Y-46563216D01*
X52936376Y-46727188D01*
X52971000Y-46901259D01*
X52971000Y-47078741D01*
X52936376Y-47252812D01*
X52868456Y-47416784D01*
X52769853Y-47564354D01*
X52644354Y-47689853D01*
X52496784Y-47788456D01*
X52332812Y-47856376D01*
X52183512Y-47886073D01*
X52158742Y-47891000D01*
X51981258Y-47891000D01*
X51956488Y-47886073D01*
X51807188Y-47856376D01*
X51643216Y-47788456D01*
X51495646Y-47689853D01*
X51370147Y-47564354D01*
X51271544Y-47416784D01*
X51203624Y-47252812D01*
X51169000Y-47078741D01*
X51169000Y-46901259D01*
X51203624Y-46727188D01*
X51271544Y-46563216D01*
X51370147Y-46415646D01*
X51495646Y-46290147D01*
X51643216Y-46191544D01*
X51807188Y-46123624D01*
X51956488Y-46093927D01*
X51981258Y-46089000D01*
X52158742Y-46089000D01*
X52183512Y-46093927D01*
G37*
G36*
X59803512Y-46093927D02*
G01*
X59952812Y-46123624D01*
X60116784Y-46191544D01*
X60264354Y-46290147D01*
X60389853Y-46415646D01*
X60488456Y-46563216D01*
X60556376Y-46727188D01*
X60591000Y-46901259D01*
X60591000Y-47078741D01*
X60556376Y-47252812D01*
X60488456Y-47416784D01*
X60389853Y-47564354D01*
X60264354Y-47689853D01*
X60116784Y-47788456D01*
X59952812Y-47856376D01*
X59803512Y-47886073D01*
X59778742Y-47891000D01*
X59601258Y-47891000D01*
X59576488Y-47886073D01*
X59427188Y-47856376D01*
X59263216Y-47788456D01*
X59115646Y-47689853D01*
X58990147Y-47564354D01*
X58891544Y-47416784D01*
X58823624Y-47252812D01*
X58789000Y-47078741D01*
X58789000Y-46901259D01*
X58823624Y-46727188D01*
X58891544Y-46563216D01*
X58990147Y-46415646D01*
X59115646Y-46290147D01*
X59263216Y-46191544D01*
X59427188Y-46123624D01*
X59576488Y-46093927D01*
X59601258Y-46089000D01*
X59778742Y-46089000D01*
X59803512Y-46093927D01*
G37*
G36*
X70751000Y-47891000D02*
G01*
X68949000Y-47891000D01*
X68949000Y-46089000D01*
X70751000Y-46089000D01*
X70751000Y-47891000D01*
G37*
G36*
X31863512Y-46093927D02*
G01*
X32012812Y-46123624D01*
X32176784Y-46191544D01*
X32324354Y-46290147D01*
X32449853Y-46415646D01*
X32548456Y-46563216D01*
X32616376Y-46727188D01*
X32651000Y-46901259D01*
X32651000Y-47078741D01*
X32616376Y-47252812D01*
X32548456Y-47416784D01*
X32449853Y-47564354D01*
X32324354Y-47689853D01*
X32176784Y-47788456D01*
X32012812Y-47856376D01*
X31863512Y-47886073D01*
X31838742Y-47891000D01*
X31661258Y-47891000D01*
X31636488Y-47886073D01*
X31487188Y-47856376D01*
X31323216Y-47788456D01*
X31175646Y-47689853D01*
X31050147Y-47564354D01*
X30951544Y-47416784D01*
X30883624Y-47252812D01*
X30849000Y-47078741D01*
X30849000Y-46901259D01*
X30883624Y-46727188D01*
X30951544Y-46563216D01*
X31050147Y-46415646D01*
X31175646Y-46290147D01*
X31323216Y-46191544D01*
X31487188Y-46123624D01*
X31636488Y-46093927D01*
X31661258Y-46089000D01*
X31838742Y-46089000D01*
X31863512Y-46093927D01*
G37*
G36*
X34403512Y-46093927D02*
G01*
X34552812Y-46123624D01*
X34716784Y-46191544D01*
X34864354Y-46290147D01*
X34989853Y-46415646D01*
X35088456Y-46563216D01*
X35156376Y-46727188D01*
X35191000Y-46901259D01*
X35191000Y-47078741D01*
X35156376Y-47252812D01*
X35088456Y-47416784D01*
X34989853Y-47564354D01*
X34864354Y-47689853D01*
X34716784Y-47788456D01*
X34552812Y-47856376D01*
X34403512Y-47886073D01*
X34378742Y-47891000D01*
X34201258Y-47891000D01*
X34176488Y-47886073D01*
X34027188Y-47856376D01*
X33863216Y-47788456D01*
X33715646Y-47689853D01*
X33590147Y-47564354D01*
X33491544Y-47416784D01*
X33423624Y-47252812D01*
X33389000Y-47078741D01*
X33389000Y-46901259D01*
X33423624Y-46727188D01*
X33491544Y-46563216D01*
X33590147Y-46415646D01*
X33715646Y-46290147D01*
X33863216Y-46191544D01*
X34027188Y-46123624D01*
X34176488Y-46093927D01*
X34201258Y-46089000D01*
X34378742Y-46089000D01*
X34403512Y-46093927D01*
G37*
G36*
X67423512Y-46093927D02*
G01*
X67572812Y-46123624D01*
X67736784Y-46191544D01*
X67884354Y-46290147D01*
X68009853Y-46415646D01*
X68108456Y-46563216D01*
X68176376Y-46727188D01*
X68211000Y-46901259D01*
X68211000Y-47078741D01*
X68176376Y-47252812D01*
X68108456Y-47416784D01*
X68009853Y-47564354D01*
X67884354Y-47689853D01*
X67736784Y-47788456D01*
X67572812Y-47856376D01*
X67423512Y-47886073D01*
X67398742Y-47891000D01*
X67221258Y-47891000D01*
X67196488Y-47886073D01*
X67047188Y-47856376D01*
X66883216Y-47788456D01*
X66735646Y-47689853D01*
X66610147Y-47564354D01*
X66511544Y-47416784D01*
X66443624Y-47252812D01*
X66409000Y-47078741D01*
X66409000Y-46901259D01*
X66443624Y-46727188D01*
X66511544Y-46563216D01*
X66610147Y-46415646D01*
X66735646Y-46290147D01*
X66883216Y-46191544D01*
X67047188Y-46123624D01*
X67196488Y-46093927D01*
X67221258Y-46089000D01*
X67398742Y-46089000D01*
X67423512Y-46093927D01*
G37*
G36*
X64883512Y-46093927D02*
G01*
X65032812Y-46123624D01*
X65196784Y-46191544D01*
X65344354Y-46290147D01*
X65469853Y-46415646D01*
X65568456Y-46563216D01*
X65636376Y-46727188D01*
X65671000Y-46901259D01*
X65671000Y-47078741D01*
X65636376Y-47252812D01*
X65568456Y-47416784D01*
X65469853Y-47564354D01*
X65344354Y-47689853D01*
X65196784Y-47788456D01*
X65032812Y-47856376D01*
X64883512Y-47886073D01*
X64858742Y-47891000D01*
X64681258Y-47891000D01*
X64656488Y-47886073D01*
X64507188Y-47856376D01*
X64343216Y-47788456D01*
X64195646Y-47689853D01*
X64070147Y-47564354D01*
X63971544Y-47416784D01*
X63903624Y-47252812D01*
X63869000Y-47078741D01*
X63869000Y-46901259D01*
X63903624Y-46727188D01*
X63971544Y-46563216D01*
X64070147Y-46415646D01*
X64195646Y-46290147D01*
X64343216Y-46191544D01*
X64507188Y-46123624D01*
X64656488Y-46093927D01*
X64681258Y-46089000D01*
X64858742Y-46089000D01*
X64883512Y-46093927D01*
G37*
G36*
X62343512Y-46093927D02*
G01*
X62492812Y-46123624D01*
X62656784Y-46191544D01*
X62804354Y-46290147D01*
X62929853Y-46415646D01*
X63028456Y-46563216D01*
X63096376Y-46727188D01*
X63131000Y-46901259D01*
X63131000Y-47078741D01*
X63096376Y-47252812D01*
X63028456Y-47416784D01*
X62929853Y-47564354D01*
X62804354Y-47689853D01*
X62656784Y-47788456D01*
X62492812Y-47856376D01*
X62343512Y-47886073D01*
X62318742Y-47891000D01*
X62141258Y-47891000D01*
X62116488Y-47886073D01*
X61967188Y-47856376D01*
X61803216Y-47788456D01*
X61655646Y-47689853D01*
X61530147Y-47564354D01*
X61431544Y-47416784D01*
X61363624Y-47252812D01*
X61329000Y-47078741D01*
X61329000Y-46901259D01*
X61363624Y-46727188D01*
X61431544Y-46563216D01*
X61530147Y-46415646D01*
X61655646Y-46290147D01*
X61803216Y-46191544D01*
X61967188Y-46123624D01*
X62116488Y-46093927D01*
X62141258Y-46089000D01*
X62318742Y-46089000D01*
X62343512Y-46093927D01*
G37*
G36*
X54723512Y-46093927D02*
G01*
X54872812Y-46123624D01*
X55036784Y-46191544D01*
X55184354Y-46290147D01*
X55309853Y-46415646D01*
X55408456Y-46563216D01*
X55476376Y-46727188D01*
X55511000Y-46901259D01*
X55511000Y-47078741D01*
X55476376Y-47252812D01*
X55408456Y-47416784D01*
X55309853Y-47564354D01*
X55184354Y-47689853D01*
X55036784Y-47788456D01*
X54872812Y-47856376D01*
X54723512Y-47886073D01*
X54698742Y-47891000D01*
X54521258Y-47891000D01*
X54496488Y-47886073D01*
X54347188Y-47856376D01*
X54183216Y-47788456D01*
X54035646Y-47689853D01*
X53910147Y-47564354D01*
X53811544Y-47416784D01*
X53743624Y-47252812D01*
X53709000Y-47078741D01*
X53709000Y-46901259D01*
X53743624Y-46727188D01*
X53811544Y-46563216D01*
X53910147Y-46415646D01*
X54035646Y-46290147D01*
X54183216Y-46191544D01*
X54347188Y-46123624D01*
X54496488Y-46093927D01*
X54521258Y-46089000D01*
X54698742Y-46089000D01*
X54723512Y-46093927D01*
G37*
G36*
X73978433Y-44354893D02*
G01*
X74068657Y-44372839D01*
X74174267Y-44416585D01*
X74323621Y-44478449D01*
X74323622Y-44478450D01*
X74553086Y-44631772D01*
X74748228Y-44826914D01*
X74850675Y-44980237D01*
X74901551Y-45056379D01*
X75007161Y-45311344D01*
X75061000Y-45582012D01*
X75061000Y-45857988D01*
X75007161Y-46128656D01*
X74901551Y-46383621D01*
X74880152Y-46415647D01*
X74748228Y-46613086D01*
X74553086Y-46808228D01*
X74413856Y-46901258D01*
X74323621Y-46961551D01*
X74174267Y-47023415D01*
X74068657Y-47067161D01*
X73978433Y-47085107D01*
X73797988Y-47121000D01*
X73522012Y-47121000D01*
X73341567Y-47085107D01*
X73251343Y-47067161D01*
X73145733Y-47023415D01*
X72996379Y-46961551D01*
X72906144Y-46901258D01*
X72766914Y-46808228D01*
X72571772Y-46613086D01*
X72439848Y-46415647D01*
X72418449Y-46383621D01*
X72312839Y-46128656D01*
X72259000Y-45857988D01*
X72259000Y-45582012D01*
X72312839Y-45311344D01*
X72418449Y-45056379D01*
X72469325Y-44980237D01*
X72571772Y-44826914D01*
X72766914Y-44631772D01*
X72996378Y-44478450D01*
X72996379Y-44478449D01*
X73145733Y-44416585D01*
X73251343Y-44372839D01*
X73341567Y-44354893D01*
X73522012Y-44319000D01*
X73797988Y-44319000D01*
X73978433Y-44354893D01*
G37*
G36*
X28258433Y-44354893D02*
G01*
X28348657Y-44372839D01*
X28454267Y-44416585D01*
X28603621Y-44478449D01*
X28603622Y-44478450D01*
X28833086Y-44631772D01*
X29028228Y-44826914D01*
X29130675Y-44980237D01*
X29181551Y-45056379D01*
X29287161Y-45311344D01*
X29341000Y-45582012D01*
X29341000Y-45857988D01*
X29287161Y-46128656D01*
X29181551Y-46383621D01*
X29160152Y-46415647D01*
X29028228Y-46613086D01*
X28833086Y-46808228D01*
X28693856Y-46901258D01*
X28603621Y-46961551D01*
X28454267Y-47023415D01*
X28348657Y-47067161D01*
X28258433Y-47085107D01*
X28077988Y-47121000D01*
X27802012Y-47121000D01*
X27621567Y-47085107D01*
X27531343Y-47067161D01*
X27425733Y-47023415D01*
X27276379Y-46961551D01*
X27186144Y-46901258D01*
X27046914Y-46808228D01*
X26851772Y-46613086D01*
X26719848Y-46415647D01*
X26698449Y-46383621D01*
X26592839Y-46128656D01*
X26539000Y-45857988D01*
X26539000Y-45582012D01*
X26592839Y-45311344D01*
X26698449Y-45056379D01*
X26749325Y-44980237D01*
X26851772Y-44826914D01*
X27046914Y-44631772D01*
X27276378Y-44478450D01*
X27276379Y-44478449D01*
X27425733Y-44416585D01*
X27531343Y-44372839D01*
X27621567Y-44354893D01*
X27802012Y-44319000D01*
X28077988Y-44319000D01*
X28258433Y-44354893D01*
G37*
G36*
X74561000Y-41541000D02*
G01*
X72759000Y-41541000D01*
X72759000Y-39739000D01*
X74561000Y-39739000D01*
X74561000Y-41541000D01*
G37*
G36*
X36303560Y-39991205D02*
G01*
X36338713Y-40001869D01*
X36371110Y-40019186D01*
X36399509Y-40042491D01*
X36422814Y-40070890D01*
X36440131Y-40103287D01*
X36450795Y-40138440D01*
X36455000Y-40181140D01*
X36455000Y-40844860D01*
X36450795Y-40887560D01*
X36440131Y-40922713D01*
X36422814Y-40955110D01*
X36399509Y-40983509D01*
X36371110Y-41006814D01*
X36338713Y-41024131D01*
X36303560Y-41034795D01*
X36260860Y-41039000D01*
X35647140Y-41039000D01*
X35604440Y-41034795D01*
X35569287Y-41024131D01*
X35536890Y-41006814D01*
X35508491Y-40983509D01*
X35485186Y-40955110D01*
X35467869Y-40922713D01*
X35457205Y-40887560D01*
X35453000Y-40844860D01*
X35453000Y-40181140D01*
X35457205Y-40138440D01*
X35467869Y-40103287D01*
X35485186Y-40070890D01*
X35508491Y-40042491D01*
X35536890Y-40019186D01*
X35569287Y-40001869D01*
X35604440Y-39991205D01*
X35647140Y-39987000D01*
X36260860Y-39987000D01*
X36303560Y-39991205D01*
G37*
G36*
X34753560Y-39991205D02*
G01*
X34788713Y-40001869D01*
X34821110Y-40019186D01*
X34849509Y-40042491D01*
X34872814Y-40070890D01*
X34890131Y-40103287D01*
X34900795Y-40138440D01*
X34905000Y-40181140D01*
X34905000Y-40844860D01*
X34900795Y-40887560D01*
X34890131Y-40922713D01*
X34872814Y-40955110D01*
X34849509Y-40983509D01*
X34821110Y-41006814D01*
X34788713Y-41024131D01*
X34753560Y-41034795D01*
X34710860Y-41039000D01*
X34097140Y-41039000D01*
X34054440Y-41034795D01*
X34019287Y-41024131D01*
X33986890Y-41006814D01*
X33958491Y-40983509D01*
X33935186Y-40955110D01*
X33917869Y-40922713D01*
X33907205Y-40887560D01*
X33903000Y-40844860D01*
X33903000Y-40181140D01*
X33907205Y-40138440D01*
X33917869Y-40103287D01*
X33935186Y-40070890D01*
X33958491Y-40042491D01*
X33986890Y-40019186D01*
X34019287Y-40001869D01*
X34054440Y-39991205D01*
X34097140Y-39987000D01*
X34710860Y-39987000D01*
X34753560Y-39991205D01*
G37*
G36*
X38461928Y-38386764D02*
G01*
X38483009Y-38393160D01*
X38502445Y-38403548D01*
X38519476Y-38417524D01*
X38533452Y-38434555D01*
X38543840Y-38453991D01*
X38550236Y-38475072D01*
X38553000Y-38503140D01*
X38553000Y-38966860D01*
X38550236Y-38994928D01*
X38543840Y-39016009D01*
X38533452Y-39035445D01*
X38519476Y-39052476D01*
X38502445Y-39066452D01*
X38483009Y-39076840D01*
X38461928Y-39083236D01*
X38433860Y-39086000D01*
X36620140Y-39086000D01*
X36592072Y-39083236D01*
X36570991Y-39076840D01*
X36551555Y-39066452D01*
X36534524Y-39052476D01*
X36520548Y-39035445D01*
X36510160Y-39016009D01*
X36503764Y-38994928D01*
X36501000Y-38966860D01*
X36501000Y-38503140D01*
X36503764Y-38475072D01*
X36510160Y-38453991D01*
X36520548Y-38434555D01*
X36534524Y-38417524D01*
X36551555Y-38403548D01*
X36570991Y-38393160D01*
X36592072Y-38386764D01*
X36620140Y-38384000D01*
X38433860Y-38384000D01*
X38461928Y-38386764D01*
G37*
G36*
X33511928Y-38386764D02*
G01*
X33533009Y-38393160D01*
X33552445Y-38403548D01*
X33569476Y-38417524D01*
X33583452Y-38434555D01*
X33593840Y-38453991D01*
X33600236Y-38475072D01*
X33603000Y-38503140D01*
X33603000Y-38966860D01*
X33600236Y-38994928D01*
X33593840Y-39016009D01*
X33583452Y-39035445D01*
X33569476Y-39052476D01*
X33552445Y-39066452D01*
X33533009Y-39076840D01*
X33511928Y-39083236D01*
X33483860Y-39086000D01*
X31670140Y-39086000D01*
X31642072Y-39083236D01*
X31620991Y-39076840D01*
X31601555Y-39066452D01*
X31584524Y-39052476D01*
X31570548Y-39035445D01*
X31560160Y-39016009D01*
X31553764Y-38994928D01*
X31551000Y-38966860D01*
X31551000Y-38503140D01*
X31553764Y-38475072D01*
X31560160Y-38453991D01*
X31570548Y-38434555D01*
X31584524Y-38417524D01*
X31601555Y-38403548D01*
X31620991Y-38393160D01*
X31642072Y-38386764D01*
X31670140Y-38384000D01*
X33483860Y-38384000D01*
X33511928Y-38386764D01*
G37*
G36*
X73773512Y-37203927D02*
G01*
X73922812Y-37233624D01*
X74086784Y-37301544D01*
X74234354Y-37400147D01*
X74359853Y-37525646D01*
X74458456Y-37673216D01*
X74526376Y-37837188D01*
X74561000Y-38011259D01*
X74561000Y-38188741D01*
X74526376Y-38362812D01*
X74458456Y-38526784D01*
X74359853Y-38674354D01*
X74234354Y-38799853D01*
X74086784Y-38898456D01*
X73922812Y-38966376D01*
X73779268Y-38994928D01*
X73748742Y-39001000D01*
X73571258Y-39001000D01*
X73540732Y-38994928D01*
X73397188Y-38966376D01*
X73233216Y-38898456D01*
X73085646Y-38799853D01*
X72960147Y-38674354D01*
X72861544Y-38526784D01*
X72793624Y-38362812D01*
X72759000Y-38188741D01*
X72759000Y-38011259D01*
X72793624Y-37837188D01*
X72861544Y-37673216D01*
X72960147Y-37525646D01*
X73085646Y-37400147D01*
X73233216Y-37301544D01*
X73397188Y-37233624D01*
X73546488Y-37203927D01*
X73571258Y-37199000D01*
X73748742Y-37199000D01*
X73773512Y-37203927D01*
G37*
G36*
X33511928Y-37116764D02*
G01*
X33533009Y-37123160D01*
X33552445Y-37133548D01*
X33569476Y-37147524D01*
X33583452Y-37164555D01*
X33593840Y-37183991D01*
X33600236Y-37205072D01*
X33603000Y-37233140D01*
X33603000Y-37696860D01*
X33600236Y-37724928D01*
X33593840Y-37746009D01*
X33583452Y-37765445D01*
X33569476Y-37782476D01*
X33552445Y-37796452D01*
X33533009Y-37806840D01*
X33511928Y-37813236D01*
X33483860Y-37816000D01*
X31670140Y-37816000D01*
X31642072Y-37813236D01*
X31620991Y-37806840D01*
X31601555Y-37796452D01*
X31584524Y-37782476D01*
X31570548Y-37765445D01*
X31560160Y-37746009D01*
X31553764Y-37724928D01*
X31551000Y-37696860D01*
X31551000Y-37233140D01*
X31553764Y-37205072D01*
X31560160Y-37183991D01*
X31570548Y-37164555D01*
X31584524Y-37147524D01*
X31601555Y-37133548D01*
X31620991Y-37123160D01*
X31642072Y-37116764D01*
X31670140Y-37114000D01*
X33483860Y-37114000D01*
X33511928Y-37116764D01*
G37*
G36*
X38461928Y-37116764D02*
G01*
X38483009Y-37123160D01*
X38502445Y-37133548D01*
X38519476Y-37147524D01*
X38533452Y-37164555D01*
X38543840Y-37183991D01*
X38550236Y-37205072D01*
X38553000Y-37233140D01*
X38553000Y-37696860D01*
X38550236Y-37724928D01*
X38543840Y-37746009D01*
X38533452Y-37765445D01*
X38519476Y-37782476D01*
X38502445Y-37796452D01*
X38483009Y-37806840D01*
X38461928Y-37813236D01*
X38433860Y-37816000D01*
X36620140Y-37816000D01*
X36592072Y-37813236D01*
X36570991Y-37806840D01*
X36551555Y-37796452D01*
X36534524Y-37782476D01*
X36520548Y-37765445D01*
X36510160Y-37746009D01*
X36503764Y-37724928D01*
X36501000Y-37696860D01*
X36501000Y-37233140D01*
X36503764Y-37205072D01*
X36510160Y-37183991D01*
X36520548Y-37164555D01*
X36534524Y-37147524D01*
X36551555Y-37133548D01*
X36570991Y-37123160D01*
X36592072Y-37116764D01*
X36620140Y-37114000D01*
X38433860Y-37114000D01*
X38461928Y-37116764D01*
G37*
G36*
X38461928Y-35846764D02*
G01*
X38483009Y-35853160D01*
X38502445Y-35863548D01*
X38519476Y-35877524D01*
X38533452Y-35894555D01*
X38543840Y-35913991D01*
X38550236Y-35935072D01*
X38553000Y-35963140D01*
X38553000Y-36426860D01*
X38550236Y-36454928D01*
X38543840Y-36476009D01*
X38533452Y-36495445D01*
X38519476Y-36512476D01*
X38502445Y-36526452D01*
X38483009Y-36536840D01*
X38461928Y-36543236D01*
X38433860Y-36546000D01*
X36620140Y-36546000D01*
X36592072Y-36543236D01*
X36570991Y-36536840D01*
X36551555Y-36526452D01*
X36534524Y-36512476D01*
X36520548Y-36495445D01*
X36510160Y-36476009D01*
X36503764Y-36454928D01*
X36501000Y-36426860D01*
X36501000Y-35963140D01*
X36503764Y-35935072D01*
X36510160Y-35913991D01*
X36520548Y-35894555D01*
X36534524Y-35877524D01*
X36551555Y-35863548D01*
X36570991Y-35853160D01*
X36592072Y-35846764D01*
X36620140Y-35844000D01*
X38433860Y-35844000D01*
X38461928Y-35846764D01*
G37*
G36*
X33511928Y-35846764D02*
G01*
X33533009Y-35853160D01*
X33552445Y-35863548D01*
X33569476Y-35877524D01*
X33583452Y-35894555D01*
X33593840Y-35913991D01*
X33600236Y-35935072D01*
X33603000Y-35963140D01*
X33603000Y-36426860D01*
X33600236Y-36454928D01*
X33593840Y-36476009D01*
X33583452Y-36495445D01*
X33569476Y-36512476D01*
X33552445Y-36526452D01*
X33533009Y-36536840D01*
X33511928Y-36543236D01*
X33483860Y-36546000D01*
X31670140Y-36546000D01*
X31642072Y-36543236D01*
X31620991Y-36536840D01*
X31601555Y-36526452D01*
X31584524Y-36512476D01*
X31570548Y-36495445D01*
X31560160Y-36476009D01*
X31553764Y-36454928D01*
X31551000Y-36426860D01*
X31551000Y-35963140D01*
X31553764Y-35935072D01*
X31560160Y-35913991D01*
X31570548Y-35894555D01*
X31584524Y-35877524D01*
X31601555Y-35863548D01*
X31620991Y-35853160D01*
X31642072Y-35846764D01*
X31670140Y-35844000D01*
X33483860Y-35844000D01*
X33511928Y-35846764D01*
G37*
G36*
X73773512Y-34663927D02*
G01*
X73922812Y-34693624D01*
X74086784Y-34761544D01*
X74234354Y-34860147D01*
X74359853Y-34985646D01*
X74458456Y-35133216D01*
X74526376Y-35297188D01*
X74561000Y-35471259D01*
X74561000Y-35648741D01*
X74526376Y-35822812D01*
X74458456Y-35986784D01*
X74359853Y-36134354D01*
X74234354Y-36259853D01*
X74086784Y-36358456D01*
X73922812Y-36426376D01*
X73779268Y-36454928D01*
X73748742Y-36461000D01*
X73571258Y-36461000D01*
X73540732Y-36454928D01*
X73397188Y-36426376D01*
X73233216Y-36358456D01*
X73085646Y-36259853D01*
X72960147Y-36134354D01*
X72861544Y-35986784D01*
X72793624Y-35822812D01*
X72759000Y-35648741D01*
X72759000Y-35471259D01*
X72793624Y-35297188D01*
X72861544Y-35133216D01*
X72960147Y-34985646D01*
X73085646Y-34860147D01*
X73233216Y-34761544D01*
X73397188Y-34693624D01*
X73546488Y-34663927D01*
X73571258Y-34659000D01*
X73748742Y-34659000D01*
X73773512Y-34663927D01*
G37*
G36*
X33511928Y-34576764D02*
G01*
X33533009Y-34583160D01*
X33552445Y-34593548D01*
X33569476Y-34607524D01*
X33583452Y-34624555D01*
X33593840Y-34643991D01*
X33600236Y-34665072D01*
X33603000Y-34693140D01*
X33603000Y-35156860D01*
X33600236Y-35184928D01*
X33593840Y-35206009D01*
X33583452Y-35225445D01*
X33569476Y-35242476D01*
X33552445Y-35256452D01*
X33533009Y-35266840D01*
X33511928Y-35273236D01*
X33483860Y-35276000D01*
X31670140Y-35276000D01*
X31642072Y-35273236D01*
X31620991Y-35266840D01*
X31601555Y-35256452D01*
X31584524Y-35242476D01*
X31570548Y-35225445D01*
X31560160Y-35206009D01*
X31553764Y-35184928D01*
X31551000Y-35156860D01*
X31551000Y-34693140D01*
X31553764Y-34665072D01*
X31560160Y-34643991D01*
X31570548Y-34624555D01*
X31584524Y-34607524D01*
X31601555Y-34593548D01*
X31620991Y-34583160D01*
X31642072Y-34576764D01*
X31670140Y-34574000D01*
X33483860Y-34574000D01*
X33511928Y-34576764D01*
G37*
G36*
X38461928Y-34576764D02*
G01*
X38483009Y-34583160D01*
X38502445Y-34593548D01*
X38519476Y-34607524D01*
X38533452Y-34624555D01*
X38543840Y-34643991D01*
X38550236Y-34665072D01*
X38553000Y-34693140D01*
X38553000Y-35156860D01*
X38550236Y-35184928D01*
X38543840Y-35206009D01*
X38533452Y-35225445D01*
X38519476Y-35242476D01*
X38502445Y-35256452D01*
X38483009Y-35266840D01*
X38461928Y-35273236D01*
X38433860Y-35276000D01*
X36620140Y-35276000D01*
X36592072Y-35273236D01*
X36570991Y-35266840D01*
X36551555Y-35256452D01*
X36534524Y-35242476D01*
X36520548Y-35225445D01*
X36510160Y-35206009D01*
X36503764Y-35184928D01*
X36501000Y-35156860D01*
X36501000Y-34693140D01*
X36503764Y-34665072D01*
X36510160Y-34643991D01*
X36520548Y-34624555D01*
X36534524Y-34607524D01*
X36551555Y-34593548D01*
X36570991Y-34583160D01*
X36592072Y-34576764D01*
X36620140Y-34574000D01*
X38433860Y-34574000D01*
X38461928Y-34576764D01*
G37*
G36*
X73773512Y-32123927D02*
G01*
X73922812Y-32153624D01*
X74086784Y-32221544D01*
X74234354Y-32320147D01*
X74359853Y-32445646D01*
X74458456Y-32593216D01*
X74526376Y-32757188D01*
X74561000Y-32931259D01*
X74561000Y-33108741D01*
X74526376Y-33282812D01*
X74458456Y-33446784D01*
X74359853Y-33594354D01*
X74234354Y-33719853D01*
X74086784Y-33818456D01*
X73922812Y-33886376D01*
X73773512Y-33916073D01*
X73748742Y-33921000D01*
X73571258Y-33921000D01*
X73546488Y-33916073D01*
X73397188Y-33886376D01*
X73233216Y-33818456D01*
X73085646Y-33719853D01*
X72960147Y-33594354D01*
X72861544Y-33446784D01*
X72793624Y-33282812D01*
X72759000Y-33108741D01*
X72759000Y-32931259D01*
X72793624Y-32757188D01*
X72861544Y-32593216D01*
X72960147Y-32445646D01*
X73085646Y-32320147D01*
X73233216Y-32221544D01*
X73397188Y-32153624D01*
X73546488Y-32123927D01*
X73571258Y-32119000D01*
X73748742Y-32119000D01*
X73773512Y-32123927D01*
G37*
G36*
X36277560Y-32752205D02*
G01*
X36312713Y-32762869D01*
X36345110Y-32780186D01*
X36373509Y-32803491D01*
X36396814Y-32831890D01*
X36414131Y-32864287D01*
X36424795Y-32899440D01*
X36429000Y-32942140D01*
X36429000Y-33605860D01*
X36424795Y-33648560D01*
X36414131Y-33683713D01*
X36396814Y-33716110D01*
X36373509Y-33744509D01*
X36345110Y-33767814D01*
X36312713Y-33785131D01*
X36277560Y-33795795D01*
X36234860Y-33800000D01*
X35621140Y-33800000D01*
X35578440Y-33795795D01*
X35543287Y-33785131D01*
X35510890Y-33767814D01*
X35482491Y-33744509D01*
X35459186Y-33716110D01*
X35441869Y-33683713D01*
X35431205Y-33648560D01*
X35427000Y-33605860D01*
X35427000Y-32942140D01*
X35431205Y-32899440D01*
X35441869Y-32864287D01*
X35459186Y-32831890D01*
X35482491Y-32803491D01*
X35510890Y-32780186D01*
X35543287Y-32762869D01*
X35578440Y-32752205D01*
X35621140Y-32748000D01*
X36234860Y-32748000D01*
X36277560Y-32752205D01*
G37*
G36*
X37827560Y-32752205D02*
G01*
X37862713Y-32762869D01*
X37895110Y-32780186D01*
X37923509Y-32803491D01*
X37946814Y-32831890D01*
X37964131Y-32864287D01*
X37974795Y-32899440D01*
X37979000Y-32942140D01*
X37979000Y-33605860D01*
X37974795Y-33648560D01*
X37964131Y-33683713D01*
X37946814Y-33716110D01*
X37923509Y-33744509D01*
X37895110Y-33767814D01*
X37862713Y-33785131D01*
X37827560Y-33795795D01*
X37784860Y-33800000D01*
X37171140Y-33800000D01*
X37128440Y-33795795D01*
X37093287Y-33785131D01*
X37060890Y-33767814D01*
X37032491Y-33744509D01*
X37009186Y-33716110D01*
X36991869Y-33683713D01*
X36981205Y-33648560D01*
X36977000Y-33605860D01*
X36977000Y-32942140D01*
X36981205Y-32899440D01*
X36991869Y-32864287D01*
X37009186Y-32831890D01*
X37032491Y-32803491D01*
X37060890Y-32780186D01*
X37093287Y-32762869D01*
X37128440Y-32752205D01*
X37171140Y-32748000D01*
X37784860Y-32748000D01*
X37827560Y-32752205D01*
G37*
G36*
X73978433Y-26574893D02*
G01*
X74068657Y-26592839D01*
X74174267Y-26636585D01*
X74323621Y-26698449D01*
X74323622Y-26698450D01*
X74553086Y-26851772D01*
X74748228Y-27046914D01*
X74850675Y-27200237D01*
X74901551Y-27276379D01*
X75007161Y-27531344D01*
X75061000Y-27802012D01*
X75061000Y-28077988D01*
X75007161Y-28348656D01*
X74901551Y-28603621D01*
X74901550Y-28603622D01*
X74748228Y-28833086D01*
X74553086Y-29028228D01*
X74399763Y-29130675D01*
X74323621Y-29181551D01*
X74174267Y-29243415D01*
X74068657Y-29287161D01*
X73978433Y-29305107D01*
X73797988Y-29341000D01*
X73522012Y-29341000D01*
X73341567Y-29305107D01*
X73251343Y-29287161D01*
X73145733Y-29243415D01*
X72996379Y-29181551D01*
X72920237Y-29130675D01*
X72766914Y-29028228D01*
X72571772Y-28833086D01*
X72418450Y-28603622D01*
X72418449Y-28603621D01*
X72312839Y-28348656D01*
X72259000Y-28077988D01*
X72259000Y-27802012D01*
X72312839Y-27531344D01*
X72418449Y-27276379D01*
X72469325Y-27200237D01*
X72571772Y-27046914D01*
X72766914Y-26851772D01*
X72996378Y-26698450D01*
X72996379Y-26698449D01*
X73145733Y-26636585D01*
X73251343Y-26592839D01*
X73341567Y-26574893D01*
X73522012Y-26539000D01*
X73797988Y-26539000D01*
X73978433Y-26574893D01*
G37*
G36*
X28258433Y-26574893D02*
G01*
X28348657Y-26592839D01*
X28454267Y-26636585D01*
X28603621Y-26698449D01*
X28603622Y-26698450D01*
X28833086Y-26851772D01*
X29028228Y-27046914D01*
X29130675Y-27200237D01*
X29181551Y-27276379D01*
X29287161Y-27531344D01*
X29341000Y-27802012D01*
X29341000Y-28077988D01*
X29287161Y-28348656D01*
X29181551Y-28603621D01*
X29181550Y-28603622D01*
X29028228Y-28833086D01*
X28833086Y-29028228D01*
X28679763Y-29130675D01*
X28603621Y-29181551D01*
X28454267Y-29243415D01*
X28348657Y-29287161D01*
X28258433Y-29305107D01*
X28077988Y-29341000D01*
X27802012Y-29341000D01*
X27621567Y-29305107D01*
X27531343Y-29287161D01*
X27425733Y-29243415D01*
X27276379Y-29181551D01*
X27200237Y-29130675D01*
X27046914Y-29028228D01*
X26851772Y-28833086D01*
X26698450Y-28603622D01*
X26698449Y-28603621D01*
X26592839Y-28348656D01*
X26539000Y-28077988D01*
X26539000Y-27802012D01*
X26592839Y-27531344D01*
X26698449Y-27276379D01*
X26749325Y-27200237D01*
X26851772Y-27046914D01*
X27046914Y-26851772D01*
X27276378Y-26698450D01*
X27276379Y-26698449D01*
X27425733Y-26636585D01*
X27531343Y-26592839D01*
X27621567Y-26574893D01*
X27802012Y-26539000D01*
X28077988Y-26539000D01*
X28258433Y-26574893D01*
G37*
G36*
X42023512Y-25773927D02*
G01*
X42172812Y-25803624D01*
X42336784Y-25871544D01*
X42484354Y-25970147D01*
X42609853Y-26095646D01*
X42708456Y-26243216D01*
X42776376Y-26407188D01*
X42811000Y-26581259D01*
X42811000Y-26758741D01*
X42776376Y-26932812D01*
X42708456Y-27096784D01*
X42609853Y-27244354D01*
X42484354Y-27369853D01*
X42336784Y-27468456D01*
X42172812Y-27536376D01*
X42023512Y-27566073D01*
X41998742Y-27571000D01*
X41821258Y-27571000D01*
X41796488Y-27566073D01*
X41647188Y-27536376D01*
X41483216Y-27468456D01*
X41335646Y-27369853D01*
X41210147Y-27244354D01*
X41111544Y-27096784D01*
X41043624Y-26932812D01*
X41009000Y-26758741D01*
X41009000Y-26581259D01*
X41043624Y-26407188D01*
X41111544Y-26243216D01*
X41210147Y-26095646D01*
X41335646Y-25970147D01*
X41483216Y-25871544D01*
X41647188Y-25803624D01*
X41796488Y-25773927D01*
X41821258Y-25769000D01*
X41998742Y-25769000D01*
X42023512Y-25773927D01*
G37*
G36*
X44563512Y-25773927D02*
G01*
X44712812Y-25803624D01*
X44876784Y-25871544D01*
X45024354Y-25970147D01*
X45149853Y-26095646D01*
X45248456Y-26243216D01*
X45316376Y-26407188D01*
X45351000Y-26581259D01*
X45351000Y-26758741D01*
X45316376Y-26932812D01*
X45248456Y-27096784D01*
X45149853Y-27244354D01*
X45024354Y-27369853D01*
X44876784Y-27468456D01*
X44712812Y-27536376D01*
X44563512Y-27566073D01*
X44538742Y-27571000D01*
X44361258Y-27571000D01*
X44336488Y-27566073D01*
X44187188Y-27536376D01*
X44023216Y-27468456D01*
X43875646Y-27369853D01*
X43750147Y-27244354D01*
X43651544Y-27096784D01*
X43583624Y-26932812D01*
X43549000Y-26758741D01*
X43549000Y-26581259D01*
X43583624Y-26407188D01*
X43651544Y-26243216D01*
X43750147Y-26095646D01*
X43875646Y-25970147D01*
X44023216Y-25871544D01*
X44187188Y-25803624D01*
X44336488Y-25773927D01*
X44361258Y-25769000D01*
X44538742Y-25769000D01*
X44563512Y-25773927D01*
G37*
G36*
X47103512Y-25773927D02*
G01*
X47252812Y-25803624D01*
X47416784Y-25871544D01*
X47564354Y-25970147D01*
X47689853Y-26095646D01*
X47788456Y-26243216D01*
X47856376Y-26407188D01*
X47891000Y-26581259D01*
X47891000Y-26758741D01*
X47856376Y-26932812D01*
X47788456Y-27096784D01*
X47689853Y-27244354D01*
X47564354Y-27369853D01*
X47416784Y-27468456D01*
X47252812Y-27536376D01*
X47103512Y-27566073D01*
X47078742Y-27571000D01*
X46901258Y-27571000D01*
X46876488Y-27566073D01*
X46727188Y-27536376D01*
X46563216Y-27468456D01*
X46415646Y-27369853D01*
X46290147Y-27244354D01*
X46191544Y-27096784D01*
X46123624Y-26932812D01*
X46089000Y-26758741D01*
X46089000Y-26581259D01*
X46123624Y-26407188D01*
X46191544Y-26243216D01*
X46290147Y-26095646D01*
X46415646Y-25970147D01*
X46563216Y-25871544D01*
X46727188Y-25803624D01*
X46876488Y-25773927D01*
X46901258Y-25769000D01*
X47078742Y-25769000D01*
X47103512Y-25773927D01*
G37*
G36*
X52183512Y-25773927D02*
G01*
X52332812Y-25803624D01*
X52496784Y-25871544D01*
X52644354Y-25970147D01*
X52769853Y-26095646D01*
X52868456Y-26243216D01*
X52936376Y-26407188D01*
X52971000Y-26581259D01*
X52971000Y-26758741D01*
X52936376Y-26932812D01*
X52868456Y-27096784D01*
X52769853Y-27244354D01*
X52644354Y-27369853D01*
X52496784Y-27468456D01*
X52332812Y-27536376D01*
X52183512Y-27566073D01*
X52158742Y-27571000D01*
X51981258Y-27571000D01*
X51956488Y-27566073D01*
X51807188Y-27536376D01*
X51643216Y-27468456D01*
X51495646Y-27369853D01*
X51370147Y-27244354D01*
X51271544Y-27096784D01*
X51203624Y-26932812D01*
X51169000Y-26758741D01*
X51169000Y-26581259D01*
X51203624Y-26407188D01*
X51271544Y-26243216D01*
X51370147Y-26095646D01*
X51495646Y-25970147D01*
X51643216Y-25871544D01*
X51807188Y-25803624D01*
X51956488Y-25773927D01*
X51981258Y-25769000D01*
X52158742Y-25769000D01*
X52183512Y-25773927D01*
G37*
G36*
X54723512Y-25773927D02*
G01*
X54872812Y-25803624D01*
X55036784Y-25871544D01*
X55184354Y-25970147D01*
X55309853Y-26095646D01*
X55408456Y-26243216D01*
X55476376Y-26407188D01*
X55511000Y-26581259D01*
X55511000Y-26758741D01*
X55476376Y-26932812D01*
X55408456Y-27096784D01*
X55309853Y-27244354D01*
X55184354Y-27369853D01*
X55036784Y-27468456D01*
X54872812Y-27536376D01*
X54723512Y-27566073D01*
X54698742Y-27571000D01*
X54521258Y-27571000D01*
X54496488Y-27566073D01*
X54347188Y-27536376D01*
X54183216Y-27468456D01*
X54035646Y-27369853D01*
X53910147Y-27244354D01*
X53811544Y-27096784D01*
X53743624Y-26932812D01*
X53709000Y-26758741D01*
X53709000Y-26581259D01*
X53743624Y-26407188D01*
X53811544Y-26243216D01*
X53910147Y-26095646D01*
X54035646Y-25970147D01*
X54183216Y-25871544D01*
X54347188Y-25803624D01*
X54496488Y-25773927D01*
X54521258Y-25769000D01*
X54698742Y-25769000D01*
X54723512Y-25773927D01*
G37*
G36*
X57263512Y-25773927D02*
G01*
X57412812Y-25803624D01*
X57576784Y-25871544D01*
X57724354Y-25970147D01*
X57849853Y-26095646D01*
X57948456Y-26243216D01*
X58016376Y-26407188D01*
X58051000Y-26581259D01*
X58051000Y-26758741D01*
X58016376Y-26932812D01*
X57948456Y-27096784D01*
X57849853Y-27244354D01*
X57724354Y-27369853D01*
X57576784Y-27468456D01*
X57412812Y-27536376D01*
X57263512Y-27566073D01*
X57238742Y-27571000D01*
X57061258Y-27571000D01*
X57036488Y-27566073D01*
X56887188Y-27536376D01*
X56723216Y-27468456D01*
X56575646Y-27369853D01*
X56450147Y-27244354D01*
X56351544Y-27096784D01*
X56283624Y-26932812D01*
X56249000Y-26758741D01*
X56249000Y-26581259D01*
X56283624Y-26407188D01*
X56351544Y-26243216D01*
X56450147Y-26095646D01*
X56575646Y-25970147D01*
X56723216Y-25871544D01*
X56887188Y-25803624D01*
X57036488Y-25773927D01*
X57061258Y-25769000D01*
X57238742Y-25769000D01*
X57263512Y-25773927D01*
G37*
G36*
X59803512Y-25773927D02*
G01*
X59952812Y-25803624D01*
X60116784Y-25871544D01*
X60264354Y-25970147D01*
X60389853Y-26095646D01*
X60488456Y-26243216D01*
X60556376Y-26407188D01*
X60591000Y-26581259D01*
X60591000Y-26758741D01*
X60556376Y-26932812D01*
X60488456Y-27096784D01*
X60389853Y-27244354D01*
X60264354Y-27369853D01*
X60116784Y-27468456D01*
X59952812Y-27536376D01*
X59803512Y-27566073D01*
X59778742Y-27571000D01*
X59601258Y-27571000D01*
X59576488Y-27566073D01*
X59427188Y-27536376D01*
X59263216Y-27468456D01*
X59115646Y-27369853D01*
X58990147Y-27244354D01*
X58891544Y-27096784D01*
X58823624Y-26932812D01*
X58789000Y-26758741D01*
X58789000Y-26581259D01*
X58823624Y-26407188D01*
X58891544Y-26243216D01*
X58990147Y-26095646D01*
X59115646Y-25970147D01*
X59263216Y-25871544D01*
X59427188Y-25803624D01*
X59576488Y-25773927D01*
X59601258Y-25769000D01*
X59778742Y-25769000D01*
X59803512Y-25773927D01*
G37*
G36*
X62343512Y-25773927D02*
G01*
X62492812Y-25803624D01*
X62656784Y-25871544D01*
X62804354Y-25970147D01*
X62929853Y-26095646D01*
X63028456Y-26243216D01*
X63096376Y-26407188D01*
X63131000Y-26581259D01*
X63131000Y-26758741D01*
X63096376Y-26932812D01*
X63028456Y-27096784D01*
X62929853Y-27244354D01*
X62804354Y-27369853D01*
X62656784Y-27468456D01*
X62492812Y-27536376D01*
X62343512Y-27566073D01*
X62318742Y-27571000D01*
X62141258Y-27571000D01*
X62116488Y-27566073D01*
X61967188Y-27536376D01*
X61803216Y-27468456D01*
X61655646Y-27369853D01*
X61530147Y-27244354D01*
X61431544Y-27096784D01*
X61363624Y-26932812D01*
X61329000Y-26758741D01*
X61329000Y-26581259D01*
X61363624Y-26407188D01*
X61431544Y-26243216D01*
X61530147Y-26095646D01*
X61655646Y-25970147D01*
X61803216Y-25871544D01*
X61967188Y-25803624D01*
X62116488Y-25773927D01*
X62141258Y-25769000D01*
X62318742Y-25769000D01*
X62343512Y-25773927D01*
G37*
G36*
X64883512Y-25773927D02*
G01*
X65032812Y-25803624D01*
X65196784Y-25871544D01*
X65344354Y-25970147D01*
X65469853Y-26095646D01*
X65568456Y-26243216D01*
X65636376Y-26407188D01*
X65671000Y-26581259D01*
X65671000Y-26758741D01*
X65636376Y-26932812D01*
X65568456Y-27096784D01*
X65469853Y-27244354D01*
X65344354Y-27369853D01*
X65196784Y-27468456D01*
X65032812Y-27536376D01*
X64883512Y-27566073D01*
X64858742Y-27571000D01*
X64681258Y-27571000D01*
X64656488Y-27566073D01*
X64507188Y-27536376D01*
X64343216Y-27468456D01*
X64195646Y-27369853D01*
X64070147Y-27244354D01*
X63971544Y-27096784D01*
X63903624Y-26932812D01*
X63869000Y-26758741D01*
X63869000Y-26581259D01*
X63903624Y-26407188D01*
X63971544Y-26243216D01*
X64070147Y-26095646D01*
X64195646Y-25970147D01*
X64343216Y-25871544D01*
X64507188Y-25803624D01*
X64656488Y-25773927D01*
X64681258Y-25769000D01*
X64858742Y-25769000D01*
X64883512Y-25773927D01*
G37*
G36*
X67423512Y-25773927D02*
G01*
X67572812Y-25803624D01*
X67736784Y-25871544D01*
X67884354Y-25970147D01*
X68009853Y-26095646D01*
X68108456Y-26243216D01*
X68176376Y-26407188D01*
X68211000Y-26581259D01*
X68211000Y-26758741D01*
X68176376Y-26932812D01*
X68108456Y-27096784D01*
X68009853Y-27244354D01*
X67884354Y-27369853D01*
X67736784Y-27468456D01*
X67572812Y-27536376D01*
X67423512Y-27566073D01*
X67398742Y-27571000D01*
X67221258Y-27571000D01*
X67196488Y-27566073D01*
X67047188Y-27536376D01*
X66883216Y-27468456D01*
X66735646Y-27369853D01*
X66610147Y-27244354D01*
X66511544Y-27096784D01*
X66443624Y-26932812D01*
X66409000Y-26758741D01*
X66409000Y-26581259D01*
X66443624Y-26407188D01*
X66511544Y-26243216D01*
X66610147Y-26095646D01*
X66735646Y-25970147D01*
X66883216Y-25871544D01*
X67047188Y-25803624D01*
X67196488Y-25773927D01*
X67221258Y-25769000D01*
X67398742Y-25769000D01*
X67423512Y-25773927D01*
G37*
G36*
X70751000Y-27571000D02*
G01*
X68949000Y-27571000D01*
X68949000Y-25769000D01*
X70751000Y-25769000D01*
X70751000Y-27571000D01*
G37*
G36*
X49643512Y-25773927D02*
G01*
X49792812Y-25803624D01*
X49956784Y-25871544D01*
X50104354Y-25970147D01*
X50229853Y-26095646D01*
X50328456Y-26243216D01*
X50396376Y-26407188D01*
X50431000Y-26581259D01*
X50431000Y-26758741D01*
X50396376Y-26932812D01*
X50328456Y-27096784D01*
X50229853Y-27244354D01*
X50104354Y-27369853D01*
X49956784Y-27468456D01*
X49792812Y-27536376D01*
X49643512Y-27566073D01*
X49618742Y-27571000D01*
X49441258Y-27571000D01*
X49416488Y-27566073D01*
X49267188Y-27536376D01*
X49103216Y-27468456D01*
X48955646Y-27369853D01*
X48830147Y-27244354D01*
X48731544Y-27096784D01*
X48663624Y-26932812D01*
X48629000Y-26758741D01*
X48629000Y-26581259D01*
X48663624Y-26407188D01*
X48731544Y-26243216D01*
X48830147Y-26095646D01*
X48955646Y-25970147D01*
X49103216Y-25871544D01*
X49267188Y-25803624D01*
X49416488Y-25773927D01*
X49441258Y-25769000D01*
X49618742Y-25769000D01*
X49643512Y-25773927D01*
G37*
M02*
