G04 #@! TF.GenerationSoftware,KiCad,Pcbnew,(5.1.5)-3*
G04 #@! TF.CreationDate,2020-04-05T19:30:44-04:00*
G04 #@! TF.ProjectId,STM8Feather,53544d38-4665-4617-9468-65722e6b6963,rev?*
G04 #@! TF.SameCoordinates,Original*
G04 #@! TF.FileFunction,Legend,Top*
G04 #@! TF.FilePolarity,Positive*
%FSLAX46Y46*%
G04 Gerber Fmt 4.6, Leading zero omitted, Abs format (unit mm)*
G04 Created by KiCad (PCBNEW (5.1.5)-3) date 2020-04-05 19:30:44*
%MOMM*%
%LPD*%
G04 APERTURE LIST*
%ADD10C,0.150000*%
%ADD11C,0.100000*%
%ADD12C,0.120000*%
%ADD13C,2.802000*%
%ADD14R,1.802000X1.802000*%
%ADD15O,1.802000X1.802000*%
%ADD16R,1.302000X1.002000*%
%ADD17R,1.482000X0.552000*%
%ADD18R,1.652000X1.527000*%
%ADD19R,1.402000X1.752000*%
%ADD20R,2.002000X1.902000*%
%ADD21R,2.002000X1.102000*%
%ADD22R,1.162000X0.752000*%
%ADD23R,2.102000X4.602000*%
G04 APERTURE END LIST*
D10*
X66064761Y-42187142D02*
X66112380Y-42044285D01*
X66112380Y-41806190D01*
X66064761Y-41710952D01*
X66017142Y-41663333D01*
X65921904Y-41615714D01*
X65826666Y-41615714D01*
X65731428Y-41663333D01*
X65683809Y-41710952D01*
X65636190Y-41806190D01*
X65588571Y-41996666D01*
X65540952Y-42091904D01*
X65493333Y-42139523D01*
X65398095Y-42187142D01*
X65302857Y-42187142D01*
X65207619Y-42139523D01*
X65160000Y-42091904D01*
X65112380Y-41996666D01*
X65112380Y-41758571D01*
X65160000Y-41615714D01*
X65112380Y-41330000D02*
X65112380Y-40758571D01*
X66112380Y-41044285D02*
X65112380Y-41044285D01*
X66112380Y-40425238D02*
X65112380Y-40425238D01*
X65826666Y-40091904D01*
X65112380Y-39758571D01*
X66112380Y-39758571D01*
X65540952Y-39139523D02*
X65493333Y-39234761D01*
X65445714Y-39282380D01*
X65350476Y-39330000D01*
X65302857Y-39330000D01*
X65207619Y-39282380D01*
X65160000Y-39234761D01*
X65112380Y-39139523D01*
X65112380Y-38949047D01*
X65160000Y-38853809D01*
X65207619Y-38806190D01*
X65302857Y-38758571D01*
X65350476Y-38758571D01*
X65445714Y-38806190D01*
X65493333Y-38853809D01*
X65540952Y-38949047D01*
X65540952Y-39139523D01*
X65588571Y-39234761D01*
X65636190Y-39282380D01*
X65731428Y-39330000D01*
X65921904Y-39330000D01*
X66017142Y-39282380D01*
X66064761Y-39234761D01*
X66112380Y-39139523D01*
X66112380Y-38949047D01*
X66064761Y-38853809D01*
X66017142Y-38806190D01*
X65921904Y-38758571D01*
X65731428Y-38758571D01*
X65636190Y-38806190D01*
X65588571Y-38853809D01*
X65540952Y-38949047D01*
X66064761Y-38377619D02*
X66112380Y-38234761D01*
X66112380Y-37996666D01*
X66064761Y-37901428D01*
X66017142Y-37853809D01*
X65921904Y-37806190D01*
X65826666Y-37806190D01*
X65731428Y-37853809D01*
X65683809Y-37901428D01*
X65636190Y-37996666D01*
X65588571Y-38187142D01*
X65540952Y-38282380D01*
X65493333Y-38330000D01*
X65398095Y-38377619D01*
X65302857Y-38377619D01*
X65207619Y-38330000D01*
X65160000Y-38282380D01*
X65112380Y-38187142D01*
X65112380Y-37949047D01*
X65160000Y-37806190D01*
X65588571Y-36282380D02*
X65588571Y-36615714D01*
X66112380Y-36615714D02*
X65112380Y-36615714D01*
X65112380Y-36139523D01*
X66064761Y-35377619D02*
X66112380Y-35472857D01*
X66112380Y-35663333D01*
X66064761Y-35758571D01*
X65969523Y-35806190D01*
X65588571Y-35806190D01*
X65493333Y-35758571D01*
X65445714Y-35663333D01*
X65445714Y-35472857D01*
X65493333Y-35377619D01*
X65588571Y-35330000D01*
X65683809Y-35330000D01*
X65779047Y-35806190D01*
X66112380Y-34472857D02*
X65588571Y-34472857D01*
X65493333Y-34520476D01*
X65445714Y-34615714D01*
X65445714Y-34806190D01*
X65493333Y-34901428D01*
X66064761Y-34472857D02*
X66112380Y-34568095D01*
X66112380Y-34806190D01*
X66064761Y-34901428D01*
X65969523Y-34949047D01*
X65874285Y-34949047D01*
X65779047Y-34901428D01*
X65731428Y-34806190D01*
X65731428Y-34568095D01*
X65683809Y-34472857D01*
X65445714Y-34139523D02*
X65445714Y-33758571D01*
X65112380Y-33996666D02*
X65969523Y-33996666D01*
X66064761Y-33949047D01*
X66112380Y-33853809D01*
X66112380Y-33758571D01*
X66112380Y-33425238D02*
X65112380Y-33425238D01*
X66112380Y-32996666D02*
X65588571Y-32996666D01*
X65493333Y-33044285D01*
X65445714Y-33139523D01*
X65445714Y-33282380D01*
X65493333Y-33377619D01*
X65540952Y-33425238D01*
X66064761Y-32139523D02*
X66112380Y-32234761D01*
X66112380Y-32425238D01*
X66064761Y-32520476D01*
X65969523Y-32568095D01*
X65588571Y-32568095D01*
X65493333Y-32520476D01*
X65445714Y-32425238D01*
X65445714Y-32234761D01*
X65493333Y-32139523D01*
X65588571Y-32091904D01*
X65683809Y-32091904D01*
X65779047Y-32568095D01*
X66112380Y-31663333D02*
X65445714Y-31663333D01*
X65636190Y-31663333D02*
X65540952Y-31615714D01*
X65493333Y-31568095D01*
X65445714Y-31472857D01*
X65445714Y-31377619D01*
X66857619Y-41687142D02*
X66810000Y-41639523D01*
X66762380Y-41544285D01*
X66762380Y-41306190D01*
X66810000Y-41210952D01*
X66857619Y-41163333D01*
X66952857Y-41115714D01*
X67048095Y-41115714D01*
X67190952Y-41163333D01*
X67762380Y-41734761D01*
X67762380Y-41115714D01*
X67190952Y-40544285D02*
X67143333Y-40639523D01*
X67095714Y-40687142D01*
X67000476Y-40734761D01*
X66952857Y-40734761D01*
X66857619Y-40687142D01*
X66810000Y-40639523D01*
X66762380Y-40544285D01*
X66762380Y-40353809D01*
X66810000Y-40258571D01*
X66857619Y-40210952D01*
X66952857Y-40163333D01*
X67000476Y-40163333D01*
X67095714Y-40210952D01*
X67143333Y-40258571D01*
X67190952Y-40353809D01*
X67190952Y-40544285D01*
X67238571Y-40639523D01*
X67286190Y-40687142D01*
X67381428Y-40734761D01*
X67571904Y-40734761D01*
X67667142Y-40687142D01*
X67714761Y-40639523D01*
X67762380Y-40544285D01*
X67762380Y-40353809D01*
X67714761Y-40258571D01*
X67667142Y-40210952D01*
X67571904Y-40163333D01*
X67381428Y-40163333D01*
X67286190Y-40210952D01*
X67238571Y-40258571D01*
X67190952Y-40353809D01*
X67381428Y-39734761D02*
X67381428Y-38972857D01*
X66762380Y-38306190D02*
X66762380Y-38210952D01*
X66810000Y-38115714D01*
X66857619Y-38068095D01*
X66952857Y-38020476D01*
X67143333Y-37972857D01*
X67381428Y-37972857D01*
X67571904Y-38020476D01*
X67667142Y-38068095D01*
X67714761Y-38115714D01*
X67762380Y-38210952D01*
X67762380Y-38306190D01*
X67714761Y-38401428D01*
X67667142Y-38449047D01*
X67571904Y-38496666D01*
X67381428Y-38544285D01*
X67143333Y-38544285D01*
X66952857Y-38496666D01*
X66857619Y-38449047D01*
X66810000Y-38401428D01*
X66762380Y-38306190D01*
X66762380Y-37639523D02*
X66762380Y-37020476D01*
X67143333Y-37353809D01*
X67143333Y-37210952D01*
X67190952Y-37115714D01*
X67238571Y-37068095D01*
X67333809Y-37020476D01*
X67571904Y-37020476D01*
X67667142Y-37068095D01*
X67714761Y-37115714D01*
X67762380Y-37210952D01*
X67762380Y-37496666D01*
X67714761Y-37591904D01*
X67667142Y-37639523D01*
X67381428Y-36591904D02*
X67381428Y-35830000D01*
X66857619Y-35401428D02*
X66810000Y-35353809D01*
X66762380Y-35258571D01*
X66762380Y-35020476D01*
X66810000Y-34925238D01*
X66857619Y-34877619D01*
X66952857Y-34830000D01*
X67048095Y-34830000D01*
X67190952Y-34877619D01*
X67762380Y-35449047D01*
X67762380Y-34830000D01*
X66762380Y-34210952D02*
X66762380Y-34115714D01*
X66810000Y-34020476D01*
X66857619Y-33972857D01*
X66952857Y-33925238D01*
X67143333Y-33877619D01*
X67381428Y-33877619D01*
X67571904Y-33925238D01*
X67667142Y-33972857D01*
X67714761Y-34020476D01*
X67762380Y-34115714D01*
X67762380Y-34210952D01*
X67714761Y-34306190D01*
X67667142Y-34353809D01*
X67571904Y-34401428D01*
X67381428Y-34449047D01*
X67143333Y-34449047D01*
X66952857Y-34401428D01*
X66857619Y-34353809D01*
X66810000Y-34306190D01*
X66762380Y-34210952D01*
X66857619Y-33496666D02*
X66810000Y-33449047D01*
X66762380Y-33353809D01*
X66762380Y-33115714D01*
X66810000Y-33020476D01*
X66857619Y-32972857D01*
X66952857Y-32925238D01*
X67048095Y-32925238D01*
X67190952Y-32972857D01*
X67762380Y-33544285D01*
X67762380Y-32925238D01*
X66762380Y-32306190D02*
X66762380Y-32210952D01*
X66810000Y-32115714D01*
X66857619Y-32068095D01*
X66952857Y-32020476D01*
X67143333Y-31972857D01*
X67381428Y-31972857D01*
X67571904Y-32020476D01*
X67667142Y-32068095D01*
X67714761Y-32115714D01*
X67762380Y-32210952D01*
X67762380Y-32306190D01*
X67714761Y-32401428D01*
X67667142Y-32449047D01*
X67571904Y-32496666D01*
X67381428Y-32544285D01*
X67143333Y-32544285D01*
X66952857Y-32496666D01*
X66857619Y-32449047D01*
X66810000Y-32401428D01*
X66762380Y-32306190D01*
X69412380Y-40163333D02*
X68412380Y-40163333D01*
X68793333Y-40163333D02*
X68745714Y-40068095D01*
X68745714Y-39877619D01*
X68793333Y-39782380D01*
X68840952Y-39734761D01*
X68936190Y-39687142D01*
X69221904Y-39687142D01*
X69317142Y-39734761D01*
X69364761Y-39782380D01*
X69412380Y-39877619D01*
X69412380Y-40068095D01*
X69364761Y-40163333D01*
X68745714Y-39353809D02*
X69412380Y-39115714D01*
X68745714Y-38877619D02*
X69412380Y-39115714D01*
X69650476Y-39210952D01*
X69698095Y-39258571D01*
X69745714Y-39353809D01*
X69412380Y-37734761D02*
X68745714Y-37734761D01*
X68936190Y-37734761D02*
X68840952Y-37687142D01*
X68793333Y-37639523D01*
X68745714Y-37544285D01*
X68745714Y-37449047D01*
X68745714Y-36687142D02*
X69555238Y-36687142D01*
X69650476Y-36734761D01*
X69698095Y-36782380D01*
X69745714Y-36877619D01*
X69745714Y-37020476D01*
X69698095Y-37115714D01*
X69364761Y-36687142D02*
X69412380Y-36782380D01*
X69412380Y-36972857D01*
X69364761Y-37068095D01*
X69317142Y-37115714D01*
X69221904Y-37163333D01*
X68936190Y-37163333D01*
X68840952Y-37115714D01*
X68793333Y-37068095D01*
X68745714Y-36972857D01*
X68745714Y-36782380D01*
X68793333Y-36687142D01*
X69412380Y-36068095D02*
X69364761Y-36163333D01*
X69269523Y-36210952D01*
X68412380Y-36210952D01*
X69364761Y-35306190D02*
X69412380Y-35401428D01*
X69412380Y-35591904D01*
X69364761Y-35687142D01*
X69269523Y-35734761D01*
X68888571Y-35734761D01*
X68793333Y-35687142D01*
X68745714Y-35591904D01*
X68745714Y-35401428D01*
X68793333Y-35306190D01*
X68888571Y-35258571D01*
X68983809Y-35258571D01*
X69079047Y-35734761D01*
X68745714Y-34830000D02*
X69412380Y-34830000D01*
X68840952Y-34830000D02*
X68793333Y-34782380D01*
X68745714Y-34687142D01*
X68745714Y-34544285D01*
X68793333Y-34449047D01*
X68888571Y-34401428D01*
X69412380Y-34401428D01*
X68745714Y-33925238D02*
X69412380Y-33925238D01*
X68840952Y-33925238D02*
X68793333Y-33877619D01*
X68745714Y-33782380D01*
X68745714Y-33639523D01*
X68793333Y-33544285D01*
X68888571Y-33496666D01*
X69412380Y-33496666D01*
D11*
X46073333Y-27920190D02*
X46240000Y-28420190D01*
X46406666Y-27920190D01*
X46573333Y-27920190D02*
X46573333Y-28324952D01*
X46597142Y-28372571D01*
X46620952Y-28396380D01*
X46668571Y-28420190D01*
X46763809Y-28420190D01*
X46811428Y-28396380D01*
X46835238Y-28372571D01*
X46859047Y-28324952D01*
X46859047Y-27920190D01*
X47073333Y-28396380D02*
X47144761Y-28420190D01*
X47263809Y-28420190D01*
X47311428Y-28396380D01*
X47335238Y-28372571D01*
X47359047Y-28324952D01*
X47359047Y-28277333D01*
X47335238Y-28229714D01*
X47311428Y-28205904D01*
X47263809Y-28182095D01*
X47168571Y-28158285D01*
X47120952Y-28134476D01*
X47097142Y-28110666D01*
X47073333Y-28063047D01*
X47073333Y-28015428D01*
X47097142Y-27967809D01*
X47120952Y-27944000D01*
X47168571Y-27920190D01*
X47287619Y-27920190D01*
X47359047Y-27944000D01*
X47740000Y-28158285D02*
X47811428Y-28182095D01*
X47835238Y-28205904D01*
X47859047Y-28253523D01*
X47859047Y-28324952D01*
X47835238Y-28372571D01*
X47811428Y-28396380D01*
X47763809Y-28420190D01*
X47573333Y-28420190D01*
X47573333Y-27920190D01*
X47740000Y-27920190D01*
X47787619Y-27944000D01*
X47811428Y-27967809D01*
X47835238Y-28015428D01*
X47835238Y-28063047D01*
X47811428Y-28110666D01*
X47787619Y-28134476D01*
X47740000Y-28158285D01*
X47573333Y-28158285D01*
X41088571Y-28301190D02*
X41255238Y-28801190D01*
X41421904Y-28301190D01*
X41755238Y-28539285D02*
X41826666Y-28563095D01*
X41850476Y-28586904D01*
X41874285Y-28634523D01*
X41874285Y-28705952D01*
X41850476Y-28753571D01*
X41826666Y-28777380D01*
X41779047Y-28801190D01*
X41588571Y-28801190D01*
X41588571Y-28301190D01*
X41755238Y-28301190D01*
X41802857Y-28325000D01*
X41826666Y-28348809D01*
X41850476Y-28396428D01*
X41850476Y-28444047D01*
X41826666Y-28491666D01*
X41802857Y-28515476D01*
X41755238Y-28539285D01*
X41588571Y-28539285D01*
X42064761Y-28658333D02*
X42302857Y-28658333D01*
X42017142Y-28801190D02*
X42183809Y-28301190D01*
X42350476Y-28801190D01*
X42445714Y-28301190D02*
X42731428Y-28301190D01*
X42588571Y-28801190D02*
X42588571Y-28301190D01*
D10*
X43896428Y-28521428D02*
X44146428Y-28521428D01*
X44253571Y-28914285D02*
X43896428Y-28914285D01*
X43896428Y-28164285D01*
X44253571Y-28164285D01*
X44575000Y-28914285D02*
X44575000Y-28164285D01*
X45003571Y-28914285D01*
X45003571Y-28164285D01*
D11*
X49363333Y-28158285D02*
X49196666Y-28158285D01*
X49196666Y-28420190D02*
X49196666Y-27920190D01*
X49434761Y-27920190D01*
X49839523Y-27920190D02*
X49744285Y-27920190D01*
X49696666Y-27944000D01*
X49672857Y-27967809D01*
X49625238Y-28039238D01*
X49601428Y-28134476D01*
X49601428Y-28324952D01*
X49625238Y-28372571D01*
X49649047Y-28396380D01*
X49696666Y-28420190D01*
X49791904Y-28420190D01*
X49839523Y-28396380D01*
X49863333Y-28372571D01*
X49887142Y-28324952D01*
X49887142Y-28205904D01*
X49863333Y-28158285D01*
X49839523Y-28134476D01*
X49791904Y-28110666D01*
X49696666Y-28110666D01*
X49649047Y-28134476D01*
X49625238Y-28158285D01*
X49601428Y-28205904D01*
D10*
X51820000Y-28521428D02*
X51570000Y-28521428D01*
X51570000Y-28914285D02*
X51570000Y-28164285D01*
X51927142Y-28164285D01*
X52570000Y-28164285D02*
X52212857Y-28164285D01*
X52177142Y-28521428D01*
X52212857Y-28485714D01*
X52284285Y-28450000D01*
X52462857Y-28450000D01*
X52534285Y-28485714D01*
X52570000Y-28521428D01*
X52605714Y-28592857D01*
X52605714Y-28771428D01*
X52570000Y-28842857D01*
X52534285Y-28878571D01*
X52462857Y-28914285D01*
X52284285Y-28914285D01*
X52212857Y-28878571D01*
X52177142Y-28842857D01*
X54360000Y-28521428D02*
X54110000Y-28521428D01*
X54110000Y-28914285D02*
X54110000Y-28164285D01*
X54467142Y-28164285D01*
X55074285Y-28414285D02*
X55074285Y-28914285D01*
X54895714Y-28128571D02*
X54717142Y-28664285D01*
X55181428Y-28664285D01*
X56900000Y-28521428D02*
X56650000Y-28521428D01*
X56650000Y-28914285D02*
X56650000Y-28164285D01*
X57007142Y-28164285D01*
X57221428Y-28164285D02*
X57685714Y-28164285D01*
X57435714Y-28450000D01*
X57542857Y-28450000D01*
X57614285Y-28485714D01*
X57650000Y-28521428D01*
X57685714Y-28592857D01*
X57685714Y-28771428D01*
X57650000Y-28842857D01*
X57614285Y-28878571D01*
X57542857Y-28914285D01*
X57328571Y-28914285D01*
X57257142Y-28878571D01*
X57221428Y-28842857D01*
X59440000Y-28521428D02*
X59190000Y-28521428D01*
X59190000Y-28914285D02*
X59190000Y-28164285D01*
X59547142Y-28164285D01*
X59797142Y-28235714D02*
X59832857Y-28200000D01*
X59904285Y-28164285D01*
X60082857Y-28164285D01*
X60154285Y-28200000D01*
X60190000Y-28235714D01*
X60225714Y-28307142D01*
X60225714Y-28378571D01*
X60190000Y-28485714D01*
X59761428Y-28914285D01*
X60225714Y-28914285D01*
X61980000Y-28521428D02*
X61730000Y-28521428D01*
X61730000Y-28914285D02*
X61730000Y-28164285D01*
X62087142Y-28164285D01*
X62765714Y-28914285D02*
X62337142Y-28914285D01*
X62551428Y-28914285D02*
X62551428Y-28164285D01*
X62480000Y-28271428D01*
X62408571Y-28342857D01*
X62337142Y-28378571D01*
X64520000Y-28521428D02*
X64270000Y-28521428D01*
X64270000Y-28914285D02*
X64270000Y-28164285D01*
X64627142Y-28164285D01*
X65055714Y-28164285D02*
X65127142Y-28164285D01*
X65198571Y-28200000D01*
X65234285Y-28235714D01*
X65270000Y-28307142D01*
X65305714Y-28450000D01*
X65305714Y-28628571D01*
X65270000Y-28771428D01*
X65234285Y-28842857D01*
X65198571Y-28878571D01*
X65127142Y-28914285D01*
X65055714Y-28914285D01*
X64984285Y-28878571D01*
X64948571Y-28842857D01*
X64912857Y-28771428D01*
X64877142Y-28628571D01*
X64877142Y-28450000D01*
X64912857Y-28307142D01*
X64948571Y-28235714D01*
X64984285Y-28200000D01*
X65055714Y-28164285D01*
X66417142Y-28878571D02*
X66524285Y-28914285D01*
X66702857Y-28914285D01*
X66774285Y-28878571D01*
X66810000Y-28842857D01*
X66845714Y-28771428D01*
X66845714Y-28700000D01*
X66810000Y-28628571D01*
X66774285Y-28592857D01*
X66702857Y-28557142D01*
X66560000Y-28521428D01*
X66488571Y-28485714D01*
X66452857Y-28450000D01*
X66417142Y-28378571D01*
X66417142Y-28307142D01*
X66452857Y-28235714D01*
X66488571Y-28200000D01*
X66560000Y-28164285D01*
X66738571Y-28164285D01*
X66845714Y-28200000D01*
X67595714Y-28842857D02*
X67560000Y-28878571D01*
X67452857Y-28914285D01*
X67381428Y-28914285D01*
X67274285Y-28878571D01*
X67202857Y-28807142D01*
X67167142Y-28735714D01*
X67131428Y-28592857D01*
X67131428Y-28485714D01*
X67167142Y-28342857D01*
X67202857Y-28271428D01*
X67274285Y-28200000D01*
X67381428Y-28164285D01*
X67452857Y-28164285D01*
X67560000Y-28200000D01*
X67595714Y-28235714D01*
X68274285Y-28914285D02*
X67917142Y-28914285D01*
X67917142Y-28164285D01*
X68939285Y-28878571D02*
X69046428Y-28914285D01*
X69225000Y-28914285D01*
X69296428Y-28878571D01*
X69332142Y-28842857D01*
X69367857Y-28771428D01*
X69367857Y-28700000D01*
X69332142Y-28628571D01*
X69296428Y-28592857D01*
X69225000Y-28557142D01*
X69082142Y-28521428D01*
X69010714Y-28485714D01*
X68975000Y-28450000D01*
X68939285Y-28378571D01*
X68939285Y-28307142D01*
X68975000Y-28235714D01*
X69010714Y-28200000D01*
X69082142Y-28164285D01*
X69260714Y-28164285D01*
X69367857Y-28200000D01*
X69689285Y-28914285D02*
X69689285Y-28164285D01*
X69867857Y-28164285D01*
X69975000Y-28200000D01*
X70046428Y-28271428D01*
X70082142Y-28342857D01*
X70117857Y-28485714D01*
X70117857Y-28592857D01*
X70082142Y-28735714D01*
X70046428Y-28807142D01*
X69975000Y-28878571D01*
X69867857Y-28914285D01*
X69689285Y-28914285D01*
X70403571Y-28700000D02*
X70760714Y-28700000D01*
X70332142Y-28914285D02*
X70582142Y-28164285D01*
X70832142Y-28914285D01*
D11*
X69219047Y-45049285D02*
X69052380Y-45049285D01*
X69052380Y-45311190D02*
X69052380Y-44811190D01*
X69290476Y-44811190D01*
X69766666Y-45311190D02*
X69600000Y-45073095D01*
X69480952Y-45311190D02*
X69480952Y-44811190D01*
X69671428Y-44811190D01*
X69719047Y-44835000D01*
X69742857Y-44858809D01*
X69766666Y-44906428D01*
X69766666Y-44977857D01*
X69742857Y-45025476D01*
X69719047Y-45049285D01*
X69671428Y-45073095D01*
X69480952Y-45073095D01*
X69980952Y-45049285D02*
X70147619Y-45049285D01*
X70219047Y-45311190D02*
X69980952Y-45311190D01*
X69980952Y-44811190D01*
X70219047Y-44811190D01*
X70433333Y-45049285D02*
X70600000Y-45049285D01*
X70671428Y-45311190D02*
X70433333Y-45311190D01*
X70433333Y-44811190D01*
X70671428Y-44811190D01*
D10*
X66738571Y-44674285D02*
X67167142Y-44674285D01*
X66952857Y-45424285D02*
X66952857Y-44674285D01*
X67345714Y-44674285D02*
X67845714Y-45424285D01*
X67845714Y-44674285D02*
X67345714Y-45424285D01*
X64645000Y-45424285D02*
X64395000Y-45067142D01*
X64216428Y-45424285D02*
X64216428Y-44674285D01*
X64502142Y-44674285D01*
X64573571Y-44710000D01*
X64609285Y-44745714D01*
X64645000Y-44817142D01*
X64645000Y-44924285D01*
X64609285Y-44995714D01*
X64573571Y-45031428D01*
X64502142Y-45067142D01*
X64216428Y-45067142D01*
X64895000Y-44674285D02*
X65395000Y-45424285D01*
X65395000Y-44674285D02*
X64895000Y-45424285D01*
D11*
X61444285Y-45311190D02*
X61444285Y-44811190D01*
X61610952Y-45168333D01*
X61777619Y-44811190D01*
X61777619Y-45311190D01*
X62015714Y-45311190D02*
X62015714Y-44811190D01*
X62230000Y-45287380D02*
X62301428Y-45311190D01*
X62420476Y-45311190D01*
X62468095Y-45287380D01*
X62491904Y-45263571D01*
X62515714Y-45215952D01*
X62515714Y-45168333D01*
X62491904Y-45120714D01*
X62468095Y-45096904D01*
X62420476Y-45073095D01*
X62325238Y-45049285D01*
X62277619Y-45025476D01*
X62253809Y-45001666D01*
X62230000Y-44954047D01*
X62230000Y-44906428D01*
X62253809Y-44858809D01*
X62277619Y-44835000D01*
X62325238Y-44811190D01*
X62444285Y-44811190D01*
X62515714Y-44835000D01*
X62825238Y-44811190D02*
X62920476Y-44811190D01*
X62968095Y-44835000D01*
X63015714Y-44882619D01*
X63039523Y-44977857D01*
X63039523Y-45144523D01*
X63015714Y-45239761D01*
X62968095Y-45287380D01*
X62920476Y-45311190D01*
X62825238Y-45311190D01*
X62777619Y-45287380D01*
X62730000Y-45239761D01*
X62706190Y-45144523D01*
X62706190Y-44977857D01*
X62730000Y-44882619D01*
X62777619Y-44835000D01*
X62825238Y-44811190D01*
X58904285Y-45311190D02*
X58904285Y-44811190D01*
X59070952Y-45168333D01*
X59237619Y-44811190D01*
X59237619Y-45311190D01*
X59570952Y-44811190D02*
X59666190Y-44811190D01*
X59713809Y-44835000D01*
X59761428Y-44882619D01*
X59785238Y-44977857D01*
X59785238Y-45144523D01*
X59761428Y-45239761D01*
X59713809Y-45287380D01*
X59666190Y-45311190D01*
X59570952Y-45311190D01*
X59523333Y-45287380D01*
X59475714Y-45239761D01*
X59451904Y-45144523D01*
X59451904Y-44977857D01*
X59475714Y-44882619D01*
X59523333Y-44835000D01*
X59570952Y-44811190D01*
X59975714Y-45287380D02*
X60047142Y-45311190D01*
X60166190Y-45311190D01*
X60213809Y-45287380D01*
X60237619Y-45263571D01*
X60261428Y-45215952D01*
X60261428Y-45168333D01*
X60237619Y-45120714D01*
X60213809Y-45096904D01*
X60166190Y-45073095D01*
X60070952Y-45049285D01*
X60023333Y-45025476D01*
X59999523Y-45001666D01*
X59975714Y-44954047D01*
X59975714Y-44906428D01*
X59999523Y-44858809D01*
X60023333Y-44835000D01*
X60070952Y-44811190D01*
X60190000Y-44811190D01*
X60261428Y-44835000D01*
X60475714Y-45311190D02*
X60475714Y-44811190D01*
D10*
X56185714Y-45388571D02*
X56292857Y-45424285D01*
X56471428Y-45424285D01*
X56542857Y-45388571D01*
X56578571Y-45352857D01*
X56614285Y-45281428D01*
X56614285Y-45210000D01*
X56578571Y-45138571D01*
X56542857Y-45102857D01*
X56471428Y-45067142D01*
X56328571Y-45031428D01*
X56257142Y-44995714D01*
X56221428Y-44960000D01*
X56185714Y-44888571D01*
X56185714Y-44817142D01*
X56221428Y-44745714D01*
X56257142Y-44710000D01*
X56328571Y-44674285D01*
X56507142Y-44674285D01*
X56614285Y-44710000D01*
X57364285Y-45352857D02*
X57328571Y-45388571D01*
X57221428Y-45424285D01*
X57150000Y-45424285D01*
X57042857Y-45388571D01*
X56971428Y-45317142D01*
X56935714Y-45245714D01*
X56900000Y-45102857D01*
X56900000Y-44995714D01*
X56935714Y-44852857D01*
X56971428Y-44781428D01*
X57042857Y-44710000D01*
X57150000Y-44674285D01*
X57221428Y-44674285D01*
X57328571Y-44710000D01*
X57364285Y-44745714D01*
X57685714Y-45424285D02*
X57685714Y-44674285D01*
X58114285Y-45424285D02*
X57792857Y-44995714D01*
X58114285Y-44674285D02*
X57685714Y-45102857D01*
X54074285Y-45210000D02*
X54431428Y-45210000D01*
X54002857Y-45424285D02*
X54252857Y-44674285D01*
X54502857Y-45424285D01*
X55110000Y-44674285D02*
X54752857Y-44674285D01*
X54717142Y-45031428D01*
X54752857Y-44995714D01*
X54824285Y-44960000D01*
X55002857Y-44960000D01*
X55074285Y-44995714D01*
X55110000Y-45031428D01*
X55145714Y-45102857D01*
X55145714Y-45281428D01*
X55110000Y-45352857D01*
X55074285Y-45388571D01*
X55002857Y-45424285D01*
X54824285Y-45424285D01*
X54752857Y-45388571D01*
X54717142Y-45352857D01*
X51534285Y-45210000D02*
X51891428Y-45210000D01*
X51462857Y-45424285D02*
X51712857Y-44674285D01*
X51962857Y-45424285D01*
X52534285Y-44924285D02*
X52534285Y-45424285D01*
X52355714Y-44638571D02*
X52177142Y-45174285D01*
X52641428Y-45174285D01*
X48994285Y-45210000D02*
X49351428Y-45210000D01*
X48922857Y-45424285D02*
X49172857Y-44674285D01*
X49422857Y-45424285D01*
X49601428Y-44674285D02*
X50065714Y-44674285D01*
X49815714Y-44960000D01*
X49922857Y-44960000D01*
X49994285Y-44995714D01*
X50030000Y-45031428D01*
X50065714Y-45102857D01*
X50065714Y-45281428D01*
X50030000Y-45352857D01*
X49994285Y-45388571D01*
X49922857Y-45424285D01*
X49708571Y-45424285D01*
X49637142Y-45388571D01*
X49601428Y-45352857D01*
X46454285Y-45210000D02*
X46811428Y-45210000D01*
X46382857Y-45424285D02*
X46632857Y-44674285D01*
X46882857Y-45424285D01*
X47097142Y-44745714D02*
X47132857Y-44710000D01*
X47204285Y-44674285D01*
X47382857Y-44674285D01*
X47454285Y-44710000D01*
X47490000Y-44745714D01*
X47525714Y-44817142D01*
X47525714Y-44888571D01*
X47490000Y-44995714D01*
X47061428Y-45424285D01*
X47525714Y-45424285D01*
X43914285Y-45210000D02*
X44271428Y-45210000D01*
X43842857Y-45424285D02*
X44092857Y-44674285D01*
X44342857Y-45424285D01*
X44985714Y-45424285D02*
X44557142Y-45424285D01*
X44771428Y-45424285D02*
X44771428Y-44674285D01*
X44700000Y-44781428D01*
X44628571Y-44852857D01*
X44557142Y-44888571D01*
D11*
X41552857Y-46057333D02*
X41790952Y-46057333D01*
X41505238Y-46200190D02*
X41671904Y-45700190D01*
X41838571Y-46200190D01*
X42100476Y-45700190D02*
X42148095Y-45700190D01*
X42195714Y-45724000D01*
X42219523Y-45747809D01*
X42243333Y-45795428D01*
X42267142Y-45890666D01*
X42267142Y-46009714D01*
X42243333Y-46104952D01*
X42219523Y-46152571D01*
X42195714Y-46176380D01*
X42148095Y-46200190D01*
X42100476Y-46200190D01*
X42052857Y-46176380D01*
X42029047Y-46152571D01*
X42005238Y-46104952D01*
X41981428Y-46009714D01*
X41981428Y-45890666D01*
X42005238Y-45795428D01*
X42029047Y-45747809D01*
X42052857Y-45724000D01*
X42100476Y-45700190D01*
X38989047Y-45724000D02*
X38941428Y-45700190D01*
X38870000Y-45700190D01*
X38798571Y-45724000D01*
X38750952Y-45771619D01*
X38727142Y-45819238D01*
X38703333Y-45914476D01*
X38703333Y-45985904D01*
X38727142Y-46081142D01*
X38750952Y-46128761D01*
X38798571Y-46176380D01*
X38870000Y-46200190D01*
X38917619Y-46200190D01*
X38989047Y-46176380D01*
X39012857Y-46152571D01*
X39012857Y-45985904D01*
X38917619Y-45985904D01*
X39227142Y-46200190D02*
X39227142Y-45700190D01*
X39512857Y-46200190D01*
X39512857Y-45700190D01*
X39750952Y-46200190D02*
X39750952Y-45700190D01*
X39870000Y-45700190D01*
X39941428Y-45724000D01*
X39989047Y-45771619D01*
X40012857Y-45819238D01*
X40036666Y-45914476D01*
X40036666Y-45985904D01*
X40012857Y-46081142D01*
X39989047Y-46128761D01*
X39941428Y-46176380D01*
X39870000Y-46200190D01*
X39750952Y-46200190D01*
X33670952Y-45700190D02*
X33980476Y-45700190D01*
X33813809Y-45890666D01*
X33885238Y-45890666D01*
X33932857Y-45914476D01*
X33956666Y-45938285D01*
X33980476Y-45985904D01*
X33980476Y-46104952D01*
X33956666Y-46152571D01*
X33932857Y-46176380D01*
X33885238Y-46200190D01*
X33742380Y-46200190D01*
X33694761Y-46176380D01*
X33670952Y-46152571D01*
X34123333Y-45700190D02*
X34290000Y-46200190D01*
X34456666Y-45700190D01*
X34575714Y-45700190D02*
X34885238Y-45700190D01*
X34718571Y-45890666D01*
X34790000Y-45890666D01*
X34837619Y-45914476D01*
X34861428Y-45938285D01*
X34885238Y-45985904D01*
X34885238Y-46104952D01*
X34861428Y-46152571D01*
X34837619Y-46176380D01*
X34790000Y-46200190D01*
X34647142Y-46200190D01*
X34599523Y-46176380D01*
X34575714Y-46152571D01*
X31071428Y-45484000D02*
X31571428Y-45484000D01*
X31476190Y-46200190D02*
X31309523Y-45962095D01*
X31190476Y-46200190D02*
X31190476Y-45700190D01*
X31380952Y-45700190D01*
X31428571Y-45724000D01*
X31452380Y-45747809D01*
X31476190Y-45795428D01*
X31476190Y-45866857D01*
X31452380Y-45914476D01*
X31428571Y-45938285D01*
X31380952Y-45962095D01*
X31190476Y-45962095D01*
X31571428Y-45484000D02*
X32047619Y-45484000D01*
X31666666Y-46176380D02*
X31738095Y-46200190D01*
X31857142Y-46200190D01*
X31904761Y-46176380D01*
X31928571Y-46152571D01*
X31952380Y-46104952D01*
X31952380Y-46057333D01*
X31928571Y-46009714D01*
X31904761Y-45985904D01*
X31857142Y-45962095D01*
X31761904Y-45938285D01*
X31714285Y-45914476D01*
X31690476Y-45890666D01*
X31666666Y-45843047D01*
X31666666Y-45795428D01*
X31690476Y-45747809D01*
X31714285Y-45724000D01*
X31761904Y-45700190D01*
X31880952Y-45700190D01*
X31952380Y-45724000D01*
X32047619Y-45484000D02*
X32428571Y-45484000D01*
X32095238Y-45700190D02*
X32380952Y-45700190D01*
X32238095Y-46200190D02*
X32238095Y-45700190D01*
D12*
X63000000Y-40440000D02*
X63300000Y-40440000D01*
X63300000Y-40440000D02*
X63300000Y-40140000D01*
X56380000Y-40440000D02*
X56080000Y-40440000D01*
X56080000Y-40440000D02*
X56080000Y-40140000D01*
X63000000Y-33220000D02*
X63300000Y-33220000D01*
X63300000Y-33220000D02*
X63300000Y-33520000D01*
X56380000Y-33220000D02*
X56080000Y-33220000D01*
X56080000Y-33220000D02*
X56080000Y-33520000D01*
X56080000Y-33520000D02*
X54765000Y-33520000D01*
X29047221Y-42420000D02*
X29372779Y-42420000D01*
X29047221Y-41400000D02*
X29372779Y-41400000D01*
X32968000Y-43683422D02*
X32968000Y-44200578D01*
X31548000Y-43683422D02*
X31548000Y-44200578D01*
X33532578Y-41350000D02*
X33015422Y-41350000D01*
X33532578Y-39930000D02*
X33015422Y-39930000D01*
X39422000Y-43683422D02*
X39422000Y-44200578D01*
X40842000Y-43683422D02*
X40842000Y-44200578D01*
X42674000Y-43779221D02*
X42674000Y-44104779D01*
X41654000Y-43779221D02*
X41654000Y-44104779D01*
X52740779Y-36320000D02*
X52415221Y-36320000D01*
X52740779Y-37340000D02*
X52415221Y-37340000D01*
X52740779Y-39118000D02*
X52415221Y-39118000D01*
X52740779Y-38098000D02*
X52415221Y-38098000D01*
X34074000Y-36095000D02*
X31789000Y-36095000D01*
X31789000Y-36095000D02*
X31789000Y-37565000D01*
X31789000Y-37565000D02*
X34074000Y-37565000D01*
X39386000Y-41874000D02*
X41386000Y-41874000D01*
X41386000Y-41874000D02*
X41386000Y-37974000D01*
X39386000Y-41874000D02*
X39386000Y-37974000D01*
X29650000Y-40640000D02*
X29650000Y-40260000D01*
X25600000Y-40640000D02*
X25340000Y-40640000D01*
X29650000Y-40640000D02*
X27880000Y-40640000D01*
X29650000Y-33020000D02*
X29650000Y-33400000D01*
X27880000Y-33020000D02*
X29650000Y-33020000D01*
X25340000Y-33020000D02*
X25600000Y-33020000D01*
X37246779Y-37340000D02*
X36921221Y-37340000D01*
X37246779Y-36320000D02*
X36921221Y-36320000D01*
X29047221Y-31240000D02*
X29372779Y-31240000D01*
X29047221Y-32260000D02*
X29372779Y-32260000D01*
X33111221Y-39118000D02*
X33436779Y-39118000D01*
X33111221Y-38098000D02*
X33436779Y-38098000D01*
X34800000Y-44104779D02*
X34800000Y-43779221D01*
X33780000Y-44104779D02*
X33780000Y-43779221D01*
X36184000Y-41234000D02*
X37984000Y-41234000D01*
X37984000Y-38014000D02*
X35534000Y-38014000D01*
X37984000Y-42332000D02*
X35534000Y-42332000D01*
X36184000Y-45552000D02*
X37984000Y-45552000D01*
X40382000Y-29540000D02*
X40382000Y-33790000D01*
X40382000Y-33790000D02*
X39362000Y-33790000D01*
X39362000Y-33790000D02*
X39362000Y-32190000D01*
X39362000Y-32190000D02*
X38082000Y-32190000D01*
X38082000Y-32190000D02*
X38082000Y-35080000D01*
X32262000Y-29540000D02*
X32262000Y-33790000D01*
X32262000Y-33790000D02*
X33282000Y-33790000D01*
X33282000Y-33790000D02*
X33282000Y-32190000D01*
X33282000Y-32190000D02*
X34562000Y-32190000D01*
X38662000Y-25970000D02*
X33982000Y-25970000D01*
X52415221Y-31752000D02*
X52740779Y-31752000D01*
X52415221Y-30732000D02*
X52740779Y-30732000D01*
X52415221Y-39876000D02*
X52740779Y-39876000D01*
X52415221Y-40896000D02*
X52740779Y-40896000D01*
X50810000Y-41206000D02*
X50810000Y-28606000D01*
X50810000Y-28606000D02*
X45710000Y-28606000D01*
X45710000Y-28606000D02*
X45710000Y-41206000D01*
X74990000Y-31690000D02*
X72330000Y-31690000D01*
X74990000Y-39370000D02*
X74990000Y-31690000D01*
X72330000Y-39370000D02*
X72330000Y-31690000D01*
X74990000Y-39370000D02*
X72330000Y-39370000D01*
X74990000Y-40640000D02*
X74990000Y-41970000D01*
X74990000Y-41970000D02*
X73660000Y-41970000D01*
X70610000Y-36992779D02*
X70610000Y-36667221D01*
X71630000Y-36992779D02*
X71630000Y-36667221D01*
D10*
X58928095Y-30402380D02*
X58928095Y-31211904D01*
X58975714Y-31307142D01*
X59023333Y-31354761D01*
X59118571Y-31402380D01*
X59309047Y-31402380D01*
X59404285Y-31354761D01*
X59451904Y-31307142D01*
X59499523Y-31211904D01*
X59499523Y-30402380D01*
X60499523Y-31402380D02*
X59928095Y-31402380D01*
X60213809Y-31402380D02*
X60213809Y-30402380D01*
X60118571Y-30545238D01*
X60023333Y-30640476D01*
X59928095Y-30688095D01*
X29043333Y-43791142D02*
X28995714Y-43838761D01*
X28852857Y-43886380D01*
X28757619Y-43886380D01*
X28614761Y-43838761D01*
X28519523Y-43743523D01*
X28471904Y-43648285D01*
X28424285Y-43457809D01*
X28424285Y-43314952D01*
X28471904Y-43124476D01*
X28519523Y-43029238D01*
X28614761Y-42934000D01*
X28757619Y-42886380D01*
X28852857Y-42886380D01*
X28995714Y-42934000D01*
X29043333Y-42981619D01*
X29995714Y-43886380D02*
X29424285Y-43886380D01*
X29710000Y-43886380D02*
X29710000Y-42886380D01*
X29614761Y-43029238D01*
X29519523Y-43124476D01*
X29424285Y-43172095D01*
X32091333Y-42521142D02*
X32043714Y-42568761D01*
X31900857Y-42616380D01*
X31805619Y-42616380D01*
X31662761Y-42568761D01*
X31567523Y-42473523D01*
X31519904Y-42378285D01*
X31472285Y-42187809D01*
X31472285Y-42044952D01*
X31519904Y-41854476D01*
X31567523Y-41759238D01*
X31662761Y-41664000D01*
X31805619Y-41616380D01*
X31900857Y-41616380D01*
X32043714Y-41664000D01*
X32091333Y-41711619D01*
X32472285Y-41711619D02*
X32519904Y-41664000D01*
X32615142Y-41616380D01*
X32853238Y-41616380D01*
X32948476Y-41664000D01*
X32996095Y-41711619D01*
X33043714Y-41806857D01*
X33043714Y-41902095D01*
X32996095Y-42044952D01*
X32424666Y-42616380D01*
X33043714Y-42616380D01*
X31599142Y-40806666D02*
X31646761Y-40854285D01*
X31694380Y-40997142D01*
X31694380Y-41092380D01*
X31646761Y-41235238D01*
X31551523Y-41330476D01*
X31456285Y-41378095D01*
X31265809Y-41425714D01*
X31122952Y-41425714D01*
X30932476Y-41378095D01*
X30837238Y-41330476D01*
X30742000Y-41235238D01*
X30694380Y-41092380D01*
X30694380Y-40997142D01*
X30742000Y-40854285D01*
X30789619Y-40806666D01*
X30694380Y-40473333D02*
X30694380Y-39854285D01*
X31075333Y-40187619D01*
X31075333Y-40044761D01*
X31122952Y-39949523D01*
X31170571Y-39901904D01*
X31265809Y-39854285D01*
X31503904Y-39854285D01*
X31599142Y-39901904D01*
X31646761Y-39949523D01*
X31694380Y-40044761D01*
X31694380Y-40330476D01*
X31646761Y-40425714D01*
X31599142Y-40473333D01*
X43791142Y-43854666D02*
X43838761Y-43902285D01*
X43886380Y-44045142D01*
X43886380Y-44140380D01*
X43838761Y-44283238D01*
X43743523Y-44378476D01*
X43648285Y-44426095D01*
X43457809Y-44473714D01*
X43314952Y-44473714D01*
X43124476Y-44426095D01*
X43029238Y-44378476D01*
X42934000Y-44283238D01*
X42886380Y-44140380D01*
X42886380Y-44045142D01*
X42934000Y-43902285D01*
X42981619Y-43854666D01*
X43219714Y-42997523D02*
X43886380Y-42997523D01*
X42838761Y-43235619D02*
X43553047Y-43473714D01*
X43553047Y-42854666D01*
X45061142Y-43854666D02*
X45108761Y-43902285D01*
X45156380Y-44045142D01*
X45156380Y-44140380D01*
X45108761Y-44283238D01*
X45013523Y-44378476D01*
X44918285Y-44426095D01*
X44727809Y-44473714D01*
X44584952Y-44473714D01*
X44394476Y-44426095D01*
X44299238Y-44378476D01*
X44204000Y-44283238D01*
X44156380Y-44140380D01*
X44156380Y-44045142D01*
X44204000Y-43902285D01*
X44251619Y-43854666D01*
X44156380Y-42949904D02*
X44156380Y-43426095D01*
X44632571Y-43473714D01*
X44584952Y-43426095D01*
X44537333Y-43330857D01*
X44537333Y-43092761D01*
X44584952Y-42997523D01*
X44632571Y-42949904D01*
X44727809Y-42902285D01*
X44965904Y-42902285D01*
X45061142Y-42949904D01*
X45108761Y-42997523D01*
X45156380Y-43092761D01*
X45156380Y-43330857D01*
X45108761Y-43426095D01*
X45061142Y-43473714D01*
X52411333Y-34393142D02*
X52363714Y-34440761D01*
X52220857Y-34488380D01*
X52125619Y-34488380D01*
X51982761Y-34440761D01*
X51887523Y-34345523D01*
X51839904Y-34250285D01*
X51792285Y-34059809D01*
X51792285Y-33916952D01*
X51839904Y-33726476D01*
X51887523Y-33631238D01*
X51982761Y-33536000D01*
X52125619Y-33488380D01*
X52220857Y-33488380D01*
X52363714Y-33536000D01*
X52411333Y-33583619D01*
X53268476Y-33488380D02*
X53078000Y-33488380D01*
X52982761Y-33536000D01*
X52935142Y-33583619D01*
X52839904Y-33726476D01*
X52792285Y-33916952D01*
X52792285Y-34297904D01*
X52839904Y-34393142D01*
X52887523Y-34440761D01*
X52982761Y-34488380D01*
X53173238Y-34488380D01*
X53268476Y-34440761D01*
X53316095Y-34393142D01*
X53363714Y-34297904D01*
X53363714Y-34059809D01*
X53316095Y-33964571D01*
X53268476Y-33916952D01*
X53173238Y-33869333D01*
X52982761Y-33869333D01*
X52887523Y-33916952D01*
X52839904Y-33964571D01*
X52792285Y-34059809D01*
X52411333Y-35663142D02*
X52363714Y-35710761D01*
X52220857Y-35758380D01*
X52125619Y-35758380D01*
X51982761Y-35710761D01*
X51887523Y-35615523D01*
X51839904Y-35520285D01*
X51792285Y-35329809D01*
X51792285Y-35186952D01*
X51839904Y-34996476D01*
X51887523Y-34901238D01*
X51982761Y-34806000D01*
X52125619Y-34758380D01*
X52220857Y-34758380D01*
X52363714Y-34806000D01*
X52411333Y-34853619D01*
X52744666Y-34758380D02*
X53411333Y-34758380D01*
X52982761Y-35758380D01*
X31694380Y-37314095D02*
X30694380Y-37314095D01*
X30694380Y-37076000D01*
X30742000Y-36933142D01*
X30837238Y-36837904D01*
X30932476Y-36790285D01*
X31122952Y-36742666D01*
X31265809Y-36742666D01*
X31456285Y-36790285D01*
X31551523Y-36837904D01*
X31646761Y-36933142D01*
X31694380Y-37076000D01*
X31694380Y-37314095D01*
X31694380Y-35790285D02*
X31694380Y-36361714D01*
X31694380Y-36076000D02*
X30694380Y-36076000D01*
X30837238Y-36171238D01*
X30932476Y-36266476D01*
X30980095Y-36361714D01*
X42870380Y-40362095D02*
X41870380Y-40362095D01*
X41870380Y-40124000D01*
X41918000Y-39981142D01*
X42013238Y-39885904D01*
X42108476Y-39838285D01*
X42298952Y-39790666D01*
X42441809Y-39790666D01*
X42632285Y-39838285D01*
X42727523Y-39885904D01*
X42822761Y-39981142D01*
X42870380Y-40124000D01*
X42870380Y-40362095D01*
X41965619Y-39409714D02*
X41918000Y-39362095D01*
X41870380Y-39266857D01*
X41870380Y-39028761D01*
X41918000Y-38933523D01*
X41965619Y-38885904D01*
X42060857Y-38838285D01*
X42156095Y-38838285D01*
X42298952Y-38885904D01*
X42870380Y-39457333D01*
X42870380Y-38838285D01*
X26336666Y-31202380D02*
X26336666Y-31916666D01*
X26289047Y-32059523D01*
X26193809Y-32154761D01*
X26050952Y-32202380D01*
X25955714Y-32202380D01*
X26717619Y-31202380D02*
X27336666Y-31202380D01*
X27003333Y-31583333D01*
X27146190Y-31583333D01*
X27241428Y-31630952D01*
X27289047Y-31678571D01*
X27336666Y-31773809D01*
X27336666Y-32011904D01*
X27289047Y-32107142D01*
X27241428Y-32154761D01*
X27146190Y-32202380D01*
X26860476Y-32202380D01*
X26765238Y-32154761D01*
X26717619Y-32107142D01*
X39457333Y-37282380D02*
X39124000Y-36806190D01*
X38885904Y-37282380D02*
X38885904Y-36282380D01*
X39266857Y-36282380D01*
X39362095Y-36330000D01*
X39409714Y-36377619D01*
X39457333Y-36472857D01*
X39457333Y-36615714D01*
X39409714Y-36710952D01*
X39362095Y-36758571D01*
X39266857Y-36806190D01*
X38885904Y-36806190D01*
X40409714Y-37282380D02*
X39838285Y-37282380D01*
X40124000Y-37282380D02*
X40124000Y-36282380D01*
X40028761Y-36425238D01*
X39933523Y-36520476D01*
X39838285Y-36568095D01*
X29043333Y-30772380D02*
X28710000Y-30296190D01*
X28471904Y-30772380D02*
X28471904Y-29772380D01*
X28852857Y-29772380D01*
X28948095Y-29820000D01*
X28995714Y-29867619D01*
X29043333Y-29962857D01*
X29043333Y-30105714D01*
X28995714Y-30200952D01*
X28948095Y-30248571D01*
X28852857Y-30296190D01*
X28471904Y-30296190D01*
X29424285Y-29867619D02*
X29471904Y-29820000D01*
X29567142Y-29772380D01*
X29805238Y-29772380D01*
X29900476Y-29820000D01*
X29948095Y-29867619D01*
X29995714Y-29962857D01*
X29995714Y-30058095D01*
X29948095Y-30200952D01*
X29376666Y-30772380D01*
X29995714Y-30772380D01*
X31694380Y-38774666D02*
X31218190Y-39108000D01*
X31694380Y-39346095D02*
X30694380Y-39346095D01*
X30694380Y-38965142D01*
X30742000Y-38869904D01*
X30789619Y-38822285D01*
X30884857Y-38774666D01*
X31027714Y-38774666D01*
X31122952Y-38822285D01*
X31170571Y-38869904D01*
X31218190Y-38965142D01*
X31218190Y-39346095D01*
X30694380Y-38441333D02*
X30694380Y-37822285D01*
X31075333Y-38155619D01*
X31075333Y-38012761D01*
X31122952Y-37917523D01*
X31170571Y-37869904D01*
X31265809Y-37822285D01*
X31503904Y-37822285D01*
X31599142Y-37869904D01*
X31646761Y-37917523D01*
X31694380Y-38012761D01*
X31694380Y-38298476D01*
X31646761Y-38393714D01*
X31599142Y-38441333D01*
X34123333Y-42616380D02*
X33790000Y-42140190D01*
X33551904Y-42616380D02*
X33551904Y-41616380D01*
X33932857Y-41616380D01*
X34028095Y-41664000D01*
X34075714Y-41711619D01*
X34123333Y-41806857D01*
X34123333Y-41949714D01*
X34075714Y-42044952D01*
X34028095Y-42092571D01*
X33932857Y-42140190D01*
X33551904Y-42140190D01*
X34980476Y-41949714D02*
X34980476Y-42616380D01*
X34742380Y-41568761D02*
X34504285Y-42283047D01*
X35123333Y-42283047D01*
X37592095Y-39076380D02*
X37592095Y-39885904D01*
X37639714Y-39981142D01*
X37687333Y-40028761D01*
X37782571Y-40076380D01*
X37973047Y-40076380D01*
X38068285Y-40028761D01*
X38115904Y-39981142D01*
X38163523Y-39885904D01*
X38163523Y-39076380D01*
X38592095Y-39171619D02*
X38639714Y-39124000D01*
X38734952Y-39076380D01*
X38973047Y-39076380D01*
X39068285Y-39124000D01*
X39115904Y-39171619D01*
X39163523Y-39266857D01*
X39163523Y-39362095D01*
X39115904Y-39504952D01*
X38544476Y-40076380D01*
X39163523Y-40076380D01*
X37592095Y-43394380D02*
X37592095Y-44203904D01*
X37639714Y-44299142D01*
X37687333Y-44346761D01*
X37782571Y-44394380D01*
X37973047Y-44394380D01*
X38068285Y-44346761D01*
X38115904Y-44299142D01*
X38163523Y-44203904D01*
X38163523Y-43394380D01*
X38544476Y-43394380D02*
X39163523Y-43394380D01*
X38830190Y-43775333D01*
X38973047Y-43775333D01*
X39068285Y-43822952D01*
X39115904Y-43870571D01*
X39163523Y-43965809D01*
X39163523Y-44203904D01*
X39115904Y-44299142D01*
X39068285Y-44346761D01*
X38973047Y-44394380D01*
X38687333Y-44394380D01*
X38592095Y-44346761D01*
X38544476Y-44299142D01*
X32432666Y-34250380D02*
X32432666Y-34964666D01*
X32385047Y-35107523D01*
X32289809Y-35202761D01*
X32146952Y-35250380D01*
X32051714Y-35250380D01*
X33337428Y-34583714D02*
X33337428Y-35250380D01*
X33099333Y-34202761D02*
X32861238Y-34917047D01*
X33480285Y-34917047D01*
X52411333Y-30169142D02*
X52363714Y-30216761D01*
X52220857Y-30264380D01*
X52125619Y-30264380D01*
X51982761Y-30216761D01*
X51887523Y-30121523D01*
X51839904Y-30026285D01*
X51792285Y-29835809D01*
X51792285Y-29692952D01*
X51839904Y-29502476D01*
X51887523Y-29407238D01*
X51982761Y-29312000D01*
X52125619Y-29264380D01*
X52220857Y-29264380D01*
X52363714Y-29312000D01*
X52411333Y-29359619D01*
X52982761Y-29692952D02*
X52887523Y-29645333D01*
X52839904Y-29597714D01*
X52792285Y-29502476D01*
X52792285Y-29454857D01*
X52839904Y-29359619D01*
X52887523Y-29312000D01*
X52982761Y-29264380D01*
X53173238Y-29264380D01*
X53268476Y-29312000D01*
X53316095Y-29359619D01*
X53363714Y-29454857D01*
X53363714Y-29502476D01*
X53316095Y-29597714D01*
X53268476Y-29645333D01*
X53173238Y-29692952D01*
X52982761Y-29692952D01*
X52887523Y-29740571D01*
X52839904Y-29788190D01*
X52792285Y-29883428D01*
X52792285Y-30073904D01*
X52839904Y-30169142D01*
X52887523Y-30216761D01*
X52982761Y-30264380D01*
X53173238Y-30264380D01*
X53268476Y-30216761D01*
X53316095Y-30169142D01*
X53363714Y-30073904D01*
X53363714Y-29883428D01*
X53316095Y-29788190D01*
X53268476Y-29740571D01*
X53173238Y-29692952D01*
X52411333Y-43029142D02*
X52363714Y-43076761D01*
X52220857Y-43124380D01*
X52125619Y-43124380D01*
X51982761Y-43076761D01*
X51887523Y-42981523D01*
X51839904Y-42886285D01*
X51792285Y-42695809D01*
X51792285Y-42552952D01*
X51839904Y-42362476D01*
X51887523Y-42267238D01*
X51982761Y-42172000D01*
X52125619Y-42124380D01*
X52220857Y-42124380D01*
X52363714Y-42172000D01*
X52411333Y-42219619D01*
X52887523Y-43124380D02*
X53078000Y-43124380D01*
X53173238Y-43076761D01*
X53220857Y-43029142D01*
X53316095Y-42886285D01*
X53363714Y-42695809D01*
X53363714Y-42314857D01*
X53316095Y-42219619D01*
X53268476Y-42172000D01*
X53173238Y-42124380D01*
X52982761Y-42124380D01*
X52887523Y-42172000D01*
X52839904Y-42219619D01*
X52792285Y-42314857D01*
X52792285Y-42552952D01*
X52839904Y-42648190D01*
X52887523Y-42695809D01*
X52982761Y-42743428D01*
X53173238Y-42743428D01*
X53268476Y-42695809D01*
X53316095Y-42648190D01*
X53363714Y-42552952D01*
X44934190Y-35782190D02*
X45410380Y-35782190D01*
X44410380Y-36115523D02*
X44934190Y-35782190D01*
X44410380Y-35448857D01*
X45410380Y-34591714D02*
X45410380Y-35163142D01*
X45410380Y-34877428D02*
X44410380Y-34877428D01*
X44553238Y-34972666D01*
X44648476Y-35067904D01*
X44696095Y-35163142D01*
X73326666Y-42422380D02*
X73326666Y-43136666D01*
X73279047Y-43279523D01*
X73183809Y-43374761D01*
X73040952Y-43422380D01*
X72945714Y-43422380D01*
X74279047Y-42422380D02*
X73802857Y-42422380D01*
X73755238Y-42898571D01*
X73802857Y-42850952D01*
X73898095Y-42803333D01*
X74136190Y-42803333D01*
X74231428Y-42850952D01*
X74279047Y-42898571D01*
X74326666Y-42993809D01*
X74326666Y-43231904D01*
X74279047Y-43327142D01*
X74231428Y-43374761D01*
X74136190Y-43422380D01*
X73898095Y-43422380D01*
X73802857Y-43374761D01*
X73755238Y-43327142D01*
X71572380Y-39536666D02*
X71096190Y-39870000D01*
X71572380Y-40108095D02*
X70572380Y-40108095D01*
X70572380Y-39727142D01*
X70620000Y-39631904D01*
X70667619Y-39584285D01*
X70762857Y-39536666D01*
X70905714Y-39536666D01*
X71000952Y-39584285D01*
X71048571Y-39631904D01*
X71096190Y-39727142D01*
X71096190Y-40108095D01*
X70572380Y-38631904D02*
X70572380Y-39108095D01*
X71048571Y-39155714D01*
X71000952Y-39108095D01*
X70953333Y-39012857D01*
X70953333Y-38774761D01*
X71000952Y-38679523D01*
X71048571Y-38631904D01*
X71143809Y-38584285D01*
X71381904Y-38584285D01*
X71477142Y-38631904D01*
X71524761Y-38679523D01*
X71572380Y-38774761D01*
X71572380Y-39012857D01*
X71524761Y-39108095D01*
X71477142Y-39155714D01*
%LPC*%
D13*
X73660000Y-27940000D03*
X73660000Y-45720000D03*
X27940000Y-45720000D03*
X27940000Y-27940000D03*
D14*
X69850000Y-46990000D03*
D15*
X67310000Y-46990000D03*
X64770000Y-46990000D03*
X62230000Y-46990000D03*
X59690000Y-46990000D03*
X57150000Y-46990000D03*
X54610000Y-46990000D03*
X52070000Y-46990000D03*
X49530000Y-46990000D03*
X46990000Y-46990000D03*
X44450000Y-46990000D03*
X41910000Y-46990000D03*
X39370000Y-46990000D03*
X36830000Y-46990000D03*
X34290000Y-46990000D03*
X31750000Y-46990000D03*
D14*
X69850000Y-26670000D03*
D15*
X67310000Y-26670000D03*
X64770000Y-26670000D03*
X62230000Y-26670000D03*
X59690000Y-26670000D03*
X57150000Y-26670000D03*
X54610000Y-26670000D03*
X52070000Y-26670000D03*
X49530000Y-26670000D03*
X46990000Y-26670000D03*
X44450000Y-26670000D03*
X41910000Y-26670000D03*
D11*
G36*
X56180252Y-33729725D02*
G01*
X56194861Y-33731892D01*
X56209188Y-33735480D01*
X56223094Y-33740456D01*
X56236445Y-33746771D01*
X56249113Y-33754364D01*
X56260976Y-33763162D01*
X56271920Y-33773080D01*
X56281838Y-33784024D01*
X56290636Y-33795887D01*
X56298229Y-33808555D01*
X56304544Y-33821906D01*
X56309520Y-33835812D01*
X56313108Y-33850139D01*
X56315275Y-33864748D01*
X56316000Y-33879500D01*
X56316000Y-34180500D01*
X56315275Y-34195252D01*
X56313108Y-34209861D01*
X56309520Y-34224188D01*
X56304544Y-34238094D01*
X56298229Y-34251445D01*
X56290636Y-34264113D01*
X56281838Y-34275976D01*
X56271920Y-34286920D01*
X56260976Y-34296838D01*
X56249113Y-34305636D01*
X56236445Y-34313229D01*
X56223094Y-34319544D01*
X56209188Y-34324520D01*
X56194861Y-34328108D01*
X56180252Y-34330275D01*
X56165500Y-34331000D01*
X54864500Y-34331000D01*
X54849748Y-34330275D01*
X54835139Y-34328108D01*
X54820812Y-34324520D01*
X54806906Y-34319544D01*
X54793555Y-34313229D01*
X54780887Y-34305636D01*
X54769024Y-34296838D01*
X54758080Y-34286920D01*
X54748162Y-34275976D01*
X54739364Y-34264113D01*
X54731771Y-34251445D01*
X54725456Y-34238094D01*
X54720480Y-34224188D01*
X54716892Y-34209861D01*
X54714725Y-34195252D01*
X54714000Y-34180500D01*
X54714000Y-33879500D01*
X54714725Y-33864748D01*
X54716892Y-33850139D01*
X54720480Y-33835812D01*
X54725456Y-33821906D01*
X54731771Y-33808555D01*
X54739364Y-33795887D01*
X54748162Y-33784024D01*
X54758080Y-33773080D01*
X54769024Y-33763162D01*
X54780887Y-33754364D01*
X54793555Y-33746771D01*
X54806906Y-33740456D01*
X54820812Y-33735480D01*
X54835139Y-33731892D01*
X54849748Y-33729725D01*
X54864500Y-33729000D01*
X56165500Y-33729000D01*
X56180252Y-33729725D01*
G37*
G36*
X56180252Y-34529725D02*
G01*
X56194861Y-34531892D01*
X56209188Y-34535480D01*
X56223094Y-34540456D01*
X56236445Y-34546771D01*
X56249113Y-34554364D01*
X56260976Y-34563162D01*
X56271920Y-34573080D01*
X56281838Y-34584024D01*
X56290636Y-34595887D01*
X56298229Y-34608555D01*
X56304544Y-34621906D01*
X56309520Y-34635812D01*
X56313108Y-34650139D01*
X56315275Y-34664748D01*
X56316000Y-34679500D01*
X56316000Y-34980500D01*
X56315275Y-34995252D01*
X56313108Y-35009861D01*
X56309520Y-35024188D01*
X56304544Y-35038094D01*
X56298229Y-35051445D01*
X56290636Y-35064113D01*
X56281838Y-35075976D01*
X56271920Y-35086920D01*
X56260976Y-35096838D01*
X56249113Y-35105636D01*
X56236445Y-35113229D01*
X56223094Y-35119544D01*
X56209188Y-35124520D01*
X56194861Y-35128108D01*
X56180252Y-35130275D01*
X56165500Y-35131000D01*
X54864500Y-35131000D01*
X54849748Y-35130275D01*
X54835139Y-35128108D01*
X54820812Y-35124520D01*
X54806906Y-35119544D01*
X54793555Y-35113229D01*
X54780887Y-35105636D01*
X54769024Y-35096838D01*
X54758080Y-35086920D01*
X54748162Y-35075976D01*
X54739364Y-35064113D01*
X54731771Y-35051445D01*
X54725456Y-35038094D01*
X54720480Y-35024188D01*
X54716892Y-35009861D01*
X54714725Y-34995252D01*
X54714000Y-34980500D01*
X54714000Y-34679500D01*
X54714725Y-34664748D01*
X54716892Y-34650139D01*
X54720480Y-34635812D01*
X54725456Y-34621906D01*
X54731771Y-34608555D01*
X54739364Y-34595887D01*
X54748162Y-34584024D01*
X54758080Y-34573080D01*
X54769024Y-34563162D01*
X54780887Y-34554364D01*
X54793555Y-34546771D01*
X54806906Y-34540456D01*
X54820812Y-34535480D01*
X54835139Y-34531892D01*
X54849748Y-34529725D01*
X54864500Y-34529000D01*
X56165500Y-34529000D01*
X56180252Y-34529725D01*
G37*
G36*
X56180252Y-35329725D02*
G01*
X56194861Y-35331892D01*
X56209188Y-35335480D01*
X56223094Y-35340456D01*
X56236445Y-35346771D01*
X56249113Y-35354364D01*
X56260976Y-35363162D01*
X56271920Y-35373080D01*
X56281838Y-35384024D01*
X56290636Y-35395887D01*
X56298229Y-35408555D01*
X56304544Y-35421906D01*
X56309520Y-35435812D01*
X56313108Y-35450139D01*
X56315275Y-35464748D01*
X56316000Y-35479500D01*
X56316000Y-35780500D01*
X56315275Y-35795252D01*
X56313108Y-35809861D01*
X56309520Y-35824188D01*
X56304544Y-35838094D01*
X56298229Y-35851445D01*
X56290636Y-35864113D01*
X56281838Y-35875976D01*
X56271920Y-35886920D01*
X56260976Y-35896838D01*
X56249113Y-35905636D01*
X56236445Y-35913229D01*
X56223094Y-35919544D01*
X56209188Y-35924520D01*
X56194861Y-35928108D01*
X56180252Y-35930275D01*
X56165500Y-35931000D01*
X54864500Y-35931000D01*
X54849748Y-35930275D01*
X54835139Y-35928108D01*
X54820812Y-35924520D01*
X54806906Y-35919544D01*
X54793555Y-35913229D01*
X54780887Y-35905636D01*
X54769024Y-35896838D01*
X54758080Y-35886920D01*
X54748162Y-35875976D01*
X54739364Y-35864113D01*
X54731771Y-35851445D01*
X54725456Y-35838094D01*
X54720480Y-35824188D01*
X54716892Y-35809861D01*
X54714725Y-35795252D01*
X54714000Y-35780500D01*
X54714000Y-35479500D01*
X54714725Y-35464748D01*
X54716892Y-35450139D01*
X54720480Y-35435812D01*
X54725456Y-35421906D01*
X54731771Y-35408555D01*
X54739364Y-35395887D01*
X54748162Y-35384024D01*
X54758080Y-35373080D01*
X54769024Y-35363162D01*
X54780887Y-35354364D01*
X54793555Y-35346771D01*
X54806906Y-35340456D01*
X54820812Y-35335480D01*
X54835139Y-35331892D01*
X54849748Y-35329725D01*
X54864500Y-35329000D01*
X56165500Y-35329000D01*
X56180252Y-35329725D01*
G37*
G36*
X56180252Y-36129725D02*
G01*
X56194861Y-36131892D01*
X56209188Y-36135480D01*
X56223094Y-36140456D01*
X56236445Y-36146771D01*
X56249113Y-36154364D01*
X56260976Y-36163162D01*
X56271920Y-36173080D01*
X56281838Y-36184024D01*
X56290636Y-36195887D01*
X56298229Y-36208555D01*
X56304544Y-36221906D01*
X56309520Y-36235812D01*
X56313108Y-36250139D01*
X56315275Y-36264748D01*
X56316000Y-36279500D01*
X56316000Y-36580500D01*
X56315275Y-36595252D01*
X56313108Y-36609861D01*
X56309520Y-36624188D01*
X56304544Y-36638094D01*
X56298229Y-36651445D01*
X56290636Y-36664113D01*
X56281838Y-36675976D01*
X56271920Y-36686920D01*
X56260976Y-36696838D01*
X56249113Y-36705636D01*
X56236445Y-36713229D01*
X56223094Y-36719544D01*
X56209188Y-36724520D01*
X56194861Y-36728108D01*
X56180252Y-36730275D01*
X56165500Y-36731000D01*
X54864500Y-36731000D01*
X54849748Y-36730275D01*
X54835139Y-36728108D01*
X54820812Y-36724520D01*
X54806906Y-36719544D01*
X54793555Y-36713229D01*
X54780887Y-36705636D01*
X54769024Y-36696838D01*
X54758080Y-36686920D01*
X54748162Y-36675976D01*
X54739364Y-36664113D01*
X54731771Y-36651445D01*
X54725456Y-36638094D01*
X54720480Y-36624188D01*
X54716892Y-36609861D01*
X54714725Y-36595252D01*
X54714000Y-36580500D01*
X54714000Y-36279500D01*
X54714725Y-36264748D01*
X54716892Y-36250139D01*
X54720480Y-36235812D01*
X54725456Y-36221906D01*
X54731771Y-36208555D01*
X54739364Y-36195887D01*
X54748162Y-36184024D01*
X54758080Y-36173080D01*
X54769024Y-36163162D01*
X54780887Y-36154364D01*
X54793555Y-36146771D01*
X54806906Y-36140456D01*
X54820812Y-36135480D01*
X54835139Y-36131892D01*
X54849748Y-36129725D01*
X54864500Y-36129000D01*
X56165500Y-36129000D01*
X56180252Y-36129725D01*
G37*
G36*
X56180252Y-36929725D02*
G01*
X56194861Y-36931892D01*
X56209188Y-36935480D01*
X56223094Y-36940456D01*
X56236445Y-36946771D01*
X56249113Y-36954364D01*
X56260976Y-36963162D01*
X56271920Y-36973080D01*
X56281838Y-36984024D01*
X56290636Y-36995887D01*
X56298229Y-37008555D01*
X56304544Y-37021906D01*
X56309520Y-37035812D01*
X56313108Y-37050139D01*
X56315275Y-37064748D01*
X56316000Y-37079500D01*
X56316000Y-37380500D01*
X56315275Y-37395252D01*
X56313108Y-37409861D01*
X56309520Y-37424188D01*
X56304544Y-37438094D01*
X56298229Y-37451445D01*
X56290636Y-37464113D01*
X56281838Y-37475976D01*
X56271920Y-37486920D01*
X56260976Y-37496838D01*
X56249113Y-37505636D01*
X56236445Y-37513229D01*
X56223094Y-37519544D01*
X56209188Y-37524520D01*
X56194861Y-37528108D01*
X56180252Y-37530275D01*
X56165500Y-37531000D01*
X54864500Y-37531000D01*
X54849748Y-37530275D01*
X54835139Y-37528108D01*
X54820812Y-37524520D01*
X54806906Y-37519544D01*
X54793555Y-37513229D01*
X54780887Y-37505636D01*
X54769024Y-37496838D01*
X54758080Y-37486920D01*
X54748162Y-37475976D01*
X54739364Y-37464113D01*
X54731771Y-37451445D01*
X54725456Y-37438094D01*
X54720480Y-37424188D01*
X54716892Y-37409861D01*
X54714725Y-37395252D01*
X54714000Y-37380500D01*
X54714000Y-37079500D01*
X54714725Y-37064748D01*
X54716892Y-37050139D01*
X54720480Y-37035812D01*
X54725456Y-37021906D01*
X54731771Y-37008555D01*
X54739364Y-36995887D01*
X54748162Y-36984024D01*
X54758080Y-36973080D01*
X54769024Y-36963162D01*
X54780887Y-36954364D01*
X54793555Y-36946771D01*
X54806906Y-36940456D01*
X54820812Y-36935480D01*
X54835139Y-36931892D01*
X54849748Y-36929725D01*
X54864500Y-36929000D01*
X56165500Y-36929000D01*
X56180252Y-36929725D01*
G37*
G36*
X56180252Y-37729725D02*
G01*
X56194861Y-37731892D01*
X56209188Y-37735480D01*
X56223094Y-37740456D01*
X56236445Y-37746771D01*
X56249113Y-37754364D01*
X56260976Y-37763162D01*
X56271920Y-37773080D01*
X56281838Y-37784024D01*
X56290636Y-37795887D01*
X56298229Y-37808555D01*
X56304544Y-37821906D01*
X56309520Y-37835812D01*
X56313108Y-37850139D01*
X56315275Y-37864748D01*
X56316000Y-37879500D01*
X56316000Y-38180500D01*
X56315275Y-38195252D01*
X56313108Y-38209861D01*
X56309520Y-38224188D01*
X56304544Y-38238094D01*
X56298229Y-38251445D01*
X56290636Y-38264113D01*
X56281838Y-38275976D01*
X56271920Y-38286920D01*
X56260976Y-38296838D01*
X56249113Y-38305636D01*
X56236445Y-38313229D01*
X56223094Y-38319544D01*
X56209188Y-38324520D01*
X56194861Y-38328108D01*
X56180252Y-38330275D01*
X56165500Y-38331000D01*
X54864500Y-38331000D01*
X54849748Y-38330275D01*
X54835139Y-38328108D01*
X54820812Y-38324520D01*
X54806906Y-38319544D01*
X54793555Y-38313229D01*
X54780887Y-38305636D01*
X54769024Y-38296838D01*
X54758080Y-38286920D01*
X54748162Y-38275976D01*
X54739364Y-38264113D01*
X54731771Y-38251445D01*
X54725456Y-38238094D01*
X54720480Y-38224188D01*
X54716892Y-38209861D01*
X54714725Y-38195252D01*
X54714000Y-38180500D01*
X54714000Y-37879500D01*
X54714725Y-37864748D01*
X54716892Y-37850139D01*
X54720480Y-37835812D01*
X54725456Y-37821906D01*
X54731771Y-37808555D01*
X54739364Y-37795887D01*
X54748162Y-37784024D01*
X54758080Y-37773080D01*
X54769024Y-37763162D01*
X54780887Y-37754364D01*
X54793555Y-37746771D01*
X54806906Y-37740456D01*
X54820812Y-37735480D01*
X54835139Y-37731892D01*
X54849748Y-37729725D01*
X54864500Y-37729000D01*
X56165500Y-37729000D01*
X56180252Y-37729725D01*
G37*
G36*
X56180252Y-38529725D02*
G01*
X56194861Y-38531892D01*
X56209188Y-38535480D01*
X56223094Y-38540456D01*
X56236445Y-38546771D01*
X56249113Y-38554364D01*
X56260976Y-38563162D01*
X56271920Y-38573080D01*
X56281838Y-38584024D01*
X56290636Y-38595887D01*
X56298229Y-38608555D01*
X56304544Y-38621906D01*
X56309520Y-38635812D01*
X56313108Y-38650139D01*
X56315275Y-38664748D01*
X56316000Y-38679500D01*
X56316000Y-38980500D01*
X56315275Y-38995252D01*
X56313108Y-39009861D01*
X56309520Y-39024188D01*
X56304544Y-39038094D01*
X56298229Y-39051445D01*
X56290636Y-39064113D01*
X56281838Y-39075976D01*
X56271920Y-39086920D01*
X56260976Y-39096838D01*
X56249113Y-39105636D01*
X56236445Y-39113229D01*
X56223094Y-39119544D01*
X56209188Y-39124520D01*
X56194861Y-39128108D01*
X56180252Y-39130275D01*
X56165500Y-39131000D01*
X54864500Y-39131000D01*
X54849748Y-39130275D01*
X54835139Y-39128108D01*
X54820812Y-39124520D01*
X54806906Y-39119544D01*
X54793555Y-39113229D01*
X54780887Y-39105636D01*
X54769024Y-39096838D01*
X54758080Y-39086920D01*
X54748162Y-39075976D01*
X54739364Y-39064113D01*
X54731771Y-39051445D01*
X54725456Y-39038094D01*
X54720480Y-39024188D01*
X54716892Y-39009861D01*
X54714725Y-38995252D01*
X54714000Y-38980500D01*
X54714000Y-38679500D01*
X54714725Y-38664748D01*
X54716892Y-38650139D01*
X54720480Y-38635812D01*
X54725456Y-38621906D01*
X54731771Y-38608555D01*
X54739364Y-38595887D01*
X54748162Y-38584024D01*
X54758080Y-38573080D01*
X54769024Y-38563162D01*
X54780887Y-38554364D01*
X54793555Y-38546771D01*
X54806906Y-38540456D01*
X54820812Y-38535480D01*
X54835139Y-38531892D01*
X54849748Y-38529725D01*
X54864500Y-38529000D01*
X56165500Y-38529000D01*
X56180252Y-38529725D01*
G37*
G36*
X56180252Y-39329725D02*
G01*
X56194861Y-39331892D01*
X56209188Y-39335480D01*
X56223094Y-39340456D01*
X56236445Y-39346771D01*
X56249113Y-39354364D01*
X56260976Y-39363162D01*
X56271920Y-39373080D01*
X56281838Y-39384024D01*
X56290636Y-39395887D01*
X56298229Y-39408555D01*
X56304544Y-39421906D01*
X56309520Y-39435812D01*
X56313108Y-39450139D01*
X56315275Y-39464748D01*
X56316000Y-39479500D01*
X56316000Y-39780500D01*
X56315275Y-39795252D01*
X56313108Y-39809861D01*
X56309520Y-39824188D01*
X56304544Y-39838094D01*
X56298229Y-39851445D01*
X56290636Y-39864113D01*
X56281838Y-39875976D01*
X56271920Y-39886920D01*
X56260976Y-39896838D01*
X56249113Y-39905636D01*
X56236445Y-39913229D01*
X56223094Y-39919544D01*
X56209188Y-39924520D01*
X56194861Y-39928108D01*
X56180252Y-39930275D01*
X56165500Y-39931000D01*
X54864500Y-39931000D01*
X54849748Y-39930275D01*
X54835139Y-39928108D01*
X54820812Y-39924520D01*
X54806906Y-39919544D01*
X54793555Y-39913229D01*
X54780887Y-39905636D01*
X54769024Y-39896838D01*
X54758080Y-39886920D01*
X54748162Y-39875976D01*
X54739364Y-39864113D01*
X54731771Y-39851445D01*
X54725456Y-39838094D01*
X54720480Y-39824188D01*
X54716892Y-39809861D01*
X54714725Y-39795252D01*
X54714000Y-39780500D01*
X54714000Y-39479500D01*
X54714725Y-39464748D01*
X54716892Y-39450139D01*
X54720480Y-39435812D01*
X54725456Y-39421906D01*
X54731771Y-39408555D01*
X54739364Y-39395887D01*
X54748162Y-39384024D01*
X54758080Y-39373080D01*
X54769024Y-39363162D01*
X54780887Y-39354364D01*
X54793555Y-39346771D01*
X54806906Y-39340456D01*
X54820812Y-39335480D01*
X54835139Y-39331892D01*
X54849748Y-39329725D01*
X54864500Y-39329000D01*
X56165500Y-39329000D01*
X56180252Y-39329725D01*
G37*
G36*
X57055252Y-40204725D02*
G01*
X57069861Y-40206892D01*
X57084188Y-40210480D01*
X57098094Y-40215456D01*
X57111445Y-40221771D01*
X57124113Y-40229364D01*
X57135976Y-40238162D01*
X57146920Y-40248080D01*
X57156838Y-40259024D01*
X57165636Y-40270887D01*
X57173229Y-40283555D01*
X57179544Y-40296906D01*
X57184520Y-40310812D01*
X57188108Y-40325139D01*
X57190275Y-40339748D01*
X57191000Y-40354500D01*
X57191000Y-41655500D01*
X57190275Y-41670252D01*
X57188108Y-41684861D01*
X57184520Y-41699188D01*
X57179544Y-41713094D01*
X57173229Y-41726445D01*
X57165636Y-41739113D01*
X57156838Y-41750976D01*
X57146920Y-41761920D01*
X57135976Y-41771838D01*
X57124113Y-41780636D01*
X57111445Y-41788229D01*
X57098094Y-41794544D01*
X57084188Y-41799520D01*
X57069861Y-41803108D01*
X57055252Y-41805275D01*
X57040500Y-41806000D01*
X56739500Y-41806000D01*
X56724748Y-41805275D01*
X56710139Y-41803108D01*
X56695812Y-41799520D01*
X56681906Y-41794544D01*
X56668555Y-41788229D01*
X56655887Y-41780636D01*
X56644024Y-41771838D01*
X56633080Y-41761920D01*
X56623162Y-41750976D01*
X56614364Y-41739113D01*
X56606771Y-41726445D01*
X56600456Y-41713094D01*
X56595480Y-41699188D01*
X56591892Y-41684861D01*
X56589725Y-41670252D01*
X56589000Y-41655500D01*
X56589000Y-40354500D01*
X56589725Y-40339748D01*
X56591892Y-40325139D01*
X56595480Y-40310812D01*
X56600456Y-40296906D01*
X56606771Y-40283555D01*
X56614364Y-40270887D01*
X56623162Y-40259024D01*
X56633080Y-40248080D01*
X56644024Y-40238162D01*
X56655887Y-40229364D01*
X56668555Y-40221771D01*
X56681906Y-40215456D01*
X56695812Y-40210480D01*
X56710139Y-40206892D01*
X56724748Y-40204725D01*
X56739500Y-40204000D01*
X57040500Y-40204000D01*
X57055252Y-40204725D01*
G37*
G36*
X57855252Y-40204725D02*
G01*
X57869861Y-40206892D01*
X57884188Y-40210480D01*
X57898094Y-40215456D01*
X57911445Y-40221771D01*
X57924113Y-40229364D01*
X57935976Y-40238162D01*
X57946920Y-40248080D01*
X57956838Y-40259024D01*
X57965636Y-40270887D01*
X57973229Y-40283555D01*
X57979544Y-40296906D01*
X57984520Y-40310812D01*
X57988108Y-40325139D01*
X57990275Y-40339748D01*
X57991000Y-40354500D01*
X57991000Y-41655500D01*
X57990275Y-41670252D01*
X57988108Y-41684861D01*
X57984520Y-41699188D01*
X57979544Y-41713094D01*
X57973229Y-41726445D01*
X57965636Y-41739113D01*
X57956838Y-41750976D01*
X57946920Y-41761920D01*
X57935976Y-41771838D01*
X57924113Y-41780636D01*
X57911445Y-41788229D01*
X57898094Y-41794544D01*
X57884188Y-41799520D01*
X57869861Y-41803108D01*
X57855252Y-41805275D01*
X57840500Y-41806000D01*
X57539500Y-41806000D01*
X57524748Y-41805275D01*
X57510139Y-41803108D01*
X57495812Y-41799520D01*
X57481906Y-41794544D01*
X57468555Y-41788229D01*
X57455887Y-41780636D01*
X57444024Y-41771838D01*
X57433080Y-41761920D01*
X57423162Y-41750976D01*
X57414364Y-41739113D01*
X57406771Y-41726445D01*
X57400456Y-41713094D01*
X57395480Y-41699188D01*
X57391892Y-41684861D01*
X57389725Y-41670252D01*
X57389000Y-41655500D01*
X57389000Y-40354500D01*
X57389725Y-40339748D01*
X57391892Y-40325139D01*
X57395480Y-40310812D01*
X57400456Y-40296906D01*
X57406771Y-40283555D01*
X57414364Y-40270887D01*
X57423162Y-40259024D01*
X57433080Y-40248080D01*
X57444024Y-40238162D01*
X57455887Y-40229364D01*
X57468555Y-40221771D01*
X57481906Y-40215456D01*
X57495812Y-40210480D01*
X57510139Y-40206892D01*
X57524748Y-40204725D01*
X57539500Y-40204000D01*
X57840500Y-40204000D01*
X57855252Y-40204725D01*
G37*
G36*
X58655252Y-40204725D02*
G01*
X58669861Y-40206892D01*
X58684188Y-40210480D01*
X58698094Y-40215456D01*
X58711445Y-40221771D01*
X58724113Y-40229364D01*
X58735976Y-40238162D01*
X58746920Y-40248080D01*
X58756838Y-40259024D01*
X58765636Y-40270887D01*
X58773229Y-40283555D01*
X58779544Y-40296906D01*
X58784520Y-40310812D01*
X58788108Y-40325139D01*
X58790275Y-40339748D01*
X58791000Y-40354500D01*
X58791000Y-41655500D01*
X58790275Y-41670252D01*
X58788108Y-41684861D01*
X58784520Y-41699188D01*
X58779544Y-41713094D01*
X58773229Y-41726445D01*
X58765636Y-41739113D01*
X58756838Y-41750976D01*
X58746920Y-41761920D01*
X58735976Y-41771838D01*
X58724113Y-41780636D01*
X58711445Y-41788229D01*
X58698094Y-41794544D01*
X58684188Y-41799520D01*
X58669861Y-41803108D01*
X58655252Y-41805275D01*
X58640500Y-41806000D01*
X58339500Y-41806000D01*
X58324748Y-41805275D01*
X58310139Y-41803108D01*
X58295812Y-41799520D01*
X58281906Y-41794544D01*
X58268555Y-41788229D01*
X58255887Y-41780636D01*
X58244024Y-41771838D01*
X58233080Y-41761920D01*
X58223162Y-41750976D01*
X58214364Y-41739113D01*
X58206771Y-41726445D01*
X58200456Y-41713094D01*
X58195480Y-41699188D01*
X58191892Y-41684861D01*
X58189725Y-41670252D01*
X58189000Y-41655500D01*
X58189000Y-40354500D01*
X58189725Y-40339748D01*
X58191892Y-40325139D01*
X58195480Y-40310812D01*
X58200456Y-40296906D01*
X58206771Y-40283555D01*
X58214364Y-40270887D01*
X58223162Y-40259024D01*
X58233080Y-40248080D01*
X58244024Y-40238162D01*
X58255887Y-40229364D01*
X58268555Y-40221771D01*
X58281906Y-40215456D01*
X58295812Y-40210480D01*
X58310139Y-40206892D01*
X58324748Y-40204725D01*
X58339500Y-40204000D01*
X58640500Y-40204000D01*
X58655252Y-40204725D01*
G37*
G36*
X59455252Y-40204725D02*
G01*
X59469861Y-40206892D01*
X59484188Y-40210480D01*
X59498094Y-40215456D01*
X59511445Y-40221771D01*
X59524113Y-40229364D01*
X59535976Y-40238162D01*
X59546920Y-40248080D01*
X59556838Y-40259024D01*
X59565636Y-40270887D01*
X59573229Y-40283555D01*
X59579544Y-40296906D01*
X59584520Y-40310812D01*
X59588108Y-40325139D01*
X59590275Y-40339748D01*
X59591000Y-40354500D01*
X59591000Y-41655500D01*
X59590275Y-41670252D01*
X59588108Y-41684861D01*
X59584520Y-41699188D01*
X59579544Y-41713094D01*
X59573229Y-41726445D01*
X59565636Y-41739113D01*
X59556838Y-41750976D01*
X59546920Y-41761920D01*
X59535976Y-41771838D01*
X59524113Y-41780636D01*
X59511445Y-41788229D01*
X59498094Y-41794544D01*
X59484188Y-41799520D01*
X59469861Y-41803108D01*
X59455252Y-41805275D01*
X59440500Y-41806000D01*
X59139500Y-41806000D01*
X59124748Y-41805275D01*
X59110139Y-41803108D01*
X59095812Y-41799520D01*
X59081906Y-41794544D01*
X59068555Y-41788229D01*
X59055887Y-41780636D01*
X59044024Y-41771838D01*
X59033080Y-41761920D01*
X59023162Y-41750976D01*
X59014364Y-41739113D01*
X59006771Y-41726445D01*
X59000456Y-41713094D01*
X58995480Y-41699188D01*
X58991892Y-41684861D01*
X58989725Y-41670252D01*
X58989000Y-41655500D01*
X58989000Y-40354500D01*
X58989725Y-40339748D01*
X58991892Y-40325139D01*
X58995480Y-40310812D01*
X59000456Y-40296906D01*
X59006771Y-40283555D01*
X59014364Y-40270887D01*
X59023162Y-40259024D01*
X59033080Y-40248080D01*
X59044024Y-40238162D01*
X59055887Y-40229364D01*
X59068555Y-40221771D01*
X59081906Y-40215456D01*
X59095812Y-40210480D01*
X59110139Y-40206892D01*
X59124748Y-40204725D01*
X59139500Y-40204000D01*
X59440500Y-40204000D01*
X59455252Y-40204725D01*
G37*
G36*
X60255252Y-40204725D02*
G01*
X60269861Y-40206892D01*
X60284188Y-40210480D01*
X60298094Y-40215456D01*
X60311445Y-40221771D01*
X60324113Y-40229364D01*
X60335976Y-40238162D01*
X60346920Y-40248080D01*
X60356838Y-40259024D01*
X60365636Y-40270887D01*
X60373229Y-40283555D01*
X60379544Y-40296906D01*
X60384520Y-40310812D01*
X60388108Y-40325139D01*
X60390275Y-40339748D01*
X60391000Y-40354500D01*
X60391000Y-41655500D01*
X60390275Y-41670252D01*
X60388108Y-41684861D01*
X60384520Y-41699188D01*
X60379544Y-41713094D01*
X60373229Y-41726445D01*
X60365636Y-41739113D01*
X60356838Y-41750976D01*
X60346920Y-41761920D01*
X60335976Y-41771838D01*
X60324113Y-41780636D01*
X60311445Y-41788229D01*
X60298094Y-41794544D01*
X60284188Y-41799520D01*
X60269861Y-41803108D01*
X60255252Y-41805275D01*
X60240500Y-41806000D01*
X59939500Y-41806000D01*
X59924748Y-41805275D01*
X59910139Y-41803108D01*
X59895812Y-41799520D01*
X59881906Y-41794544D01*
X59868555Y-41788229D01*
X59855887Y-41780636D01*
X59844024Y-41771838D01*
X59833080Y-41761920D01*
X59823162Y-41750976D01*
X59814364Y-41739113D01*
X59806771Y-41726445D01*
X59800456Y-41713094D01*
X59795480Y-41699188D01*
X59791892Y-41684861D01*
X59789725Y-41670252D01*
X59789000Y-41655500D01*
X59789000Y-40354500D01*
X59789725Y-40339748D01*
X59791892Y-40325139D01*
X59795480Y-40310812D01*
X59800456Y-40296906D01*
X59806771Y-40283555D01*
X59814364Y-40270887D01*
X59823162Y-40259024D01*
X59833080Y-40248080D01*
X59844024Y-40238162D01*
X59855887Y-40229364D01*
X59868555Y-40221771D01*
X59881906Y-40215456D01*
X59895812Y-40210480D01*
X59910139Y-40206892D01*
X59924748Y-40204725D01*
X59939500Y-40204000D01*
X60240500Y-40204000D01*
X60255252Y-40204725D01*
G37*
G36*
X61055252Y-40204725D02*
G01*
X61069861Y-40206892D01*
X61084188Y-40210480D01*
X61098094Y-40215456D01*
X61111445Y-40221771D01*
X61124113Y-40229364D01*
X61135976Y-40238162D01*
X61146920Y-40248080D01*
X61156838Y-40259024D01*
X61165636Y-40270887D01*
X61173229Y-40283555D01*
X61179544Y-40296906D01*
X61184520Y-40310812D01*
X61188108Y-40325139D01*
X61190275Y-40339748D01*
X61191000Y-40354500D01*
X61191000Y-41655500D01*
X61190275Y-41670252D01*
X61188108Y-41684861D01*
X61184520Y-41699188D01*
X61179544Y-41713094D01*
X61173229Y-41726445D01*
X61165636Y-41739113D01*
X61156838Y-41750976D01*
X61146920Y-41761920D01*
X61135976Y-41771838D01*
X61124113Y-41780636D01*
X61111445Y-41788229D01*
X61098094Y-41794544D01*
X61084188Y-41799520D01*
X61069861Y-41803108D01*
X61055252Y-41805275D01*
X61040500Y-41806000D01*
X60739500Y-41806000D01*
X60724748Y-41805275D01*
X60710139Y-41803108D01*
X60695812Y-41799520D01*
X60681906Y-41794544D01*
X60668555Y-41788229D01*
X60655887Y-41780636D01*
X60644024Y-41771838D01*
X60633080Y-41761920D01*
X60623162Y-41750976D01*
X60614364Y-41739113D01*
X60606771Y-41726445D01*
X60600456Y-41713094D01*
X60595480Y-41699188D01*
X60591892Y-41684861D01*
X60589725Y-41670252D01*
X60589000Y-41655500D01*
X60589000Y-40354500D01*
X60589725Y-40339748D01*
X60591892Y-40325139D01*
X60595480Y-40310812D01*
X60600456Y-40296906D01*
X60606771Y-40283555D01*
X60614364Y-40270887D01*
X60623162Y-40259024D01*
X60633080Y-40248080D01*
X60644024Y-40238162D01*
X60655887Y-40229364D01*
X60668555Y-40221771D01*
X60681906Y-40215456D01*
X60695812Y-40210480D01*
X60710139Y-40206892D01*
X60724748Y-40204725D01*
X60739500Y-40204000D01*
X61040500Y-40204000D01*
X61055252Y-40204725D01*
G37*
G36*
X61855252Y-40204725D02*
G01*
X61869861Y-40206892D01*
X61884188Y-40210480D01*
X61898094Y-40215456D01*
X61911445Y-40221771D01*
X61924113Y-40229364D01*
X61935976Y-40238162D01*
X61946920Y-40248080D01*
X61956838Y-40259024D01*
X61965636Y-40270887D01*
X61973229Y-40283555D01*
X61979544Y-40296906D01*
X61984520Y-40310812D01*
X61988108Y-40325139D01*
X61990275Y-40339748D01*
X61991000Y-40354500D01*
X61991000Y-41655500D01*
X61990275Y-41670252D01*
X61988108Y-41684861D01*
X61984520Y-41699188D01*
X61979544Y-41713094D01*
X61973229Y-41726445D01*
X61965636Y-41739113D01*
X61956838Y-41750976D01*
X61946920Y-41761920D01*
X61935976Y-41771838D01*
X61924113Y-41780636D01*
X61911445Y-41788229D01*
X61898094Y-41794544D01*
X61884188Y-41799520D01*
X61869861Y-41803108D01*
X61855252Y-41805275D01*
X61840500Y-41806000D01*
X61539500Y-41806000D01*
X61524748Y-41805275D01*
X61510139Y-41803108D01*
X61495812Y-41799520D01*
X61481906Y-41794544D01*
X61468555Y-41788229D01*
X61455887Y-41780636D01*
X61444024Y-41771838D01*
X61433080Y-41761920D01*
X61423162Y-41750976D01*
X61414364Y-41739113D01*
X61406771Y-41726445D01*
X61400456Y-41713094D01*
X61395480Y-41699188D01*
X61391892Y-41684861D01*
X61389725Y-41670252D01*
X61389000Y-41655500D01*
X61389000Y-40354500D01*
X61389725Y-40339748D01*
X61391892Y-40325139D01*
X61395480Y-40310812D01*
X61400456Y-40296906D01*
X61406771Y-40283555D01*
X61414364Y-40270887D01*
X61423162Y-40259024D01*
X61433080Y-40248080D01*
X61444024Y-40238162D01*
X61455887Y-40229364D01*
X61468555Y-40221771D01*
X61481906Y-40215456D01*
X61495812Y-40210480D01*
X61510139Y-40206892D01*
X61524748Y-40204725D01*
X61539500Y-40204000D01*
X61840500Y-40204000D01*
X61855252Y-40204725D01*
G37*
G36*
X62655252Y-40204725D02*
G01*
X62669861Y-40206892D01*
X62684188Y-40210480D01*
X62698094Y-40215456D01*
X62711445Y-40221771D01*
X62724113Y-40229364D01*
X62735976Y-40238162D01*
X62746920Y-40248080D01*
X62756838Y-40259024D01*
X62765636Y-40270887D01*
X62773229Y-40283555D01*
X62779544Y-40296906D01*
X62784520Y-40310812D01*
X62788108Y-40325139D01*
X62790275Y-40339748D01*
X62791000Y-40354500D01*
X62791000Y-41655500D01*
X62790275Y-41670252D01*
X62788108Y-41684861D01*
X62784520Y-41699188D01*
X62779544Y-41713094D01*
X62773229Y-41726445D01*
X62765636Y-41739113D01*
X62756838Y-41750976D01*
X62746920Y-41761920D01*
X62735976Y-41771838D01*
X62724113Y-41780636D01*
X62711445Y-41788229D01*
X62698094Y-41794544D01*
X62684188Y-41799520D01*
X62669861Y-41803108D01*
X62655252Y-41805275D01*
X62640500Y-41806000D01*
X62339500Y-41806000D01*
X62324748Y-41805275D01*
X62310139Y-41803108D01*
X62295812Y-41799520D01*
X62281906Y-41794544D01*
X62268555Y-41788229D01*
X62255887Y-41780636D01*
X62244024Y-41771838D01*
X62233080Y-41761920D01*
X62223162Y-41750976D01*
X62214364Y-41739113D01*
X62206771Y-41726445D01*
X62200456Y-41713094D01*
X62195480Y-41699188D01*
X62191892Y-41684861D01*
X62189725Y-41670252D01*
X62189000Y-41655500D01*
X62189000Y-40354500D01*
X62189725Y-40339748D01*
X62191892Y-40325139D01*
X62195480Y-40310812D01*
X62200456Y-40296906D01*
X62206771Y-40283555D01*
X62214364Y-40270887D01*
X62223162Y-40259024D01*
X62233080Y-40248080D01*
X62244024Y-40238162D01*
X62255887Y-40229364D01*
X62268555Y-40221771D01*
X62281906Y-40215456D01*
X62295812Y-40210480D01*
X62310139Y-40206892D01*
X62324748Y-40204725D01*
X62339500Y-40204000D01*
X62640500Y-40204000D01*
X62655252Y-40204725D01*
G37*
G36*
X64530252Y-39329725D02*
G01*
X64544861Y-39331892D01*
X64559188Y-39335480D01*
X64573094Y-39340456D01*
X64586445Y-39346771D01*
X64599113Y-39354364D01*
X64610976Y-39363162D01*
X64621920Y-39373080D01*
X64631838Y-39384024D01*
X64640636Y-39395887D01*
X64648229Y-39408555D01*
X64654544Y-39421906D01*
X64659520Y-39435812D01*
X64663108Y-39450139D01*
X64665275Y-39464748D01*
X64666000Y-39479500D01*
X64666000Y-39780500D01*
X64665275Y-39795252D01*
X64663108Y-39809861D01*
X64659520Y-39824188D01*
X64654544Y-39838094D01*
X64648229Y-39851445D01*
X64640636Y-39864113D01*
X64631838Y-39875976D01*
X64621920Y-39886920D01*
X64610976Y-39896838D01*
X64599113Y-39905636D01*
X64586445Y-39913229D01*
X64573094Y-39919544D01*
X64559188Y-39924520D01*
X64544861Y-39928108D01*
X64530252Y-39930275D01*
X64515500Y-39931000D01*
X63214500Y-39931000D01*
X63199748Y-39930275D01*
X63185139Y-39928108D01*
X63170812Y-39924520D01*
X63156906Y-39919544D01*
X63143555Y-39913229D01*
X63130887Y-39905636D01*
X63119024Y-39896838D01*
X63108080Y-39886920D01*
X63098162Y-39875976D01*
X63089364Y-39864113D01*
X63081771Y-39851445D01*
X63075456Y-39838094D01*
X63070480Y-39824188D01*
X63066892Y-39809861D01*
X63064725Y-39795252D01*
X63064000Y-39780500D01*
X63064000Y-39479500D01*
X63064725Y-39464748D01*
X63066892Y-39450139D01*
X63070480Y-39435812D01*
X63075456Y-39421906D01*
X63081771Y-39408555D01*
X63089364Y-39395887D01*
X63098162Y-39384024D01*
X63108080Y-39373080D01*
X63119024Y-39363162D01*
X63130887Y-39354364D01*
X63143555Y-39346771D01*
X63156906Y-39340456D01*
X63170812Y-39335480D01*
X63185139Y-39331892D01*
X63199748Y-39329725D01*
X63214500Y-39329000D01*
X64515500Y-39329000D01*
X64530252Y-39329725D01*
G37*
G36*
X64530252Y-38529725D02*
G01*
X64544861Y-38531892D01*
X64559188Y-38535480D01*
X64573094Y-38540456D01*
X64586445Y-38546771D01*
X64599113Y-38554364D01*
X64610976Y-38563162D01*
X64621920Y-38573080D01*
X64631838Y-38584024D01*
X64640636Y-38595887D01*
X64648229Y-38608555D01*
X64654544Y-38621906D01*
X64659520Y-38635812D01*
X64663108Y-38650139D01*
X64665275Y-38664748D01*
X64666000Y-38679500D01*
X64666000Y-38980500D01*
X64665275Y-38995252D01*
X64663108Y-39009861D01*
X64659520Y-39024188D01*
X64654544Y-39038094D01*
X64648229Y-39051445D01*
X64640636Y-39064113D01*
X64631838Y-39075976D01*
X64621920Y-39086920D01*
X64610976Y-39096838D01*
X64599113Y-39105636D01*
X64586445Y-39113229D01*
X64573094Y-39119544D01*
X64559188Y-39124520D01*
X64544861Y-39128108D01*
X64530252Y-39130275D01*
X64515500Y-39131000D01*
X63214500Y-39131000D01*
X63199748Y-39130275D01*
X63185139Y-39128108D01*
X63170812Y-39124520D01*
X63156906Y-39119544D01*
X63143555Y-39113229D01*
X63130887Y-39105636D01*
X63119024Y-39096838D01*
X63108080Y-39086920D01*
X63098162Y-39075976D01*
X63089364Y-39064113D01*
X63081771Y-39051445D01*
X63075456Y-39038094D01*
X63070480Y-39024188D01*
X63066892Y-39009861D01*
X63064725Y-38995252D01*
X63064000Y-38980500D01*
X63064000Y-38679500D01*
X63064725Y-38664748D01*
X63066892Y-38650139D01*
X63070480Y-38635812D01*
X63075456Y-38621906D01*
X63081771Y-38608555D01*
X63089364Y-38595887D01*
X63098162Y-38584024D01*
X63108080Y-38573080D01*
X63119024Y-38563162D01*
X63130887Y-38554364D01*
X63143555Y-38546771D01*
X63156906Y-38540456D01*
X63170812Y-38535480D01*
X63185139Y-38531892D01*
X63199748Y-38529725D01*
X63214500Y-38529000D01*
X64515500Y-38529000D01*
X64530252Y-38529725D01*
G37*
G36*
X64530252Y-37729725D02*
G01*
X64544861Y-37731892D01*
X64559188Y-37735480D01*
X64573094Y-37740456D01*
X64586445Y-37746771D01*
X64599113Y-37754364D01*
X64610976Y-37763162D01*
X64621920Y-37773080D01*
X64631838Y-37784024D01*
X64640636Y-37795887D01*
X64648229Y-37808555D01*
X64654544Y-37821906D01*
X64659520Y-37835812D01*
X64663108Y-37850139D01*
X64665275Y-37864748D01*
X64666000Y-37879500D01*
X64666000Y-38180500D01*
X64665275Y-38195252D01*
X64663108Y-38209861D01*
X64659520Y-38224188D01*
X64654544Y-38238094D01*
X64648229Y-38251445D01*
X64640636Y-38264113D01*
X64631838Y-38275976D01*
X64621920Y-38286920D01*
X64610976Y-38296838D01*
X64599113Y-38305636D01*
X64586445Y-38313229D01*
X64573094Y-38319544D01*
X64559188Y-38324520D01*
X64544861Y-38328108D01*
X64530252Y-38330275D01*
X64515500Y-38331000D01*
X63214500Y-38331000D01*
X63199748Y-38330275D01*
X63185139Y-38328108D01*
X63170812Y-38324520D01*
X63156906Y-38319544D01*
X63143555Y-38313229D01*
X63130887Y-38305636D01*
X63119024Y-38296838D01*
X63108080Y-38286920D01*
X63098162Y-38275976D01*
X63089364Y-38264113D01*
X63081771Y-38251445D01*
X63075456Y-38238094D01*
X63070480Y-38224188D01*
X63066892Y-38209861D01*
X63064725Y-38195252D01*
X63064000Y-38180500D01*
X63064000Y-37879500D01*
X63064725Y-37864748D01*
X63066892Y-37850139D01*
X63070480Y-37835812D01*
X63075456Y-37821906D01*
X63081771Y-37808555D01*
X63089364Y-37795887D01*
X63098162Y-37784024D01*
X63108080Y-37773080D01*
X63119024Y-37763162D01*
X63130887Y-37754364D01*
X63143555Y-37746771D01*
X63156906Y-37740456D01*
X63170812Y-37735480D01*
X63185139Y-37731892D01*
X63199748Y-37729725D01*
X63214500Y-37729000D01*
X64515500Y-37729000D01*
X64530252Y-37729725D01*
G37*
G36*
X64530252Y-36929725D02*
G01*
X64544861Y-36931892D01*
X64559188Y-36935480D01*
X64573094Y-36940456D01*
X64586445Y-36946771D01*
X64599113Y-36954364D01*
X64610976Y-36963162D01*
X64621920Y-36973080D01*
X64631838Y-36984024D01*
X64640636Y-36995887D01*
X64648229Y-37008555D01*
X64654544Y-37021906D01*
X64659520Y-37035812D01*
X64663108Y-37050139D01*
X64665275Y-37064748D01*
X64666000Y-37079500D01*
X64666000Y-37380500D01*
X64665275Y-37395252D01*
X64663108Y-37409861D01*
X64659520Y-37424188D01*
X64654544Y-37438094D01*
X64648229Y-37451445D01*
X64640636Y-37464113D01*
X64631838Y-37475976D01*
X64621920Y-37486920D01*
X64610976Y-37496838D01*
X64599113Y-37505636D01*
X64586445Y-37513229D01*
X64573094Y-37519544D01*
X64559188Y-37524520D01*
X64544861Y-37528108D01*
X64530252Y-37530275D01*
X64515500Y-37531000D01*
X63214500Y-37531000D01*
X63199748Y-37530275D01*
X63185139Y-37528108D01*
X63170812Y-37524520D01*
X63156906Y-37519544D01*
X63143555Y-37513229D01*
X63130887Y-37505636D01*
X63119024Y-37496838D01*
X63108080Y-37486920D01*
X63098162Y-37475976D01*
X63089364Y-37464113D01*
X63081771Y-37451445D01*
X63075456Y-37438094D01*
X63070480Y-37424188D01*
X63066892Y-37409861D01*
X63064725Y-37395252D01*
X63064000Y-37380500D01*
X63064000Y-37079500D01*
X63064725Y-37064748D01*
X63066892Y-37050139D01*
X63070480Y-37035812D01*
X63075456Y-37021906D01*
X63081771Y-37008555D01*
X63089364Y-36995887D01*
X63098162Y-36984024D01*
X63108080Y-36973080D01*
X63119024Y-36963162D01*
X63130887Y-36954364D01*
X63143555Y-36946771D01*
X63156906Y-36940456D01*
X63170812Y-36935480D01*
X63185139Y-36931892D01*
X63199748Y-36929725D01*
X63214500Y-36929000D01*
X64515500Y-36929000D01*
X64530252Y-36929725D01*
G37*
G36*
X64530252Y-36129725D02*
G01*
X64544861Y-36131892D01*
X64559188Y-36135480D01*
X64573094Y-36140456D01*
X64586445Y-36146771D01*
X64599113Y-36154364D01*
X64610976Y-36163162D01*
X64621920Y-36173080D01*
X64631838Y-36184024D01*
X64640636Y-36195887D01*
X64648229Y-36208555D01*
X64654544Y-36221906D01*
X64659520Y-36235812D01*
X64663108Y-36250139D01*
X64665275Y-36264748D01*
X64666000Y-36279500D01*
X64666000Y-36580500D01*
X64665275Y-36595252D01*
X64663108Y-36609861D01*
X64659520Y-36624188D01*
X64654544Y-36638094D01*
X64648229Y-36651445D01*
X64640636Y-36664113D01*
X64631838Y-36675976D01*
X64621920Y-36686920D01*
X64610976Y-36696838D01*
X64599113Y-36705636D01*
X64586445Y-36713229D01*
X64573094Y-36719544D01*
X64559188Y-36724520D01*
X64544861Y-36728108D01*
X64530252Y-36730275D01*
X64515500Y-36731000D01*
X63214500Y-36731000D01*
X63199748Y-36730275D01*
X63185139Y-36728108D01*
X63170812Y-36724520D01*
X63156906Y-36719544D01*
X63143555Y-36713229D01*
X63130887Y-36705636D01*
X63119024Y-36696838D01*
X63108080Y-36686920D01*
X63098162Y-36675976D01*
X63089364Y-36664113D01*
X63081771Y-36651445D01*
X63075456Y-36638094D01*
X63070480Y-36624188D01*
X63066892Y-36609861D01*
X63064725Y-36595252D01*
X63064000Y-36580500D01*
X63064000Y-36279500D01*
X63064725Y-36264748D01*
X63066892Y-36250139D01*
X63070480Y-36235812D01*
X63075456Y-36221906D01*
X63081771Y-36208555D01*
X63089364Y-36195887D01*
X63098162Y-36184024D01*
X63108080Y-36173080D01*
X63119024Y-36163162D01*
X63130887Y-36154364D01*
X63143555Y-36146771D01*
X63156906Y-36140456D01*
X63170812Y-36135480D01*
X63185139Y-36131892D01*
X63199748Y-36129725D01*
X63214500Y-36129000D01*
X64515500Y-36129000D01*
X64530252Y-36129725D01*
G37*
G36*
X64530252Y-35329725D02*
G01*
X64544861Y-35331892D01*
X64559188Y-35335480D01*
X64573094Y-35340456D01*
X64586445Y-35346771D01*
X64599113Y-35354364D01*
X64610976Y-35363162D01*
X64621920Y-35373080D01*
X64631838Y-35384024D01*
X64640636Y-35395887D01*
X64648229Y-35408555D01*
X64654544Y-35421906D01*
X64659520Y-35435812D01*
X64663108Y-35450139D01*
X64665275Y-35464748D01*
X64666000Y-35479500D01*
X64666000Y-35780500D01*
X64665275Y-35795252D01*
X64663108Y-35809861D01*
X64659520Y-35824188D01*
X64654544Y-35838094D01*
X64648229Y-35851445D01*
X64640636Y-35864113D01*
X64631838Y-35875976D01*
X64621920Y-35886920D01*
X64610976Y-35896838D01*
X64599113Y-35905636D01*
X64586445Y-35913229D01*
X64573094Y-35919544D01*
X64559188Y-35924520D01*
X64544861Y-35928108D01*
X64530252Y-35930275D01*
X64515500Y-35931000D01*
X63214500Y-35931000D01*
X63199748Y-35930275D01*
X63185139Y-35928108D01*
X63170812Y-35924520D01*
X63156906Y-35919544D01*
X63143555Y-35913229D01*
X63130887Y-35905636D01*
X63119024Y-35896838D01*
X63108080Y-35886920D01*
X63098162Y-35875976D01*
X63089364Y-35864113D01*
X63081771Y-35851445D01*
X63075456Y-35838094D01*
X63070480Y-35824188D01*
X63066892Y-35809861D01*
X63064725Y-35795252D01*
X63064000Y-35780500D01*
X63064000Y-35479500D01*
X63064725Y-35464748D01*
X63066892Y-35450139D01*
X63070480Y-35435812D01*
X63075456Y-35421906D01*
X63081771Y-35408555D01*
X63089364Y-35395887D01*
X63098162Y-35384024D01*
X63108080Y-35373080D01*
X63119024Y-35363162D01*
X63130887Y-35354364D01*
X63143555Y-35346771D01*
X63156906Y-35340456D01*
X63170812Y-35335480D01*
X63185139Y-35331892D01*
X63199748Y-35329725D01*
X63214500Y-35329000D01*
X64515500Y-35329000D01*
X64530252Y-35329725D01*
G37*
G36*
X64530252Y-34529725D02*
G01*
X64544861Y-34531892D01*
X64559188Y-34535480D01*
X64573094Y-34540456D01*
X64586445Y-34546771D01*
X64599113Y-34554364D01*
X64610976Y-34563162D01*
X64621920Y-34573080D01*
X64631838Y-34584024D01*
X64640636Y-34595887D01*
X64648229Y-34608555D01*
X64654544Y-34621906D01*
X64659520Y-34635812D01*
X64663108Y-34650139D01*
X64665275Y-34664748D01*
X64666000Y-34679500D01*
X64666000Y-34980500D01*
X64665275Y-34995252D01*
X64663108Y-35009861D01*
X64659520Y-35024188D01*
X64654544Y-35038094D01*
X64648229Y-35051445D01*
X64640636Y-35064113D01*
X64631838Y-35075976D01*
X64621920Y-35086920D01*
X64610976Y-35096838D01*
X64599113Y-35105636D01*
X64586445Y-35113229D01*
X64573094Y-35119544D01*
X64559188Y-35124520D01*
X64544861Y-35128108D01*
X64530252Y-35130275D01*
X64515500Y-35131000D01*
X63214500Y-35131000D01*
X63199748Y-35130275D01*
X63185139Y-35128108D01*
X63170812Y-35124520D01*
X63156906Y-35119544D01*
X63143555Y-35113229D01*
X63130887Y-35105636D01*
X63119024Y-35096838D01*
X63108080Y-35086920D01*
X63098162Y-35075976D01*
X63089364Y-35064113D01*
X63081771Y-35051445D01*
X63075456Y-35038094D01*
X63070480Y-35024188D01*
X63066892Y-35009861D01*
X63064725Y-34995252D01*
X63064000Y-34980500D01*
X63064000Y-34679500D01*
X63064725Y-34664748D01*
X63066892Y-34650139D01*
X63070480Y-34635812D01*
X63075456Y-34621906D01*
X63081771Y-34608555D01*
X63089364Y-34595887D01*
X63098162Y-34584024D01*
X63108080Y-34573080D01*
X63119024Y-34563162D01*
X63130887Y-34554364D01*
X63143555Y-34546771D01*
X63156906Y-34540456D01*
X63170812Y-34535480D01*
X63185139Y-34531892D01*
X63199748Y-34529725D01*
X63214500Y-34529000D01*
X64515500Y-34529000D01*
X64530252Y-34529725D01*
G37*
G36*
X64530252Y-33729725D02*
G01*
X64544861Y-33731892D01*
X64559188Y-33735480D01*
X64573094Y-33740456D01*
X64586445Y-33746771D01*
X64599113Y-33754364D01*
X64610976Y-33763162D01*
X64621920Y-33773080D01*
X64631838Y-33784024D01*
X64640636Y-33795887D01*
X64648229Y-33808555D01*
X64654544Y-33821906D01*
X64659520Y-33835812D01*
X64663108Y-33850139D01*
X64665275Y-33864748D01*
X64666000Y-33879500D01*
X64666000Y-34180500D01*
X64665275Y-34195252D01*
X64663108Y-34209861D01*
X64659520Y-34224188D01*
X64654544Y-34238094D01*
X64648229Y-34251445D01*
X64640636Y-34264113D01*
X64631838Y-34275976D01*
X64621920Y-34286920D01*
X64610976Y-34296838D01*
X64599113Y-34305636D01*
X64586445Y-34313229D01*
X64573094Y-34319544D01*
X64559188Y-34324520D01*
X64544861Y-34328108D01*
X64530252Y-34330275D01*
X64515500Y-34331000D01*
X63214500Y-34331000D01*
X63199748Y-34330275D01*
X63185139Y-34328108D01*
X63170812Y-34324520D01*
X63156906Y-34319544D01*
X63143555Y-34313229D01*
X63130887Y-34305636D01*
X63119024Y-34296838D01*
X63108080Y-34286920D01*
X63098162Y-34275976D01*
X63089364Y-34264113D01*
X63081771Y-34251445D01*
X63075456Y-34238094D01*
X63070480Y-34224188D01*
X63066892Y-34209861D01*
X63064725Y-34195252D01*
X63064000Y-34180500D01*
X63064000Y-33879500D01*
X63064725Y-33864748D01*
X63066892Y-33850139D01*
X63070480Y-33835812D01*
X63075456Y-33821906D01*
X63081771Y-33808555D01*
X63089364Y-33795887D01*
X63098162Y-33784024D01*
X63108080Y-33773080D01*
X63119024Y-33763162D01*
X63130887Y-33754364D01*
X63143555Y-33746771D01*
X63156906Y-33740456D01*
X63170812Y-33735480D01*
X63185139Y-33731892D01*
X63199748Y-33729725D01*
X63214500Y-33729000D01*
X64515500Y-33729000D01*
X64530252Y-33729725D01*
G37*
G36*
X62655252Y-31854725D02*
G01*
X62669861Y-31856892D01*
X62684188Y-31860480D01*
X62698094Y-31865456D01*
X62711445Y-31871771D01*
X62724113Y-31879364D01*
X62735976Y-31888162D01*
X62746920Y-31898080D01*
X62756838Y-31909024D01*
X62765636Y-31920887D01*
X62773229Y-31933555D01*
X62779544Y-31946906D01*
X62784520Y-31960812D01*
X62788108Y-31975139D01*
X62790275Y-31989748D01*
X62791000Y-32004500D01*
X62791000Y-33305500D01*
X62790275Y-33320252D01*
X62788108Y-33334861D01*
X62784520Y-33349188D01*
X62779544Y-33363094D01*
X62773229Y-33376445D01*
X62765636Y-33389113D01*
X62756838Y-33400976D01*
X62746920Y-33411920D01*
X62735976Y-33421838D01*
X62724113Y-33430636D01*
X62711445Y-33438229D01*
X62698094Y-33444544D01*
X62684188Y-33449520D01*
X62669861Y-33453108D01*
X62655252Y-33455275D01*
X62640500Y-33456000D01*
X62339500Y-33456000D01*
X62324748Y-33455275D01*
X62310139Y-33453108D01*
X62295812Y-33449520D01*
X62281906Y-33444544D01*
X62268555Y-33438229D01*
X62255887Y-33430636D01*
X62244024Y-33421838D01*
X62233080Y-33411920D01*
X62223162Y-33400976D01*
X62214364Y-33389113D01*
X62206771Y-33376445D01*
X62200456Y-33363094D01*
X62195480Y-33349188D01*
X62191892Y-33334861D01*
X62189725Y-33320252D01*
X62189000Y-33305500D01*
X62189000Y-32004500D01*
X62189725Y-31989748D01*
X62191892Y-31975139D01*
X62195480Y-31960812D01*
X62200456Y-31946906D01*
X62206771Y-31933555D01*
X62214364Y-31920887D01*
X62223162Y-31909024D01*
X62233080Y-31898080D01*
X62244024Y-31888162D01*
X62255887Y-31879364D01*
X62268555Y-31871771D01*
X62281906Y-31865456D01*
X62295812Y-31860480D01*
X62310139Y-31856892D01*
X62324748Y-31854725D01*
X62339500Y-31854000D01*
X62640500Y-31854000D01*
X62655252Y-31854725D01*
G37*
G36*
X61855252Y-31854725D02*
G01*
X61869861Y-31856892D01*
X61884188Y-31860480D01*
X61898094Y-31865456D01*
X61911445Y-31871771D01*
X61924113Y-31879364D01*
X61935976Y-31888162D01*
X61946920Y-31898080D01*
X61956838Y-31909024D01*
X61965636Y-31920887D01*
X61973229Y-31933555D01*
X61979544Y-31946906D01*
X61984520Y-31960812D01*
X61988108Y-31975139D01*
X61990275Y-31989748D01*
X61991000Y-32004500D01*
X61991000Y-33305500D01*
X61990275Y-33320252D01*
X61988108Y-33334861D01*
X61984520Y-33349188D01*
X61979544Y-33363094D01*
X61973229Y-33376445D01*
X61965636Y-33389113D01*
X61956838Y-33400976D01*
X61946920Y-33411920D01*
X61935976Y-33421838D01*
X61924113Y-33430636D01*
X61911445Y-33438229D01*
X61898094Y-33444544D01*
X61884188Y-33449520D01*
X61869861Y-33453108D01*
X61855252Y-33455275D01*
X61840500Y-33456000D01*
X61539500Y-33456000D01*
X61524748Y-33455275D01*
X61510139Y-33453108D01*
X61495812Y-33449520D01*
X61481906Y-33444544D01*
X61468555Y-33438229D01*
X61455887Y-33430636D01*
X61444024Y-33421838D01*
X61433080Y-33411920D01*
X61423162Y-33400976D01*
X61414364Y-33389113D01*
X61406771Y-33376445D01*
X61400456Y-33363094D01*
X61395480Y-33349188D01*
X61391892Y-33334861D01*
X61389725Y-33320252D01*
X61389000Y-33305500D01*
X61389000Y-32004500D01*
X61389725Y-31989748D01*
X61391892Y-31975139D01*
X61395480Y-31960812D01*
X61400456Y-31946906D01*
X61406771Y-31933555D01*
X61414364Y-31920887D01*
X61423162Y-31909024D01*
X61433080Y-31898080D01*
X61444024Y-31888162D01*
X61455887Y-31879364D01*
X61468555Y-31871771D01*
X61481906Y-31865456D01*
X61495812Y-31860480D01*
X61510139Y-31856892D01*
X61524748Y-31854725D01*
X61539500Y-31854000D01*
X61840500Y-31854000D01*
X61855252Y-31854725D01*
G37*
G36*
X61055252Y-31854725D02*
G01*
X61069861Y-31856892D01*
X61084188Y-31860480D01*
X61098094Y-31865456D01*
X61111445Y-31871771D01*
X61124113Y-31879364D01*
X61135976Y-31888162D01*
X61146920Y-31898080D01*
X61156838Y-31909024D01*
X61165636Y-31920887D01*
X61173229Y-31933555D01*
X61179544Y-31946906D01*
X61184520Y-31960812D01*
X61188108Y-31975139D01*
X61190275Y-31989748D01*
X61191000Y-32004500D01*
X61191000Y-33305500D01*
X61190275Y-33320252D01*
X61188108Y-33334861D01*
X61184520Y-33349188D01*
X61179544Y-33363094D01*
X61173229Y-33376445D01*
X61165636Y-33389113D01*
X61156838Y-33400976D01*
X61146920Y-33411920D01*
X61135976Y-33421838D01*
X61124113Y-33430636D01*
X61111445Y-33438229D01*
X61098094Y-33444544D01*
X61084188Y-33449520D01*
X61069861Y-33453108D01*
X61055252Y-33455275D01*
X61040500Y-33456000D01*
X60739500Y-33456000D01*
X60724748Y-33455275D01*
X60710139Y-33453108D01*
X60695812Y-33449520D01*
X60681906Y-33444544D01*
X60668555Y-33438229D01*
X60655887Y-33430636D01*
X60644024Y-33421838D01*
X60633080Y-33411920D01*
X60623162Y-33400976D01*
X60614364Y-33389113D01*
X60606771Y-33376445D01*
X60600456Y-33363094D01*
X60595480Y-33349188D01*
X60591892Y-33334861D01*
X60589725Y-33320252D01*
X60589000Y-33305500D01*
X60589000Y-32004500D01*
X60589725Y-31989748D01*
X60591892Y-31975139D01*
X60595480Y-31960812D01*
X60600456Y-31946906D01*
X60606771Y-31933555D01*
X60614364Y-31920887D01*
X60623162Y-31909024D01*
X60633080Y-31898080D01*
X60644024Y-31888162D01*
X60655887Y-31879364D01*
X60668555Y-31871771D01*
X60681906Y-31865456D01*
X60695812Y-31860480D01*
X60710139Y-31856892D01*
X60724748Y-31854725D01*
X60739500Y-31854000D01*
X61040500Y-31854000D01*
X61055252Y-31854725D01*
G37*
G36*
X60255252Y-31854725D02*
G01*
X60269861Y-31856892D01*
X60284188Y-31860480D01*
X60298094Y-31865456D01*
X60311445Y-31871771D01*
X60324113Y-31879364D01*
X60335976Y-31888162D01*
X60346920Y-31898080D01*
X60356838Y-31909024D01*
X60365636Y-31920887D01*
X60373229Y-31933555D01*
X60379544Y-31946906D01*
X60384520Y-31960812D01*
X60388108Y-31975139D01*
X60390275Y-31989748D01*
X60391000Y-32004500D01*
X60391000Y-33305500D01*
X60390275Y-33320252D01*
X60388108Y-33334861D01*
X60384520Y-33349188D01*
X60379544Y-33363094D01*
X60373229Y-33376445D01*
X60365636Y-33389113D01*
X60356838Y-33400976D01*
X60346920Y-33411920D01*
X60335976Y-33421838D01*
X60324113Y-33430636D01*
X60311445Y-33438229D01*
X60298094Y-33444544D01*
X60284188Y-33449520D01*
X60269861Y-33453108D01*
X60255252Y-33455275D01*
X60240500Y-33456000D01*
X59939500Y-33456000D01*
X59924748Y-33455275D01*
X59910139Y-33453108D01*
X59895812Y-33449520D01*
X59881906Y-33444544D01*
X59868555Y-33438229D01*
X59855887Y-33430636D01*
X59844024Y-33421838D01*
X59833080Y-33411920D01*
X59823162Y-33400976D01*
X59814364Y-33389113D01*
X59806771Y-33376445D01*
X59800456Y-33363094D01*
X59795480Y-33349188D01*
X59791892Y-33334861D01*
X59789725Y-33320252D01*
X59789000Y-33305500D01*
X59789000Y-32004500D01*
X59789725Y-31989748D01*
X59791892Y-31975139D01*
X59795480Y-31960812D01*
X59800456Y-31946906D01*
X59806771Y-31933555D01*
X59814364Y-31920887D01*
X59823162Y-31909024D01*
X59833080Y-31898080D01*
X59844024Y-31888162D01*
X59855887Y-31879364D01*
X59868555Y-31871771D01*
X59881906Y-31865456D01*
X59895812Y-31860480D01*
X59910139Y-31856892D01*
X59924748Y-31854725D01*
X59939500Y-31854000D01*
X60240500Y-31854000D01*
X60255252Y-31854725D01*
G37*
G36*
X59455252Y-31854725D02*
G01*
X59469861Y-31856892D01*
X59484188Y-31860480D01*
X59498094Y-31865456D01*
X59511445Y-31871771D01*
X59524113Y-31879364D01*
X59535976Y-31888162D01*
X59546920Y-31898080D01*
X59556838Y-31909024D01*
X59565636Y-31920887D01*
X59573229Y-31933555D01*
X59579544Y-31946906D01*
X59584520Y-31960812D01*
X59588108Y-31975139D01*
X59590275Y-31989748D01*
X59591000Y-32004500D01*
X59591000Y-33305500D01*
X59590275Y-33320252D01*
X59588108Y-33334861D01*
X59584520Y-33349188D01*
X59579544Y-33363094D01*
X59573229Y-33376445D01*
X59565636Y-33389113D01*
X59556838Y-33400976D01*
X59546920Y-33411920D01*
X59535976Y-33421838D01*
X59524113Y-33430636D01*
X59511445Y-33438229D01*
X59498094Y-33444544D01*
X59484188Y-33449520D01*
X59469861Y-33453108D01*
X59455252Y-33455275D01*
X59440500Y-33456000D01*
X59139500Y-33456000D01*
X59124748Y-33455275D01*
X59110139Y-33453108D01*
X59095812Y-33449520D01*
X59081906Y-33444544D01*
X59068555Y-33438229D01*
X59055887Y-33430636D01*
X59044024Y-33421838D01*
X59033080Y-33411920D01*
X59023162Y-33400976D01*
X59014364Y-33389113D01*
X59006771Y-33376445D01*
X59000456Y-33363094D01*
X58995480Y-33349188D01*
X58991892Y-33334861D01*
X58989725Y-33320252D01*
X58989000Y-33305500D01*
X58989000Y-32004500D01*
X58989725Y-31989748D01*
X58991892Y-31975139D01*
X58995480Y-31960812D01*
X59000456Y-31946906D01*
X59006771Y-31933555D01*
X59014364Y-31920887D01*
X59023162Y-31909024D01*
X59033080Y-31898080D01*
X59044024Y-31888162D01*
X59055887Y-31879364D01*
X59068555Y-31871771D01*
X59081906Y-31865456D01*
X59095812Y-31860480D01*
X59110139Y-31856892D01*
X59124748Y-31854725D01*
X59139500Y-31854000D01*
X59440500Y-31854000D01*
X59455252Y-31854725D01*
G37*
G36*
X58655252Y-31854725D02*
G01*
X58669861Y-31856892D01*
X58684188Y-31860480D01*
X58698094Y-31865456D01*
X58711445Y-31871771D01*
X58724113Y-31879364D01*
X58735976Y-31888162D01*
X58746920Y-31898080D01*
X58756838Y-31909024D01*
X58765636Y-31920887D01*
X58773229Y-31933555D01*
X58779544Y-31946906D01*
X58784520Y-31960812D01*
X58788108Y-31975139D01*
X58790275Y-31989748D01*
X58791000Y-32004500D01*
X58791000Y-33305500D01*
X58790275Y-33320252D01*
X58788108Y-33334861D01*
X58784520Y-33349188D01*
X58779544Y-33363094D01*
X58773229Y-33376445D01*
X58765636Y-33389113D01*
X58756838Y-33400976D01*
X58746920Y-33411920D01*
X58735976Y-33421838D01*
X58724113Y-33430636D01*
X58711445Y-33438229D01*
X58698094Y-33444544D01*
X58684188Y-33449520D01*
X58669861Y-33453108D01*
X58655252Y-33455275D01*
X58640500Y-33456000D01*
X58339500Y-33456000D01*
X58324748Y-33455275D01*
X58310139Y-33453108D01*
X58295812Y-33449520D01*
X58281906Y-33444544D01*
X58268555Y-33438229D01*
X58255887Y-33430636D01*
X58244024Y-33421838D01*
X58233080Y-33411920D01*
X58223162Y-33400976D01*
X58214364Y-33389113D01*
X58206771Y-33376445D01*
X58200456Y-33363094D01*
X58195480Y-33349188D01*
X58191892Y-33334861D01*
X58189725Y-33320252D01*
X58189000Y-33305500D01*
X58189000Y-32004500D01*
X58189725Y-31989748D01*
X58191892Y-31975139D01*
X58195480Y-31960812D01*
X58200456Y-31946906D01*
X58206771Y-31933555D01*
X58214364Y-31920887D01*
X58223162Y-31909024D01*
X58233080Y-31898080D01*
X58244024Y-31888162D01*
X58255887Y-31879364D01*
X58268555Y-31871771D01*
X58281906Y-31865456D01*
X58295812Y-31860480D01*
X58310139Y-31856892D01*
X58324748Y-31854725D01*
X58339500Y-31854000D01*
X58640500Y-31854000D01*
X58655252Y-31854725D01*
G37*
G36*
X57855252Y-31854725D02*
G01*
X57869861Y-31856892D01*
X57884188Y-31860480D01*
X57898094Y-31865456D01*
X57911445Y-31871771D01*
X57924113Y-31879364D01*
X57935976Y-31888162D01*
X57946920Y-31898080D01*
X57956838Y-31909024D01*
X57965636Y-31920887D01*
X57973229Y-31933555D01*
X57979544Y-31946906D01*
X57984520Y-31960812D01*
X57988108Y-31975139D01*
X57990275Y-31989748D01*
X57991000Y-32004500D01*
X57991000Y-33305500D01*
X57990275Y-33320252D01*
X57988108Y-33334861D01*
X57984520Y-33349188D01*
X57979544Y-33363094D01*
X57973229Y-33376445D01*
X57965636Y-33389113D01*
X57956838Y-33400976D01*
X57946920Y-33411920D01*
X57935976Y-33421838D01*
X57924113Y-33430636D01*
X57911445Y-33438229D01*
X57898094Y-33444544D01*
X57884188Y-33449520D01*
X57869861Y-33453108D01*
X57855252Y-33455275D01*
X57840500Y-33456000D01*
X57539500Y-33456000D01*
X57524748Y-33455275D01*
X57510139Y-33453108D01*
X57495812Y-33449520D01*
X57481906Y-33444544D01*
X57468555Y-33438229D01*
X57455887Y-33430636D01*
X57444024Y-33421838D01*
X57433080Y-33411920D01*
X57423162Y-33400976D01*
X57414364Y-33389113D01*
X57406771Y-33376445D01*
X57400456Y-33363094D01*
X57395480Y-33349188D01*
X57391892Y-33334861D01*
X57389725Y-33320252D01*
X57389000Y-33305500D01*
X57389000Y-32004500D01*
X57389725Y-31989748D01*
X57391892Y-31975139D01*
X57395480Y-31960812D01*
X57400456Y-31946906D01*
X57406771Y-31933555D01*
X57414364Y-31920887D01*
X57423162Y-31909024D01*
X57433080Y-31898080D01*
X57444024Y-31888162D01*
X57455887Y-31879364D01*
X57468555Y-31871771D01*
X57481906Y-31865456D01*
X57495812Y-31860480D01*
X57510139Y-31856892D01*
X57524748Y-31854725D01*
X57539500Y-31854000D01*
X57840500Y-31854000D01*
X57855252Y-31854725D01*
G37*
G36*
X57055252Y-31854725D02*
G01*
X57069861Y-31856892D01*
X57084188Y-31860480D01*
X57098094Y-31865456D01*
X57111445Y-31871771D01*
X57124113Y-31879364D01*
X57135976Y-31888162D01*
X57146920Y-31898080D01*
X57156838Y-31909024D01*
X57165636Y-31920887D01*
X57173229Y-31933555D01*
X57179544Y-31946906D01*
X57184520Y-31960812D01*
X57188108Y-31975139D01*
X57190275Y-31989748D01*
X57191000Y-32004500D01*
X57191000Y-33305500D01*
X57190275Y-33320252D01*
X57188108Y-33334861D01*
X57184520Y-33349188D01*
X57179544Y-33363094D01*
X57173229Y-33376445D01*
X57165636Y-33389113D01*
X57156838Y-33400976D01*
X57146920Y-33411920D01*
X57135976Y-33421838D01*
X57124113Y-33430636D01*
X57111445Y-33438229D01*
X57098094Y-33444544D01*
X57084188Y-33449520D01*
X57069861Y-33453108D01*
X57055252Y-33455275D01*
X57040500Y-33456000D01*
X56739500Y-33456000D01*
X56724748Y-33455275D01*
X56710139Y-33453108D01*
X56695812Y-33449520D01*
X56681906Y-33444544D01*
X56668555Y-33438229D01*
X56655887Y-33430636D01*
X56644024Y-33421838D01*
X56633080Y-33411920D01*
X56623162Y-33400976D01*
X56614364Y-33389113D01*
X56606771Y-33376445D01*
X56600456Y-33363094D01*
X56595480Y-33349188D01*
X56591892Y-33334861D01*
X56589725Y-33320252D01*
X56589000Y-33305500D01*
X56589000Y-32004500D01*
X56589725Y-31989748D01*
X56591892Y-31975139D01*
X56595480Y-31960812D01*
X56600456Y-31946906D01*
X56606771Y-31933555D01*
X56614364Y-31920887D01*
X56623162Y-31909024D01*
X56633080Y-31898080D01*
X56644024Y-31888162D01*
X56655887Y-31879364D01*
X56668555Y-31871771D01*
X56681906Y-31865456D01*
X56695812Y-31860480D01*
X56710139Y-31856892D01*
X56724748Y-31854725D01*
X56739500Y-31854000D01*
X57040500Y-31854000D01*
X57055252Y-31854725D01*
G37*
G36*
X30265691Y-41385176D02*
G01*
X30289401Y-41388693D01*
X30312652Y-41394517D01*
X30335220Y-41402592D01*
X30356889Y-41412841D01*
X30377448Y-41425164D01*
X30396701Y-41439442D01*
X30414461Y-41455539D01*
X30430558Y-41473299D01*
X30444836Y-41492552D01*
X30457159Y-41513111D01*
X30467408Y-41534780D01*
X30475483Y-41557348D01*
X30481307Y-41580599D01*
X30484824Y-41604309D01*
X30486000Y-41628250D01*
X30486000Y-42191750D01*
X30484824Y-42215691D01*
X30481307Y-42239401D01*
X30475483Y-42262652D01*
X30467408Y-42285220D01*
X30457159Y-42306889D01*
X30444836Y-42327448D01*
X30430558Y-42346701D01*
X30414461Y-42364461D01*
X30396701Y-42380558D01*
X30377448Y-42394836D01*
X30356889Y-42407159D01*
X30335220Y-42417408D01*
X30312652Y-42425483D01*
X30289401Y-42431307D01*
X30265691Y-42434824D01*
X30241750Y-42436000D01*
X29753250Y-42436000D01*
X29729309Y-42434824D01*
X29705599Y-42431307D01*
X29682348Y-42425483D01*
X29659780Y-42417408D01*
X29638111Y-42407159D01*
X29617552Y-42394836D01*
X29598299Y-42380558D01*
X29580539Y-42364461D01*
X29564442Y-42346701D01*
X29550164Y-42327448D01*
X29537841Y-42306889D01*
X29527592Y-42285220D01*
X29519517Y-42262652D01*
X29513693Y-42239401D01*
X29510176Y-42215691D01*
X29509000Y-42191750D01*
X29509000Y-41628250D01*
X29510176Y-41604309D01*
X29513693Y-41580599D01*
X29519517Y-41557348D01*
X29527592Y-41534780D01*
X29537841Y-41513111D01*
X29550164Y-41492552D01*
X29564442Y-41473299D01*
X29580539Y-41455539D01*
X29598299Y-41439442D01*
X29617552Y-41425164D01*
X29638111Y-41412841D01*
X29659780Y-41402592D01*
X29682348Y-41394517D01*
X29705599Y-41388693D01*
X29729309Y-41385176D01*
X29753250Y-41384000D01*
X30241750Y-41384000D01*
X30265691Y-41385176D01*
G37*
G36*
X28690691Y-41385176D02*
G01*
X28714401Y-41388693D01*
X28737652Y-41394517D01*
X28760220Y-41402592D01*
X28781889Y-41412841D01*
X28802448Y-41425164D01*
X28821701Y-41439442D01*
X28839461Y-41455539D01*
X28855558Y-41473299D01*
X28869836Y-41492552D01*
X28882159Y-41513111D01*
X28892408Y-41534780D01*
X28900483Y-41557348D01*
X28906307Y-41580599D01*
X28909824Y-41604309D01*
X28911000Y-41628250D01*
X28911000Y-42191750D01*
X28909824Y-42215691D01*
X28906307Y-42239401D01*
X28900483Y-42262652D01*
X28892408Y-42285220D01*
X28882159Y-42306889D01*
X28869836Y-42327448D01*
X28855558Y-42346701D01*
X28839461Y-42364461D01*
X28821701Y-42380558D01*
X28802448Y-42394836D01*
X28781889Y-42407159D01*
X28760220Y-42417408D01*
X28737652Y-42425483D01*
X28714401Y-42431307D01*
X28690691Y-42434824D01*
X28666750Y-42436000D01*
X28178250Y-42436000D01*
X28154309Y-42434824D01*
X28130599Y-42431307D01*
X28107348Y-42425483D01*
X28084780Y-42417408D01*
X28063111Y-42407159D01*
X28042552Y-42394836D01*
X28023299Y-42380558D01*
X28005539Y-42364461D01*
X27989442Y-42346701D01*
X27975164Y-42327448D01*
X27962841Y-42306889D01*
X27952592Y-42285220D01*
X27944517Y-42262652D01*
X27938693Y-42239401D01*
X27935176Y-42215691D01*
X27934000Y-42191750D01*
X27934000Y-41628250D01*
X27935176Y-41604309D01*
X27938693Y-41580599D01*
X27944517Y-41557348D01*
X27952592Y-41534780D01*
X27962841Y-41513111D01*
X27975164Y-41492552D01*
X27989442Y-41473299D01*
X28005539Y-41455539D01*
X28023299Y-41439442D01*
X28042552Y-41425164D01*
X28063111Y-41412841D01*
X28084780Y-41402592D01*
X28107348Y-41394517D01*
X28130599Y-41388693D01*
X28154309Y-41385176D01*
X28178250Y-41384000D01*
X28666750Y-41384000D01*
X28690691Y-41385176D01*
G37*
G36*
X32766141Y-42467297D02*
G01*
X32792278Y-42471174D01*
X32817909Y-42477594D01*
X32842788Y-42486495D01*
X32866674Y-42497793D01*
X32889337Y-42511377D01*
X32910560Y-42527117D01*
X32930139Y-42544861D01*
X32947883Y-42564440D01*
X32963623Y-42585663D01*
X32977207Y-42608326D01*
X32988505Y-42632212D01*
X32997406Y-42657091D01*
X33003826Y-42682722D01*
X33007703Y-42708859D01*
X33009000Y-42735250D01*
X33009000Y-43273750D01*
X33007703Y-43300141D01*
X33003826Y-43326278D01*
X32997406Y-43351909D01*
X32988505Y-43376788D01*
X32977207Y-43400674D01*
X32963623Y-43423337D01*
X32947883Y-43444560D01*
X32930139Y-43464139D01*
X32910560Y-43481883D01*
X32889337Y-43497623D01*
X32866674Y-43511207D01*
X32842788Y-43522505D01*
X32817909Y-43531406D01*
X32792278Y-43537826D01*
X32766141Y-43541703D01*
X32739750Y-43543000D01*
X31776250Y-43543000D01*
X31749859Y-43541703D01*
X31723722Y-43537826D01*
X31698091Y-43531406D01*
X31673212Y-43522505D01*
X31649326Y-43511207D01*
X31626663Y-43497623D01*
X31605440Y-43481883D01*
X31585861Y-43464139D01*
X31568117Y-43444560D01*
X31552377Y-43423337D01*
X31538793Y-43400674D01*
X31527495Y-43376788D01*
X31518594Y-43351909D01*
X31512174Y-43326278D01*
X31508297Y-43300141D01*
X31507000Y-43273750D01*
X31507000Y-42735250D01*
X31508297Y-42708859D01*
X31512174Y-42682722D01*
X31518594Y-42657091D01*
X31527495Y-42632212D01*
X31538793Y-42608326D01*
X31552377Y-42585663D01*
X31568117Y-42564440D01*
X31585861Y-42544861D01*
X31605440Y-42527117D01*
X31626663Y-42511377D01*
X31649326Y-42497793D01*
X31673212Y-42486495D01*
X31698091Y-42477594D01*
X31723722Y-42471174D01*
X31749859Y-42467297D01*
X31776250Y-42466000D01*
X32739750Y-42466000D01*
X32766141Y-42467297D01*
G37*
G36*
X32766141Y-44342297D02*
G01*
X32792278Y-44346174D01*
X32817909Y-44352594D01*
X32842788Y-44361495D01*
X32866674Y-44372793D01*
X32889337Y-44386377D01*
X32910560Y-44402117D01*
X32930139Y-44419861D01*
X32947883Y-44439440D01*
X32963623Y-44460663D01*
X32977207Y-44483326D01*
X32988505Y-44507212D01*
X32997406Y-44532091D01*
X33003826Y-44557722D01*
X33007703Y-44583859D01*
X33009000Y-44610250D01*
X33009000Y-45148750D01*
X33007703Y-45175141D01*
X33003826Y-45201278D01*
X32997406Y-45226909D01*
X32988505Y-45251788D01*
X32977207Y-45275674D01*
X32963623Y-45298337D01*
X32947883Y-45319560D01*
X32930139Y-45339139D01*
X32910560Y-45356883D01*
X32889337Y-45372623D01*
X32866674Y-45386207D01*
X32842788Y-45397505D01*
X32817909Y-45406406D01*
X32792278Y-45412826D01*
X32766141Y-45416703D01*
X32739750Y-45418000D01*
X31776250Y-45418000D01*
X31749859Y-45416703D01*
X31723722Y-45412826D01*
X31698091Y-45406406D01*
X31673212Y-45397505D01*
X31649326Y-45386207D01*
X31626663Y-45372623D01*
X31605440Y-45356883D01*
X31585861Y-45339139D01*
X31568117Y-45319560D01*
X31552377Y-45298337D01*
X31538793Y-45275674D01*
X31527495Y-45251788D01*
X31518594Y-45226909D01*
X31512174Y-45201278D01*
X31508297Y-45175141D01*
X31507000Y-45148750D01*
X31507000Y-44610250D01*
X31508297Y-44583859D01*
X31512174Y-44557722D01*
X31518594Y-44532091D01*
X31527495Y-44507212D01*
X31538793Y-44483326D01*
X31552377Y-44460663D01*
X31568117Y-44439440D01*
X31585861Y-44419861D01*
X31605440Y-44402117D01*
X31626663Y-44386377D01*
X31649326Y-44372793D01*
X31673212Y-44361495D01*
X31698091Y-44352594D01*
X31723722Y-44346174D01*
X31749859Y-44342297D01*
X31776250Y-44341000D01*
X32739750Y-44341000D01*
X32766141Y-44342297D01*
G37*
G36*
X34507141Y-39890297D02*
G01*
X34533278Y-39894174D01*
X34558909Y-39900594D01*
X34583788Y-39909495D01*
X34607674Y-39920793D01*
X34630337Y-39934377D01*
X34651560Y-39950117D01*
X34671139Y-39967861D01*
X34688883Y-39987440D01*
X34704623Y-40008663D01*
X34718207Y-40031326D01*
X34729505Y-40055212D01*
X34738406Y-40080091D01*
X34744826Y-40105722D01*
X34748703Y-40131859D01*
X34750000Y-40158250D01*
X34750000Y-41121750D01*
X34748703Y-41148141D01*
X34744826Y-41174278D01*
X34738406Y-41199909D01*
X34729505Y-41224788D01*
X34718207Y-41248674D01*
X34704623Y-41271337D01*
X34688883Y-41292560D01*
X34671139Y-41312139D01*
X34651560Y-41329883D01*
X34630337Y-41345623D01*
X34607674Y-41359207D01*
X34583788Y-41370505D01*
X34558909Y-41379406D01*
X34533278Y-41385826D01*
X34507141Y-41389703D01*
X34480750Y-41391000D01*
X33942250Y-41391000D01*
X33915859Y-41389703D01*
X33889722Y-41385826D01*
X33864091Y-41379406D01*
X33839212Y-41370505D01*
X33815326Y-41359207D01*
X33792663Y-41345623D01*
X33771440Y-41329883D01*
X33751861Y-41312139D01*
X33734117Y-41292560D01*
X33718377Y-41271337D01*
X33704793Y-41248674D01*
X33693495Y-41224788D01*
X33684594Y-41199909D01*
X33678174Y-41174278D01*
X33674297Y-41148141D01*
X33673000Y-41121750D01*
X33673000Y-40158250D01*
X33674297Y-40131859D01*
X33678174Y-40105722D01*
X33684594Y-40080091D01*
X33693495Y-40055212D01*
X33704793Y-40031326D01*
X33718377Y-40008663D01*
X33734117Y-39987440D01*
X33751861Y-39967861D01*
X33771440Y-39950117D01*
X33792663Y-39934377D01*
X33815326Y-39920793D01*
X33839212Y-39909495D01*
X33864091Y-39900594D01*
X33889722Y-39894174D01*
X33915859Y-39890297D01*
X33942250Y-39889000D01*
X34480750Y-39889000D01*
X34507141Y-39890297D01*
G37*
G36*
X32632141Y-39890297D02*
G01*
X32658278Y-39894174D01*
X32683909Y-39900594D01*
X32708788Y-39909495D01*
X32732674Y-39920793D01*
X32755337Y-39934377D01*
X32776560Y-39950117D01*
X32796139Y-39967861D01*
X32813883Y-39987440D01*
X32829623Y-40008663D01*
X32843207Y-40031326D01*
X32854505Y-40055212D01*
X32863406Y-40080091D01*
X32869826Y-40105722D01*
X32873703Y-40131859D01*
X32875000Y-40158250D01*
X32875000Y-41121750D01*
X32873703Y-41148141D01*
X32869826Y-41174278D01*
X32863406Y-41199909D01*
X32854505Y-41224788D01*
X32843207Y-41248674D01*
X32829623Y-41271337D01*
X32813883Y-41292560D01*
X32796139Y-41312139D01*
X32776560Y-41329883D01*
X32755337Y-41345623D01*
X32732674Y-41359207D01*
X32708788Y-41370505D01*
X32683909Y-41379406D01*
X32658278Y-41385826D01*
X32632141Y-41389703D01*
X32605750Y-41391000D01*
X32067250Y-41391000D01*
X32040859Y-41389703D01*
X32014722Y-41385826D01*
X31989091Y-41379406D01*
X31964212Y-41370505D01*
X31940326Y-41359207D01*
X31917663Y-41345623D01*
X31896440Y-41329883D01*
X31876861Y-41312139D01*
X31859117Y-41292560D01*
X31843377Y-41271337D01*
X31829793Y-41248674D01*
X31818495Y-41224788D01*
X31809594Y-41199909D01*
X31803174Y-41174278D01*
X31799297Y-41148141D01*
X31798000Y-41121750D01*
X31798000Y-40158250D01*
X31799297Y-40131859D01*
X31803174Y-40105722D01*
X31809594Y-40080091D01*
X31818495Y-40055212D01*
X31829793Y-40031326D01*
X31843377Y-40008663D01*
X31859117Y-39987440D01*
X31876861Y-39967861D01*
X31896440Y-39950117D01*
X31917663Y-39934377D01*
X31940326Y-39920793D01*
X31964212Y-39909495D01*
X31989091Y-39900594D01*
X32014722Y-39894174D01*
X32040859Y-39890297D01*
X32067250Y-39889000D01*
X32605750Y-39889000D01*
X32632141Y-39890297D01*
G37*
G36*
X40640141Y-44342297D02*
G01*
X40666278Y-44346174D01*
X40691909Y-44352594D01*
X40716788Y-44361495D01*
X40740674Y-44372793D01*
X40763337Y-44386377D01*
X40784560Y-44402117D01*
X40804139Y-44419861D01*
X40821883Y-44439440D01*
X40837623Y-44460663D01*
X40851207Y-44483326D01*
X40862505Y-44507212D01*
X40871406Y-44532091D01*
X40877826Y-44557722D01*
X40881703Y-44583859D01*
X40883000Y-44610250D01*
X40883000Y-45148750D01*
X40881703Y-45175141D01*
X40877826Y-45201278D01*
X40871406Y-45226909D01*
X40862505Y-45251788D01*
X40851207Y-45275674D01*
X40837623Y-45298337D01*
X40821883Y-45319560D01*
X40804139Y-45339139D01*
X40784560Y-45356883D01*
X40763337Y-45372623D01*
X40740674Y-45386207D01*
X40716788Y-45397505D01*
X40691909Y-45406406D01*
X40666278Y-45412826D01*
X40640141Y-45416703D01*
X40613750Y-45418000D01*
X39650250Y-45418000D01*
X39623859Y-45416703D01*
X39597722Y-45412826D01*
X39572091Y-45406406D01*
X39547212Y-45397505D01*
X39523326Y-45386207D01*
X39500663Y-45372623D01*
X39479440Y-45356883D01*
X39459861Y-45339139D01*
X39442117Y-45319560D01*
X39426377Y-45298337D01*
X39412793Y-45275674D01*
X39401495Y-45251788D01*
X39392594Y-45226909D01*
X39386174Y-45201278D01*
X39382297Y-45175141D01*
X39381000Y-45148750D01*
X39381000Y-44610250D01*
X39382297Y-44583859D01*
X39386174Y-44557722D01*
X39392594Y-44532091D01*
X39401495Y-44507212D01*
X39412793Y-44483326D01*
X39426377Y-44460663D01*
X39442117Y-44439440D01*
X39459861Y-44419861D01*
X39479440Y-44402117D01*
X39500663Y-44386377D01*
X39523326Y-44372793D01*
X39547212Y-44361495D01*
X39572091Y-44352594D01*
X39597722Y-44346174D01*
X39623859Y-44342297D01*
X39650250Y-44341000D01*
X40613750Y-44341000D01*
X40640141Y-44342297D01*
G37*
G36*
X40640141Y-42467297D02*
G01*
X40666278Y-42471174D01*
X40691909Y-42477594D01*
X40716788Y-42486495D01*
X40740674Y-42497793D01*
X40763337Y-42511377D01*
X40784560Y-42527117D01*
X40804139Y-42544861D01*
X40821883Y-42564440D01*
X40837623Y-42585663D01*
X40851207Y-42608326D01*
X40862505Y-42632212D01*
X40871406Y-42657091D01*
X40877826Y-42682722D01*
X40881703Y-42708859D01*
X40883000Y-42735250D01*
X40883000Y-43273750D01*
X40881703Y-43300141D01*
X40877826Y-43326278D01*
X40871406Y-43351909D01*
X40862505Y-43376788D01*
X40851207Y-43400674D01*
X40837623Y-43423337D01*
X40821883Y-43444560D01*
X40804139Y-43464139D01*
X40784560Y-43481883D01*
X40763337Y-43497623D01*
X40740674Y-43511207D01*
X40716788Y-43522505D01*
X40691909Y-43531406D01*
X40666278Y-43537826D01*
X40640141Y-43541703D01*
X40613750Y-43543000D01*
X39650250Y-43543000D01*
X39623859Y-43541703D01*
X39597722Y-43537826D01*
X39572091Y-43531406D01*
X39547212Y-43522505D01*
X39523326Y-43511207D01*
X39500663Y-43497623D01*
X39479440Y-43481883D01*
X39459861Y-43464139D01*
X39442117Y-43444560D01*
X39426377Y-43423337D01*
X39412793Y-43400674D01*
X39401495Y-43376788D01*
X39392594Y-43351909D01*
X39386174Y-43326278D01*
X39382297Y-43300141D01*
X39381000Y-43273750D01*
X39381000Y-42735250D01*
X39382297Y-42708859D01*
X39386174Y-42682722D01*
X39392594Y-42657091D01*
X39401495Y-42632212D01*
X39412793Y-42608326D01*
X39426377Y-42585663D01*
X39442117Y-42564440D01*
X39459861Y-42544861D01*
X39479440Y-42527117D01*
X39500663Y-42511377D01*
X39523326Y-42497793D01*
X39547212Y-42486495D01*
X39572091Y-42477594D01*
X39597722Y-42471174D01*
X39623859Y-42467297D01*
X39650250Y-42466000D01*
X40613750Y-42466000D01*
X40640141Y-42467297D01*
G37*
G36*
X42469691Y-42667176D02*
G01*
X42493401Y-42670693D01*
X42516652Y-42676517D01*
X42539220Y-42684592D01*
X42560889Y-42694841D01*
X42581448Y-42707164D01*
X42600701Y-42721442D01*
X42618461Y-42737539D01*
X42634558Y-42755299D01*
X42648836Y-42774552D01*
X42661159Y-42795111D01*
X42671408Y-42816780D01*
X42679483Y-42839348D01*
X42685307Y-42862599D01*
X42688824Y-42886309D01*
X42690000Y-42910250D01*
X42690000Y-43398750D01*
X42688824Y-43422691D01*
X42685307Y-43446401D01*
X42679483Y-43469652D01*
X42671408Y-43492220D01*
X42661159Y-43513889D01*
X42648836Y-43534448D01*
X42634558Y-43553701D01*
X42618461Y-43571461D01*
X42600701Y-43587558D01*
X42581448Y-43601836D01*
X42560889Y-43614159D01*
X42539220Y-43624408D01*
X42516652Y-43632483D01*
X42493401Y-43638307D01*
X42469691Y-43641824D01*
X42445750Y-43643000D01*
X41882250Y-43643000D01*
X41858309Y-43641824D01*
X41834599Y-43638307D01*
X41811348Y-43632483D01*
X41788780Y-43624408D01*
X41767111Y-43614159D01*
X41746552Y-43601836D01*
X41727299Y-43587558D01*
X41709539Y-43571461D01*
X41693442Y-43553701D01*
X41679164Y-43534448D01*
X41666841Y-43513889D01*
X41656592Y-43492220D01*
X41648517Y-43469652D01*
X41642693Y-43446401D01*
X41639176Y-43422691D01*
X41638000Y-43398750D01*
X41638000Y-42910250D01*
X41639176Y-42886309D01*
X41642693Y-42862599D01*
X41648517Y-42839348D01*
X41656592Y-42816780D01*
X41666841Y-42795111D01*
X41679164Y-42774552D01*
X41693442Y-42755299D01*
X41709539Y-42737539D01*
X41727299Y-42721442D01*
X41746552Y-42707164D01*
X41767111Y-42694841D01*
X41788780Y-42684592D01*
X41811348Y-42676517D01*
X41834599Y-42670693D01*
X41858309Y-42667176D01*
X41882250Y-42666000D01*
X42445750Y-42666000D01*
X42469691Y-42667176D01*
G37*
G36*
X42469691Y-44242176D02*
G01*
X42493401Y-44245693D01*
X42516652Y-44251517D01*
X42539220Y-44259592D01*
X42560889Y-44269841D01*
X42581448Y-44282164D01*
X42600701Y-44296442D01*
X42618461Y-44312539D01*
X42634558Y-44330299D01*
X42648836Y-44349552D01*
X42661159Y-44370111D01*
X42671408Y-44391780D01*
X42679483Y-44414348D01*
X42685307Y-44437599D01*
X42688824Y-44461309D01*
X42690000Y-44485250D01*
X42690000Y-44973750D01*
X42688824Y-44997691D01*
X42685307Y-45021401D01*
X42679483Y-45044652D01*
X42671408Y-45067220D01*
X42661159Y-45088889D01*
X42648836Y-45109448D01*
X42634558Y-45128701D01*
X42618461Y-45146461D01*
X42600701Y-45162558D01*
X42581448Y-45176836D01*
X42560889Y-45189159D01*
X42539220Y-45199408D01*
X42516652Y-45207483D01*
X42493401Y-45213307D01*
X42469691Y-45216824D01*
X42445750Y-45218000D01*
X41882250Y-45218000D01*
X41858309Y-45216824D01*
X41834599Y-45213307D01*
X41811348Y-45207483D01*
X41788780Y-45199408D01*
X41767111Y-45189159D01*
X41746552Y-45176836D01*
X41727299Y-45162558D01*
X41709539Y-45146461D01*
X41693442Y-45128701D01*
X41679164Y-45109448D01*
X41666841Y-45088889D01*
X41656592Y-45067220D01*
X41648517Y-45044652D01*
X41642693Y-45021401D01*
X41639176Y-44997691D01*
X41638000Y-44973750D01*
X41638000Y-44485250D01*
X41639176Y-44461309D01*
X41642693Y-44437599D01*
X41648517Y-44414348D01*
X41656592Y-44391780D01*
X41666841Y-44370111D01*
X41679164Y-44349552D01*
X41693442Y-44330299D01*
X41709539Y-44312539D01*
X41727299Y-44296442D01*
X41746552Y-44282164D01*
X41767111Y-44269841D01*
X41788780Y-44259592D01*
X41811348Y-44251517D01*
X41834599Y-44245693D01*
X41858309Y-44242176D01*
X41882250Y-44241000D01*
X42445750Y-44241000D01*
X42469691Y-44242176D01*
G37*
G36*
X52058691Y-36305176D02*
G01*
X52082401Y-36308693D01*
X52105652Y-36314517D01*
X52128220Y-36322592D01*
X52149889Y-36332841D01*
X52170448Y-36345164D01*
X52189701Y-36359442D01*
X52207461Y-36375539D01*
X52223558Y-36393299D01*
X52237836Y-36412552D01*
X52250159Y-36433111D01*
X52260408Y-36454780D01*
X52268483Y-36477348D01*
X52274307Y-36500599D01*
X52277824Y-36524309D01*
X52279000Y-36548250D01*
X52279000Y-37111750D01*
X52277824Y-37135691D01*
X52274307Y-37159401D01*
X52268483Y-37182652D01*
X52260408Y-37205220D01*
X52250159Y-37226889D01*
X52237836Y-37247448D01*
X52223558Y-37266701D01*
X52207461Y-37284461D01*
X52189701Y-37300558D01*
X52170448Y-37314836D01*
X52149889Y-37327159D01*
X52128220Y-37337408D01*
X52105652Y-37345483D01*
X52082401Y-37351307D01*
X52058691Y-37354824D01*
X52034750Y-37356000D01*
X51546250Y-37356000D01*
X51522309Y-37354824D01*
X51498599Y-37351307D01*
X51475348Y-37345483D01*
X51452780Y-37337408D01*
X51431111Y-37327159D01*
X51410552Y-37314836D01*
X51391299Y-37300558D01*
X51373539Y-37284461D01*
X51357442Y-37266701D01*
X51343164Y-37247448D01*
X51330841Y-37226889D01*
X51320592Y-37205220D01*
X51312517Y-37182652D01*
X51306693Y-37159401D01*
X51303176Y-37135691D01*
X51302000Y-37111750D01*
X51302000Y-36548250D01*
X51303176Y-36524309D01*
X51306693Y-36500599D01*
X51312517Y-36477348D01*
X51320592Y-36454780D01*
X51330841Y-36433111D01*
X51343164Y-36412552D01*
X51357442Y-36393299D01*
X51373539Y-36375539D01*
X51391299Y-36359442D01*
X51410552Y-36345164D01*
X51431111Y-36332841D01*
X51452780Y-36322592D01*
X51475348Y-36314517D01*
X51498599Y-36308693D01*
X51522309Y-36305176D01*
X51546250Y-36304000D01*
X52034750Y-36304000D01*
X52058691Y-36305176D01*
G37*
G36*
X53633691Y-36305176D02*
G01*
X53657401Y-36308693D01*
X53680652Y-36314517D01*
X53703220Y-36322592D01*
X53724889Y-36332841D01*
X53745448Y-36345164D01*
X53764701Y-36359442D01*
X53782461Y-36375539D01*
X53798558Y-36393299D01*
X53812836Y-36412552D01*
X53825159Y-36433111D01*
X53835408Y-36454780D01*
X53843483Y-36477348D01*
X53849307Y-36500599D01*
X53852824Y-36524309D01*
X53854000Y-36548250D01*
X53854000Y-37111750D01*
X53852824Y-37135691D01*
X53849307Y-37159401D01*
X53843483Y-37182652D01*
X53835408Y-37205220D01*
X53825159Y-37226889D01*
X53812836Y-37247448D01*
X53798558Y-37266701D01*
X53782461Y-37284461D01*
X53764701Y-37300558D01*
X53745448Y-37314836D01*
X53724889Y-37327159D01*
X53703220Y-37337408D01*
X53680652Y-37345483D01*
X53657401Y-37351307D01*
X53633691Y-37354824D01*
X53609750Y-37356000D01*
X53121250Y-37356000D01*
X53097309Y-37354824D01*
X53073599Y-37351307D01*
X53050348Y-37345483D01*
X53027780Y-37337408D01*
X53006111Y-37327159D01*
X52985552Y-37314836D01*
X52966299Y-37300558D01*
X52948539Y-37284461D01*
X52932442Y-37266701D01*
X52918164Y-37247448D01*
X52905841Y-37226889D01*
X52895592Y-37205220D01*
X52887517Y-37182652D01*
X52881693Y-37159401D01*
X52878176Y-37135691D01*
X52877000Y-37111750D01*
X52877000Y-36548250D01*
X52878176Y-36524309D01*
X52881693Y-36500599D01*
X52887517Y-36477348D01*
X52895592Y-36454780D01*
X52905841Y-36433111D01*
X52918164Y-36412552D01*
X52932442Y-36393299D01*
X52948539Y-36375539D01*
X52966299Y-36359442D01*
X52985552Y-36345164D01*
X53006111Y-36332841D01*
X53027780Y-36322592D01*
X53050348Y-36314517D01*
X53073599Y-36308693D01*
X53097309Y-36305176D01*
X53121250Y-36304000D01*
X53609750Y-36304000D01*
X53633691Y-36305176D01*
G37*
G36*
X53633691Y-38083176D02*
G01*
X53657401Y-38086693D01*
X53680652Y-38092517D01*
X53703220Y-38100592D01*
X53724889Y-38110841D01*
X53745448Y-38123164D01*
X53764701Y-38137442D01*
X53782461Y-38153539D01*
X53798558Y-38171299D01*
X53812836Y-38190552D01*
X53825159Y-38211111D01*
X53835408Y-38232780D01*
X53843483Y-38255348D01*
X53849307Y-38278599D01*
X53852824Y-38302309D01*
X53854000Y-38326250D01*
X53854000Y-38889750D01*
X53852824Y-38913691D01*
X53849307Y-38937401D01*
X53843483Y-38960652D01*
X53835408Y-38983220D01*
X53825159Y-39004889D01*
X53812836Y-39025448D01*
X53798558Y-39044701D01*
X53782461Y-39062461D01*
X53764701Y-39078558D01*
X53745448Y-39092836D01*
X53724889Y-39105159D01*
X53703220Y-39115408D01*
X53680652Y-39123483D01*
X53657401Y-39129307D01*
X53633691Y-39132824D01*
X53609750Y-39134000D01*
X53121250Y-39134000D01*
X53097309Y-39132824D01*
X53073599Y-39129307D01*
X53050348Y-39123483D01*
X53027780Y-39115408D01*
X53006111Y-39105159D01*
X52985552Y-39092836D01*
X52966299Y-39078558D01*
X52948539Y-39062461D01*
X52932442Y-39044701D01*
X52918164Y-39025448D01*
X52905841Y-39004889D01*
X52895592Y-38983220D01*
X52887517Y-38960652D01*
X52881693Y-38937401D01*
X52878176Y-38913691D01*
X52877000Y-38889750D01*
X52877000Y-38326250D01*
X52878176Y-38302309D01*
X52881693Y-38278599D01*
X52887517Y-38255348D01*
X52895592Y-38232780D01*
X52905841Y-38211111D01*
X52918164Y-38190552D01*
X52932442Y-38171299D01*
X52948539Y-38153539D01*
X52966299Y-38137442D01*
X52985552Y-38123164D01*
X53006111Y-38110841D01*
X53027780Y-38100592D01*
X53050348Y-38092517D01*
X53073599Y-38086693D01*
X53097309Y-38083176D01*
X53121250Y-38082000D01*
X53609750Y-38082000D01*
X53633691Y-38083176D01*
G37*
G36*
X52058691Y-38083176D02*
G01*
X52082401Y-38086693D01*
X52105652Y-38092517D01*
X52128220Y-38100592D01*
X52149889Y-38110841D01*
X52170448Y-38123164D01*
X52189701Y-38137442D01*
X52207461Y-38153539D01*
X52223558Y-38171299D01*
X52237836Y-38190552D01*
X52250159Y-38211111D01*
X52260408Y-38232780D01*
X52268483Y-38255348D01*
X52274307Y-38278599D01*
X52277824Y-38302309D01*
X52279000Y-38326250D01*
X52279000Y-38889750D01*
X52277824Y-38913691D01*
X52274307Y-38937401D01*
X52268483Y-38960652D01*
X52260408Y-38983220D01*
X52250159Y-39004889D01*
X52237836Y-39025448D01*
X52223558Y-39044701D01*
X52207461Y-39062461D01*
X52189701Y-39078558D01*
X52170448Y-39092836D01*
X52149889Y-39105159D01*
X52128220Y-39115408D01*
X52105652Y-39123483D01*
X52082401Y-39129307D01*
X52058691Y-39132824D01*
X52034750Y-39134000D01*
X51546250Y-39134000D01*
X51522309Y-39132824D01*
X51498599Y-39129307D01*
X51475348Y-39123483D01*
X51452780Y-39115408D01*
X51431111Y-39105159D01*
X51410552Y-39092836D01*
X51391299Y-39078558D01*
X51373539Y-39062461D01*
X51357442Y-39044701D01*
X51343164Y-39025448D01*
X51330841Y-39004889D01*
X51320592Y-38983220D01*
X51312517Y-38960652D01*
X51306693Y-38937401D01*
X51303176Y-38913691D01*
X51302000Y-38889750D01*
X51302000Y-38326250D01*
X51303176Y-38302309D01*
X51306693Y-38278599D01*
X51312517Y-38255348D01*
X51320592Y-38232780D01*
X51330841Y-38211111D01*
X51343164Y-38190552D01*
X51357442Y-38171299D01*
X51373539Y-38153539D01*
X51391299Y-38137442D01*
X51410552Y-38123164D01*
X51431111Y-38110841D01*
X51452780Y-38100592D01*
X51475348Y-38092517D01*
X51498599Y-38086693D01*
X51522309Y-38083176D01*
X51546250Y-38082000D01*
X52034750Y-38082000D01*
X52058691Y-38083176D01*
G37*
G36*
X32754691Y-36305176D02*
G01*
X32778401Y-36308693D01*
X32801652Y-36314517D01*
X32824220Y-36322592D01*
X32845889Y-36332841D01*
X32866448Y-36345164D01*
X32885701Y-36359442D01*
X32903461Y-36375539D01*
X32919558Y-36393299D01*
X32933836Y-36412552D01*
X32946159Y-36433111D01*
X32956408Y-36454780D01*
X32964483Y-36477348D01*
X32970307Y-36500599D01*
X32973824Y-36524309D01*
X32975000Y-36548250D01*
X32975000Y-37111750D01*
X32973824Y-37135691D01*
X32970307Y-37159401D01*
X32964483Y-37182652D01*
X32956408Y-37205220D01*
X32946159Y-37226889D01*
X32933836Y-37247448D01*
X32919558Y-37266701D01*
X32903461Y-37284461D01*
X32885701Y-37300558D01*
X32866448Y-37314836D01*
X32845889Y-37327159D01*
X32824220Y-37337408D01*
X32801652Y-37345483D01*
X32778401Y-37351307D01*
X32754691Y-37354824D01*
X32730750Y-37356000D01*
X32242250Y-37356000D01*
X32218309Y-37354824D01*
X32194599Y-37351307D01*
X32171348Y-37345483D01*
X32148780Y-37337408D01*
X32127111Y-37327159D01*
X32106552Y-37314836D01*
X32087299Y-37300558D01*
X32069539Y-37284461D01*
X32053442Y-37266701D01*
X32039164Y-37247448D01*
X32026841Y-37226889D01*
X32016592Y-37205220D01*
X32008517Y-37182652D01*
X32002693Y-37159401D01*
X31999176Y-37135691D01*
X31998000Y-37111750D01*
X31998000Y-36548250D01*
X31999176Y-36524309D01*
X32002693Y-36500599D01*
X32008517Y-36477348D01*
X32016592Y-36454780D01*
X32026841Y-36433111D01*
X32039164Y-36412552D01*
X32053442Y-36393299D01*
X32069539Y-36375539D01*
X32087299Y-36359442D01*
X32106552Y-36345164D01*
X32127111Y-36332841D01*
X32148780Y-36322592D01*
X32171348Y-36314517D01*
X32194599Y-36308693D01*
X32218309Y-36305176D01*
X32242250Y-36304000D01*
X32730750Y-36304000D01*
X32754691Y-36305176D01*
G37*
G36*
X34329691Y-36305176D02*
G01*
X34353401Y-36308693D01*
X34376652Y-36314517D01*
X34399220Y-36322592D01*
X34420889Y-36332841D01*
X34441448Y-36345164D01*
X34460701Y-36359442D01*
X34478461Y-36375539D01*
X34494558Y-36393299D01*
X34508836Y-36412552D01*
X34521159Y-36433111D01*
X34531408Y-36454780D01*
X34539483Y-36477348D01*
X34545307Y-36500599D01*
X34548824Y-36524309D01*
X34550000Y-36548250D01*
X34550000Y-37111750D01*
X34548824Y-37135691D01*
X34545307Y-37159401D01*
X34539483Y-37182652D01*
X34531408Y-37205220D01*
X34521159Y-37226889D01*
X34508836Y-37247448D01*
X34494558Y-37266701D01*
X34478461Y-37284461D01*
X34460701Y-37300558D01*
X34441448Y-37314836D01*
X34420889Y-37327159D01*
X34399220Y-37337408D01*
X34376652Y-37345483D01*
X34353401Y-37351307D01*
X34329691Y-37354824D01*
X34305750Y-37356000D01*
X33817250Y-37356000D01*
X33793309Y-37354824D01*
X33769599Y-37351307D01*
X33746348Y-37345483D01*
X33723780Y-37337408D01*
X33702111Y-37327159D01*
X33681552Y-37314836D01*
X33662299Y-37300558D01*
X33644539Y-37284461D01*
X33628442Y-37266701D01*
X33614164Y-37247448D01*
X33601841Y-37226889D01*
X33591592Y-37205220D01*
X33583517Y-37182652D01*
X33577693Y-37159401D01*
X33574176Y-37135691D01*
X33573000Y-37111750D01*
X33573000Y-36548250D01*
X33574176Y-36524309D01*
X33577693Y-36500599D01*
X33583517Y-36477348D01*
X33591592Y-36454780D01*
X33601841Y-36433111D01*
X33614164Y-36412552D01*
X33628442Y-36393299D01*
X33644539Y-36375539D01*
X33662299Y-36359442D01*
X33681552Y-36345164D01*
X33702111Y-36332841D01*
X33723780Y-36322592D01*
X33746348Y-36314517D01*
X33769599Y-36308693D01*
X33793309Y-36305176D01*
X33817250Y-36304000D01*
X34305750Y-36304000D01*
X34329691Y-36305176D01*
G37*
D16*
X40386000Y-41274000D03*
X40386000Y-37974000D03*
D17*
X29400000Y-35530000D03*
X29400000Y-36180000D03*
X29400000Y-36830000D03*
X29400000Y-37480000D03*
X29400000Y-38130000D03*
D18*
X29315000Y-34342500D03*
X29315000Y-39317500D03*
D19*
X26740000Y-33455000D03*
X26740000Y-40205000D03*
D20*
X26740000Y-35680000D03*
D21*
X26740000Y-38380000D03*
D11*
G36*
X38139691Y-36305176D02*
G01*
X38163401Y-36308693D01*
X38186652Y-36314517D01*
X38209220Y-36322592D01*
X38230889Y-36332841D01*
X38251448Y-36345164D01*
X38270701Y-36359442D01*
X38288461Y-36375539D01*
X38304558Y-36393299D01*
X38318836Y-36412552D01*
X38331159Y-36433111D01*
X38341408Y-36454780D01*
X38349483Y-36477348D01*
X38355307Y-36500599D01*
X38358824Y-36524309D01*
X38360000Y-36548250D01*
X38360000Y-37111750D01*
X38358824Y-37135691D01*
X38355307Y-37159401D01*
X38349483Y-37182652D01*
X38341408Y-37205220D01*
X38331159Y-37226889D01*
X38318836Y-37247448D01*
X38304558Y-37266701D01*
X38288461Y-37284461D01*
X38270701Y-37300558D01*
X38251448Y-37314836D01*
X38230889Y-37327159D01*
X38209220Y-37337408D01*
X38186652Y-37345483D01*
X38163401Y-37351307D01*
X38139691Y-37354824D01*
X38115750Y-37356000D01*
X37627250Y-37356000D01*
X37603309Y-37354824D01*
X37579599Y-37351307D01*
X37556348Y-37345483D01*
X37533780Y-37337408D01*
X37512111Y-37327159D01*
X37491552Y-37314836D01*
X37472299Y-37300558D01*
X37454539Y-37284461D01*
X37438442Y-37266701D01*
X37424164Y-37247448D01*
X37411841Y-37226889D01*
X37401592Y-37205220D01*
X37393517Y-37182652D01*
X37387693Y-37159401D01*
X37384176Y-37135691D01*
X37383000Y-37111750D01*
X37383000Y-36548250D01*
X37384176Y-36524309D01*
X37387693Y-36500599D01*
X37393517Y-36477348D01*
X37401592Y-36454780D01*
X37411841Y-36433111D01*
X37424164Y-36412552D01*
X37438442Y-36393299D01*
X37454539Y-36375539D01*
X37472299Y-36359442D01*
X37491552Y-36345164D01*
X37512111Y-36332841D01*
X37533780Y-36322592D01*
X37556348Y-36314517D01*
X37579599Y-36308693D01*
X37603309Y-36305176D01*
X37627250Y-36304000D01*
X38115750Y-36304000D01*
X38139691Y-36305176D01*
G37*
G36*
X36564691Y-36305176D02*
G01*
X36588401Y-36308693D01*
X36611652Y-36314517D01*
X36634220Y-36322592D01*
X36655889Y-36332841D01*
X36676448Y-36345164D01*
X36695701Y-36359442D01*
X36713461Y-36375539D01*
X36729558Y-36393299D01*
X36743836Y-36412552D01*
X36756159Y-36433111D01*
X36766408Y-36454780D01*
X36774483Y-36477348D01*
X36780307Y-36500599D01*
X36783824Y-36524309D01*
X36785000Y-36548250D01*
X36785000Y-37111750D01*
X36783824Y-37135691D01*
X36780307Y-37159401D01*
X36774483Y-37182652D01*
X36766408Y-37205220D01*
X36756159Y-37226889D01*
X36743836Y-37247448D01*
X36729558Y-37266701D01*
X36713461Y-37284461D01*
X36695701Y-37300558D01*
X36676448Y-37314836D01*
X36655889Y-37327159D01*
X36634220Y-37337408D01*
X36611652Y-37345483D01*
X36588401Y-37351307D01*
X36564691Y-37354824D01*
X36540750Y-37356000D01*
X36052250Y-37356000D01*
X36028309Y-37354824D01*
X36004599Y-37351307D01*
X35981348Y-37345483D01*
X35958780Y-37337408D01*
X35937111Y-37327159D01*
X35916552Y-37314836D01*
X35897299Y-37300558D01*
X35879539Y-37284461D01*
X35863442Y-37266701D01*
X35849164Y-37247448D01*
X35836841Y-37226889D01*
X35826592Y-37205220D01*
X35818517Y-37182652D01*
X35812693Y-37159401D01*
X35809176Y-37135691D01*
X35808000Y-37111750D01*
X35808000Y-36548250D01*
X35809176Y-36524309D01*
X35812693Y-36500599D01*
X35818517Y-36477348D01*
X35826592Y-36454780D01*
X35836841Y-36433111D01*
X35849164Y-36412552D01*
X35863442Y-36393299D01*
X35879539Y-36375539D01*
X35897299Y-36359442D01*
X35916552Y-36345164D01*
X35937111Y-36332841D01*
X35958780Y-36322592D01*
X35981348Y-36314517D01*
X36004599Y-36308693D01*
X36028309Y-36305176D01*
X36052250Y-36304000D01*
X36540750Y-36304000D01*
X36564691Y-36305176D01*
G37*
G36*
X28690691Y-31225176D02*
G01*
X28714401Y-31228693D01*
X28737652Y-31234517D01*
X28760220Y-31242592D01*
X28781889Y-31252841D01*
X28802448Y-31265164D01*
X28821701Y-31279442D01*
X28839461Y-31295539D01*
X28855558Y-31313299D01*
X28869836Y-31332552D01*
X28882159Y-31353111D01*
X28892408Y-31374780D01*
X28900483Y-31397348D01*
X28906307Y-31420599D01*
X28909824Y-31444309D01*
X28911000Y-31468250D01*
X28911000Y-32031750D01*
X28909824Y-32055691D01*
X28906307Y-32079401D01*
X28900483Y-32102652D01*
X28892408Y-32125220D01*
X28882159Y-32146889D01*
X28869836Y-32167448D01*
X28855558Y-32186701D01*
X28839461Y-32204461D01*
X28821701Y-32220558D01*
X28802448Y-32234836D01*
X28781889Y-32247159D01*
X28760220Y-32257408D01*
X28737652Y-32265483D01*
X28714401Y-32271307D01*
X28690691Y-32274824D01*
X28666750Y-32276000D01*
X28178250Y-32276000D01*
X28154309Y-32274824D01*
X28130599Y-32271307D01*
X28107348Y-32265483D01*
X28084780Y-32257408D01*
X28063111Y-32247159D01*
X28042552Y-32234836D01*
X28023299Y-32220558D01*
X28005539Y-32204461D01*
X27989442Y-32186701D01*
X27975164Y-32167448D01*
X27962841Y-32146889D01*
X27952592Y-32125220D01*
X27944517Y-32102652D01*
X27938693Y-32079401D01*
X27935176Y-32055691D01*
X27934000Y-32031750D01*
X27934000Y-31468250D01*
X27935176Y-31444309D01*
X27938693Y-31420599D01*
X27944517Y-31397348D01*
X27952592Y-31374780D01*
X27962841Y-31353111D01*
X27975164Y-31332552D01*
X27989442Y-31313299D01*
X28005539Y-31295539D01*
X28023299Y-31279442D01*
X28042552Y-31265164D01*
X28063111Y-31252841D01*
X28084780Y-31242592D01*
X28107348Y-31234517D01*
X28130599Y-31228693D01*
X28154309Y-31225176D01*
X28178250Y-31224000D01*
X28666750Y-31224000D01*
X28690691Y-31225176D01*
G37*
G36*
X30265691Y-31225176D02*
G01*
X30289401Y-31228693D01*
X30312652Y-31234517D01*
X30335220Y-31242592D01*
X30356889Y-31252841D01*
X30377448Y-31265164D01*
X30396701Y-31279442D01*
X30414461Y-31295539D01*
X30430558Y-31313299D01*
X30444836Y-31332552D01*
X30457159Y-31353111D01*
X30467408Y-31374780D01*
X30475483Y-31397348D01*
X30481307Y-31420599D01*
X30484824Y-31444309D01*
X30486000Y-31468250D01*
X30486000Y-32031750D01*
X30484824Y-32055691D01*
X30481307Y-32079401D01*
X30475483Y-32102652D01*
X30467408Y-32125220D01*
X30457159Y-32146889D01*
X30444836Y-32167448D01*
X30430558Y-32186701D01*
X30414461Y-32204461D01*
X30396701Y-32220558D01*
X30377448Y-32234836D01*
X30356889Y-32247159D01*
X30335220Y-32257408D01*
X30312652Y-32265483D01*
X30289401Y-32271307D01*
X30265691Y-32274824D01*
X30241750Y-32276000D01*
X29753250Y-32276000D01*
X29729309Y-32274824D01*
X29705599Y-32271307D01*
X29682348Y-32265483D01*
X29659780Y-32257408D01*
X29638111Y-32247159D01*
X29617552Y-32234836D01*
X29598299Y-32220558D01*
X29580539Y-32204461D01*
X29564442Y-32186701D01*
X29550164Y-32167448D01*
X29537841Y-32146889D01*
X29527592Y-32125220D01*
X29519517Y-32102652D01*
X29513693Y-32079401D01*
X29510176Y-32055691D01*
X29509000Y-32031750D01*
X29509000Y-31468250D01*
X29510176Y-31444309D01*
X29513693Y-31420599D01*
X29519517Y-31397348D01*
X29527592Y-31374780D01*
X29537841Y-31353111D01*
X29550164Y-31332552D01*
X29564442Y-31313299D01*
X29580539Y-31295539D01*
X29598299Y-31279442D01*
X29617552Y-31265164D01*
X29638111Y-31252841D01*
X29659780Y-31242592D01*
X29682348Y-31234517D01*
X29705599Y-31228693D01*
X29729309Y-31225176D01*
X29753250Y-31224000D01*
X30241750Y-31224000D01*
X30265691Y-31225176D01*
G37*
G36*
X34329691Y-38083176D02*
G01*
X34353401Y-38086693D01*
X34376652Y-38092517D01*
X34399220Y-38100592D01*
X34420889Y-38110841D01*
X34441448Y-38123164D01*
X34460701Y-38137442D01*
X34478461Y-38153539D01*
X34494558Y-38171299D01*
X34508836Y-38190552D01*
X34521159Y-38211111D01*
X34531408Y-38232780D01*
X34539483Y-38255348D01*
X34545307Y-38278599D01*
X34548824Y-38302309D01*
X34550000Y-38326250D01*
X34550000Y-38889750D01*
X34548824Y-38913691D01*
X34545307Y-38937401D01*
X34539483Y-38960652D01*
X34531408Y-38983220D01*
X34521159Y-39004889D01*
X34508836Y-39025448D01*
X34494558Y-39044701D01*
X34478461Y-39062461D01*
X34460701Y-39078558D01*
X34441448Y-39092836D01*
X34420889Y-39105159D01*
X34399220Y-39115408D01*
X34376652Y-39123483D01*
X34353401Y-39129307D01*
X34329691Y-39132824D01*
X34305750Y-39134000D01*
X33817250Y-39134000D01*
X33793309Y-39132824D01*
X33769599Y-39129307D01*
X33746348Y-39123483D01*
X33723780Y-39115408D01*
X33702111Y-39105159D01*
X33681552Y-39092836D01*
X33662299Y-39078558D01*
X33644539Y-39062461D01*
X33628442Y-39044701D01*
X33614164Y-39025448D01*
X33601841Y-39004889D01*
X33591592Y-38983220D01*
X33583517Y-38960652D01*
X33577693Y-38937401D01*
X33574176Y-38913691D01*
X33573000Y-38889750D01*
X33573000Y-38326250D01*
X33574176Y-38302309D01*
X33577693Y-38278599D01*
X33583517Y-38255348D01*
X33591592Y-38232780D01*
X33601841Y-38211111D01*
X33614164Y-38190552D01*
X33628442Y-38171299D01*
X33644539Y-38153539D01*
X33662299Y-38137442D01*
X33681552Y-38123164D01*
X33702111Y-38110841D01*
X33723780Y-38100592D01*
X33746348Y-38092517D01*
X33769599Y-38086693D01*
X33793309Y-38083176D01*
X33817250Y-38082000D01*
X34305750Y-38082000D01*
X34329691Y-38083176D01*
G37*
G36*
X32754691Y-38083176D02*
G01*
X32778401Y-38086693D01*
X32801652Y-38092517D01*
X32824220Y-38100592D01*
X32845889Y-38110841D01*
X32866448Y-38123164D01*
X32885701Y-38137442D01*
X32903461Y-38153539D01*
X32919558Y-38171299D01*
X32933836Y-38190552D01*
X32946159Y-38211111D01*
X32956408Y-38232780D01*
X32964483Y-38255348D01*
X32970307Y-38278599D01*
X32973824Y-38302309D01*
X32975000Y-38326250D01*
X32975000Y-38889750D01*
X32973824Y-38913691D01*
X32970307Y-38937401D01*
X32964483Y-38960652D01*
X32956408Y-38983220D01*
X32946159Y-39004889D01*
X32933836Y-39025448D01*
X32919558Y-39044701D01*
X32903461Y-39062461D01*
X32885701Y-39078558D01*
X32866448Y-39092836D01*
X32845889Y-39105159D01*
X32824220Y-39115408D01*
X32801652Y-39123483D01*
X32778401Y-39129307D01*
X32754691Y-39132824D01*
X32730750Y-39134000D01*
X32242250Y-39134000D01*
X32218309Y-39132824D01*
X32194599Y-39129307D01*
X32171348Y-39123483D01*
X32148780Y-39115408D01*
X32127111Y-39105159D01*
X32106552Y-39092836D01*
X32087299Y-39078558D01*
X32069539Y-39062461D01*
X32053442Y-39044701D01*
X32039164Y-39025448D01*
X32026841Y-39004889D01*
X32016592Y-38983220D01*
X32008517Y-38960652D01*
X32002693Y-38937401D01*
X31999176Y-38913691D01*
X31998000Y-38889750D01*
X31998000Y-38326250D01*
X31999176Y-38302309D01*
X32002693Y-38278599D01*
X32008517Y-38255348D01*
X32016592Y-38232780D01*
X32026841Y-38211111D01*
X32039164Y-38190552D01*
X32053442Y-38171299D01*
X32069539Y-38153539D01*
X32087299Y-38137442D01*
X32106552Y-38123164D01*
X32127111Y-38110841D01*
X32148780Y-38100592D01*
X32171348Y-38092517D01*
X32194599Y-38086693D01*
X32218309Y-38083176D01*
X32242250Y-38082000D01*
X32730750Y-38082000D01*
X32754691Y-38083176D01*
G37*
G36*
X34595691Y-42667176D02*
G01*
X34619401Y-42670693D01*
X34642652Y-42676517D01*
X34665220Y-42684592D01*
X34686889Y-42694841D01*
X34707448Y-42707164D01*
X34726701Y-42721442D01*
X34744461Y-42737539D01*
X34760558Y-42755299D01*
X34774836Y-42774552D01*
X34787159Y-42795111D01*
X34797408Y-42816780D01*
X34805483Y-42839348D01*
X34811307Y-42862599D01*
X34814824Y-42886309D01*
X34816000Y-42910250D01*
X34816000Y-43398750D01*
X34814824Y-43422691D01*
X34811307Y-43446401D01*
X34805483Y-43469652D01*
X34797408Y-43492220D01*
X34787159Y-43513889D01*
X34774836Y-43534448D01*
X34760558Y-43553701D01*
X34744461Y-43571461D01*
X34726701Y-43587558D01*
X34707448Y-43601836D01*
X34686889Y-43614159D01*
X34665220Y-43624408D01*
X34642652Y-43632483D01*
X34619401Y-43638307D01*
X34595691Y-43641824D01*
X34571750Y-43643000D01*
X34008250Y-43643000D01*
X33984309Y-43641824D01*
X33960599Y-43638307D01*
X33937348Y-43632483D01*
X33914780Y-43624408D01*
X33893111Y-43614159D01*
X33872552Y-43601836D01*
X33853299Y-43587558D01*
X33835539Y-43571461D01*
X33819442Y-43553701D01*
X33805164Y-43534448D01*
X33792841Y-43513889D01*
X33782592Y-43492220D01*
X33774517Y-43469652D01*
X33768693Y-43446401D01*
X33765176Y-43422691D01*
X33764000Y-43398750D01*
X33764000Y-42910250D01*
X33765176Y-42886309D01*
X33768693Y-42862599D01*
X33774517Y-42839348D01*
X33782592Y-42816780D01*
X33792841Y-42795111D01*
X33805164Y-42774552D01*
X33819442Y-42755299D01*
X33835539Y-42737539D01*
X33853299Y-42721442D01*
X33872552Y-42707164D01*
X33893111Y-42694841D01*
X33914780Y-42684592D01*
X33937348Y-42676517D01*
X33960599Y-42670693D01*
X33984309Y-42667176D01*
X34008250Y-42666000D01*
X34571750Y-42666000D01*
X34595691Y-42667176D01*
G37*
G36*
X34595691Y-44242176D02*
G01*
X34619401Y-44245693D01*
X34642652Y-44251517D01*
X34665220Y-44259592D01*
X34686889Y-44269841D01*
X34707448Y-44282164D01*
X34726701Y-44296442D01*
X34744461Y-44312539D01*
X34760558Y-44330299D01*
X34774836Y-44349552D01*
X34787159Y-44370111D01*
X34797408Y-44391780D01*
X34805483Y-44414348D01*
X34811307Y-44437599D01*
X34814824Y-44461309D01*
X34816000Y-44485250D01*
X34816000Y-44973750D01*
X34814824Y-44997691D01*
X34811307Y-45021401D01*
X34805483Y-45044652D01*
X34797408Y-45067220D01*
X34787159Y-45088889D01*
X34774836Y-45109448D01*
X34760558Y-45128701D01*
X34744461Y-45146461D01*
X34726701Y-45162558D01*
X34707448Y-45176836D01*
X34686889Y-45189159D01*
X34665220Y-45199408D01*
X34642652Y-45207483D01*
X34619401Y-45213307D01*
X34595691Y-45216824D01*
X34571750Y-45218000D01*
X34008250Y-45218000D01*
X33984309Y-45216824D01*
X33960599Y-45213307D01*
X33937348Y-45207483D01*
X33914780Y-45199408D01*
X33893111Y-45189159D01*
X33872552Y-45176836D01*
X33853299Y-45162558D01*
X33835539Y-45146461D01*
X33819442Y-45128701D01*
X33805164Y-45109448D01*
X33792841Y-45088889D01*
X33782592Y-45067220D01*
X33774517Y-45044652D01*
X33768693Y-45021401D01*
X33765176Y-44997691D01*
X33764000Y-44973750D01*
X33764000Y-44485250D01*
X33765176Y-44461309D01*
X33768693Y-44437599D01*
X33774517Y-44414348D01*
X33782592Y-44391780D01*
X33792841Y-44370111D01*
X33805164Y-44349552D01*
X33819442Y-44330299D01*
X33835539Y-44312539D01*
X33853299Y-44296442D01*
X33872552Y-44282164D01*
X33893111Y-44269841D01*
X33914780Y-44259592D01*
X33937348Y-44251517D01*
X33960599Y-44245693D01*
X33984309Y-44242176D01*
X34008250Y-44241000D01*
X34571750Y-44241000D01*
X34595691Y-44242176D01*
G37*
D22*
X35984000Y-38674000D03*
X35984000Y-39624000D03*
X35984000Y-40574000D03*
X38184000Y-40574000D03*
X38184000Y-38674000D03*
X38184000Y-42992000D03*
X38184000Y-44892000D03*
X35984000Y-44892000D03*
X35984000Y-43942000D03*
X35984000Y-42992000D03*
D11*
G36*
X37624504Y-31530327D02*
G01*
X37651247Y-31534294D01*
X37677473Y-31540863D01*
X37702929Y-31549971D01*
X37727370Y-31561531D01*
X37750560Y-31575430D01*
X37772275Y-31591536D01*
X37792308Y-31609692D01*
X37810464Y-31629725D01*
X37826570Y-31651440D01*
X37840469Y-31674630D01*
X37852029Y-31699071D01*
X37861137Y-31724527D01*
X37867706Y-31750753D01*
X37871673Y-31777496D01*
X37873000Y-31804500D01*
X37873000Y-34855500D01*
X37871673Y-34882504D01*
X37867706Y-34909247D01*
X37861137Y-34935473D01*
X37852029Y-34960929D01*
X37840469Y-34985370D01*
X37826570Y-35008560D01*
X37810464Y-35030275D01*
X37792308Y-35050308D01*
X37772275Y-35068464D01*
X37750560Y-35084570D01*
X37727370Y-35098469D01*
X37702929Y-35110029D01*
X37677473Y-35119137D01*
X37651247Y-35125706D01*
X37624504Y-35129673D01*
X37597500Y-35131000D01*
X37046500Y-35131000D01*
X37019496Y-35129673D01*
X36992753Y-35125706D01*
X36966527Y-35119137D01*
X36941071Y-35110029D01*
X36916630Y-35098469D01*
X36893440Y-35084570D01*
X36871725Y-35068464D01*
X36851692Y-35050308D01*
X36833536Y-35030275D01*
X36817430Y-35008560D01*
X36803531Y-34985370D01*
X36791971Y-34960929D01*
X36782863Y-34935473D01*
X36776294Y-34909247D01*
X36772327Y-34882504D01*
X36771000Y-34855500D01*
X36771000Y-31804500D01*
X36772327Y-31777496D01*
X36776294Y-31750753D01*
X36782863Y-31724527D01*
X36791971Y-31699071D01*
X36803531Y-31674630D01*
X36817430Y-31651440D01*
X36833536Y-31629725D01*
X36851692Y-31609692D01*
X36871725Y-31591536D01*
X36893440Y-31575430D01*
X36916630Y-31561531D01*
X36941071Y-31549971D01*
X36966527Y-31540863D01*
X36992753Y-31534294D01*
X37019496Y-31530327D01*
X37046500Y-31529000D01*
X37597500Y-31529000D01*
X37624504Y-31530327D01*
G37*
G36*
X35624504Y-31530327D02*
G01*
X35651247Y-31534294D01*
X35677473Y-31540863D01*
X35702929Y-31549971D01*
X35727370Y-31561531D01*
X35750560Y-31575430D01*
X35772275Y-31591536D01*
X35792308Y-31609692D01*
X35810464Y-31629725D01*
X35826570Y-31651440D01*
X35840469Y-31674630D01*
X35852029Y-31699071D01*
X35861137Y-31724527D01*
X35867706Y-31750753D01*
X35871673Y-31777496D01*
X35873000Y-31804500D01*
X35873000Y-34855500D01*
X35871673Y-34882504D01*
X35867706Y-34909247D01*
X35861137Y-34935473D01*
X35852029Y-34960929D01*
X35840469Y-34985370D01*
X35826570Y-35008560D01*
X35810464Y-35030275D01*
X35792308Y-35050308D01*
X35772275Y-35068464D01*
X35750560Y-35084570D01*
X35727370Y-35098469D01*
X35702929Y-35110029D01*
X35677473Y-35119137D01*
X35651247Y-35125706D01*
X35624504Y-35129673D01*
X35597500Y-35131000D01*
X35046500Y-35131000D01*
X35019496Y-35129673D01*
X34992753Y-35125706D01*
X34966527Y-35119137D01*
X34941071Y-35110029D01*
X34916630Y-35098469D01*
X34893440Y-35084570D01*
X34871725Y-35068464D01*
X34851692Y-35050308D01*
X34833536Y-35030275D01*
X34817430Y-35008560D01*
X34803531Y-34985370D01*
X34791971Y-34960929D01*
X34782863Y-34935473D01*
X34776294Y-34909247D01*
X34772327Y-34882504D01*
X34771000Y-34855500D01*
X34771000Y-31804500D01*
X34772327Y-31777496D01*
X34776294Y-31750753D01*
X34782863Y-31724527D01*
X34791971Y-31699071D01*
X34803531Y-31674630D01*
X34817430Y-31651440D01*
X34833536Y-31629725D01*
X34851692Y-31609692D01*
X34871725Y-31591536D01*
X34893440Y-31575430D01*
X34916630Y-31561531D01*
X34941071Y-31549971D01*
X34966527Y-31540863D01*
X34992753Y-31534294D01*
X35019496Y-31530327D01*
X35046500Y-31529000D01*
X35597500Y-31529000D01*
X35624504Y-31530327D01*
G37*
G36*
X40232171Y-25830286D02*
G01*
X40258089Y-25834130D01*
X40283506Y-25840497D01*
X40308176Y-25849324D01*
X40331863Y-25860527D01*
X40354337Y-25873998D01*
X40375383Y-25889606D01*
X40394798Y-25907202D01*
X40412394Y-25926617D01*
X40428002Y-25947663D01*
X40441473Y-25970137D01*
X40452676Y-25993824D01*
X40461503Y-26018494D01*
X40467870Y-26043911D01*
X40471714Y-26069829D01*
X40473000Y-26096000D01*
X40473000Y-29064000D01*
X40471714Y-29090171D01*
X40467870Y-29116089D01*
X40461503Y-29141506D01*
X40452676Y-29166176D01*
X40441473Y-29189863D01*
X40428002Y-29212337D01*
X40412394Y-29233383D01*
X40394798Y-29252798D01*
X40375383Y-29270394D01*
X40354337Y-29286002D01*
X40331863Y-29299473D01*
X40308176Y-29310676D01*
X40283506Y-29319503D01*
X40258089Y-29325870D01*
X40232171Y-29329714D01*
X40206000Y-29331000D01*
X39138000Y-29331000D01*
X39111829Y-29329714D01*
X39085911Y-29325870D01*
X39060494Y-29319503D01*
X39035824Y-29310676D01*
X39012137Y-29299473D01*
X38989663Y-29286002D01*
X38968617Y-29270394D01*
X38949202Y-29252798D01*
X38931606Y-29233383D01*
X38915998Y-29212337D01*
X38902527Y-29189863D01*
X38891324Y-29166176D01*
X38882497Y-29141506D01*
X38876130Y-29116089D01*
X38872286Y-29090171D01*
X38871000Y-29064000D01*
X38871000Y-26096000D01*
X38872286Y-26069829D01*
X38876130Y-26043911D01*
X38882497Y-26018494D01*
X38891324Y-25993824D01*
X38902527Y-25970137D01*
X38915998Y-25947663D01*
X38931606Y-25926617D01*
X38949202Y-25907202D01*
X38968617Y-25889606D01*
X38989663Y-25873998D01*
X39012137Y-25860527D01*
X39035824Y-25849324D01*
X39060494Y-25840497D01*
X39085911Y-25834130D01*
X39111829Y-25830286D01*
X39138000Y-25829000D01*
X40206000Y-25829000D01*
X40232171Y-25830286D01*
G37*
G36*
X33532171Y-25830286D02*
G01*
X33558089Y-25834130D01*
X33583506Y-25840497D01*
X33608176Y-25849324D01*
X33631863Y-25860527D01*
X33654337Y-25873998D01*
X33675383Y-25889606D01*
X33694798Y-25907202D01*
X33712394Y-25926617D01*
X33728002Y-25947663D01*
X33741473Y-25970137D01*
X33752676Y-25993824D01*
X33761503Y-26018494D01*
X33767870Y-26043911D01*
X33771714Y-26069829D01*
X33773000Y-26096000D01*
X33773000Y-29064000D01*
X33771714Y-29090171D01*
X33767870Y-29116089D01*
X33761503Y-29141506D01*
X33752676Y-29166176D01*
X33741473Y-29189863D01*
X33728002Y-29212337D01*
X33712394Y-29233383D01*
X33694798Y-29252798D01*
X33675383Y-29270394D01*
X33654337Y-29286002D01*
X33631863Y-29299473D01*
X33608176Y-29310676D01*
X33583506Y-29319503D01*
X33558089Y-29325870D01*
X33532171Y-29329714D01*
X33506000Y-29331000D01*
X32438000Y-29331000D01*
X32411829Y-29329714D01*
X32385911Y-29325870D01*
X32360494Y-29319503D01*
X32335824Y-29310676D01*
X32312137Y-29299473D01*
X32289663Y-29286002D01*
X32268617Y-29270394D01*
X32249202Y-29252798D01*
X32231606Y-29233383D01*
X32215998Y-29212337D01*
X32202527Y-29189863D01*
X32191324Y-29166176D01*
X32182497Y-29141506D01*
X32176130Y-29116089D01*
X32172286Y-29090171D01*
X32171000Y-29064000D01*
X32171000Y-26096000D01*
X32172286Y-26069829D01*
X32176130Y-26043911D01*
X32182497Y-26018494D01*
X32191324Y-25993824D01*
X32202527Y-25970137D01*
X32215998Y-25947663D01*
X32231606Y-25926617D01*
X32249202Y-25907202D01*
X32268617Y-25889606D01*
X32289663Y-25873998D01*
X32312137Y-25860527D01*
X32335824Y-25849324D01*
X32360494Y-25840497D01*
X32385911Y-25834130D01*
X32411829Y-25830286D01*
X32438000Y-25829000D01*
X33506000Y-25829000D01*
X33532171Y-25830286D01*
G37*
G36*
X53633691Y-30717176D02*
G01*
X53657401Y-30720693D01*
X53680652Y-30726517D01*
X53703220Y-30734592D01*
X53724889Y-30744841D01*
X53745448Y-30757164D01*
X53764701Y-30771442D01*
X53782461Y-30787539D01*
X53798558Y-30805299D01*
X53812836Y-30824552D01*
X53825159Y-30845111D01*
X53835408Y-30866780D01*
X53843483Y-30889348D01*
X53849307Y-30912599D01*
X53852824Y-30936309D01*
X53854000Y-30960250D01*
X53854000Y-31523750D01*
X53852824Y-31547691D01*
X53849307Y-31571401D01*
X53843483Y-31594652D01*
X53835408Y-31617220D01*
X53825159Y-31638889D01*
X53812836Y-31659448D01*
X53798558Y-31678701D01*
X53782461Y-31696461D01*
X53764701Y-31712558D01*
X53745448Y-31726836D01*
X53724889Y-31739159D01*
X53703220Y-31749408D01*
X53680652Y-31757483D01*
X53657401Y-31763307D01*
X53633691Y-31766824D01*
X53609750Y-31768000D01*
X53121250Y-31768000D01*
X53097309Y-31766824D01*
X53073599Y-31763307D01*
X53050348Y-31757483D01*
X53027780Y-31749408D01*
X53006111Y-31739159D01*
X52985552Y-31726836D01*
X52966299Y-31712558D01*
X52948539Y-31696461D01*
X52932442Y-31678701D01*
X52918164Y-31659448D01*
X52905841Y-31638889D01*
X52895592Y-31617220D01*
X52887517Y-31594652D01*
X52881693Y-31571401D01*
X52878176Y-31547691D01*
X52877000Y-31523750D01*
X52877000Y-30960250D01*
X52878176Y-30936309D01*
X52881693Y-30912599D01*
X52887517Y-30889348D01*
X52895592Y-30866780D01*
X52905841Y-30845111D01*
X52918164Y-30824552D01*
X52932442Y-30805299D01*
X52948539Y-30787539D01*
X52966299Y-30771442D01*
X52985552Y-30757164D01*
X53006111Y-30744841D01*
X53027780Y-30734592D01*
X53050348Y-30726517D01*
X53073599Y-30720693D01*
X53097309Y-30717176D01*
X53121250Y-30716000D01*
X53609750Y-30716000D01*
X53633691Y-30717176D01*
G37*
G36*
X52058691Y-30717176D02*
G01*
X52082401Y-30720693D01*
X52105652Y-30726517D01*
X52128220Y-30734592D01*
X52149889Y-30744841D01*
X52170448Y-30757164D01*
X52189701Y-30771442D01*
X52207461Y-30787539D01*
X52223558Y-30805299D01*
X52237836Y-30824552D01*
X52250159Y-30845111D01*
X52260408Y-30866780D01*
X52268483Y-30889348D01*
X52274307Y-30912599D01*
X52277824Y-30936309D01*
X52279000Y-30960250D01*
X52279000Y-31523750D01*
X52277824Y-31547691D01*
X52274307Y-31571401D01*
X52268483Y-31594652D01*
X52260408Y-31617220D01*
X52250159Y-31638889D01*
X52237836Y-31659448D01*
X52223558Y-31678701D01*
X52207461Y-31696461D01*
X52189701Y-31712558D01*
X52170448Y-31726836D01*
X52149889Y-31739159D01*
X52128220Y-31749408D01*
X52105652Y-31757483D01*
X52082401Y-31763307D01*
X52058691Y-31766824D01*
X52034750Y-31768000D01*
X51546250Y-31768000D01*
X51522309Y-31766824D01*
X51498599Y-31763307D01*
X51475348Y-31757483D01*
X51452780Y-31749408D01*
X51431111Y-31739159D01*
X51410552Y-31726836D01*
X51391299Y-31712558D01*
X51373539Y-31696461D01*
X51357442Y-31678701D01*
X51343164Y-31659448D01*
X51330841Y-31638889D01*
X51320592Y-31617220D01*
X51312517Y-31594652D01*
X51306693Y-31571401D01*
X51303176Y-31547691D01*
X51302000Y-31523750D01*
X51302000Y-30960250D01*
X51303176Y-30936309D01*
X51306693Y-30912599D01*
X51312517Y-30889348D01*
X51320592Y-30866780D01*
X51330841Y-30845111D01*
X51343164Y-30824552D01*
X51357442Y-30805299D01*
X51373539Y-30787539D01*
X51391299Y-30771442D01*
X51410552Y-30757164D01*
X51431111Y-30744841D01*
X51452780Y-30734592D01*
X51475348Y-30726517D01*
X51498599Y-30720693D01*
X51522309Y-30717176D01*
X51546250Y-30716000D01*
X52034750Y-30716000D01*
X52058691Y-30717176D01*
G37*
G36*
X52058691Y-39861176D02*
G01*
X52082401Y-39864693D01*
X52105652Y-39870517D01*
X52128220Y-39878592D01*
X52149889Y-39888841D01*
X52170448Y-39901164D01*
X52189701Y-39915442D01*
X52207461Y-39931539D01*
X52223558Y-39949299D01*
X52237836Y-39968552D01*
X52250159Y-39989111D01*
X52260408Y-40010780D01*
X52268483Y-40033348D01*
X52274307Y-40056599D01*
X52277824Y-40080309D01*
X52279000Y-40104250D01*
X52279000Y-40667750D01*
X52277824Y-40691691D01*
X52274307Y-40715401D01*
X52268483Y-40738652D01*
X52260408Y-40761220D01*
X52250159Y-40782889D01*
X52237836Y-40803448D01*
X52223558Y-40822701D01*
X52207461Y-40840461D01*
X52189701Y-40856558D01*
X52170448Y-40870836D01*
X52149889Y-40883159D01*
X52128220Y-40893408D01*
X52105652Y-40901483D01*
X52082401Y-40907307D01*
X52058691Y-40910824D01*
X52034750Y-40912000D01*
X51546250Y-40912000D01*
X51522309Y-40910824D01*
X51498599Y-40907307D01*
X51475348Y-40901483D01*
X51452780Y-40893408D01*
X51431111Y-40883159D01*
X51410552Y-40870836D01*
X51391299Y-40856558D01*
X51373539Y-40840461D01*
X51357442Y-40822701D01*
X51343164Y-40803448D01*
X51330841Y-40782889D01*
X51320592Y-40761220D01*
X51312517Y-40738652D01*
X51306693Y-40715401D01*
X51303176Y-40691691D01*
X51302000Y-40667750D01*
X51302000Y-40104250D01*
X51303176Y-40080309D01*
X51306693Y-40056599D01*
X51312517Y-40033348D01*
X51320592Y-40010780D01*
X51330841Y-39989111D01*
X51343164Y-39968552D01*
X51357442Y-39949299D01*
X51373539Y-39931539D01*
X51391299Y-39915442D01*
X51410552Y-39901164D01*
X51431111Y-39888841D01*
X51452780Y-39878592D01*
X51475348Y-39870517D01*
X51498599Y-39864693D01*
X51522309Y-39861176D01*
X51546250Y-39860000D01*
X52034750Y-39860000D01*
X52058691Y-39861176D01*
G37*
G36*
X53633691Y-39861176D02*
G01*
X53657401Y-39864693D01*
X53680652Y-39870517D01*
X53703220Y-39878592D01*
X53724889Y-39888841D01*
X53745448Y-39901164D01*
X53764701Y-39915442D01*
X53782461Y-39931539D01*
X53798558Y-39949299D01*
X53812836Y-39968552D01*
X53825159Y-39989111D01*
X53835408Y-40010780D01*
X53843483Y-40033348D01*
X53849307Y-40056599D01*
X53852824Y-40080309D01*
X53854000Y-40104250D01*
X53854000Y-40667750D01*
X53852824Y-40691691D01*
X53849307Y-40715401D01*
X53843483Y-40738652D01*
X53835408Y-40761220D01*
X53825159Y-40782889D01*
X53812836Y-40803448D01*
X53798558Y-40822701D01*
X53782461Y-40840461D01*
X53764701Y-40856558D01*
X53745448Y-40870836D01*
X53724889Y-40883159D01*
X53703220Y-40893408D01*
X53680652Y-40901483D01*
X53657401Y-40907307D01*
X53633691Y-40910824D01*
X53609750Y-40912000D01*
X53121250Y-40912000D01*
X53097309Y-40910824D01*
X53073599Y-40907307D01*
X53050348Y-40901483D01*
X53027780Y-40893408D01*
X53006111Y-40883159D01*
X52985552Y-40870836D01*
X52966299Y-40856558D01*
X52948539Y-40840461D01*
X52932442Y-40822701D01*
X52918164Y-40803448D01*
X52905841Y-40782889D01*
X52895592Y-40761220D01*
X52887517Y-40738652D01*
X52881693Y-40715401D01*
X52878176Y-40691691D01*
X52877000Y-40667750D01*
X52877000Y-40104250D01*
X52878176Y-40080309D01*
X52881693Y-40056599D01*
X52887517Y-40033348D01*
X52895592Y-40010780D01*
X52905841Y-39989111D01*
X52918164Y-39968552D01*
X52932442Y-39949299D01*
X52948539Y-39931539D01*
X52966299Y-39915442D01*
X52985552Y-39901164D01*
X53006111Y-39888841D01*
X53027780Y-39878592D01*
X53050348Y-39870517D01*
X53073599Y-39864693D01*
X53097309Y-39861176D01*
X53121250Y-39860000D01*
X53609750Y-39860000D01*
X53633691Y-39861176D01*
G37*
D23*
X48260000Y-31056000D03*
X48260000Y-39556000D03*
D14*
X73660000Y-40640000D03*
D15*
X73660000Y-38100000D03*
X73660000Y-35560000D03*
X73660000Y-33020000D03*
D11*
G36*
X71425691Y-37130176D02*
G01*
X71449401Y-37133693D01*
X71472652Y-37139517D01*
X71495220Y-37147592D01*
X71516889Y-37157841D01*
X71537448Y-37170164D01*
X71556701Y-37184442D01*
X71574461Y-37200539D01*
X71590558Y-37218299D01*
X71604836Y-37237552D01*
X71617159Y-37258111D01*
X71627408Y-37279780D01*
X71635483Y-37302348D01*
X71641307Y-37325599D01*
X71644824Y-37349309D01*
X71646000Y-37373250D01*
X71646000Y-37861750D01*
X71644824Y-37885691D01*
X71641307Y-37909401D01*
X71635483Y-37932652D01*
X71627408Y-37955220D01*
X71617159Y-37976889D01*
X71604836Y-37997448D01*
X71590558Y-38016701D01*
X71574461Y-38034461D01*
X71556701Y-38050558D01*
X71537448Y-38064836D01*
X71516889Y-38077159D01*
X71495220Y-38087408D01*
X71472652Y-38095483D01*
X71449401Y-38101307D01*
X71425691Y-38104824D01*
X71401750Y-38106000D01*
X70838250Y-38106000D01*
X70814309Y-38104824D01*
X70790599Y-38101307D01*
X70767348Y-38095483D01*
X70744780Y-38087408D01*
X70723111Y-38077159D01*
X70702552Y-38064836D01*
X70683299Y-38050558D01*
X70665539Y-38034461D01*
X70649442Y-38016701D01*
X70635164Y-37997448D01*
X70622841Y-37976889D01*
X70612592Y-37955220D01*
X70604517Y-37932652D01*
X70598693Y-37909401D01*
X70595176Y-37885691D01*
X70594000Y-37861750D01*
X70594000Y-37373250D01*
X70595176Y-37349309D01*
X70598693Y-37325599D01*
X70604517Y-37302348D01*
X70612592Y-37279780D01*
X70622841Y-37258111D01*
X70635164Y-37237552D01*
X70649442Y-37218299D01*
X70665539Y-37200539D01*
X70683299Y-37184442D01*
X70702552Y-37170164D01*
X70723111Y-37157841D01*
X70744780Y-37147592D01*
X70767348Y-37139517D01*
X70790599Y-37133693D01*
X70814309Y-37130176D01*
X70838250Y-37129000D01*
X71401750Y-37129000D01*
X71425691Y-37130176D01*
G37*
G36*
X71425691Y-35555176D02*
G01*
X71449401Y-35558693D01*
X71472652Y-35564517D01*
X71495220Y-35572592D01*
X71516889Y-35582841D01*
X71537448Y-35595164D01*
X71556701Y-35609442D01*
X71574461Y-35625539D01*
X71590558Y-35643299D01*
X71604836Y-35662552D01*
X71617159Y-35683111D01*
X71627408Y-35704780D01*
X71635483Y-35727348D01*
X71641307Y-35750599D01*
X71644824Y-35774309D01*
X71646000Y-35798250D01*
X71646000Y-36286750D01*
X71644824Y-36310691D01*
X71641307Y-36334401D01*
X71635483Y-36357652D01*
X71627408Y-36380220D01*
X71617159Y-36401889D01*
X71604836Y-36422448D01*
X71590558Y-36441701D01*
X71574461Y-36459461D01*
X71556701Y-36475558D01*
X71537448Y-36489836D01*
X71516889Y-36502159D01*
X71495220Y-36512408D01*
X71472652Y-36520483D01*
X71449401Y-36526307D01*
X71425691Y-36529824D01*
X71401750Y-36531000D01*
X70838250Y-36531000D01*
X70814309Y-36529824D01*
X70790599Y-36526307D01*
X70767348Y-36520483D01*
X70744780Y-36512408D01*
X70723111Y-36502159D01*
X70702552Y-36489836D01*
X70683299Y-36475558D01*
X70665539Y-36459461D01*
X70649442Y-36441701D01*
X70635164Y-36422448D01*
X70622841Y-36401889D01*
X70612592Y-36380220D01*
X70604517Y-36357652D01*
X70598693Y-36334401D01*
X70595176Y-36310691D01*
X70594000Y-36286750D01*
X70594000Y-35798250D01*
X70595176Y-35774309D01*
X70598693Y-35750599D01*
X70604517Y-35727348D01*
X70612592Y-35704780D01*
X70622841Y-35683111D01*
X70635164Y-35662552D01*
X70649442Y-35643299D01*
X70665539Y-35625539D01*
X70683299Y-35609442D01*
X70702552Y-35595164D01*
X70723111Y-35582841D01*
X70744780Y-35572592D01*
X70767348Y-35564517D01*
X70790599Y-35558693D01*
X70814309Y-35555176D01*
X70838250Y-35554000D01*
X71401750Y-35554000D01*
X71425691Y-35555176D01*
G37*
M02*
