G04 #@! TF.GenerationSoftware,KiCad,Pcbnew,(5.1.6)-1*
G04 #@! TF.CreationDate,2021-03-27T23:23:02-04:00*
G04 #@! TF.ProjectId,STM8Feather,53544d38-4665-4617-9468-65722e6b6963,rev?*
G04 #@! TF.SameCoordinates,Original*
G04 #@! TF.FileFunction,Paste,Bot*
G04 #@! TF.FilePolarity,Positive*
%FSLAX46Y46*%
G04 Gerber Fmt 4.6, Leading zero omitted, Abs format (unit mm)*
G04 Created by KiCad (PCBNEW (5.1.6)-1) date 2021-03-27 23:23:02*
%MOMM*%
%LPD*%
G01*
G04 APERTURE LIST*
G04 APERTURE END LIST*
G36*
G01*
X34854000Y-40263000D02*
X34854000Y-40763000D01*
G75*
G02*
X34629000Y-40988000I-225000J0D01*
G01*
X34179000Y-40988000D01*
G75*
G02*
X33954000Y-40763000I0J225000D01*
G01*
X33954000Y-40263000D01*
G75*
G02*
X34179000Y-40038000I225000J0D01*
G01*
X34629000Y-40038000D01*
G75*
G02*
X34854000Y-40263000I0J-225000D01*
G01*
G37*
G36*
G01*
X36404000Y-40263000D02*
X36404000Y-40763000D01*
G75*
G02*
X36179000Y-40988000I-225000J0D01*
G01*
X35729000Y-40988000D01*
G75*
G02*
X35504000Y-40763000I0J225000D01*
G01*
X35504000Y-40263000D01*
G75*
G02*
X35729000Y-40038000I225000J0D01*
G01*
X36179000Y-40038000D01*
G75*
G02*
X36404000Y-40263000I0J-225000D01*
G01*
G37*
G36*
G01*
X31602000Y-38885000D02*
X31602000Y-38585000D01*
G75*
G02*
X31752000Y-38435000I150000J0D01*
G01*
X33402000Y-38435000D01*
G75*
G02*
X33552000Y-38585000I0J-150000D01*
G01*
X33552000Y-38885000D01*
G75*
G02*
X33402000Y-39035000I-150000J0D01*
G01*
X31752000Y-39035000D01*
G75*
G02*
X31602000Y-38885000I0J150000D01*
G01*
G37*
G36*
G01*
X31602000Y-37615000D02*
X31602000Y-37315000D01*
G75*
G02*
X31752000Y-37165000I150000J0D01*
G01*
X33402000Y-37165000D01*
G75*
G02*
X33552000Y-37315000I0J-150000D01*
G01*
X33552000Y-37615000D01*
G75*
G02*
X33402000Y-37765000I-150000J0D01*
G01*
X31752000Y-37765000D01*
G75*
G02*
X31602000Y-37615000I0J150000D01*
G01*
G37*
G36*
G01*
X31602000Y-36345000D02*
X31602000Y-36045000D01*
G75*
G02*
X31752000Y-35895000I150000J0D01*
G01*
X33402000Y-35895000D01*
G75*
G02*
X33552000Y-36045000I0J-150000D01*
G01*
X33552000Y-36345000D01*
G75*
G02*
X33402000Y-36495000I-150000J0D01*
G01*
X31752000Y-36495000D01*
G75*
G02*
X31602000Y-36345000I0J150000D01*
G01*
G37*
G36*
G01*
X31602000Y-35075000D02*
X31602000Y-34775000D01*
G75*
G02*
X31752000Y-34625000I150000J0D01*
G01*
X33402000Y-34625000D01*
G75*
G02*
X33552000Y-34775000I0J-150000D01*
G01*
X33552000Y-35075000D01*
G75*
G02*
X33402000Y-35225000I-150000J0D01*
G01*
X31752000Y-35225000D01*
G75*
G02*
X31602000Y-35075000I0J150000D01*
G01*
G37*
G36*
G01*
X36552000Y-35075000D02*
X36552000Y-34775000D01*
G75*
G02*
X36702000Y-34625000I150000J0D01*
G01*
X38352000Y-34625000D01*
G75*
G02*
X38502000Y-34775000I0J-150000D01*
G01*
X38502000Y-35075000D01*
G75*
G02*
X38352000Y-35225000I-150000J0D01*
G01*
X36702000Y-35225000D01*
G75*
G02*
X36552000Y-35075000I0J150000D01*
G01*
G37*
G36*
G01*
X36552000Y-36345000D02*
X36552000Y-36045000D01*
G75*
G02*
X36702000Y-35895000I150000J0D01*
G01*
X38352000Y-35895000D01*
G75*
G02*
X38502000Y-36045000I0J-150000D01*
G01*
X38502000Y-36345000D01*
G75*
G02*
X38352000Y-36495000I-150000J0D01*
G01*
X36702000Y-36495000D01*
G75*
G02*
X36552000Y-36345000I0J150000D01*
G01*
G37*
G36*
G01*
X36552000Y-37615000D02*
X36552000Y-37315000D01*
G75*
G02*
X36702000Y-37165000I150000J0D01*
G01*
X38352000Y-37165000D01*
G75*
G02*
X38502000Y-37315000I0J-150000D01*
G01*
X38502000Y-37615000D01*
G75*
G02*
X38352000Y-37765000I-150000J0D01*
G01*
X36702000Y-37765000D01*
G75*
G02*
X36552000Y-37615000I0J150000D01*
G01*
G37*
G36*
G01*
X36552000Y-38885000D02*
X36552000Y-38585000D01*
G75*
G02*
X36702000Y-38435000I150000J0D01*
G01*
X38352000Y-38435000D01*
G75*
G02*
X38502000Y-38585000I0J-150000D01*
G01*
X38502000Y-38885000D01*
G75*
G02*
X38352000Y-39035000I-150000J0D01*
G01*
X36702000Y-39035000D01*
G75*
G02*
X36552000Y-38885000I0J150000D01*
G01*
G37*
G36*
G01*
X37928000Y-33024000D02*
X37928000Y-33524000D01*
G75*
G02*
X37703000Y-33749000I-225000J0D01*
G01*
X37253000Y-33749000D01*
G75*
G02*
X37028000Y-33524000I0J225000D01*
G01*
X37028000Y-33024000D01*
G75*
G02*
X37253000Y-32799000I225000J0D01*
G01*
X37703000Y-32799000D01*
G75*
G02*
X37928000Y-33024000I0J-225000D01*
G01*
G37*
G36*
G01*
X36378000Y-33024000D02*
X36378000Y-33524000D01*
G75*
G02*
X36153000Y-33749000I-225000J0D01*
G01*
X35703000Y-33749000D01*
G75*
G02*
X35478000Y-33524000I0J225000D01*
G01*
X35478000Y-33024000D01*
G75*
G02*
X35703000Y-32799000I225000J0D01*
G01*
X36153000Y-32799000D01*
G75*
G02*
X36378000Y-33024000I0J-225000D01*
G01*
G37*
M02*
