G04 #@! TF.GenerationSoftware,KiCad,Pcbnew,(5.1.6)-1*
G04 #@! TF.CreationDate,2021-03-27T23:23:02-04:00*
G04 #@! TF.ProjectId,STM8Feather,53544d38-4665-4617-9468-65722e6b6963,rev?*
G04 #@! TF.SameCoordinates,Original*
G04 #@! TF.FileFunction,Soldermask,Top*
G04 #@! TF.FilePolarity,Negative*
%FSLAX46Y46*%
G04 Gerber Fmt 4.6, Leading zero omitted, Abs format (unit mm)*
G04 Created by KiCad (PCBNEW (5.1.6)-1) date 2021-03-27 23:23:02*
%MOMM*%
%LPD*%
G01*
G04 APERTURE LIST*
%ADD10C,0.100000*%
G04 APERTURE END LIST*
D10*
G36*
X47103512Y-46093927D02*
G01*
X47252812Y-46123624D01*
X47416784Y-46191544D01*
X47564354Y-46290147D01*
X47689853Y-46415646D01*
X47788456Y-46563216D01*
X47856376Y-46727188D01*
X47891000Y-46901259D01*
X47891000Y-47078741D01*
X47856376Y-47252812D01*
X47788456Y-47416784D01*
X47689853Y-47564354D01*
X47564354Y-47689853D01*
X47416784Y-47788456D01*
X47252812Y-47856376D01*
X47103512Y-47886073D01*
X47078742Y-47891000D01*
X46901258Y-47891000D01*
X46876488Y-47886073D01*
X46727188Y-47856376D01*
X46563216Y-47788456D01*
X46415646Y-47689853D01*
X46290147Y-47564354D01*
X46191544Y-47416784D01*
X46123624Y-47252812D01*
X46089000Y-47078741D01*
X46089000Y-46901259D01*
X46123624Y-46727188D01*
X46191544Y-46563216D01*
X46290147Y-46415646D01*
X46415646Y-46290147D01*
X46563216Y-46191544D01*
X46727188Y-46123624D01*
X46876488Y-46093927D01*
X46901258Y-46089000D01*
X47078742Y-46089000D01*
X47103512Y-46093927D01*
G37*
G36*
X49643512Y-46093927D02*
G01*
X49792812Y-46123624D01*
X49956784Y-46191544D01*
X50104354Y-46290147D01*
X50229853Y-46415646D01*
X50328456Y-46563216D01*
X50396376Y-46727188D01*
X50431000Y-46901259D01*
X50431000Y-47078741D01*
X50396376Y-47252812D01*
X50328456Y-47416784D01*
X50229853Y-47564354D01*
X50104354Y-47689853D01*
X49956784Y-47788456D01*
X49792812Y-47856376D01*
X49643512Y-47886073D01*
X49618742Y-47891000D01*
X49441258Y-47891000D01*
X49416488Y-47886073D01*
X49267188Y-47856376D01*
X49103216Y-47788456D01*
X48955646Y-47689853D01*
X48830147Y-47564354D01*
X48731544Y-47416784D01*
X48663624Y-47252812D01*
X48629000Y-47078741D01*
X48629000Y-46901259D01*
X48663624Y-46727188D01*
X48731544Y-46563216D01*
X48830147Y-46415646D01*
X48955646Y-46290147D01*
X49103216Y-46191544D01*
X49267188Y-46123624D01*
X49416488Y-46093927D01*
X49441258Y-46089000D01*
X49618742Y-46089000D01*
X49643512Y-46093927D01*
G37*
G36*
X31863512Y-46093927D02*
G01*
X32012812Y-46123624D01*
X32176784Y-46191544D01*
X32324354Y-46290147D01*
X32449853Y-46415646D01*
X32548456Y-46563216D01*
X32616376Y-46727188D01*
X32651000Y-46901259D01*
X32651000Y-47078741D01*
X32616376Y-47252812D01*
X32548456Y-47416784D01*
X32449853Y-47564354D01*
X32324354Y-47689853D01*
X32176784Y-47788456D01*
X32012812Y-47856376D01*
X31863512Y-47886073D01*
X31838742Y-47891000D01*
X31661258Y-47891000D01*
X31636488Y-47886073D01*
X31487188Y-47856376D01*
X31323216Y-47788456D01*
X31175646Y-47689853D01*
X31050147Y-47564354D01*
X30951544Y-47416784D01*
X30883624Y-47252812D01*
X30849000Y-47078741D01*
X30849000Y-46901259D01*
X30883624Y-46727188D01*
X30951544Y-46563216D01*
X31050147Y-46415646D01*
X31175646Y-46290147D01*
X31323216Y-46191544D01*
X31487188Y-46123624D01*
X31636488Y-46093927D01*
X31661258Y-46089000D01*
X31838742Y-46089000D01*
X31863512Y-46093927D01*
G37*
G36*
X34403512Y-46093927D02*
G01*
X34552812Y-46123624D01*
X34716784Y-46191544D01*
X34864354Y-46290147D01*
X34989853Y-46415646D01*
X35088456Y-46563216D01*
X35156376Y-46727188D01*
X35191000Y-46901259D01*
X35191000Y-47078741D01*
X35156376Y-47252812D01*
X35088456Y-47416784D01*
X34989853Y-47564354D01*
X34864354Y-47689853D01*
X34716784Y-47788456D01*
X34552812Y-47856376D01*
X34403512Y-47886073D01*
X34378742Y-47891000D01*
X34201258Y-47891000D01*
X34176488Y-47886073D01*
X34027188Y-47856376D01*
X33863216Y-47788456D01*
X33715646Y-47689853D01*
X33590147Y-47564354D01*
X33491544Y-47416784D01*
X33423624Y-47252812D01*
X33389000Y-47078741D01*
X33389000Y-46901259D01*
X33423624Y-46727188D01*
X33491544Y-46563216D01*
X33590147Y-46415646D01*
X33715646Y-46290147D01*
X33863216Y-46191544D01*
X34027188Y-46123624D01*
X34176488Y-46093927D01*
X34201258Y-46089000D01*
X34378742Y-46089000D01*
X34403512Y-46093927D01*
G37*
G36*
X36943512Y-46093927D02*
G01*
X37092812Y-46123624D01*
X37256784Y-46191544D01*
X37404354Y-46290147D01*
X37529853Y-46415646D01*
X37628456Y-46563216D01*
X37696376Y-46727188D01*
X37731000Y-46901259D01*
X37731000Y-47078741D01*
X37696376Y-47252812D01*
X37628456Y-47416784D01*
X37529853Y-47564354D01*
X37404354Y-47689853D01*
X37256784Y-47788456D01*
X37092812Y-47856376D01*
X36943512Y-47886073D01*
X36918742Y-47891000D01*
X36741258Y-47891000D01*
X36716488Y-47886073D01*
X36567188Y-47856376D01*
X36403216Y-47788456D01*
X36255646Y-47689853D01*
X36130147Y-47564354D01*
X36031544Y-47416784D01*
X35963624Y-47252812D01*
X35929000Y-47078741D01*
X35929000Y-46901259D01*
X35963624Y-46727188D01*
X36031544Y-46563216D01*
X36130147Y-46415646D01*
X36255646Y-46290147D01*
X36403216Y-46191544D01*
X36567188Y-46123624D01*
X36716488Y-46093927D01*
X36741258Y-46089000D01*
X36918742Y-46089000D01*
X36943512Y-46093927D01*
G37*
G36*
X39483512Y-46093927D02*
G01*
X39632812Y-46123624D01*
X39796784Y-46191544D01*
X39944354Y-46290147D01*
X40069853Y-46415646D01*
X40168456Y-46563216D01*
X40236376Y-46727188D01*
X40271000Y-46901259D01*
X40271000Y-47078741D01*
X40236376Y-47252812D01*
X40168456Y-47416784D01*
X40069853Y-47564354D01*
X39944354Y-47689853D01*
X39796784Y-47788456D01*
X39632812Y-47856376D01*
X39483512Y-47886073D01*
X39458742Y-47891000D01*
X39281258Y-47891000D01*
X39256488Y-47886073D01*
X39107188Y-47856376D01*
X38943216Y-47788456D01*
X38795646Y-47689853D01*
X38670147Y-47564354D01*
X38571544Y-47416784D01*
X38503624Y-47252812D01*
X38469000Y-47078741D01*
X38469000Y-46901259D01*
X38503624Y-46727188D01*
X38571544Y-46563216D01*
X38670147Y-46415646D01*
X38795646Y-46290147D01*
X38943216Y-46191544D01*
X39107188Y-46123624D01*
X39256488Y-46093927D01*
X39281258Y-46089000D01*
X39458742Y-46089000D01*
X39483512Y-46093927D01*
G37*
G36*
X42023512Y-46093927D02*
G01*
X42172812Y-46123624D01*
X42336784Y-46191544D01*
X42484354Y-46290147D01*
X42609853Y-46415646D01*
X42708456Y-46563216D01*
X42776376Y-46727188D01*
X42811000Y-46901259D01*
X42811000Y-47078741D01*
X42776376Y-47252812D01*
X42708456Y-47416784D01*
X42609853Y-47564354D01*
X42484354Y-47689853D01*
X42336784Y-47788456D01*
X42172812Y-47856376D01*
X42023512Y-47886073D01*
X41998742Y-47891000D01*
X41821258Y-47891000D01*
X41796488Y-47886073D01*
X41647188Y-47856376D01*
X41483216Y-47788456D01*
X41335646Y-47689853D01*
X41210147Y-47564354D01*
X41111544Y-47416784D01*
X41043624Y-47252812D01*
X41009000Y-47078741D01*
X41009000Y-46901259D01*
X41043624Y-46727188D01*
X41111544Y-46563216D01*
X41210147Y-46415646D01*
X41335646Y-46290147D01*
X41483216Y-46191544D01*
X41647188Y-46123624D01*
X41796488Y-46093927D01*
X41821258Y-46089000D01*
X41998742Y-46089000D01*
X42023512Y-46093927D01*
G37*
G36*
X44563512Y-46093927D02*
G01*
X44712812Y-46123624D01*
X44876784Y-46191544D01*
X45024354Y-46290147D01*
X45149853Y-46415646D01*
X45248456Y-46563216D01*
X45316376Y-46727188D01*
X45351000Y-46901259D01*
X45351000Y-47078741D01*
X45316376Y-47252812D01*
X45248456Y-47416784D01*
X45149853Y-47564354D01*
X45024354Y-47689853D01*
X44876784Y-47788456D01*
X44712812Y-47856376D01*
X44563512Y-47886073D01*
X44538742Y-47891000D01*
X44361258Y-47891000D01*
X44336488Y-47886073D01*
X44187188Y-47856376D01*
X44023216Y-47788456D01*
X43875646Y-47689853D01*
X43750147Y-47564354D01*
X43651544Y-47416784D01*
X43583624Y-47252812D01*
X43549000Y-47078741D01*
X43549000Y-46901259D01*
X43583624Y-46727188D01*
X43651544Y-46563216D01*
X43750147Y-46415646D01*
X43875646Y-46290147D01*
X44023216Y-46191544D01*
X44187188Y-46123624D01*
X44336488Y-46093927D01*
X44361258Y-46089000D01*
X44538742Y-46089000D01*
X44563512Y-46093927D01*
G37*
G36*
X52183512Y-46093927D02*
G01*
X52332812Y-46123624D01*
X52496784Y-46191544D01*
X52644354Y-46290147D01*
X52769853Y-46415646D01*
X52868456Y-46563216D01*
X52936376Y-46727188D01*
X52971000Y-46901259D01*
X52971000Y-47078741D01*
X52936376Y-47252812D01*
X52868456Y-47416784D01*
X52769853Y-47564354D01*
X52644354Y-47689853D01*
X52496784Y-47788456D01*
X52332812Y-47856376D01*
X52183512Y-47886073D01*
X52158742Y-47891000D01*
X51981258Y-47891000D01*
X51956488Y-47886073D01*
X51807188Y-47856376D01*
X51643216Y-47788456D01*
X51495646Y-47689853D01*
X51370147Y-47564354D01*
X51271544Y-47416784D01*
X51203624Y-47252812D01*
X51169000Y-47078741D01*
X51169000Y-46901259D01*
X51203624Y-46727188D01*
X51271544Y-46563216D01*
X51370147Y-46415646D01*
X51495646Y-46290147D01*
X51643216Y-46191544D01*
X51807188Y-46123624D01*
X51956488Y-46093927D01*
X51981258Y-46089000D01*
X52158742Y-46089000D01*
X52183512Y-46093927D01*
G37*
G36*
X54723512Y-46093927D02*
G01*
X54872812Y-46123624D01*
X55036784Y-46191544D01*
X55184354Y-46290147D01*
X55309853Y-46415646D01*
X55408456Y-46563216D01*
X55476376Y-46727188D01*
X55511000Y-46901259D01*
X55511000Y-47078741D01*
X55476376Y-47252812D01*
X55408456Y-47416784D01*
X55309853Y-47564354D01*
X55184354Y-47689853D01*
X55036784Y-47788456D01*
X54872812Y-47856376D01*
X54723512Y-47886073D01*
X54698742Y-47891000D01*
X54521258Y-47891000D01*
X54496488Y-47886073D01*
X54347188Y-47856376D01*
X54183216Y-47788456D01*
X54035646Y-47689853D01*
X53910147Y-47564354D01*
X53811544Y-47416784D01*
X53743624Y-47252812D01*
X53709000Y-47078741D01*
X53709000Y-46901259D01*
X53743624Y-46727188D01*
X53811544Y-46563216D01*
X53910147Y-46415646D01*
X54035646Y-46290147D01*
X54183216Y-46191544D01*
X54347188Y-46123624D01*
X54496488Y-46093927D01*
X54521258Y-46089000D01*
X54698742Y-46089000D01*
X54723512Y-46093927D01*
G37*
G36*
X57263512Y-46093927D02*
G01*
X57412812Y-46123624D01*
X57576784Y-46191544D01*
X57724354Y-46290147D01*
X57849853Y-46415646D01*
X57948456Y-46563216D01*
X58016376Y-46727188D01*
X58051000Y-46901259D01*
X58051000Y-47078741D01*
X58016376Y-47252812D01*
X57948456Y-47416784D01*
X57849853Y-47564354D01*
X57724354Y-47689853D01*
X57576784Y-47788456D01*
X57412812Y-47856376D01*
X57263512Y-47886073D01*
X57238742Y-47891000D01*
X57061258Y-47891000D01*
X57036488Y-47886073D01*
X56887188Y-47856376D01*
X56723216Y-47788456D01*
X56575646Y-47689853D01*
X56450147Y-47564354D01*
X56351544Y-47416784D01*
X56283624Y-47252812D01*
X56249000Y-47078741D01*
X56249000Y-46901259D01*
X56283624Y-46727188D01*
X56351544Y-46563216D01*
X56450147Y-46415646D01*
X56575646Y-46290147D01*
X56723216Y-46191544D01*
X56887188Y-46123624D01*
X57036488Y-46093927D01*
X57061258Y-46089000D01*
X57238742Y-46089000D01*
X57263512Y-46093927D01*
G37*
G36*
X59803512Y-46093927D02*
G01*
X59952812Y-46123624D01*
X60116784Y-46191544D01*
X60264354Y-46290147D01*
X60389853Y-46415646D01*
X60488456Y-46563216D01*
X60556376Y-46727188D01*
X60591000Y-46901259D01*
X60591000Y-47078741D01*
X60556376Y-47252812D01*
X60488456Y-47416784D01*
X60389853Y-47564354D01*
X60264354Y-47689853D01*
X60116784Y-47788456D01*
X59952812Y-47856376D01*
X59803512Y-47886073D01*
X59778742Y-47891000D01*
X59601258Y-47891000D01*
X59576488Y-47886073D01*
X59427188Y-47856376D01*
X59263216Y-47788456D01*
X59115646Y-47689853D01*
X58990147Y-47564354D01*
X58891544Y-47416784D01*
X58823624Y-47252812D01*
X58789000Y-47078741D01*
X58789000Y-46901259D01*
X58823624Y-46727188D01*
X58891544Y-46563216D01*
X58990147Y-46415646D01*
X59115646Y-46290147D01*
X59263216Y-46191544D01*
X59427188Y-46123624D01*
X59576488Y-46093927D01*
X59601258Y-46089000D01*
X59778742Y-46089000D01*
X59803512Y-46093927D01*
G37*
G36*
X62343512Y-46093927D02*
G01*
X62492812Y-46123624D01*
X62656784Y-46191544D01*
X62804354Y-46290147D01*
X62929853Y-46415646D01*
X63028456Y-46563216D01*
X63096376Y-46727188D01*
X63131000Y-46901259D01*
X63131000Y-47078741D01*
X63096376Y-47252812D01*
X63028456Y-47416784D01*
X62929853Y-47564354D01*
X62804354Y-47689853D01*
X62656784Y-47788456D01*
X62492812Y-47856376D01*
X62343512Y-47886073D01*
X62318742Y-47891000D01*
X62141258Y-47891000D01*
X62116488Y-47886073D01*
X61967188Y-47856376D01*
X61803216Y-47788456D01*
X61655646Y-47689853D01*
X61530147Y-47564354D01*
X61431544Y-47416784D01*
X61363624Y-47252812D01*
X61329000Y-47078741D01*
X61329000Y-46901259D01*
X61363624Y-46727188D01*
X61431544Y-46563216D01*
X61530147Y-46415646D01*
X61655646Y-46290147D01*
X61803216Y-46191544D01*
X61967188Y-46123624D01*
X62116488Y-46093927D01*
X62141258Y-46089000D01*
X62318742Y-46089000D01*
X62343512Y-46093927D01*
G37*
G36*
X64883512Y-46093927D02*
G01*
X65032812Y-46123624D01*
X65196784Y-46191544D01*
X65344354Y-46290147D01*
X65469853Y-46415646D01*
X65568456Y-46563216D01*
X65636376Y-46727188D01*
X65671000Y-46901259D01*
X65671000Y-47078741D01*
X65636376Y-47252812D01*
X65568456Y-47416784D01*
X65469853Y-47564354D01*
X65344354Y-47689853D01*
X65196784Y-47788456D01*
X65032812Y-47856376D01*
X64883512Y-47886073D01*
X64858742Y-47891000D01*
X64681258Y-47891000D01*
X64656488Y-47886073D01*
X64507188Y-47856376D01*
X64343216Y-47788456D01*
X64195646Y-47689853D01*
X64070147Y-47564354D01*
X63971544Y-47416784D01*
X63903624Y-47252812D01*
X63869000Y-47078741D01*
X63869000Y-46901259D01*
X63903624Y-46727188D01*
X63971544Y-46563216D01*
X64070147Y-46415646D01*
X64195646Y-46290147D01*
X64343216Y-46191544D01*
X64507188Y-46123624D01*
X64656488Y-46093927D01*
X64681258Y-46089000D01*
X64858742Y-46089000D01*
X64883512Y-46093927D01*
G37*
G36*
X67423512Y-46093927D02*
G01*
X67572812Y-46123624D01*
X67736784Y-46191544D01*
X67884354Y-46290147D01*
X68009853Y-46415646D01*
X68108456Y-46563216D01*
X68176376Y-46727188D01*
X68211000Y-46901259D01*
X68211000Y-47078741D01*
X68176376Y-47252812D01*
X68108456Y-47416784D01*
X68009853Y-47564354D01*
X67884354Y-47689853D01*
X67736784Y-47788456D01*
X67572812Y-47856376D01*
X67423512Y-47886073D01*
X67398742Y-47891000D01*
X67221258Y-47891000D01*
X67196488Y-47886073D01*
X67047188Y-47856376D01*
X66883216Y-47788456D01*
X66735646Y-47689853D01*
X66610147Y-47564354D01*
X66511544Y-47416784D01*
X66443624Y-47252812D01*
X66409000Y-47078741D01*
X66409000Y-46901259D01*
X66443624Y-46727188D01*
X66511544Y-46563216D01*
X66610147Y-46415646D01*
X66735646Y-46290147D01*
X66883216Y-46191544D01*
X67047188Y-46123624D01*
X67196488Y-46093927D01*
X67221258Y-46089000D01*
X67398742Y-46089000D01*
X67423512Y-46093927D01*
G37*
G36*
X70751000Y-47891000D02*
G01*
X68949000Y-47891000D01*
X68949000Y-46089000D01*
X70751000Y-46089000D01*
X70751000Y-47891000D01*
G37*
G36*
X73934601Y-44346174D02*
G01*
X74068657Y-44372839D01*
X74114384Y-44391780D01*
X74323621Y-44478449D01*
X74323622Y-44478450D01*
X74553086Y-44631772D01*
X74748228Y-44826914D01*
X74846340Y-44973750D01*
X74901551Y-45056379D01*
X74960796Y-45199408D01*
X75001774Y-45298337D01*
X75007161Y-45311344D01*
X75061000Y-45582012D01*
X75061000Y-45857988D01*
X75007161Y-46128656D01*
X74901551Y-46383621D01*
X74880152Y-46415647D01*
X74748228Y-46613086D01*
X74553086Y-46808228D01*
X74413856Y-46901258D01*
X74323621Y-46961551D01*
X74174267Y-47023415D01*
X74068657Y-47067161D01*
X73978433Y-47085107D01*
X73797988Y-47121000D01*
X73522012Y-47121000D01*
X73341567Y-47085107D01*
X73251343Y-47067161D01*
X73145733Y-47023415D01*
X72996379Y-46961551D01*
X72906144Y-46901258D01*
X72766914Y-46808228D01*
X72571772Y-46613086D01*
X72439848Y-46415647D01*
X72418449Y-46383621D01*
X72312839Y-46128656D01*
X72259000Y-45857988D01*
X72259000Y-45582012D01*
X72312839Y-45311344D01*
X72318227Y-45298337D01*
X72359204Y-45199408D01*
X72418449Y-45056379D01*
X72473660Y-44973750D01*
X72571772Y-44826914D01*
X72766914Y-44631772D01*
X72996378Y-44478450D01*
X72996379Y-44478449D01*
X73205616Y-44391780D01*
X73251343Y-44372839D01*
X73385399Y-44346174D01*
X73522012Y-44319000D01*
X73797988Y-44319000D01*
X73934601Y-44346174D01*
G37*
G36*
X28214601Y-44346174D02*
G01*
X28348657Y-44372839D01*
X28394384Y-44391780D01*
X28603621Y-44478449D01*
X28603622Y-44478450D01*
X28833086Y-44631772D01*
X29028228Y-44826914D01*
X29126340Y-44973750D01*
X29181551Y-45056379D01*
X29240796Y-45199408D01*
X29281774Y-45298337D01*
X29287161Y-45311344D01*
X29341000Y-45582012D01*
X29341000Y-45857988D01*
X29287161Y-46128656D01*
X29181551Y-46383621D01*
X29160152Y-46415647D01*
X29028228Y-46613086D01*
X28833086Y-46808228D01*
X28693856Y-46901258D01*
X28603621Y-46961551D01*
X28454267Y-47023415D01*
X28348657Y-47067161D01*
X28258433Y-47085107D01*
X28077988Y-47121000D01*
X27802012Y-47121000D01*
X27621567Y-47085107D01*
X27531343Y-47067161D01*
X27425733Y-47023415D01*
X27276379Y-46961551D01*
X27186144Y-46901258D01*
X27046914Y-46808228D01*
X26851772Y-46613086D01*
X26719848Y-46415647D01*
X26698449Y-46383621D01*
X26592839Y-46128656D01*
X26539000Y-45857988D01*
X26539000Y-45582012D01*
X26592839Y-45311344D01*
X26598227Y-45298337D01*
X26639204Y-45199408D01*
X26698449Y-45056379D01*
X26753660Y-44973750D01*
X26851772Y-44826914D01*
X27046914Y-44631772D01*
X27276378Y-44478450D01*
X27276379Y-44478449D01*
X27485616Y-44391780D01*
X27531343Y-44372839D01*
X27665399Y-44346174D01*
X27802012Y-44319000D01*
X28077988Y-44319000D01*
X28214601Y-44346174D01*
G37*
G36*
X40716468Y-44345565D02*
G01*
X40755138Y-44357296D01*
X40790777Y-44376346D01*
X40822017Y-44401983D01*
X40847654Y-44433223D01*
X40866704Y-44468862D01*
X40878435Y-44507532D01*
X40883000Y-44553888D01*
X40883000Y-45205112D01*
X40878435Y-45251468D01*
X40866704Y-45290138D01*
X40847654Y-45325777D01*
X40822017Y-45357017D01*
X40790777Y-45382654D01*
X40755138Y-45401704D01*
X40716468Y-45413435D01*
X40670112Y-45418000D01*
X39593888Y-45418000D01*
X39547532Y-45413435D01*
X39508862Y-45401704D01*
X39473223Y-45382654D01*
X39441983Y-45357017D01*
X39416346Y-45325777D01*
X39397296Y-45290138D01*
X39385565Y-45251468D01*
X39381000Y-45205112D01*
X39381000Y-44553888D01*
X39385565Y-44507532D01*
X39397296Y-44468862D01*
X39416346Y-44433223D01*
X39441983Y-44401983D01*
X39473223Y-44376346D01*
X39508862Y-44357296D01*
X39547532Y-44345565D01*
X39593888Y-44341000D01*
X40670112Y-44341000D01*
X40716468Y-44345565D01*
G37*
G36*
X32842468Y-44345565D02*
G01*
X32881138Y-44357296D01*
X32916777Y-44376346D01*
X32948017Y-44401983D01*
X32973654Y-44433223D01*
X32992704Y-44468862D01*
X33004435Y-44507532D01*
X33009000Y-44553888D01*
X33009000Y-45205112D01*
X33004435Y-45251468D01*
X32992704Y-45290138D01*
X32973654Y-45325777D01*
X32948017Y-45357017D01*
X32916777Y-45382654D01*
X32881138Y-45401704D01*
X32842468Y-45413435D01*
X32796112Y-45418000D01*
X31719888Y-45418000D01*
X31673532Y-45413435D01*
X31634862Y-45401704D01*
X31599223Y-45382654D01*
X31567983Y-45357017D01*
X31542346Y-45325777D01*
X31523296Y-45290138D01*
X31511565Y-45251468D01*
X31507000Y-45205112D01*
X31507000Y-44553888D01*
X31511565Y-44507532D01*
X31523296Y-44468862D01*
X31542346Y-44433223D01*
X31567983Y-44401983D01*
X31599223Y-44376346D01*
X31634862Y-44357296D01*
X31673532Y-44345565D01*
X31719888Y-44341000D01*
X32796112Y-44341000D01*
X32842468Y-44345565D01*
G37*
G36*
X36565000Y-45268000D02*
G01*
X35403000Y-45268000D01*
X35403000Y-42616000D01*
X36565000Y-42616000D01*
X36565000Y-45268000D01*
G37*
G36*
X38765000Y-45268000D02*
G01*
X37603000Y-45268000D01*
X37603000Y-44516000D01*
X38765000Y-44516000D01*
X38765000Y-45268000D01*
G37*
G36*
X34669591Y-44245085D02*
G01*
X34703569Y-44255393D01*
X34734890Y-44272134D01*
X34762339Y-44294661D01*
X34784866Y-44322110D01*
X34801607Y-44353431D01*
X34811915Y-44387409D01*
X34816000Y-44428890D01*
X34816000Y-45030110D01*
X34811915Y-45071591D01*
X34801607Y-45105569D01*
X34784866Y-45136890D01*
X34762339Y-45164339D01*
X34734890Y-45186866D01*
X34703569Y-45203607D01*
X34669591Y-45213915D01*
X34628110Y-45218000D01*
X33951890Y-45218000D01*
X33910409Y-45213915D01*
X33876431Y-45203607D01*
X33845110Y-45186866D01*
X33817661Y-45164339D01*
X33795134Y-45136890D01*
X33778393Y-45105569D01*
X33768085Y-45071591D01*
X33764000Y-45030110D01*
X33764000Y-44428890D01*
X33768085Y-44387409D01*
X33778393Y-44353431D01*
X33795134Y-44322110D01*
X33817661Y-44294661D01*
X33845110Y-44272134D01*
X33876431Y-44255393D01*
X33910409Y-44245085D01*
X33951890Y-44241000D01*
X34628110Y-44241000D01*
X34669591Y-44245085D01*
G37*
G36*
X42543591Y-44245085D02*
G01*
X42577569Y-44255393D01*
X42608890Y-44272134D01*
X42636339Y-44294661D01*
X42658866Y-44322110D01*
X42675607Y-44353431D01*
X42685915Y-44387409D01*
X42690000Y-44428890D01*
X42690000Y-45030110D01*
X42685915Y-45071591D01*
X42675607Y-45105569D01*
X42658866Y-45136890D01*
X42636339Y-45164339D01*
X42608890Y-45186866D01*
X42577569Y-45203607D01*
X42543591Y-45213915D01*
X42502110Y-45218000D01*
X41825890Y-45218000D01*
X41784409Y-45213915D01*
X41750431Y-45203607D01*
X41719110Y-45186866D01*
X41691661Y-45164339D01*
X41669134Y-45136890D01*
X41652393Y-45105569D01*
X41642085Y-45071591D01*
X41638000Y-45030110D01*
X41638000Y-44428890D01*
X41642085Y-44387409D01*
X41652393Y-44353431D01*
X41669134Y-44322110D01*
X41691661Y-44294661D01*
X41719110Y-44272134D01*
X41750431Y-44255393D01*
X41784409Y-44245085D01*
X41825890Y-44241000D01*
X42502110Y-44241000D01*
X42543591Y-44245085D01*
G37*
G36*
X68840683Y-41751725D02*
G01*
X68871143Y-41760966D01*
X68899223Y-41775974D01*
X68923831Y-41796169D01*
X68944026Y-41820777D01*
X68959034Y-41848857D01*
X68968275Y-41879317D01*
X68972000Y-41917140D01*
X68972000Y-43680860D01*
X68968275Y-43718683D01*
X68959034Y-43749143D01*
X68944026Y-43777223D01*
X68923831Y-43801831D01*
X68899223Y-43822026D01*
X68871143Y-43837034D01*
X68840683Y-43846275D01*
X68802860Y-43850000D01*
X68239140Y-43850000D01*
X68201317Y-43846275D01*
X68170857Y-43837034D01*
X68142777Y-43822026D01*
X68118169Y-43801831D01*
X68097974Y-43777223D01*
X68082966Y-43749143D01*
X68073725Y-43718683D01*
X68070000Y-43680860D01*
X68070000Y-41917140D01*
X68073725Y-41879317D01*
X68082966Y-41848857D01*
X68097974Y-41820777D01*
X68118169Y-41796169D01*
X68142777Y-41775974D01*
X68170857Y-41760966D01*
X68201317Y-41751725D01*
X68239140Y-41748000D01*
X68802860Y-41748000D01*
X68840683Y-41751725D01*
G37*
G36*
X64640683Y-41751725D02*
G01*
X64671143Y-41760966D01*
X64699223Y-41775974D01*
X64723831Y-41796169D01*
X64744026Y-41820777D01*
X64759034Y-41848857D01*
X64768275Y-41879317D01*
X64772000Y-41917140D01*
X64772000Y-43680860D01*
X64768275Y-43718683D01*
X64759034Y-43749143D01*
X64744026Y-43777223D01*
X64723831Y-43801831D01*
X64699223Y-43822026D01*
X64671143Y-43837034D01*
X64640683Y-43846275D01*
X64602860Y-43850000D01*
X64039140Y-43850000D01*
X64001317Y-43846275D01*
X63970857Y-43837034D01*
X63942777Y-43822026D01*
X63918169Y-43801831D01*
X63897974Y-43777223D01*
X63882966Y-43749143D01*
X63873725Y-43718683D01*
X63870000Y-43680860D01*
X63870000Y-41917140D01*
X63873725Y-41879317D01*
X63882966Y-41848857D01*
X63897974Y-41820777D01*
X63918169Y-41796169D01*
X63942777Y-41775974D01*
X63970857Y-41760966D01*
X64001317Y-41751725D01*
X64039140Y-41748000D01*
X64602860Y-41748000D01*
X64640683Y-41751725D01*
G37*
G36*
X34669591Y-42670085D02*
G01*
X34703569Y-42680393D01*
X34734890Y-42697134D01*
X34762339Y-42719661D01*
X34784866Y-42747110D01*
X34801607Y-42778431D01*
X34811915Y-42812409D01*
X34816000Y-42853890D01*
X34816000Y-43455110D01*
X34811915Y-43496591D01*
X34801607Y-43530569D01*
X34784866Y-43561890D01*
X34762339Y-43589339D01*
X34734890Y-43611866D01*
X34703569Y-43628607D01*
X34669591Y-43638915D01*
X34628110Y-43643000D01*
X33951890Y-43643000D01*
X33910409Y-43638915D01*
X33876431Y-43628607D01*
X33845110Y-43611866D01*
X33817661Y-43589339D01*
X33795134Y-43561890D01*
X33778393Y-43530569D01*
X33768085Y-43496591D01*
X33764000Y-43455110D01*
X33764000Y-42853890D01*
X33768085Y-42812409D01*
X33778393Y-42778431D01*
X33795134Y-42747110D01*
X33817661Y-42719661D01*
X33845110Y-42697134D01*
X33876431Y-42680393D01*
X33910409Y-42670085D01*
X33951890Y-42666000D01*
X34628110Y-42666000D01*
X34669591Y-42670085D01*
G37*
G36*
X42543591Y-42670085D02*
G01*
X42577569Y-42680393D01*
X42608890Y-42697134D01*
X42636339Y-42719661D01*
X42658866Y-42747110D01*
X42675607Y-42778431D01*
X42685915Y-42812409D01*
X42690000Y-42853890D01*
X42690000Y-43455110D01*
X42685915Y-43496591D01*
X42675607Y-43530569D01*
X42658866Y-43561890D01*
X42636339Y-43589339D01*
X42608890Y-43611866D01*
X42577569Y-43628607D01*
X42543591Y-43638915D01*
X42502110Y-43643000D01*
X41825890Y-43643000D01*
X41784409Y-43638915D01*
X41750431Y-43628607D01*
X41719110Y-43611866D01*
X41691661Y-43589339D01*
X41669134Y-43561890D01*
X41652393Y-43530569D01*
X41642085Y-43496591D01*
X41638000Y-43455110D01*
X41638000Y-42853890D01*
X41642085Y-42812409D01*
X41652393Y-42778431D01*
X41669134Y-42747110D01*
X41691661Y-42719661D01*
X41719110Y-42697134D01*
X41750431Y-42680393D01*
X41784409Y-42670085D01*
X41825890Y-42666000D01*
X42502110Y-42666000D01*
X42543591Y-42670085D01*
G37*
G36*
X32842468Y-42470565D02*
G01*
X32881138Y-42482296D01*
X32916777Y-42501346D01*
X32948017Y-42526983D01*
X32973654Y-42558223D01*
X32992704Y-42593862D01*
X33004435Y-42632532D01*
X33009000Y-42678888D01*
X33009000Y-43330112D01*
X33004435Y-43376468D01*
X32992704Y-43415138D01*
X32973654Y-43450777D01*
X32948017Y-43482017D01*
X32916777Y-43507654D01*
X32881138Y-43526704D01*
X32842468Y-43538435D01*
X32796112Y-43543000D01*
X31719888Y-43543000D01*
X31673532Y-43538435D01*
X31634862Y-43526704D01*
X31599223Y-43507654D01*
X31567983Y-43482017D01*
X31542346Y-43450777D01*
X31523296Y-43415138D01*
X31511565Y-43376468D01*
X31507000Y-43330112D01*
X31507000Y-42678888D01*
X31511565Y-42632532D01*
X31523296Y-42593862D01*
X31542346Y-42558223D01*
X31567983Y-42526983D01*
X31599223Y-42501346D01*
X31634862Y-42482296D01*
X31673532Y-42470565D01*
X31719888Y-42466000D01*
X32796112Y-42466000D01*
X32842468Y-42470565D01*
G37*
G36*
X40716468Y-42470565D02*
G01*
X40755138Y-42482296D01*
X40790777Y-42501346D01*
X40822017Y-42526983D01*
X40847654Y-42558223D01*
X40866704Y-42593862D01*
X40878435Y-42632532D01*
X40883000Y-42678888D01*
X40883000Y-43330112D01*
X40878435Y-43376468D01*
X40866704Y-43415138D01*
X40847654Y-43450777D01*
X40822017Y-43482017D01*
X40790777Y-43507654D01*
X40755138Y-43526704D01*
X40716468Y-43538435D01*
X40670112Y-43543000D01*
X39593888Y-43543000D01*
X39547532Y-43538435D01*
X39508862Y-43526704D01*
X39473223Y-43507654D01*
X39441983Y-43482017D01*
X39416346Y-43450777D01*
X39397296Y-43415138D01*
X39385565Y-43376468D01*
X39381000Y-43330112D01*
X39381000Y-42678888D01*
X39385565Y-42632532D01*
X39397296Y-42593862D01*
X39416346Y-42558223D01*
X39441983Y-42526983D01*
X39473223Y-42501346D01*
X39508862Y-42482296D01*
X39547532Y-42470565D01*
X39593888Y-42466000D01*
X40670112Y-42466000D01*
X40716468Y-42470565D01*
G37*
G36*
X38765000Y-43368000D02*
G01*
X37603000Y-43368000D01*
X37603000Y-42616000D01*
X38765000Y-42616000D01*
X38765000Y-43368000D01*
G37*
G36*
X28764591Y-41388085D02*
G01*
X28798569Y-41398393D01*
X28829890Y-41415134D01*
X28857339Y-41437661D01*
X28879866Y-41465110D01*
X28896607Y-41496431D01*
X28906915Y-41530409D01*
X28911000Y-41571890D01*
X28911000Y-42248110D01*
X28906915Y-42289591D01*
X28896607Y-42323569D01*
X28879866Y-42354890D01*
X28857339Y-42382339D01*
X28829890Y-42404866D01*
X28798569Y-42421607D01*
X28764591Y-42431915D01*
X28723110Y-42436000D01*
X28121890Y-42436000D01*
X28080409Y-42431915D01*
X28046431Y-42421607D01*
X28015110Y-42404866D01*
X27987661Y-42382339D01*
X27965134Y-42354890D01*
X27948393Y-42323569D01*
X27938085Y-42289591D01*
X27934000Y-42248110D01*
X27934000Y-41571890D01*
X27938085Y-41530409D01*
X27948393Y-41496431D01*
X27965134Y-41465110D01*
X27987661Y-41437661D01*
X28015110Y-41415134D01*
X28046431Y-41398393D01*
X28080409Y-41388085D01*
X28121890Y-41384000D01*
X28723110Y-41384000D01*
X28764591Y-41388085D01*
G37*
G36*
X30339591Y-41388085D02*
G01*
X30373569Y-41398393D01*
X30404890Y-41415134D01*
X30432339Y-41437661D01*
X30454866Y-41465110D01*
X30471607Y-41496431D01*
X30481915Y-41530409D01*
X30486000Y-41571890D01*
X30486000Y-42248110D01*
X30481915Y-42289591D01*
X30471607Y-42323569D01*
X30454866Y-42354890D01*
X30432339Y-42382339D01*
X30404890Y-42404866D01*
X30373569Y-42421607D01*
X30339591Y-42431915D01*
X30298110Y-42436000D01*
X29696890Y-42436000D01*
X29655409Y-42431915D01*
X29621431Y-42421607D01*
X29590110Y-42404866D01*
X29562661Y-42382339D01*
X29540134Y-42354890D01*
X29523393Y-42323569D01*
X29513085Y-42289591D01*
X29509000Y-42248110D01*
X29509000Y-41571890D01*
X29513085Y-41530409D01*
X29523393Y-41496431D01*
X29540134Y-41465110D01*
X29562661Y-41437661D01*
X29590110Y-41415134D01*
X29621431Y-41398393D01*
X29655409Y-41388085D01*
X29696890Y-41384000D01*
X30298110Y-41384000D01*
X30339591Y-41388085D01*
G37*
G36*
X49311000Y-41857000D02*
G01*
X47209000Y-41857000D01*
X47209000Y-37255000D01*
X49311000Y-37255000D01*
X49311000Y-41857000D01*
G37*
G36*
X57120051Y-40206284D02*
G01*
X57136443Y-40211257D01*
X57151555Y-40219334D01*
X57164798Y-40230202D01*
X57175667Y-40243447D01*
X57179761Y-40251106D01*
X57193374Y-40271480D01*
X57210701Y-40288807D01*
X57231076Y-40302421D01*
X57253714Y-40311798D01*
X57277748Y-40316579D01*
X57302252Y-40316579D01*
X57326285Y-40311799D01*
X57348924Y-40302421D01*
X57369298Y-40288808D01*
X57386625Y-40271481D01*
X57400239Y-40251106D01*
X57404333Y-40243447D01*
X57415202Y-40230202D01*
X57428445Y-40219334D01*
X57443557Y-40211257D01*
X57459949Y-40206284D01*
X57483141Y-40204000D01*
X57896859Y-40204000D01*
X57920051Y-40206284D01*
X57936443Y-40211257D01*
X57951555Y-40219334D01*
X57964798Y-40230202D01*
X57975667Y-40243447D01*
X57979761Y-40251106D01*
X57993374Y-40271480D01*
X58010701Y-40288807D01*
X58031076Y-40302421D01*
X58053714Y-40311798D01*
X58077748Y-40316579D01*
X58102252Y-40316579D01*
X58126285Y-40311799D01*
X58148924Y-40302421D01*
X58169298Y-40288808D01*
X58186625Y-40271481D01*
X58200239Y-40251106D01*
X58204333Y-40243447D01*
X58215202Y-40230202D01*
X58228445Y-40219334D01*
X58243557Y-40211257D01*
X58259949Y-40206284D01*
X58283141Y-40204000D01*
X58696859Y-40204000D01*
X58720051Y-40206284D01*
X58736443Y-40211257D01*
X58751555Y-40219334D01*
X58764798Y-40230202D01*
X58775667Y-40243447D01*
X58779761Y-40251106D01*
X58793374Y-40271480D01*
X58810701Y-40288807D01*
X58831076Y-40302421D01*
X58853714Y-40311798D01*
X58877748Y-40316579D01*
X58902252Y-40316579D01*
X58926285Y-40311799D01*
X58948924Y-40302421D01*
X58969298Y-40288808D01*
X58986625Y-40271481D01*
X59000239Y-40251106D01*
X59004333Y-40243447D01*
X59015202Y-40230202D01*
X59028445Y-40219334D01*
X59043557Y-40211257D01*
X59059949Y-40206284D01*
X59083141Y-40204000D01*
X59496859Y-40204000D01*
X59520051Y-40206284D01*
X59536443Y-40211257D01*
X59551555Y-40219334D01*
X59564798Y-40230202D01*
X59575667Y-40243447D01*
X59579761Y-40251106D01*
X59593374Y-40271480D01*
X59610701Y-40288807D01*
X59631076Y-40302421D01*
X59653714Y-40311798D01*
X59677748Y-40316579D01*
X59702252Y-40316579D01*
X59726285Y-40311799D01*
X59748924Y-40302421D01*
X59769298Y-40288808D01*
X59786625Y-40271481D01*
X59800239Y-40251106D01*
X59804333Y-40243447D01*
X59815202Y-40230202D01*
X59828445Y-40219334D01*
X59843557Y-40211257D01*
X59859949Y-40206284D01*
X59883141Y-40204000D01*
X60296859Y-40204000D01*
X60320051Y-40206284D01*
X60336443Y-40211257D01*
X60351555Y-40219334D01*
X60364798Y-40230202D01*
X60375667Y-40243447D01*
X60379761Y-40251106D01*
X60393374Y-40271480D01*
X60410701Y-40288807D01*
X60431076Y-40302421D01*
X60453714Y-40311798D01*
X60477748Y-40316579D01*
X60502252Y-40316579D01*
X60526285Y-40311799D01*
X60548924Y-40302421D01*
X60569298Y-40288808D01*
X60586625Y-40271481D01*
X60600239Y-40251106D01*
X60604333Y-40243447D01*
X60615202Y-40230202D01*
X60628445Y-40219334D01*
X60643557Y-40211257D01*
X60659949Y-40206284D01*
X60683141Y-40204000D01*
X61096859Y-40204000D01*
X61120051Y-40206284D01*
X61136443Y-40211257D01*
X61151555Y-40219334D01*
X61164798Y-40230202D01*
X61175667Y-40243447D01*
X61179761Y-40251106D01*
X61193374Y-40271480D01*
X61210701Y-40288807D01*
X61231076Y-40302421D01*
X61253714Y-40311798D01*
X61277748Y-40316579D01*
X61302252Y-40316579D01*
X61326285Y-40311799D01*
X61348924Y-40302421D01*
X61369298Y-40288808D01*
X61386625Y-40271481D01*
X61400239Y-40251106D01*
X61404333Y-40243447D01*
X61415202Y-40230202D01*
X61428445Y-40219334D01*
X61443557Y-40211257D01*
X61459949Y-40206284D01*
X61483141Y-40204000D01*
X61896859Y-40204000D01*
X61920051Y-40206284D01*
X61936443Y-40211257D01*
X61951555Y-40219334D01*
X61964798Y-40230202D01*
X61975667Y-40243447D01*
X61979761Y-40251106D01*
X61993374Y-40271480D01*
X62010701Y-40288807D01*
X62031076Y-40302421D01*
X62053714Y-40311798D01*
X62077748Y-40316579D01*
X62102252Y-40316579D01*
X62126285Y-40311799D01*
X62148924Y-40302421D01*
X62169298Y-40288808D01*
X62186625Y-40271481D01*
X62200239Y-40251106D01*
X62204333Y-40243447D01*
X62215202Y-40230202D01*
X62228445Y-40219334D01*
X62243557Y-40211257D01*
X62259949Y-40206284D01*
X62283141Y-40204000D01*
X62696859Y-40204000D01*
X62720051Y-40206284D01*
X62736443Y-40211257D01*
X62751555Y-40219334D01*
X62764798Y-40230202D01*
X62775666Y-40243445D01*
X62783743Y-40258557D01*
X62788716Y-40274949D01*
X62791000Y-40298141D01*
X62791000Y-41711859D01*
X62788716Y-41735051D01*
X62783743Y-41751443D01*
X62775666Y-41766555D01*
X62764798Y-41779798D01*
X62751555Y-41790666D01*
X62736443Y-41798743D01*
X62720051Y-41803716D01*
X62696859Y-41806000D01*
X62283141Y-41806000D01*
X62259949Y-41803716D01*
X62243557Y-41798743D01*
X62228445Y-41790666D01*
X62215202Y-41779798D01*
X62204333Y-41766553D01*
X62200239Y-41758894D01*
X62186626Y-41738520D01*
X62169299Y-41721193D01*
X62148924Y-41707579D01*
X62126286Y-41698202D01*
X62102252Y-41693421D01*
X62077748Y-41693421D01*
X62053715Y-41698201D01*
X62031076Y-41707579D01*
X62010702Y-41721192D01*
X61993375Y-41738519D01*
X61979761Y-41758894D01*
X61975667Y-41766553D01*
X61964798Y-41779798D01*
X61951555Y-41790666D01*
X61936443Y-41798743D01*
X61920051Y-41803716D01*
X61896859Y-41806000D01*
X61483141Y-41806000D01*
X61459949Y-41803716D01*
X61443557Y-41798743D01*
X61428445Y-41790666D01*
X61415202Y-41779798D01*
X61404333Y-41766553D01*
X61400239Y-41758894D01*
X61386626Y-41738520D01*
X61369299Y-41721193D01*
X61348924Y-41707579D01*
X61326286Y-41698202D01*
X61302252Y-41693421D01*
X61277748Y-41693421D01*
X61253715Y-41698201D01*
X61231076Y-41707579D01*
X61210702Y-41721192D01*
X61193375Y-41738519D01*
X61179761Y-41758894D01*
X61175667Y-41766553D01*
X61164798Y-41779798D01*
X61151555Y-41790666D01*
X61136443Y-41798743D01*
X61120051Y-41803716D01*
X61096859Y-41806000D01*
X60683141Y-41806000D01*
X60659949Y-41803716D01*
X60643557Y-41798743D01*
X60628445Y-41790666D01*
X60615202Y-41779798D01*
X60604333Y-41766553D01*
X60600239Y-41758894D01*
X60586626Y-41738520D01*
X60569299Y-41721193D01*
X60548924Y-41707579D01*
X60526286Y-41698202D01*
X60502252Y-41693421D01*
X60477748Y-41693421D01*
X60453715Y-41698201D01*
X60431076Y-41707579D01*
X60410702Y-41721192D01*
X60393375Y-41738519D01*
X60379761Y-41758894D01*
X60375667Y-41766553D01*
X60364798Y-41779798D01*
X60351555Y-41790666D01*
X60336443Y-41798743D01*
X60320051Y-41803716D01*
X60296859Y-41806000D01*
X59883141Y-41806000D01*
X59859949Y-41803716D01*
X59843557Y-41798743D01*
X59828445Y-41790666D01*
X59815202Y-41779798D01*
X59804333Y-41766553D01*
X59800239Y-41758894D01*
X59786626Y-41738520D01*
X59769299Y-41721193D01*
X59748924Y-41707579D01*
X59726286Y-41698202D01*
X59702252Y-41693421D01*
X59677748Y-41693421D01*
X59653715Y-41698201D01*
X59631076Y-41707579D01*
X59610702Y-41721192D01*
X59593375Y-41738519D01*
X59579761Y-41758894D01*
X59575667Y-41766553D01*
X59564798Y-41779798D01*
X59551555Y-41790666D01*
X59536443Y-41798743D01*
X59520051Y-41803716D01*
X59496859Y-41806000D01*
X59083141Y-41806000D01*
X59059949Y-41803716D01*
X59043557Y-41798743D01*
X59028445Y-41790666D01*
X59015202Y-41779798D01*
X59004333Y-41766553D01*
X59000239Y-41758894D01*
X58986626Y-41738520D01*
X58969299Y-41721193D01*
X58948924Y-41707579D01*
X58926286Y-41698202D01*
X58902252Y-41693421D01*
X58877748Y-41693421D01*
X58853715Y-41698201D01*
X58831076Y-41707579D01*
X58810702Y-41721192D01*
X58793375Y-41738519D01*
X58779761Y-41758894D01*
X58775667Y-41766553D01*
X58764798Y-41779798D01*
X58751555Y-41790666D01*
X58736443Y-41798743D01*
X58720051Y-41803716D01*
X58696859Y-41806000D01*
X58283141Y-41806000D01*
X58259949Y-41803716D01*
X58243557Y-41798743D01*
X58228445Y-41790666D01*
X58215202Y-41779798D01*
X58204333Y-41766553D01*
X58200239Y-41758894D01*
X58186626Y-41738520D01*
X58169299Y-41721193D01*
X58148924Y-41707579D01*
X58126286Y-41698202D01*
X58102252Y-41693421D01*
X58077748Y-41693421D01*
X58053715Y-41698201D01*
X58031076Y-41707579D01*
X58010702Y-41721192D01*
X57993375Y-41738519D01*
X57979761Y-41758894D01*
X57975667Y-41766553D01*
X57964798Y-41779798D01*
X57951555Y-41790666D01*
X57936443Y-41798743D01*
X57920051Y-41803716D01*
X57896859Y-41806000D01*
X57483141Y-41806000D01*
X57459949Y-41803716D01*
X57443557Y-41798743D01*
X57428445Y-41790666D01*
X57415202Y-41779798D01*
X57404333Y-41766553D01*
X57400239Y-41758894D01*
X57386626Y-41738520D01*
X57369299Y-41721193D01*
X57348924Y-41707579D01*
X57326286Y-41698202D01*
X57302252Y-41693421D01*
X57277748Y-41693421D01*
X57253715Y-41698201D01*
X57231076Y-41707579D01*
X57210702Y-41721192D01*
X57193375Y-41738519D01*
X57179761Y-41758894D01*
X57175667Y-41766553D01*
X57164798Y-41779798D01*
X57151555Y-41790666D01*
X57136443Y-41798743D01*
X57120051Y-41803716D01*
X57096859Y-41806000D01*
X56683141Y-41806000D01*
X56659949Y-41803716D01*
X56643557Y-41798743D01*
X56628445Y-41790666D01*
X56615202Y-41779798D01*
X56604334Y-41766555D01*
X56596257Y-41751443D01*
X56591284Y-41735051D01*
X56589000Y-41711859D01*
X56589000Y-40298141D01*
X56591284Y-40274949D01*
X56596257Y-40258557D01*
X56604334Y-40243445D01*
X56615202Y-40230202D01*
X56628445Y-40219334D01*
X56643557Y-40211257D01*
X56659949Y-40206284D01*
X56683141Y-40204000D01*
X57096859Y-40204000D01*
X57120051Y-40206284D01*
G37*
G36*
X41037000Y-41775000D02*
G01*
X39735000Y-41775000D01*
X39735000Y-40773000D01*
X41037000Y-40773000D01*
X41037000Y-41775000D01*
G37*
G36*
X74561000Y-41541000D02*
G01*
X72759000Y-41541000D01*
X72759000Y-39739000D01*
X74561000Y-39739000D01*
X74561000Y-41541000D01*
G37*
G36*
X32708468Y-39893565D02*
G01*
X32747138Y-39905296D01*
X32782777Y-39924346D01*
X32814017Y-39949983D01*
X32839654Y-39981223D01*
X32858704Y-40016862D01*
X32870435Y-40055532D01*
X32875000Y-40101888D01*
X32875000Y-41178112D01*
X32870435Y-41224468D01*
X32858704Y-41263138D01*
X32839654Y-41298777D01*
X32814017Y-41330017D01*
X32782777Y-41355654D01*
X32747138Y-41374704D01*
X32708468Y-41386435D01*
X32662112Y-41391000D01*
X32010888Y-41391000D01*
X31964532Y-41386435D01*
X31925862Y-41374704D01*
X31890223Y-41355654D01*
X31858983Y-41330017D01*
X31833346Y-41298777D01*
X31814296Y-41263138D01*
X31802565Y-41224468D01*
X31798000Y-41178112D01*
X31798000Y-40101888D01*
X31802565Y-40055532D01*
X31814296Y-40016862D01*
X31833346Y-39981223D01*
X31858983Y-39949983D01*
X31890223Y-39924346D01*
X31925862Y-39905296D01*
X31964532Y-39893565D01*
X32010888Y-39889000D01*
X32662112Y-39889000D01*
X32708468Y-39893565D01*
G37*
G36*
X34583468Y-39893565D02*
G01*
X34622138Y-39905296D01*
X34657777Y-39924346D01*
X34689017Y-39949983D01*
X34714654Y-39981223D01*
X34733704Y-40016862D01*
X34745435Y-40055532D01*
X34750000Y-40101888D01*
X34750000Y-41178112D01*
X34745435Y-41224468D01*
X34733704Y-41263138D01*
X34714654Y-41298777D01*
X34689017Y-41330017D01*
X34657777Y-41355654D01*
X34622138Y-41374704D01*
X34583468Y-41386435D01*
X34537112Y-41391000D01*
X33885888Y-41391000D01*
X33839532Y-41386435D01*
X33800862Y-41374704D01*
X33765223Y-41355654D01*
X33733983Y-41330017D01*
X33708346Y-41298777D01*
X33689296Y-41263138D01*
X33677565Y-41224468D01*
X33673000Y-41178112D01*
X33673000Y-40101888D01*
X33677565Y-40055532D01*
X33689296Y-40016862D01*
X33708346Y-39981223D01*
X33733983Y-39949983D01*
X33765223Y-39924346D01*
X33800862Y-39905296D01*
X33839532Y-39893565D01*
X33885888Y-39889000D01*
X34537112Y-39889000D01*
X34583468Y-39893565D01*
G37*
G36*
X27441000Y-41081000D02*
G01*
X26039000Y-41081000D01*
X26039000Y-39329000D01*
X27441000Y-39329000D01*
X27441000Y-41081000D01*
G37*
G36*
X38765000Y-40950000D02*
G01*
X37603000Y-40950000D01*
X37603000Y-40198000D01*
X38765000Y-40198000D01*
X38765000Y-40950000D01*
G37*
G36*
X36565000Y-40950000D02*
G01*
X35403000Y-40950000D01*
X35403000Y-38298000D01*
X36565000Y-38298000D01*
X36565000Y-40950000D01*
G37*
G36*
X52132591Y-39864085D02*
G01*
X52166569Y-39874393D01*
X52197890Y-39891134D01*
X52225339Y-39913661D01*
X52247866Y-39941110D01*
X52264607Y-39972431D01*
X52274915Y-40006409D01*
X52279000Y-40047890D01*
X52279000Y-40724110D01*
X52274915Y-40765591D01*
X52264607Y-40799569D01*
X52247866Y-40830890D01*
X52225339Y-40858339D01*
X52197890Y-40880866D01*
X52166569Y-40897607D01*
X52132591Y-40907915D01*
X52091110Y-40912000D01*
X51489890Y-40912000D01*
X51448409Y-40907915D01*
X51414431Y-40897607D01*
X51383110Y-40880866D01*
X51355661Y-40858339D01*
X51333134Y-40830890D01*
X51316393Y-40799569D01*
X51306085Y-40765591D01*
X51302000Y-40724110D01*
X51302000Y-40047890D01*
X51306085Y-40006409D01*
X51316393Y-39972431D01*
X51333134Y-39941110D01*
X51355661Y-39913661D01*
X51383110Y-39891134D01*
X51414431Y-39874393D01*
X51448409Y-39864085D01*
X51489890Y-39860000D01*
X52091110Y-39860000D01*
X52132591Y-39864085D01*
G37*
G36*
X53707591Y-39864085D02*
G01*
X53741569Y-39874393D01*
X53772890Y-39891134D01*
X53800339Y-39913661D01*
X53822866Y-39941110D01*
X53839607Y-39972431D01*
X53849915Y-40006409D01*
X53854000Y-40047890D01*
X53854000Y-40724110D01*
X53849915Y-40765591D01*
X53839607Y-40799569D01*
X53822866Y-40830890D01*
X53800339Y-40858339D01*
X53772890Y-40880866D01*
X53741569Y-40897607D01*
X53707591Y-40907915D01*
X53666110Y-40912000D01*
X53064890Y-40912000D01*
X53023409Y-40907915D01*
X52989431Y-40897607D01*
X52958110Y-40880866D01*
X52930661Y-40858339D01*
X52908134Y-40830890D01*
X52891393Y-40799569D01*
X52881085Y-40765591D01*
X52877000Y-40724110D01*
X52877000Y-40047890D01*
X52881085Y-40006409D01*
X52891393Y-39972431D01*
X52908134Y-39941110D01*
X52930661Y-39913661D01*
X52958110Y-39891134D01*
X52989431Y-39874393D01*
X53023409Y-39864085D01*
X53064890Y-39860000D01*
X53666110Y-39860000D01*
X53707591Y-39864085D01*
G37*
G36*
X42939683Y-40001725D02*
G01*
X42970143Y-40010966D01*
X42998223Y-40025974D01*
X43022831Y-40046169D01*
X43043026Y-40070777D01*
X43058034Y-40098857D01*
X43067275Y-40129317D01*
X43071000Y-40167140D01*
X43071000Y-40730860D01*
X43067275Y-40768683D01*
X43058034Y-40799143D01*
X43043026Y-40827223D01*
X43022831Y-40851831D01*
X42998223Y-40872026D01*
X42970143Y-40887034D01*
X42939683Y-40896275D01*
X42901860Y-40900000D01*
X42188140Y-40900000D01*
X42150317Y-40896275D01*
X42119857Y-40887034D01*
X42091777Y-40872026D01*
X42067169Y-40851831D01*
X42046974Y-40827223D01*
X42031966Y-40799143D01*
X42022725Y-40768683D01*
X42019000Y-40730860D01*
X42019000Y-40167140D01*
X42022725Y-40129317D01*
X42031966Y-40098857D01*
X42046974Y-40070777D01*
X42067169Y-40046169D01*
X42091777Y-40025974D01*
X42119857Y-40010966D01*
X42150317Y-40001725D01*
X42188140Y-39998000D01*
X42901860Y-39998000D01*
X42939683Y-40001725D01*
G37*
G36*
X67565683Y-39736725D02*
G01*
X67596143Y-39745966D01*
X67624223Y-39760974D01*
X67648831Y-39781169D01*
X67669026Y-39805777D01*
X67684034Y-39833857D01*
X67693275Y-39864317D01*
X67697000Y-39902140D01*
X67697000Y-40615860D01*
X67693275Y-40653683D01*
X67684034Y-40684143D01*
X67669026Y-40712223D01*
X67648831Y-40736831D01*
X67624223Y-40757026D01*
X67596143Y-40772034D01*
X67565683Y-40781275D01*
X67527860Y-40785000D01*
X66964140Y-40785000D01*
X66926317Y-40781275D01*
X66895857Y-40772034D01*
X66867777Y-40757026D01*
X66843169Y-40736831D01*
X66822974Y-40712223D01*
X66807966Y-40684143D01*
X66798725Y-40653683D01*
X66795000Y-40615860D01*
X66795000Y-39902140D01*
X66798725Y-39864317D01*
X66807966Y-39833857D01*
X66822974Y-39805777D01*
X66843169Y-39781169D01*
X66867777Y-39760974D01*
X66895857Y-39745966D01*
X66926317Y-39736725D01*
X66964140Y-39733000D01*
X67527860Y-39733000D01*
X67565683Y-39736725D01*
G37*
G36*
X65915683Y-39736725D02*
G01*
X65946143Y-39745966D01*
X65974223Y-39760974D01*
X65998831Y-39781169D01*
X66019026Y-39805777D01*
X66034034Y-39833857D01*
X66043275Y-39864317D01*
X66047000Y-39902140D01*
X66047000Y-40615860D01*
X66043275Y-40653683D01*
X66034034Y-40684143D01*
X66019026Y-40712223D01*
X65998831Y-40736831D01*
X65974223Y-40757026D01*
X65946143Y-40772034D01*
X65915683Y-40781275D01*
X65877860Y-40785000D01*
X65314140Y-40785000D01*
X65276317Y-40781275D01*
X65245857Y-40772034D01*
X65217777Y-40757026D01*
X65193169Y-40736831D01*
X65172974Y-40712223D01*
X65157966Y-40684143D01*
X65148725Y-40653683D01*
X65145000Y-40615860D01*
X65145000Y-39902140D01*
X65148725Y-39864317D01*
X65157966Y-39833857D01*
X65172974Y-39805777D01*
X65193169Y-39781169D01*
X65217777Y-39760974D01*
X65245857Y-39745966D01*
X65276317Y-39736725D01*
X65314140Y-39733000D01*
X65877860Y-39733000D01*
X65915683Y-39736725D01*
G37*
G36*
X30141000Y-40081000D02*
G01*
X28489000Y-40081000D01*
X28489000Y-38554000D01*
X28534001Y-38554000D01*
X28558387Y-38551598D01*
X28581836Y-38544485D01*
X28603447Y-38532934D01*
X28622389Y-38517389D01*
X28637934Y-38498447D01*
X28649485Y-38476836D01*
X28656598Y-38453387D01*
X28659000Y-38429001D01*
X28659000Y-35230999D01*
X28656598Y-35206613D01*
X28649485Y-35183164D01*
X28637934Y-35161553D01*
X28622389Y-35142611D01*
X28603447Y-35127066D01*
X28581836Y-35115515D01*
X28558387Y-35108402D01*
X28534001Y-35106000D01*
X28489000Y-35106000D01*
X28489000Y-33579000D01*
X30141000Y-33579000D01*
X30141000Y-40081000D01*
G37*
G36*
X56245051Y-33731284D02*
G01*
X56261443Y-33736257D01*
X56276555Y-33744334D01*
X56289798Y-33755202D01*
X56300666Y-33768445D01*
X56308743Y-33783557D01*
X56313716Y-33799949D01*
X56316000Y-33823141D01*
X56316000Y-34236859D01*
X56313716Y-34260051D01*
X56308743Y-34276443D01*
X56300666Y-34291555D01*
X56289798Y-34304798D01*
X56276553Y-34315667D01*
X56268894Y-34319761D01*
X56248520Y-34333374D01*
X56231193Y-34350701D01*
X56217579Y-34371076D01*
X56208202Y-34393714D01*
X56203421Y-34417748D01*
X56203421Y-34442252D01*
X56208201Y-34466285D01*
X56217579Y-34488924D01*
X56231192Y-34509298D01*
X56248519Y-34526625D01*
X56268894Y-34540239D01*
X56276553Y-34544333D01*
X56289798Y-34555202D01*
X56300666Y-34568445D01*
X56308743Y-34583557D01*
X56313716Y-34599949D01*
X56316000Y-34623141D01*
X56316000Y-35036859D01*
X56313716Y-35060051D01*
X56308743Y-35076443D01*
X56300666Y-35091555D01*
X56289798Y-35104798D01*
X56276553Y-35115667D01*
X56268894Y-35119761D01*
X56248520Y-35133374D01*
X56231193Y-35150701D01*
X56217579Y-35171076D01*
X56208202Y-35193714D01*
X56203421Y-35217748D01*
X56203421Y-35242252D01*
X56208201Y-35266285D01*
X56217579Y-35288924D01*
X56231192Y-35309298D01*
X56248519Y-35326625D01*
X56268894Y-35340239D01*
X56276553Y-35344333D01*
X56289798Y-35355202D01*
X56300666Y-35368445D01*
X56308743Y-35383557D01*
X56313716Y-35399949D01*
X56316000Y-35423141D01*
X56316000Y-35836859D01*
X56313716Y-35860051D01*
X56308743Y-35876443D01*
X56300666Y-35891555D01*
X56289798Y-35904798D01*
X56276553Y-35915667D01*
X56268894Y-35919761D01*
X56248520Y-35933374D01*
X56231193Y-35950701D01*
X56217579Y-35971076D01*
X56208202Y-35993714D01*
X56203421Y-36017748D01*
X56203421Y-36042252D01*
X56208201Y-36066285D01*
X56217579Y-36088924D01*
X56231192Y-36109298D01*
X56248519Y-36126625D01*
X56268894Y-36140239D01*
X56276553Y-36144333D01*
X56289798Y-36155202D01*
X56300666Y-36168445D01*
X56308743Y-36183557D01*
X56313716Y-36199949D01*
X56316000Y-36223141D01*
X56316000Y-36636859D01*
X56313716Y-36660051D01*
X56308743Y-36676443D01*
X56300666Y-36691555D01*
X56289798Y-36704798D01*
X56276553Y-36715667D01*
X56268894Y-36719761D01*
X56248520Y-36733374D01*
X56231193Y-36750701D01*
X56217579Y-36771076D01*
X56208202Y-36793714D01*
X56203421Y-36817748D01*
X56203421Y-36842252D01*
X56208201Y-36866285D01*
X56217579Y-36888924D01*
X56231192Y-36909298D01*
X56248519Y-36926625D01*
X56268894Y-36940239D01*
X56276553Y-36944333D01*
X56289798Y-36955202D01*
X56300666Y-36968445D01*
X56308743Y-36983557D01*
X56313716Y-36999949D01*
X56316000Y-37023141D01*
X56316000Y-37436859D01*
X56313716Y-37460051D01*
X56308743Y-37476443D01*
X56300666Y-37491555D01*
X56289798Y-37504798D01*
X56276553Y-37515667D01*
X56268894Y-37519761D01*
X56248520Y-37533374D01*
X56231193Y-37550701D01*
X56217579Y-37571076D01*
X56208202Y-37593714D01*
X56203421Y-37617748D01*
X56203421Y-37642252D01*
X56208201Y-37666285D01*
X56217579Y-37688924D01*
X56231192Y-37709298D01*
X56248519Y-37726625D01*
X56268894Y-37740239D01*
X56276553Y-37744333D01*
X56289798Y-37755202D01*
X56300666Y-37768445D01*
X56308743Y-37783557D01*
X56313716Y-37799949D01*
X56316000Y-37823141D01*
X56316000Y-38236859D01*
X56313716Y-38260051D01*
X56308743Y-38276443D01*
X56300666Y-38291555D01*
X56289798Y-38304798D01*
X56276553Y-38315667D01*
X56268894Y-38319761D01*
X56248520Y-38333374D01*
X56231193Y-38350701D01*
X56217579Y-38371076D01*
X56208202Y-38393714D01*
X56203421Y-38417748D01*
X56203421Y-38442252D01*
X56208201Y-38466285D01*
X56217579Y-38488924D01*
X56231192Y-38509298D01*
X56248519Y-38526625D01*
X56268894Y-38540239D01*
X56276553Y-38544333D01*
X56289798Y-38555202D01*
X56300666Y-38568445D01*
X56308743Y-38583557D01*
X56313716Y-38599949D01*
X56316000Y-38623141D01*
X56316000Y-39036859D01*
X56313716Y-39060051D01*
X56308743Y-39076443D01*
X56300666Y-39091555D01*
X56289798Y-39104798D01*
X56276553Y-39115667D01*
X56268894Y-39119761D01*
X56248520Y-39133374D01*
X56231193Y-39150701D01*
X56217579Y-39171076D01*
X56208202Y-39193714D01*
X56203421Y-39217748D01*
X56203421Y-39242252D01*
X56208201Y-39266285D01*
X56217579Y-39288924D01*
X56231192Y-39309298D01*
X56248519Y-39326625D01*
X56268894Y-39340239D01*
X56276553Y-39344333D01*
X56289798Y-39355202D01*
X56300666Y-39368445D01*
X56308743Y-39383557D01*
X56313716Y-39399949D01*
X56316000Y-39423141D01*
X56316000Y-39836859D01*
X56313716Y-39860051D01*
X56308743Y-39876443D01*
X56300666Y-39891555D01*
X56289798Y-39904798D01*
X56276555Y-39915666D01*
X56261443Y-39923743D01*
X56245051Y-39928716D01*
X56221859Y-39931000D01*
X54808141Y-39931000D01*
X54784949Y-39928716D01*
X54768557Y-39923743D01*
X54753445Y-39915666D01*
X54740202Y-39904798D01*
X54729334Y-39891555D01*
X54721257Y-39876443D01*
X54716284Y-39860051D01*
X54714000Y-39836859D01*
X54714000Y-39423141D01*
X54716284Y-39399949D01*
X54721257Y-39383557D01*
X54729334Y-39368445D01*
X54740202Y-39355202D01*
X54753447Y-39344333D01*
X54761106Y-39340239D01*
X54781480Y-39326626D01*
X54798807Y-39309299D01*
X54812421Y-39288924D01*
X54821798Y-39266286D01*
X54826579Y-39242252D01*
X54826579Y-39217748D01*
X54821799Y-39193715D01*
X54812421Y-39171076D01*
X54798808Y-39150702D01*
X54781481Y-39133375D01*
X54761106Y-39119761D01*
X54753447Y-39115667D01*
X54740202Y-39104798D01*
X54729334Y-39091555D01*
X54721257Y-39076443D01*
X54716284Y-39060051D01*
X54714000Y-39036859D01*
X54714000Y-38623141D01*
X54716284Y-38599949D01*
X54721257Y-38583557D01*
X54729334Y-38568445D01*
X54740202Y-38555202D01*
X54753447Y-38544333D01*
X54761106Y-38540239D01*
X54781480Y-38526626D01*
X54798807Y-38509299D01*
X54812421Y-38488924D01*
X54821798Y-38466286D01*
X54826579Y-38442252D01*
X54826579Y-38417748D01*
X54821799Y-38393715D01*
X54812421Y-38371076D01*
X54798808Y-38350702D01*
X54781481Y-38333375D01*
X54761106Y-38319761D01*
X54753447Y-38315667D01*
X54740202Y-38304798D01*
X54729334Y-38291555D01*
X54721257Y-38276443D01*
X54716284Y-38260051D01*
X54714000Y-38236859D01*
X54714000Y-37823141D01*
X54716284Y-37799949D01*
X54721257Y-37783557D01*
X54729334Y-37768445D01*
X54740202Y-37755202D01*
X54753447Y-37744333D01*
X54761106Y-37740239D01*
X54781480Y-37726626D01*
X54798807Y-37709299D01*
X54812421Y-37688924D01*
X54821798Y-37666286D01*
X54826579Y-37642252D01*
X54826579Y-37617748D01*
X54821799Y-37593715D01*
X54812421Y-37571076D01*
X54798808Y-37550702D01*
X54781481Y-37533375D01*
X54761106Y-37519761D01*
X54753447Y-37515667D01*
X54740202Y-37504798D01*
X54729334Y-37491555D01*
X54721257Y-37476443D01*
X54716284Y-37460051D01*
X54714000Y-37436859D01*
X54714000Y-37023141D01*
X54716284Y-36999949D01*
X54721257Y-36983557D01*
X54729334Y-36968445D01*
X54740202Y-36955202D01*
X54753447Y-36944333D01*
X54761106Y-36940239D01*
X54781480Y-36926626D01*
X54798807Y-36909299D01*
X54812421Y-36888924D01*
X54821798Y-36866286D01*
X54826579Y-36842252D01*
X54826579Y-36817748D01*
X54821799Y-36793715D01*
X54812421Y-36771076D01*
X54798808Y-36750702D01*
X54781481Y-36733375D01*
X54761106Y-36719761D01*
X54753447Y-36715667D01*
X54740202Y-36704798D01*
X54729334Y-36691555D01*
X54721257Y-36676443D01*
X54716284Y-36660051D01*
X54714000Y-36636859D01*
X54714000Y-36223141D01*
X54716284Y-36199949D01*
X54721257Y-36183557D01*
X54729334Y-36168445D01*
X54740202Y-36155202D01*
X54753447Y-36144333D01*
X54761106Y-36140239D01*
X54781480Y-36126626D01*
X54798807Y-36109299D01*
X54812421Y-36088924D01*
X54821798Y-36066286D01*
X54826579Y-36042252D01*
X54826579Y-36017748D01*
X54821799Y-35993715D01*
X54812421Y-35971076D01*
X54798808Y-35950702D01*
X54781481Y-35933375D01*
X54761106Y-35919761D01*
X54753447Y-35915667D01*
X54740202Y-35904798D01*
X54729334Y-35891555D01*
X54721257Y-35876443D01*
X54716284Y-35860051D01*
X54714000Y-35836859D01*
X54714000Y-35423141D01*
X54716284Y-35399949D01*
X54721257Y-35383557D01*
X54729334Y-35368445D01*
X54740202Y-35355202D01*
X54753447Y-35344333D01*
X54761106Y-35340239D01*
X54781480Y-35326626D01*
X54798807Y-35309299D01*
X54812421Y-35288924D01*
X54821798Y-35266286D01*
X54826579Y-35242252D01*
X54826579Y-35217748D01*
X54821799Y-35193715D01*
X54812421Y-35171076D01*
X54798808Y-35150702D01*
X54781481Y-35133375D01*
X54761106Y-35119761D01*
X54753447Y-35115667D01*
X54740202Y-35104798D01*
X54729334Y-35091555D01*
X54721257Y-35076443D01*
X54716284Y-35060051D01*
X54714000Y-35036859D01*
X54714000Y-34623141D01*
X54716284Y-34599949D01*
X54721257Y-34583557D01*
X54729334Y-34568445D01*
X54740202Y-34555202D01*
X54753447Y-34544333D01*
X54761106Y-34540239D01*
X54781480Y-34526626D01*
X54798807Y-34509299D01*
X54812421Y-34488924D01*
X54821798Y-34466286D01*
X54826579Y-34442252D01*
X54826579Y-34417748D01*
X54821799Y-34393715D01*
X54812421Y-34371076D01*
X54798808Y-34350702D01*
X54781481Y-34333375D01*
X54761106Y-34319761D01*
X54753447Y-34315667D01*
X54740202Y-34304798D01*
X54729334Y-34291555D01*
X54721257Y-34276443D01*
X54716284Y-34260051D01*
X54714000Y-34236859D01*
X54714000Y-33823141D01*
X54716284Y-33799949D01*
X54721257Y-33783557D01*
X54729334Y-33768445D01*
X54740202Y-33755202D01*
X54753445Y-33744334D01*
X54768557Y-33736257D01*
X54784949Y-33731284D01*
X54808141Y-33729000D01*
X56221859Y-33729000D01*
X56245051Y-33731284D01*
G37*
G36*
X64595051Y-33731284D02*
G01*
X64611443Y-33736257D01*
X64626555Y-33744334D01*
X64639798Y-33755202D01*
X64650666Y-33768445D01*
X64658743Y-33783557D01*
X64663716Y-33799949D01*
X64666000Y-33823141D01*
X64666000Y-34236859D01*
X64663716Y-34260051D01*
X64658743Y-34276443D01*
X64650666Y-34291555D01*
X64639798Y-34304798D01*
X64626553Y-34315667D01*
X64618894Y-34319761D01*
X64598520Y-34333374D01*
X64581193Y-34350701D01*
X64567579Y-34371076D01*
X64558202Y-34393714D01*
X64553421Y-34417748D01*
X64553421Y-34442252D01*
X64558201Y-34466285D01*
X64567579Y-34488924D01*
X64581192Y-34509298D01*
X64598519Y-34526625D01*
X64618894Y-34540239D01*
X64626553Y-34544333D01*
X64639798Y-34555202D01*
X64650666Y-34568445D01*
X64658743Y-34583557D01*
X64663716Y-34599949D01*
X64666000Y-34623141D01*
X64666000Y-35036859D01*
X64663716Y-35060051D01*
X64658743Y-35076443D01*
X64650666Y-35091555D01*
X64639798Y-35104798D01*
X64626553Y-35115667D01*
X64618894Y-35119761D01*
X64598520Y-35133374D01*
X64581193Y-35150701D01*
X64567579Y-35171076D01*
X64558202Y-35193714D01*
X64553421Y-35217748D01*
X64553421Y-35242252D01*
X64558201Y-35266285D01*
X64567579Y-35288924D01*
X64581192Y-35309298D01*
X64598519Y-35326625D01*
X64618894Y-35340239D01*
X64626553Y-35344333D01*
X64639798Y-35355202D01*
X64650666Y-35368445D01*
X64658743Y-35383557D01*
X64663716Y-35399949D01*
X64666000Y-35423141D01*
X64666000Y-35836859D01*
X64663716Y-35860051D01*
X64658743Y-35876443D01*
X64650666Y-35891555D01*
X64639798Y-35904798D01*
X64626553Y-35915667D01*
X64618894Y-35919761D01*
X64598520Y-35933374D01*
X64581193Y-35950701D01*
X64567579Y-35971076D01*
X64558202Y-35993714D01*
X64553421Y-36017748D01*
X64553421Y-36042252D01*
X64558201Y-36066285D01*
X64567579Y-36088924D01*
X64581192Y-36109298D01*
X64598519Y-36126625D01*
X64618894Y-36140239D01*
X64626553Y-36144333D01*
X64639798Y-36155202D01*
X64650666Y-36168445D01*
X64658743Y-36183557D01*
X64663716Y-36199949D01*
X64666000Y-36223141D01*
X64666000Y-36636859D01*
X64663716Y-36660051D01*
X64658743Y-36676443D01*
X64650666Y-36691555D01*
X64639798Y-36704798D01*
X64626553Y-36715667D01*
X64618894Y-36719761D01*
X64598520Y-36733374D01*
X64581193Y-36750701D01*
X64567579Y-36771076D01*
X64558202Y-36793714D01*
X64553421Y-36817748D01*
X64553421Y-36842252D01*
X64558201Y-36866285D01*
X64567579Y-36888924D01*
X64581192Y-36909298D01*
X64598519Y-36926625D01*
X64618894Y-36940239D01*
X64626553Y-36944333D01*
X64639798Y-36955202D01*
X64650666Y-36968445D01*
X64658743Y-36983557D01*
X64663716Y-36999949D01*
X64666000Y-37023141D01*
X64666000Y-37436859D01*
X64663716Y-37460051D01*
X64658743Y-37476443D01*
X64650666Y-37491555D01*
X64639798Y-37504798D01*
X64626553Y-37515667D01*
X64618894Y-37519761D01*
X64598520Y-37533374D01*
X64581193Y-37550701D01*
X64567579Y-37571076D01*
X64558202Y-37593714D01*
X64553421Y-37617748D01*
X64553421Y-37642252D01*
X64558201Y-37666285D01*
X64567579Y-37688924D01*
X64581192Y-37709298D01*
X64598519Y-37726625D01*
X64618894Y-37740239D01*
X64626553Y-37744333D01*
X64639798Y-37755202D01*
X64650666Y-37768445D01*
X64658743Y-37783557D01*
X64663716Y-37799949D01*
X64666000Y-37823141D01*
X64666000Y-38236859D01*
X64663716Y-38260051D01*
X64658743Y-38276443D01*
X64650666Y-38291555D01*
X64639798Y-38304798D01*
X64626553Y-38315667D01*
X64618894Y-38319761D01*
X64598520Y-38333374D01*
X64581193Y-38350701D01*
X64567579Y-38371076D01*
X64558202Y-38393714D01*
X64553421Y-38417748D01*
X64553421Y-38442252D01*
X64558201Y-38466285D01*
X64567579Y-38488924D01*
X64581192Y-38509298D01*
X64598519Y-38526625D01*
X64618894Y-38540239D01*
X64626553Y-38544333D01*
X64639798Y-38555202D01*
X64650666Y-38568445D01*
X64658743Y-38583557D01*
X64663716Y-38599949D01*
X64666000Y-38623141D01*
X64666000Y-39036859D01*
X64663716Y-39060051D01*
X64658743Y-39076443D01*
X64650666Y-39091555D01*
X64639798Y-39104798D01*
X64626553Y-39115667D01*
X64618894Y-39119761D01*
X64598520Y-39133374D01*
X64581193Y-39150701D01*
X64567579Y-39171076D01*
X64558202Y-39193714D01*
X64553421Y-39217748D01*
X64553421Y-39242252D01*
X64558201Y-39266285D01*
X64567579Y-39288924D01*
X64581192Y-39309298D01*
X64598519Y-39326625D01*
X64618894Y-39340239D01*
X64626553Y-39344333D01*
X64639798Y-39355202D01*
X64650666Y-39368445D01*
X64658743Y-39383557D01*
X64663716Y-39399949D01*
X64666000Y-39423141D01*
X64666000Y-39836859D01*
X64663716Y-39860051D01*
X64658743Y-39876443D01*
X64650666Y-39891555D01*
X64639798Y-39904798D01*
X64626555Y-39915666D01*
X64611443Y-39923743D01*
X64595051Y-39928716D01*
X64571859Y-39931000D01*
X63158141Y-39931000D01*
X63134949Y-39928716D01*
X63118557Y-39923743D01*
X63103445Y-39915666D01*
X63090202Y-39904798D01*
X63079334Y-39891555D01*
X63071257Y-39876443D01*
X63066284Y-39860051D01*
X63064000Y-39836859D01*
X63064000Y-39423141D01*
X63066284Y-39399949D01*
X63071257Y-39383557D01*
X63079334Y-39368445D01*
X63090202Y-39355202D01*
X63103447Y-39344333D01*
X63111106Y-39340239D01*
X63131480Y-39326626D01*
X63148807Y-39309299D01*
X63162421Y-39288924D01*
X63171798Y-39266286D01*
X63176579Y-39242252D01*
X63176579Y-39217748D01*
X63171799Y-39193715D01*
X63162421Y-39171076D01*
X63148808Y-39150702D01*
X63131481Y-39133375D01*
X63111106Y-39119761D01*
X63103447Y-39115667D01*
X63090202Y-39104798D01*
X63079334Y-39091555D01*
X63071257Y-39076443D01*
X63066284Y-39060051D01*
X63064000Y-39036859D01*
X63064000Y-38623141D01*
X63066284Y-38599949D01*
X63071257Y-38583557D01*
X63079334Y-38568445D01*
X63090202Y-38555202D01*
X63103447Y-38544333D01*
X63111106Y-38540239D01*
X63131480Y-38526626D01*
X63148807Y-38509299D01*
X63162421Y-38488924D01*
X63171798Y-38466286D01*
X63176579Y-38442252D01*
X63176579Y-38417748D01*
X63171799Y-38393715D01*
X63162421Y-38371076D01*
X63148808Y-38350702D01*
X63131481Y-38333375D01*
X63111106Y-38319761D01*
X63103447Y-38315667D01*
X63090202Y-38304798D01*
X63079334Y-38291555D01*
X63071257Y-38276443D01*
X63066284Y-38260051D01*
X63064000Y-38236859D01*
X63064000Y-37823141D01*
X63066284Y-37799949D01*
X63071257Y-37783557D01*
X63079334Y-37768445D01*
X63090202Y-37755202D01*
X63103447Y-37744333D01*
X63111106Y-37740239D01*
X63131480Y-37726626D01*
X63148807Y-37709299D01*
X63162421Y-37688924D01*
X63171798Y-37666286D01*
X63176579Y-37642252D01*
X63176579Y-37617748D01*
X63171799Y-37593715D01*
X63162421Y-37571076D01*
X63148808Y-37550702D01*
X63131481Y-37533375D01*
X63111106Y-37519761D01*
X63103447Y-37515667D01*
X63090202Y-37504798D01*
X63079334Y-37491555D01*
X63071257Y-37476443D01*
X63066284Y-37460051D01*
X63064000Y-37436859D01*
X63064000Y-37023141D01*
X63066284Y-36999949D01*
X63071257Y-36983557D01*
X63079334Y-36968445D01*
X63090202Y-36955202D01*
X63103447Y-36944333D01*
X63111106Y-36940239D01*
X63131480Y-36926626D01*
X63148807Y-36909299D01*
X63162421Y-36888924D01*
X63171798Y-36866286D01*
X63176579Y-36842252D01*
X63176579Y-36817748D01*
X63171799Y-36793715D01*
X63162421Y-36771076D01*
X63148808Y-36750702D01*
X63131481Y-36733375D01*
X63111106Y-36719761D01*
X63103447Y-36715667D01*
X63090202Y-36704798D01*
X63079334Y-36691555D01*
X63071257Y-36676443D01*
X63066284Y-36660051D01*
X63064000Y-36636859D01*
X63064000Y-36223141D01*
X63066284Y-36199949D01*
X63071257Y-36183557D01*
X63079334Y-36168445D01*
X63090202Y-36155202D01*
X63103447Y-36144333D01*
X63111106Y-36140239D01*
X63131480Y-36126626D01*
X63148807Y-36109299D01*
X63162421Y-36088924D01*
X63171798Y-36066286D01*
X63176579Y-36042252D01*
X63176579Y-36017748D01*
X63171799Y-35993715D01*
X63162421Y-35971076D01*
X63148808Y-35950702D01*
X63131481Y-35933375D01*
X63111106Y-35919761D01*
X63103447Y-35915667D01*
X63090202Y-35904798D01*
X63079334Y-35891555D01*
X63071257Y-35876443D01*
X63066284Y-35860051D01*
X63064000Y-35836859D01*
X63064000Y-35423141D01*
X63066284Y-35399949D01*
X63071257Y-35383557D01*
X63079334Y-35368445D01*
X63090202Y-35355202D01*
X63103447Y-35344333D01*
X63111106Y-35340239D01*
X63131480Y-35326626D01*
X63148807Y-35309299D01*
X63162421Y-35288924D01*
X63171798Y-35266286D01*
X63176579Y-35242252D01*
X63176579Y-35217748D01*
X63171799Y-35193715D01*
X63162421Y-35171076D01*
X63148808Y-35150702D01*
X63131481Y-35133375D01*
X63111106Y-35119761D01*
X63103447Y-35115667D01*
X63090202Y-35104798D01*
X63079334Y-35091555D01*
X63071257Y-35076443D01*
X63066284Y-35060051D01*
X63064000Y-35036859D01*
X63064000Y-34623141D01*
X63066284Y-34599949D01*
X63071257Y-34583557D01*
X63079334Y-34568445D01*
X63090202Y-34555202D01*
X63103447Y-34544333D01*
X63111106Y-34540239D01*
X63131480Y-34526626D01*
X63148807Y-34509299D01*
X63162421Y-34488924D01*
X63171798Y-34466286D01*
X63176579Y-34442252D01*
X63176579Y-34417748D01*
X63171799Y-34393715D01*
X63162421Y-34371076D01*
X63148808Y-34350702D01*
X63131481Y-34333375D01*
X63111106Y-34319761D01*
X63103447Y-34315667D01*
X63090202Y-34304798D01*
X63079334Y-34291555D01*
X63071257Y-34276443D01*
X63066284Y-34260051D01*
X63064000Y-34236859D01*
X63064000Y-33823141D01*
X63066284Y-33799949D01*
X63071257Y-33783557D01*
X63079334Y-33768445D01*
X63090202Y-33755202D01*
X63103445Y-33744334D01*
X63118557Y-33736257D01*
X63134949Y-33731284D01*
X63158141Y-33729000D01*
X64571859Y-33729000D01*
X64595051Y-33731284D01*
G37*
G36*
X68974683Y-38858725D02*
G01*
X69005143Y-38867966D01*
X69033223Y-38882974D01*
X69057831Y-38903169D01*
X69078026Y-38927777D01*
X69093034Y-38955857D01*
X69102275Y-38986317D01*
X69106000Y-39024140D01*
X69106000Y-39587860D01*
X69102275Y-39625683D01*
X69093034Y-39656143D01*
X69078026Y-39684223D01*
X69057831Y-39708831D01*
X69033223Y-39729026D01*
X69005143Y-39744034D01*
X68974683Y-39753275D01*
X68936860Y-39757000D01*
X68223140Y-39757000D01*
X68185317Y-39753275D01*
X68154857Y-39744034D01*
X68126777Y-39729026D01*
X68102169Y-39708831D01*
X68081974Y-39684223D01*
X68066966Y-39656143D01*
X68057725Y-39625683D01*
X68054000Y-39587860D01*
X68054000Y-39024140D01*
X68057725Y-38986317D01*
X68066966Y-38955857D01*
X68081974Y-38927777D01*
X68102169Y-38903169D01*
X68126777Y-38882974D01*
X68154857Y-38867966D01*
X68185317Y-38858725D01*
X68223140Y-38855000D01*
X68936860Y-38855000D01*
X68974683Y-38858725D01*
G37*
G36*
X42939683Y-38351725D02*
G01*
X42970143Y-38360966D01*
X42998223Y-38375974D01*
X43022831Y-38396169D01*
X43043026Y-38420777D01*
X43058034Y-38448857D01*
X43067275Y-38479317D01*
X43071000Y-38517140D01*
X43071000Y-39080860D01*
X43067275Y-39118683D01*
X43058034Y-39149143D01*
X43043026Y-39177223D01*
X43022831Y-39201831D01*
X42998223Y-39222026D01*
X42970143Y-39237034D01*
X42939683Y-39246275D01*
X42901860Y-39250000D01*
X42188140Y-39250000D01*
X42150317Y-39246275D01*
X42119857Y-39237034D01*
X42091777Y-39222026D01*
X42067169Y-39201831D01*
X42046974Y-39177223D01*
X42031966Y-39149143D01*
X42022725Y-39118683D01*
X42019000Y-39080860D01*
X42019000Y-38517140D01*
X42022725Y-38479317D01*
X42031966Y-38448857D01*
X42046974Y-38420777D01*
X42067169Y-38396169D01*
X42091777Y-38375974D01*
X42119857Y-38360966D01*
X42150317Y-38351725D01*
X42188140Y-38348000D01*
X42901860Y-38348000D01*
X42939683Y-38351725D01*
G37*
G36*
X53707591Y-38086085D02*
G01*
X53741569Y-38096393D01*
X53772890Y-38113134D01*
X53800339Y-38135661D01*
X53822866Y-38163110D01*
X53839607Y-38194431D01*
X53849915Y-38228409D01*
X53854000Y-38269890D01*
X53854000Y-38946110D01*
X53849915Y-38987591D01*
X53839607Y-39021569D01*
X53822866Y-39052890D01*
X53800339Y-39080339D01*
X53772890Y-39102866D01*
X53741569Y-39119607D01*
X53707591Y-39129915D01*
X53666110Y-39134000D01*
X53064890Y-39134000D01*
X53023409Y-39129915D01*
X52989431Y-39119607D01*
X52958110Y-39102866D01*
X52930661Y-39080339D01*
X52908134Y-39052890D01*
X52891393Y-39021569D01*
X52881085Y-38987591D01*
X52877000Y-38946110D01*
X52877000Y-38269890D01*
X52881085Y-38228409D01*
X52891393Y-38194431D01*
X52908134Y-38163110D01*
X52930661Y-38135661D01*
X52958110Y-38113134D01*
X52989431Y-38096393D01*
X53023409Y-38086085D01*
X53064890Y-38082000D01*
X53666110Y-38082000D01*
X53707591Y-38086085D01*
G37*
G36*
X32828591Y-38086085D02*
G01*
X32862569Y-38096393D01*
X32893890Y-38113134D01*
X32921339Y-38135661D01*
X32943866Y-38163110D01*
X32960607Y-38194431D01*
X32970915Y-38228409D01*
X32975000Y-38269890D01*
X32975000Y-38946110D01*
X32970915Y-38987591D01*
X32960607Y-39021569D01*
X32943866Y-39052890D01*
X32921339Y-39080339D01*
X32893890Y-39102866D01*
X32862569Y-39119607D01*
X32828591Y-39129915D01*
X32787110Y-39134000D01*
X32185890Y-39134000D01*
X32144409Y-39129915D01*
X32110431Y-39119607D01*
X32079110Y-39102866D01*
X32051661Y-39080339D01*
X32029134Y-39052890D01*
X32012393Y-39021569D01*
X32002085Y-38987591D01*
X31998000Y-38946110D01*
X31998000Y-38269890D01*
X32002085Y-38228409D01*
X32012393Y-38194431D01*
X32029134Y-38163110D01*
X32051661Y-38135661D01*
X32079110Y-38113134D01*
X32110431Y-38096393D01*
X32144409Y-38086085D01*
X32185890Y-38082000D01*
X32787110Y-38082000D01*
X32828591Y-38086085D01*
G37*
G36*
X52132591Y-38086085D02*
G01*
X52166569Y-38096393D01*
X52197890Y-38113134D01*
X52225339Y-38135661D01*
X52247866Y-38163110D01*
X52264607Y-38194431D01*
X52274915Y-38228409D01*
X52279000Y-38269890D01*
X52279000Y-38946110D01*
X52274915Y-38987591D01*
X52264607Y-39021569D01*
X52247866Y-39052890D01*
X52225339Y-39080339D01*
X52197890Y-39102866D01*
X52166569Y-39119607D01*
X52132591Y-39129915D01*
X52091110Y-39134000D01*
X51489890Y-39134000D01*
X51448409Y-39129915D01*
X51414431Y-39119607D01*
X51383110Y-39102866D01*
X51355661Y-39080339D01*
X51333134Y-39052890D01*
X51316393Y-39021569D01*
X51306085Y-38987591D01*
X51302000Y-38946110D01*
X51302000Y-38269890D01*
X51306085Y-38228409D01*
X51316393Y-38194431D01*
X51333134Y-38163110D01*
X51355661Y-38135661D01*
X51383110Y-38113134D01*
X51414431Y-38096393D01*
X51448409Y-38086085D01*
X51489890Y-38082000D01*
X52091110Y-38082000D01*
X52132591Y-38086085D01*
G37*
G36*
X34403591Y-38086085D02*
G01*
X34437569Y-38096393D01*
X34468890Y-38113134D01*
X34496339Y-38135661D01*
X34518866Y-38163110D01*
X34535607Y-38194431D01*
X34545915Y-38228409D01*
X34550000Y-38269890D01*
X34550000Y-38946110D01*
X34545915Y-38987591D01*
X34535607Y-39021569D01*
X34518866Y-39052890D01*
X34496339Y-39080339D01*
X34468890Y-39102866D01*
X34437569Y-39119607D01*
X34403591Y-39129915D01*
X34362110Y-39134000D01*
X33760890Y-39134000D01*
X33719409Y-39129915D01*
X33685431Y-39119607D01*
X33654110Y-39102866D01*
X33626661Y-39080339D01*
X33604134Y-39052890D01*
X33587393Y-39021569D01*
X33577085Y-38987591D01*
X33573000Y-38946110D01*
X33573000Y-38269890D01*
X33577085Y-38228409D01*
X33587393Y-38194431D01*
X33604134Y-38163110D01*
X33626661Y-38135661D01*
X33654110Y-38113134D01*
X33685431Y-38096393D01*
X33719409Y-38086085D01*
X33760890Y-38082000D01*
X34362110Y-38082000D01*
X34403591Y-38086085D01*
G37*
G36*
X38765000Y-39050000D02*
G01*
X37603000Y-39050000D01*
X37603000Y-38298000D01*
X38765000Y-38298000D01*
X38765000Y-39050000D01*
G37*
G36*
X73773512Y-37203927D02*
G01*
X73922812Y-37233624D01*
X74086784Y-37301544D01*
X74234354Y-37400147D01*
X74359853Y-37525646D01*
X74458456Y-37673216D01*
X74526376Y-37837188D01*
X74546400Y-37937860D01*
X74559983Y-38006143D01*
X74561000Y-38011259D01*
X74561000Y-38188741D01*
X74526376Y-38362812D01*
X74458456Y-38526784D01*
X74359853Y-38674354D01*
X74234354Y-38799853D01*
X74086784Y-38898456D01*
X73922812Y-38966376D01*
X73773512Y-38996073D01*
X73748742Y-39001000D01*
X73571258Y-39001000D01*
X73546488Y-38996073D01*
X73397188Y-38966376D01*
X73233216Y-38898456D01*
X73085646Y-38799853D01*
X72960147Y-38674354D01*
X72861544Y-38526784D01*
X72793624Y-38362812D01*
X72759000Y-38188741D01*
X72759000Y-38011259D01*
X72760018Y-38006143D01*
X72773600Y-37937860D01*
X72793624Y-37837188D01*
X72861544Y-37673216D01*
X72960147Y-37525646D01*
X73085646Y-37400147D01*
X73233216Y-37301544D01*
X73397188Y-37233624D01*
X73546488Y-37203927D01*
X73571258Y-37199000D01*
X73748742Y-37199000D01*
X73773512Y-37203927D01*
G37*
G36*
X27741000Y-38931000D02*
G01*
X25739000Y-38931000D01*
X25739000Y-37829000D01*
X27741000Y-37829000D01*
X27741000Y-38931000D01*
G37*
G36*
X41037000Y-38475000D02*
G01*
X39735000Y-38475000D01*
X39735000Y-37473000D01*
X41037000Y-37473000D01*
X41037000Y-38475000D01*
G37*
G36*
X68974683Y-37208725D02*
G01*
X69005143Y-37217966D01*
X69033223Y-37232974D01*
X69057831Y-37253169D01*
X69078026Y-37277777D01*
X69093034Y-37305857D01*
X69102275Y-37336317D01*
X69106000Y-37374140D01*
X69106000Y-37937860D01*
X69102275Y-37975683D01*
X69093034Y-38006143D01*
X69078026Y-38034223D01*
X69057831Y-38058831D01*
X69033223Y-38079026D01*
X69005143Y-38094034D01*
X68974683Y-38103275D01*
X68936860Y-38107000D01*
X68223140Y-38107000D01*
X68185317Y-38103275D01*
X68154857Y-38094034D01*
X68126777Y-38079026D01*
X68102169Y-38058831D01*
X68081974Y-38034223D01*
X68066966Y-38006143D01*
X68057725Y-37975683D01*
X68054000Y-37937860D01*
X68054000Y-37374140D01*
X68057725Y-37336317D01*
X68066966Y-37305857D01*
X68081974Y-37277777D01*
X68102169Y-37253169D01*
X68126777Y-37232974D01*
X68154857Y-37217966D01*
X68185317Y-37208725D01*
X68223140Y-37205000D01*
X68936860Y-37205000D01*
X68974683Y-37208725D01*
G37*
G36*
X71499591Y-37133085D02*
G01*
X71533569Y-37143393D01*
X71564890Y-37160134D01*
X71592339Y-37182661D01*
X71614866Y-37210110D01*
X71631607Y-37241431D01*
X71641915Y-37275409D01*
X71646000Y-37316890D01*
X71646000Y-37918110D01*
X71641915Y-37959591D01*
X71631607Y-37993569D01*
X71614866Y-38024890D01*
X71592339Y-38052339D01*
X71564890Y-38074866D01*
X71533569Y-38091607D01*
X71499591Y-38101915D01*
X71458110Y-38106000D01*
X70781890Y-38106000D01*
X70740409Y-38101915D01*
X70706431Y-38091607D01*
X70675110Y-38074866D01*
X70647661Y-38052339D01*
X70625134Y-38024890D01*
X70608393Y-37993569D01*
X70598085Y-37959591D01*
X70594000Y-37918110D01*
X70594000Y-37316890D01*
X70598085Y-37275409D01*
X70608393Y-37241431D01*
X70625134Y-37210110D01*
X70647661Y-37182661D01*
X70675110Y-37160134D01*
X70706431Y-37143393D01*
X70740409Y-37133085D01*
X70781890Y-37129000D01*
X71458110Y-37129000D01*
X71499591Y-37133085D01*
G37*
G36*
X42924591Y-36625085D02*
G01*
X42958569Y-36635393D01*
X42989890Y-36652134D01*
X43017339Y-36674661D01*
X43039866Y-36702110D01*
X43056607Y-36733431D01*
X43066915Y-36767409D01*
X43071000Y-36808890D01*
X43071000Y-37410110D01*
X43066915Y-37451591D01*
X43056607Y-37485569D01*
X43039866Y-37516890D01*
X43017339Y-37544339D01*
X42989890Y-37566866D01*
X42958569Y-37583607D01*
X42924591Y-37593915D01*
X42883110Y-37598000D01*
X42206890Y-37598000D01*
X42165409Y-37593915D01*
X42131431Y-37583607D01*
X42100110Y-37566866D01*
X42072661Y-37544339D01*
X42050134Y-37516890D01*
X42033393Y-37485569D01*
X42023085Y-37451591D01*
X42019000Y-37410110D01*
X42019000Y-36808890D01*
X42023085Y-36767409D01*
X42033393Y-36733431D01*
X42050134Y-36702110D01*
X42072661Y-36674661D01*
X42100110Y-36652134D01*
X42131431Y-36635393D01*
X42165409Y-36625085D01*
X42206890Y-36621000D01*
X42883110Y-36621000D01*
X42924591Y-36625085D01*
G37*
G36*
X34403591Y-36308085D02*
G01*
X34437569Y-36318393D01*
X34468890Y-36335134D01*
X34496339Y-36357661D01*
X34518866Y-36385110D01*
X34535607Y-36416431D01*
X34545915Y-36450409D01*
X34550000Y-36491890D01*
X34550000Y-37168110D01*
X34545915Y-37209591D01*
X34535607Y-37243569D01*
X34518866Y-37274890D01*
X34496339Y-37302339D01*
X34468890Y-37324866D01*
X34437569Y-37341607D01*
X34403591Y-37351915D01*
X34362110Y-37356000D01*
X33760890Y-37356000D01*
X33719409Y-37351915D01*
X33685431Y-37341607D01*
X33654110Y-37324866D01*
X33626661Y-37302339D01*
X33604134Y-37274890D01*
X33587393Y-37243569D01*
X33577085Y-37209591D01*
X33573000Y-37168110D01*
X33573000Y-36491890D01*
X33577085Y-36450409D01*
X33587393Y-36416431D01*
X33604134Y-36385110D01*
X33626661Y-36357661D01*
X33654110Y-36335134D01*
X33685431Y-36318393D01*
X33719409Y-36308085D01*
X33760890Y-36304000D01*
X34362110Y-36304000D01*
X34403591Y-36308085D01*
G37*
G36*
X36638591Y-36308085D02*
G01*
X36672569Y-36318393D01*
X36703890Y-36335134D01*
X36731339Y-36357661D01*
X36753866Y-36385110D01*
X36770607Y-36416431D01*
X36780915Y-36450409D01*
X36785000Y-36491890D01*
X36785000Y-37168110D01*
X36780915Y-37209591D01*
X36770607Y-37243569D01*
X36753866Y-37274890D01*
X36731339Y-37302339D01*
X36703890Y-37324866D01*
X36672569Y-37341607D01*
X36638591Y-37351915D01*
X36597110Y-37356000D01*
X35995890Y-37356000D01*
X35954409Y-37351915D01*
X35920431Y-37341607D01*
X35889110Y-37324866D01*
X35861661Y-37302339D01*
X35839134Y-37274890D01*
X35822393Y-37243569D01*
X35812085Y-37209591D01*
X35808000Y-37168110D01*
X35808000Y-36491890D01*
X35812085Y-36450409D01*
X35822393Y-36416431D01*
X35839134Y-36385110D01*
X35861661Y-36357661D01*
X35889110Y-36335134D01*
X35920431Y-36318393D01*
X35954409Y-36308085D01*
X35995890Y-36304000D01*
X36597110Y-36304000D01*
X36638591Y-36308085D01*
G37*
G36*
X38213591Y-36308085D02*
G01*
X38247569Y-36318393D01*
X38278890Y-36335134D01*
X38306339Y-36357661D01*
X38328866Y-36385110D01*
X38345607Y-36416431D01*
X38355915Y-36450409D01*
X38360000Y-36491890D01*
X38360000Y-37168110D01*
X38355915Y-37209591D01*
X38345607Y-37243569D01*
X38328866Y-37274890D01*
X38306339Y-37302339D01*
X38278890Y-37324866D01*
X38247569Y-37341607D01*
X38213591Y-37351915D01*
X38172110Y-37356000D01*
X37570890Y-37356000D01*
X37529409Y-37351915D01*
X37495431Y-37341607D01*
X37464110Y-37324866D01*
X37436661Y-37302339D01*
X37414134Y-37274890D01*
X37397393Y-37243569D01*
X37387085Y-37209591D01*
X37383000Y-37168110D01*
X37383000Y-36491890D01*
X37387085Y-36450409D01*
X37397393Y-36416431D01*
X37414134Y-36385110D01*
X37436661Y-36357661D01*
X37464110Y-36335134D01*
X37495431Y-36318393D01*
X37529409Y-36308085D01*
X37570890Y-36304000D01*
X38172110Y-36304000D01*
X38213591Y-36308085D01*
G37*
G36*
X32828591Y-36308085D02*
G01*
X32862569Y-36318393D01*
X32893890Y-36335134D01*
X32921339Y-36357661D01*
X32943866Y-36385110D01*
X32960607Y-36416431D01*
X32970915Y-36450409D01*
X32975000Y-36491890D01*
X32975000Y-37168110D01*
X32970915Y-37209591D01*
X32960607Y-37243569D01*
X32943866Y-37274890D01*
X32921339Y-37302339D01*
X32893890Y-37324866D01*
X32862569Y-37341607D01*
X32828591Y-37351915D01*
X32787110Y-37356000D01*
X32185890Y-37356000D01*
X32144409Y-37351915D01*
X32110431Y-37341607D01*
X32079110Y-37324866D01*
X32051661Y-37302339D01*
X32029134Y-37274890D01*
X32012393Y-37243569D01*
X32002085Y-37209591D01*
X31998000Y-37168110D01*
X31998000Y-36491890D01*
X32002085Y-36450409D01*
X32012393Y-36416431D01*
X32029134Y-36385110D01*
X32051661Y-36357661D01*
X32079110Y-36335134D01*
X32110431Y-36318393D01*
X32144409Y-36308085D01*
X32185890Y-36304000D01*
X32787110Y-36304000D01*
X32828591Y-36308085D01*
G37*
G36*
X52132591Y-36308085D02*
G01*
X52166569Y-36318393D01*
X52197890Y-36335134D01*
X52225339Y-36357661D01*
X52247866Y-36385110D01*
X52264607Y-36416431D01*
X52274915Y-36450409D01*
X52279000Y-36491890D01*
X52279000Y-37168110D01*
X52274915Y-37209591D01*
X52264607Y-37243569D01*
X52247866Y-37274890D01*
X52225339Y-37302339D01*
X52197890Y-37324866D01*
X52166569Y-37341607D01*
X52132591Y-37351915D01*
X52091110Y-37356000D01*
X51489890Y-37356000D01*
X51448409Y-37351915D01*
X51414431Y-37341607D01*
X51383110Y-37324866D01*
X51355661Y-37302339D01*
X51333134Y-37274890D01*
X51316393Y-37243569D01*
X51306085Y-37209591D01*
X51302000Y-37168110D01*
X51302000Y-36491890D01*
X51306085Y-36450409D01*
X51316393Y-36416431D01*
X51333134Y-36385110D01*
X51355661Y-36357661D01*
X51383110Y-36335134D01*
X51414431Y-36318393D01*
X51448409Y-36308085D01*
X51489890Y-36304000D01*
X52091110Y-36304000D01*
X52132591Y-36308085D01*
G37*
G36*
X53707591Y-36308085D02*
G01*
X53741569Y-36318393D01*
X53772890Y-36335134D01*
X53800339Y-36357661D01*
X53822866Y-36385110D01*
X53839607Y-36416431D01*
X53849915Y-36450409D01*
X53854000Y-36491890D01*
X53854000Y-37168110D01*
X53849915Y-37209591D01*
X53839607Y-37243569D01*
X53822866Y-37274890D01*
X53800339Y-37302339D01*
X53772890Y-37324866D01*
X53741569Y-37341607D01*
X53707591Y-37351915D01*
X53666110Y-37356000D01*
X53064890Y-37356000D01*
X53023409Y-37351915D01*
X52989431Y-37341607D01*
X52958110Y-37324866D01*
X52930661Y-37302339D01*
X52908134Y-37274890D01*
X52891393Y-37243569D01*
X52881085Y-37209591D01*
X52877000Y-37168110D01*
X52877000Y-36491890D01*
X52881085Y-36450409D01*
X52891393Y-36416431D01*
X52908134Y-36385110D01*
X52930661Y-36357661D01*
X52958110Y-36335134D01*
X52989431Y-36318393D01*
X53023409Y-36308085D01*
X53064890Y-36304000D01*
X53666110Y-36304000D01*
X53707591Y-36308085D01*
G37*
G36*
X27741000Y-36631000D02*
G01*
X25739000Y-36631000D01*
X25739000Y-34729000D01*
X27741000Y-34729000D01*
X27741000Y-36631000D01*
G37*
G36*
X71499591Y-35558085D02*
G01*
X71533569Y-35568393D01*
X71564890Y-35585134D01*
X71592339Y-35607661D01*
X71614866Y-35635110D01*
X71631607Y-35666431D01*
X71641915Y-35700409D01*
X71646000Y-35741890D01*
X71646000Y-36343110D01*
X71641915Y-36384591D01*
X71631607Y-36418569D01*
X71614866Y-36449890D01*
X71592339Y-36477339D01*
X71564890Y-36499866D01*
X71533569Y-36516607D01*
X71499591Y-36526915D01*
X71458110Y-36531000D01*
X70781890Y-36531000D01*
X70740409Y-36526915D01*
X70706431Y-36516607D01*
X70675110Y-36499866D01*
X70647661Y-36477339D01*
X70625134Y-36449890D01*
X70608393Y-36418569D01*
X70598085Y-36384591D01*
X70594000Y-36343110D01*
X70594000Y-35741890D01*
X70598085Y-35700409D01*
X70608393Y-35666431D01*
X70625134Y-35635110D01*
X70647661Y-35607661D01*
X70675110Y-35585134D01*
X70706431Y-35568393D01*
X70740409Y-35558085D01*
X70781890Y-35554000D01*
X71458110Y-35554000D01*
X71499591Y-35558085D01*
G37*
G36*
X73773512Y-34663927D02*
G01*
X73922812Y-34693624D01*
X74086784Y-34761544D01*
X74234354Y-34860147D01*
X74359853Y-34985646D01*
X74458456Y-35133216D01*
X74526376Y-35297188D01*
X74561000Y-35471259D01*
X74561000Y-35648741D01*
X74526376Y-35822812D01*
X74458456Y-35986784D01*
X74359853Y-36134354D01*
X74234354Y-36259853D01*
X74086784Y-36358456D01*
X73922812Y-36426376D01*
X73780012Y-36454780D01*
X73748742Y-36461000D01*
X73571258Y-36461000D01*
X73539988Y-36454780D01*
X73397188Y-36426376D01*
X73233216Y-36358456D01*
X73085646Y-36259853D01*
X72960147Y-36134354D01*
X72861544Y-35986784D01*
X72793624Y-35822812D01*
X72759000Y-35648741D01*
X72759000Y-35471259D01*
X72793624Y-35297188D01*
X72861544Y-35133216D01*
X72960147Y-34985646D01*
X73085646Y-34860147D01*
X73233216Y-34761544D01*
X73397188Y-34693624D01*
X73546488Y-34663927D01*
X73571258Y-34659000D01*
X73748742Y-34659000D01*
X73773512Y-34663927D01*
G37*
G36*
X68959591Y-35482085D02*
G01*
X68993569Y-35492393D01*
X69024890Y-35509134D01*
X69052339Y-35531661D01*
X69074866Y-35559110D01*
X69091607Y-35590431D01*
X69101915Y-35624409D01*
X69106000Y-35665890D01*
X69106000Y-36267110D01*
X69101915Y-36308591D01*
X69091607Y-36342569D01*
X69074866Y-36373890D01*
X69052339Y-36401339D01*
X69024890Y-36423866D01*
X68993569Y-36440607D01*
X68959591Y-36450915D01*
X68918110Y-36455000D01*
X68241890Y-36455000D01*
X68200409Y-36450915D01*
X68166431Y-36440607D01*
X68135110Y-36423866D01*
X68107661Y-36401339D01*
X68085134Y-36373890D01*
X68068393Y-36342569D01*
X68058085Y-36308591D01*
X68054000Y-36267110D01*
X68054000Y-35665890D01*
X68058085Y-35624409D01*
X68068393Y-35590431D01*
X68085134Y-35559110D01*
X68107661Y-35531661D01*
X68135110Y-35509134D01*
X68166431Y-35492393D01*
X68200409Y-35482085D01*
X68241890Y-35478000D01*
X68918110Y-35478000D01*
X68959591Y-35482085D01*
G37*
G36*
X42924591Y-35050085D02*
G01*
X42958569Y-35060393D01*
X42989890Y-35077134D01*
X43017339Y-35099661D01*
X43039866Y-35127110D01*
X43056607Y-35158431D01*
X43066915Y-35192409D01*
X43071000Y-35233890D01*
X43071000Y-35835110D01*
X43066915Y-35876591D01*
X43056607Y-35910569D01*
X43039866Y-35941890D01*
X43017339Y-35969339D01*
X42989890Y-35991866D01*
X42958569Y-36008607D01*
X42924591Y-36018915D01*
X42883110Y-36023000D01*
X42206890Y-36023000D01*
X42165409Y-36018915D01*
X42131431Y-36008607D01*
X42100110Y-35991866D01*
X42072661Y-35969339D01*
X42050134Y-35941890D01*
X42033393Y-35910569D01*
X42023085Y-35876591D01*
X42019000Y-35835110D01*
X42019000Y-35233890D01*
X42023085Y-35192409D01*
X42033393Y-35158431D01*
X42050134Y-35127110D01*
X42072661Y-35099661D01*
X42100110Y-35077134D01*
X42131431Y-35060393D01*
X42165409Y-35050085D01*
X42206890Y-35046000D01*
X42883110Y-35046000D01*
X42924591Y-35050085D01*
G37*
G36*
X37701434Y-31533686D02*
G01*
X37741284Y-31545774D01*
X37777999Y-31565399D01*
X37810186Y-31591814D01*
X37836601Y-31624001D01*
X37856226Y-31660716D01*
X37868314Y-31700566D01*
X37873000Y-31748141D01*
X37873000Y-34911859D01*
X37868314Y-34959434D01*
X37856226Y-34999284D01*
X37836601Y-35035999D01*
X37810186Y-35068186D01*
X37777999Y-35094601D01*
X37741284Y-35114226D01*
X37701434Y-35126314D01*
X37653859Y-35131000D01*
X36990141Y-35131000D01*
X36942566Y-35126314D01*
X36902716Y-35114226D01*
X36866001Y-35094601D01*
X36833814Y-35068186D01*
X36807399Y-35035999D01*
X36787774Y-34999284D01*
X36775686Y-34959434D01*
X36771000Y-34911859D01*
X36771000Y-31748141D01*
X36775686Y-31700566D01*
X36787774Y-31660716D01*
X36807399Y-31624001D01*
X36833814Y-31591814D01*
X36866001Y-31565399D01*
X36902716Y-31545774D01*
X36942566Y-31533686D01*
X36990141Y-31529000D01*
X37653859Y-31529000D01*
X37701434Y-31533686D01*
G37*
G36*
X35701434Y-31533686D02*
G01*
X35741284Y-31545774D01*
X35777999Y-31565399D01*
X35810186Y-31591814D01*
X35836601Y-31624001D01*
X35856226Y-31660716D01*
X35868314Y-31700566D01*
X35873000Y-31748141D01*
X35873000Y-34911859D01*
X35868314Y-34959434D01*
X35856226Y-34999284D01*
X35836601Y-35035999D01*
X35810186Y-35068186D01*
X35777999Y-35094601D01*
X35741284Y-35114226D01*
X35701434Y-35126314D01*
X35653859Y-35131000D01*
X34990141Y-35131000D01*
X34942566Y-35126314D01*
X34902716Y-35114226D01*
X34866001Y-35094601D01*
X34833814Y-35068186D01*
X34807399Y-35035999D01*
X34787774Y-34999284D01*
X34775686Y-34959434D01*
X34771000Y-34911859D01*
X34771000Y-31748141D01*
X34775686Y-31700566D01*
X34787774Y-31660716D01*
X34807399Y-31624001D01*
X34833814Y-31591814D01*
X34866001Y-31565399D01*
X34902716Y-31545774D01*
X34942566Y-31533686D01*
X34990141Y-31529000D01*
X35653859Y-31529000D01*
X35701434Y-31533686D01*
G37*
G36*
X68959591Y-33907085D02*
G01*
X68993569Y-33917393D01*
X69024890Y-33934134D01*
X69052339Y-33956661D01*
X69074866Y-33984110D01*
X69091607Y-34015431D01*
X69101915Y-34049409D01*
X69106000Y-34090890D01*
X69106000Y-34692110D01*
X69101915Y-34733591D01*
X69091607Y-34767569D01*
X69074866Y-34798890D01*
X69052339Y-34826339D01*
X69024890Y-34848866D01*
X68993569Y-34865607D01*
X68959591Y-34875915D01*
X68918110Y-34880000D01*
X68241890Y-34880000D01*
X68200409Y-34875915D01*
X68166431Y-34865607D01*
X68135110Y-34848866D01*
X68107661Y-34826339D01*
X68085134Y-34798890D01*
X68068393Y-34767569D01*
X68058085Y-34733591D01*
X68054000Y-34692110D01*
X68054000Y-34090890D01*
X68058085Y-34049409D01*
X68068393Y-34015431D01*
X68085134Y-33984110D01*
X68107661Y-33956661D01*
X68135110Y-33934134D01*
X68166431Y-33917393D01*
X68200409Y-33907085D01*
X68241890Y-33903000D01*
X68918110Y-33903000D01*
X68959591Y-33907085D01*
G37*
G36*
X27441000Y-34331000D02*
G01*
X26039000Y-34331000D01*
X26039000Y-32579000D01*
X27441000Y-32579000D01*
X27441000Y-34331000D01*
G37*
G36*
X73773512Y-32123927D02*
G01*
X73922812Y-32153624D01*
X74086784Y-32221544D01*
X74234354Y-32320147D01*
X74359853Y-32445646D01*
X74458456Y-32593216D01*
X74526376Y-32757188D01*
X74561000Y-32931259D01*
X74561000Y-33108741D01*
X74526376Y-33282812D01*
X74458456Y-33446784D01*
X74359853Y-33594354D01*
X74234354Y-33719853D01*
X74086784Y-33818456D01*
X73922812Y-33886376D01*
X73773512Y-33916073D01*
X73748742Y-33921000D01*
X73571258Y-33921000D01*
X73546488Y-33916073D01*
X73397188Y-33886376D01*
X73233216Y-33818456D01*
X73085646Y-33719853D01*
X72960147Y-33594354D01*
X72861544Y-33446784D01*
X72793624Y-33282812D01*
X72759000Y-33108741D01*
X72759000Y-32931259D01*
X72793624Y-32757188D01*
X72861544Y-32593216D01*
X72960147Y-32445646D01*
X73085646Y-32320147D01*
X73233216Y-32221544D01*
X73397188Y-32153624D01*
X73546488Y-32123927D01*
X73571258Y-32119000D01*
X73748742Y-32119000D01*
X73773512Y-32123927D01*
G37*
G36*
X52152560Y-32498205D02*
G01*
X52187713Y-32508869D01*
X52220110Y-32526186D01*
X52248509Y-32549491D01*
X52271814Y-32577890D01*
X52289131Y-32610287D01*
X52299795Y-32645440D01*
X52304000Y-32688140D01*
X52304000Y-33351860D01*
X52299795Y-33394560D01*
X52289131Y-33429713D01*
X52271814Y-33462110D01*
X52248509Y-33490509D01*
X52220110Y-33513814D01*
X52187713Y-33531131D01*
X52152560Y-33541795D01*
X52109860Y-33546000D01*
X51496140Y-33546000D01*
X51453440Y-33541795D01*
X51418287Y-33531131D01*
X51385890Y-33513814D01*
X51357491Y-33490509D01*
X51334186Y-33462110D01*
X51316869Y-33429713D01*
X51306205Y-33394560D01*
X51302000Y-33351860D01*
X51302000Y-32688140D01*
X51306205Y-32645440D01*
X51316869Y-32610287D01*
X51334186Y-32577890D01*
X51357491Y-32549491D01*
X51385890Y-32526186D01*
X51418287Y-32508869D01*
X51453440Y-32498205D01*
X51496140Y-32494000D01*
X52109860Y-32494000D01*
X52152560Y-32498205D01*
G37*
G36*
X53702560Y-32498205D02*
G01*
X53737713Y-32508869D01*
X53770110Y-32526186D01*
X53798509Y-32549491D01*
X53821814Y-32577890D01*
X53839131Y-32610287D01*
X53849795Y-32645440D01*
X53854000Y-32688140D01*
X53854000Y-33351860D01*
X53849795Y-33394560D01*
X53839131Y-33429713D01*
X53821814Y-33462110D01*
X53798509Y-33490509D01*
X53770110Y-33513814D01*
X53737713Y-33531131D01*
X53702560Y-33541795D01*
X53659860Y-33546000D01*
X53046140Y-33546000D01*
X53003440Y-33541795D01*
X52968287Y-33531131D01*
X52935890Y-33513814D01*
X52907491Y-33490509D01*
X52884186Y-33462110D01*
X52866869Y-33429713D01*
X52856205Y-33394560D01*
X52852000Y-33351860D01*
X52852000Y-32688140D01*
X52856205Y-32645440D01*
X52866869Y-32610287D01*
X52884186Y-32577890D01*
X52907491Y-32549491D01*
X52935890Y-32526186D01*
X52968287Y-32508869D01*
X53003440Y-32498205D01*
X53046140Y-32494000D01*
X53659860Y-32494000D01*
X53702560Y-32498205D01*
G37*
G36*
X57120051Y-31856284D02*
G01*
X57136443Y-31861257D01*
X57151555Y-31869334D01*
X57164798Y-31880202D01*
X57175667Y-31893447D01*
X57179761Y-31901106D01*
X57193374Y-31921480D01*
X57210701Y-31938807D01*
X57231076Y-31952421D01*
X57253714Y-31961798D01*
X57277748Y-31966579D01*
X57302252Y-31966579D01*
X57326285Y-31961799D01*
X57348924Y-31952421D01*
X57369298Y-31938808D01*
X57386625Y-31921481D01*
X57400239Y-31901106D01*
X57404333Y-31893447D01*
X57415202Y-31880202D01*
X57428445Y-31869334D01*
X57443557Y-31861257D01*
X57459949Y-31856284D01*
X57483141Y-31854000D01*
X57896859Y-31854000D01*
X57920051Y-31856284D01*
X57936443Y-31861257D01*
X57951555Y-31869334D01*
X57964798Y-31880202D01*
X57975667Y-31893447D01*
X57979761Y-31901106D01*
X57993374Y-31921480D01*
X58010701Y-31938807D01*
X58031076Y-31952421D01*
X58053714Y-31961798D01*
X58077748Y-31966579D01*
X58102252Y-31966579D01*
X58126285Y-31961799D01*
X58148924Y-31952421D01*
X58169298Y-31938808D01*
X58186625Y-31921481D01*
X58200239Y-31901106D01*
X58204333Y-31893447D01*
X58215202Y-31880202D01*
X58228445Y-31869334D01*
X58243557Y-31861257D01*
X58259949Y-31856284D01*
X58283141Y-31854000D01*
X58696859Y-31854000D01*
X58720051Y-31856284D01*
X58736443Y-31861257D01*
X58751555Y-31869334D01*
X58764798Y-31880202D01*
X58775667Y-31893447D01*
X58779761Y-31901106D01*
X58793374Y-31921480D01*
X58810701Y-31938807D01*
X58831076Y-31952421D01*
X58853714Y-31961798D01*
X58877748Y-31966579D01*
X58902252Y-31966579D01*
X58926285Y-31961799D01*
X58948924Y-31952421D01*
X58969298Y-31938808D01*
X58986625Y-31921481D01*
X59000239Y-31901106D01*
X59004333Y-31893447D01*
X59015202Y-31880202D01*
X59028445Y-31869334D01*
X59043557Y-31861257D01*
X59059949Y-31856284D01*
X59083141Y-31854000D01*
X59496859Y-31854000D01*
X59520051Y-31856284D01*
X59536443Y-31861257D01*
X59551555Y-31869334D01*
X59564798Y-31880202D01*
X59575667Y-31893447D01*
X59579761Y-31901106D01*
X59593374Y-31921480D01*
X59610701Y-31938807D01*
X59631076Y-31952421D01*
X59653714Y-31961798D01*
X59677748Y-31966579D01*
X59702252Y-31966579D01*
X59726285Y-31961799D01*
X59748924Y-31952421D01*
X59769298Y-31938808D01*
X59786625Y-31921481D01*
X59800239Y-31901106D01*
X59804333Y-31893447D01*
X59815202Y-31880202D01*
X59828445Y-31869334D01*
X59843557Y-31861257D01*
X59859949Y-31856284D01*
X59883141Y-31854000D01*
X60296859Y-31854000D01*
X60320051Y-31856284D01*
X60336443Y-31861257D01*
X60351555Y-31869334D01*
X60364798Y-31880202D01*
X60375667Y-31893447D01*
X60379761Y-31901106D01*
X60393374Y-31921480D01*
X60410701Y-31938807D01*
X60431076Y-31952421D01*
X60453714Y-31961798D01*
X60477748Y-31966579D01*
X60502252Y-31966579D01*
X60526285Y-31961799D01*
X60548924Y-31952421D01*
X60569298Y-31938808D01*
X60586625Y-31921481D01*
X60600239Y-31901106D01*
X60604333Y-31893447D01*
X60615202Y-31880202D01*
X60628445Y-31869334D01*
X60643557Y-31861257D01*
X60659949Y-31856284D01*
X60683141Y-31854000D01*
X61096859Y-31854000D01*
X61120051Y-31856284D01*
X61136443Y-31861257D01*
X61151555Y-31869334D01*
X61164798Y-31880202D01*
X61175667Y-31893447D01*
X61179761Y-31901106D01*
X61193374Y-31921480D01*
X61210701Y-31938807D01*
X61231076Y-31952421D01*
X61253714Y-31961798D01*
X61277748Y-31966579D01*
X61302252Y-31966579D01*
X61326285Y-31961799D01*
X61348924Y-31952421D01*
X61369298Y-31938808D01*
X61386625Y-31921481D01*
X61400239Y-31901106D01*
X61404333Y-31893447D01*
X61415202Y-31880202D01*
X61428445Y-31869334D01*
X61443557Y-31861257D01*
X61459949Y-31856284D01*
X61483141Y-31854000D01*
X61896859Y-31854000D01*
X61920051Y-31856284D01*
X61936443Y-31861257D01*
X61951555Y-31869334D01*
X61964798Y-31880202D01*
X61975667Y-31893447D01*
X61979761Y-31901106D01*
X61993374Y-31921480D01*
X62010701Y-31938807D01*
X62031076Y-31952421D01*
X62053714Y-31961798D01*
X62077748Y-31966579D01*
X62102252Y-31966579D01*
X62126285Y-31961799D01*
X62148924Y-31952421D01*
X62169298Y-31938808D01*
X62186625Y-31921481D01*
X62200239Y-31901106D01*
X62204333Y-31893447D01*
X62215202Y-31880202D01*
X62228445Y-31869334D01*
X62243557Y-31861257D01*
X62259949Y-31856284D01*
X62283141Y-31854000D01*
X62696859Y-31854000D01*
X62720051Y-31856284D01*
X62736443Y-31861257D01*
X62751555Y-31869334D01*
X62764798Y-31880202D01*
X62775666Y-31893445D01*
X62783743Y-31908557D01*
X62788716Y-31924949D01*
X62791000Y-31948141D01*
X62791000Y-33361859D01*
X62788716Y-33385051D01*
X62783743Y-33401443D01*
X62775666Y-33416555D01*
X62764798Y-33429798D01*
X62751555Y-33440666D01*
X62736443Y-33448743D01*
X62720051Y-33453716D01*
X62696859Y-33456000D01*
X62283141Y-33456000D01*
X62259949Y-33453716D01*
X62243557Y-33448743D01*
X62228445Y-33440666D01*
X62215202Y-33429798D01*
X62204333Y-33416553D01*
X62200239Y-33408894D01*
X62186626Y-33388520D01*
X62169299Y-33371193D01*
X62148924Y-33357579D01*
X62126286Y-33348202D01*
X62102252Y-33343421D01*
X62077748Y-33343421D01*
X62053715Y-33348201D01*
X62031076Y-33357579D01*
X62010702Y-33371192D01*
X61993375Y-33388519D01*
X61979761Y-33408894D01*
X61975667Y-33416553D01*
X61964798Y-33429798D01*
X61951555Y-33440666D01*
X61936443Y-33448743D01*
X61920051Y-33453716D01*
X61896859Y-33456000D01*
X61483141Y-33456000D01*
X61459949Y-33453716D01*
X61443557Y-33448743D01*
X61428445Y-33440666D01*
X61415202Y-33429798D01*
X61404333Y-33416553D01*
X61400239Y-33408894D01*
X61386626Y-33388520D01*
X61369299Y-33371193D01*
X61348924Y-33357579D01*
X61326286Y-33348202D01*
X61302252Y-33343421D01*
X61277748Y-33343421D01*
X61253715Y-33348201D01*
X61231076Y-33357579D01*
X61210702Y-33371192D01*
X61193375Y-33388519D01*
X61179761Y-33408894D01*
X61175667Y-33416553D01*
X61164798Y-33429798D01*
X61151555Y-33440666D01*
X61136443Y-33448743D01*
X61120051Y-33453716D01*
X61096859Y-33456000D01*
X60683141Y-33456000D01*
X60659949Y-33453716D01*
X60643557Y-33448743D01*
X60628445Y-33440666D01*
X60615202Y-33429798D01*
X60604333Y-33416553D01*
X60600239Y-33408894D01*
X60586626Y-33388520D01*
X60569299Y-33371193D01*
X60548924Y-33357579D01*
X60526286Y-33348202D01*
X60502252Y-33343421D01*
X60477748Y-33343421D01*
X60453715Y-33348201D01*
X60431076Y-33357579D01*
X60410702Y-33371192D01*
X60393375Y-33388519D01*
X60379761Y-33408894D01*
X60375667Y-33416553D01*
X60364798Y-33429798D01*
X60351555Y-33440666D01*
X60336443Y-33448743D01*
X60320051Y-33453716D01*
X60296859Y-33456000D01*
X59883141Y-33456000D01*
X59859949Y-33453716D01*
X59843557Y-33448743D01*
X59828445Y-33440666D01*
X59815202Y-33429798D01*
X59804333Y-33416553D01*
X59800239Y-33408894D01*
X59786626Y-33388520D01*
X59769299Y-33371193D01*
X59748924Y-33357579D01*
X59726286Y-33348202D01*
X59702252Y-33343421D01*
X59677748Y-33343421D01*
X59653715Y-33348201D01*
X59631076Y-33357579D01*
X59610702Y-33371192D01*
X59593375Y-33388519D01*
X59579761Y-33408894D01*
X59575667Y-33416553D01*
X59564798Y-33429798D01*
X59551555Y-33440666D01*
X59536443Y-33448743D01*
X59520051Y-33453716D01*
X59496859Y-33456000D01*
X59083141Y-33456000D01*
X59059949Y-33453716D01*
X59043557Y-33448743D01*
X59028445Y-33440666D01*
X59015202Y-33429798D01*
X59004333Y-33416553D01*
X59000239Y-33408894D01*
X58986626Y-33388520D01*
X58969299Y-33371193D01*
X58948924Y-33357579D01*
X58926286Y-33348202D01*
X58902252Y-33343421D01*
X58877748Y-33343421D01*
X58853715Y-33348201D01*
X58831076Y-33357579D01*
X58810702Y-33371192D01*
X58793375Y-33388519D01*
X58779761Y-33408894D01*
X58775667Y-33416553D01*
X58764798Y-33429798D01*
X58751555Y-33440666D01*
X58736443Y-33448743D01*
X58720051Y-33453716D01*
X58696859Y-33456000D01*
X58283141Y-33456000D01*
X58259949Y-33453716D01*
X58243557Y-33448743D01*
X58228445Y-33440666D01*
X58215202Y-33429798D01*
X58204333Y-33416553D01*
X58200239Y-33408894D01*
X58186626Y-33388520D01*
X58169299Y-33371193D01*
X58148924Y-33357579D01*
X58126286Y-33348202D01*
X58102252Y-33343421D01*
X58077748Y-33343421D01*
X58053715Y-33348201D01*
X58031076Y-33357579D01*
X58010702Y-33371192D01*
X57993375Y-33388519D01*
X57979761Y-33408894D01*
X57975667Y-33416553D01*
X57964798Y-33429798D01*
X57951555Y-33440666D01*
X57936443Y-33448743D01*
X57920051Y-33453716D01*
X57896859Y-33456000D01*
X57483141Y-33456000D01*
X57459949Y-33453716D01*
X57443557Y-33448743D01*
X57428445Y-33440666D01*
X57415202Y-33429798D01*
X57404333Y-33416553D01*
X57400239Y-33408894D01*
X57386626Y-33388520D01*
X57369299Y-33371193D01*
X57348924Y-33357579D01*
X57326286Y-33348202D01*
X57302252Y-33343421D01*
X57277748Y-33343421D01*
X57253715Y-33348201D01*
X57231076Y-33357579D01*
X57210702Y-33371192D01*
X57193375Y-33388519D01*
X57179761Y-33408894D01*
X57175667Y-33416553D01*
X57164798Y-33429798D01*
X57151555Y-33440666D01*
X57136443Y-33448743D01*
X57120051Y-33453716D01*
X57096859Y-33456000D01*
X56683141Y-33456000D01*
X56659949Y-33453716D01*
X56643557Y-33448743D01*
X56628445Y-33440666D01*
X56615202Y-33429798D01*
X56604334Y-33416555D01*
X56596257Y-33401443D01*
X56591284Y-33385051D01*
X56589000Y-33361859D01*
X56589000Y-31948141D01*
X56591284Y-31924949D01*
X56596257Y-31908557D01*
X56604334Y-31893445D01*
X56615202Y-31880202D01*
X56628445Y-31869334D01*
X56643557Y-31861257D01*
X56659949Y-31856284D01*
X56683141Y-31854000D01*
X57096859Y-31854000D01*
X57120051Y-31856284D01*
G37*
G36*
X49311000Y-33357000D02*
G01*
X47209000Y-33357000D01*
X47209000Y-28755000D01*
X49311000Y-28755000D01*
X49311000Y-33357000D01*
G37*
G36*
X28764591Y-31228085D02*
G01*
X28798569Y-31238393D01*
X28829890Y-31255134D01*
X28857339Y-31277661D01*
X28879866Y-31305110D01*
X28896607Y-31336431D01*
X28906915Y-31370409D01*
X28911000Y-31411890D01*
X28911000Y-32088110D01*
X28906915Y-32129591D01*
X28896607Y-32163569D01*
X28879866Y-32194890D01*
X28857339Y-32222339D01*
X28829890Y-32244866D01*
X28798569Y-32261607D01*
X28764591Y-32271915D01*
X28723110Y-32276000D01*
X28121890Y-32276000D01*
X28080409Y-32271915D01*
X28046431Y-32261607D01*
X28015110Y-32244866D01*
X27987661Y-32222339D01*
X27965134Y-32194890D01*
X27948393Y-32163569D01*
X27938085Y-32129591D01*
X27934000Y-32088110D01*
X27934000Y-31411890D01*
X27938085Y-31370409D01*
X27948393Y-31336431D01*
X27965134Y-31305110D01*
X27987661Y-31277661D01*
X28015110Y-31255134D01*
X28046431Y-31238393D01*
X28080409Y-31228085D01*
X28121890Y-31224000D01*
X28723110Y-31224000D01*
X28764591Y-31228085D01*
G37*
G36*
X30339591Y-31228085D02*
G01*
X30373569Y-31238393D01*
X30404890Y-31255134D01*
X30432339Y-31277661D01*
X30454866Y-31305110D01*
X30471607Y-31336431D01*
X30481915Y-31370409D01*
X30486000Y-31411890D01*
X30486000Y-32088110D01*
X30481915Y-32129591D01*
X30471607Y-32163569D01*
X30454866Y-32194890D01*
X30432339Y-32222339D01*
X30404890Y-32244866D01*
X30373569Y-32261607D01*
X30339591Y-32271915D01*
X30298110Y-32276000D01*
X29696890Y-32276000D01*
X29655409Y-32271915D01*
X29621431Y-32261607D01*
X29590110Y-32244866D01*
X29562661Y-32222339D01*
X29540134Y-32194890D01*
X29523393Y-32163569D01*
X29513085Y-32129591D01*
X29509000Y-32088110D01*
X29509000Y-31411890D01*
X29513085Y-31370409D01*
X29523393Y-31336431D01*
X29540134Y-31305110D01*
X29562661Y-31277661D01*
X29590110Y-31255134D01*
X29621431Y-31238393D01*
X29655409Y-31228085D01*
X29696890Y-31224000D01*
X30298110Y-31224000D01*
X30339591Y-31228085D01*
G37*
G36*
X64640683Y-29813725D02*
G01*
X64671143Y-29822966D01*
X64699223Y-29837974D01*
X64723831Y-29858169D01*
X64744026Y-29882777D01*
X64759034Y-29910857D01*
X64768275Y-29941317D01*
X64772000Y-29979140D01*
X64772000Y-31742860D01*
X64768275Y-31780683D01*
X64759034Y-31811143D01*
X64744026Y-31839223D01*
X64723831Y-31863831D01*
X64699223Y-31884026D01*
X64671143Y-31899034D01*
X64640683Y-31908275D01*
X64602860Y-31912000D01*
X64039140Y-31912000D01*
X64001317Y-31908275D01*
X63970857Y-31899034D01*
X63942777Y-31884026D01*
X63918169Y-31863831D01*
X63897974Y-31839223D01*
X63882966Y-31811143D01*
X63873725Y-31780683D01*
X63870000Y-31742860D01*
X63870000Y-29979140D01*
X63873725Y-29941317D01*
X63882966Y-29910857D01*
X63897974Y-29882777D01*
X63918169Y-29858169D01*
X63942777Y-29837974D01*
X63970857Y-29822966D01*
X64001317Y-29813725D01*
X64039140Y-29810000D01*
X64602860Y-29810000D01*
X64640683Y-29813725D01*
G37*
G36*
X68840683Y-29813725D02*
G01*
X68871143Y-29822966D01*
X68899223Y-29837974D01*
X68923831Y-29858169D01*
X68944026Y-29882777D01*
X68959034Y-29910857D01*
X68968275Y-29941317D01*
X68972000Y-29979140D01*
X68972000Y-31742860D01*
X68968275Y-31780683D01*
X68959034Y-31811143D01*
X68944026Y-31839223D01*
X68923831Y-31863831D01*
X68899223Y-31884026D01*
X68871143Y-31899034D01*
X68840683Y-31908275D01*
X68802860Y-31912000D01*
X68239140Y-31912000D01*
X68201317Y-31908275D01*
X68170857Y-31899034D01*
X68142777Y-31884026D01*
X68118169Y-31863831D01*
X68097974Y-31839223D01*
X68082966Y-31811143D01*
X68073725Y-31780683D01*
X68070000Y-31742860D01*
X68070000Y-29979140D01*
X68073725Y-29941317D01*
X68082966Y-29910857D01*
X68097974Y-29882777D01*
X68118169Y-29858169D01*
X68142777Y-29837974D01*
X68170857Y-29822966D01*
X68201317Y-29813725D01*
X68239140Y-29810000D01*
X68802860Y-29810000D01*
X68840683Y-29813725D01*
G37*
G36*
X52132591Y-30720085D02*
G01*
X52166569Y-30730393D01*
X52197890Y-30747134D01*
X52225339Y-30769661D01*
X52247866Y-30797110D01*
X52264607Y-30828431D01*
X52274915Y-30862409D01*
X52279000Y-30903890D01*
X52279000Y-31580110D01*
X52274915Y-31621591D01*
X52264607Y-31655569D01*
X52247866Y-31686890D01*
X52225339Y-31714339D01*
X52197890Y-31736866D01*
X52166569Y-31753607D01*
X52132591Y-31763915D01*
X52091110Y-31768000D01*
X51489890Y-31768000D01*
X51448409Y-31763915D01*
X51414431Y-31753607D01*
X51383110Y-31736866D01*
X51355661Y-31714339D01*
X51333134Y-31686890D01*
X51316393Y-31655569D01*
X51306085Y-31621591D01*
X51302000Y-31580110D01*
X51302000Y-30903890D01*
X51306085Y-30862409D01*
X51316393Y-30828431D01*
X51333134Y-30797110D01*
X51355661Y-30769661D01*
X51383110Y-30747134D01*
X51414431Y-30730393D01*
X51448409Y-30720085D01*
X51489890Y-30716000D01*
X52091110Y-30716000D01*
X52132591Y-30720085D01*
G37*
G36*
X53707591Y-30720085D02*
G01*
X53741569Y-30730393D01*
X53772890Y-30747134D01*
X53800339Y-30769661D01*
X53822866Y-30797110D01*
X53839607Y-30828431D01*
X53849915Y-30862409D01*
X53854000Y-30903890D01*
X53854000Y-31580110D01*
X53849915Y-31621591D01*
X53839607Y-31655569D01*
X53822866Y-31686890D01*
X53800339Y-31714339D01*
X53772890Y-31736866D01*
X53741569Y-31753607D01*
X53707591Y-31763915D01*
X53666110Y-31768000D01*
X53064890Y-31768000D01*
X53023409Y-31763915D01*
X52989431Y-31753607D01*
X52958110Y-31736866D01*
X52930661Y-31714339D01*
X52908134Y-31686890D01*
X52891393Y-31655569D01*
X52881085Y-31621591D01*
X52877000Y-31580110D01*
X52877000Y-30903890D01*
X52881085Y-30862409D01*
X52891393Y-30828431D01*
X52908134Y-30797110D01*
X52930661Y-30769661D01*
X52958110Y-30747134D01*
X52989431Y-30730393D01*
X53023409Y-30720085D01*
X53064890Y-30716000D01*
X53666110Y-30716000D01*
X53707591Y-30720085D01*
G37*
G36*
X28258433Y-26574893D02*
G01*
X28348657Y-26592839D01*
X28454267Y-26636585D01*
X28603621Y-26698449D01*
X28603622Y-26698450D01*
X28833086Y-26851772D01*
X29028228Y-27046914D01*
X29130675Y-27200237D01*
X29181551Y-27276379D01*
X29287161Y-27531344D01*
X29341000Y-27802012D01*
X29341000Y-28077988D01*
X29287161Y-28348656D01*
X29181551Y-28603621D01*
X29181550Y-28603622D01*
X29028228Y-28833086D01*
X28833086Y-29028228D01*
X28701592Y-29116089D01*
X28603621Y-29181551D01*
X28517105Y-29217387D01*
X28348657Y-29287161D01*
X28258433Y-29305107D01*
X28077988Y-29341000D01*
X27802012Y-29341000D01*
X27621567Y-29305107D01*
X27531343Y-29287161D01*
X27362895Y-29217387D01*
X27276379Y-29181551D01*
X27178408Y-29116089D01*
X27046914Y-29028228D01*
X26851772Y-28833086D01*
X26698450Y-28603622D01*
X26698449Y-28603621D01*
X26592839Y-28348656D01*
X26539000Y-28077988D01*
X26539000Y-27802012D01*
X26592839Y-27531344D01*
X26698449Y-27276379D01*
X26749325Y-27200237D01*
X26851772Y-27046914D01*
X27046914Y-26851772D01*
X27276378Y-26698450D01*
X27276379Y-26698449D01*
X27425733Y-26636585D01*
X27531343Y-26592839D01*
X27621567Y-26574893D01*
X27802012Y-26539000D01*
X28077988Y-26539000D01*
X28258433Y-26574893D01*
G37*
G36*
X73978433Y-26574893D02*
G01*
X74068657Y-26592839D01*
X74174267Y-26636585D01*
X74323621Y-26698449D01*
X74323622Y-26698450D01*
X74553086Y-26851772D01*
X74748228Y-27046914D01*
X74850675Y-27200237D01*
X74901551Y-27276379D01*
X75007161Y-27531344D01*
X75061000Y-27802012D01*
X75061000Y-28077988D01*
X75007161Y-28348656D01*
X74901551Y-28603621D01*
X74901550Y-28603622D01*
X74748228Y-28833086D01*
X74553086Y-29028228D01*
X74421592Y-29116089D01*
X74323621Y-29181551D01*
X74237105Y-29217387D01*
X74068657Y-29287161D01*
X73978433Y-29305107D01*
X73797988Y-29341000D01*
X73522012Y-29341000D01*
X73341567Y-29305107D01*
X73251343Y-29287161D01*
X73082895Y-29217387D01*
X72996379Y-29181551D01*
X72898408Y-29116089D01*
X72766914Y-29028228D01*
X72571772Y-28833086D01*
X72418450Y-28603622D01*
X72418449Y-28603621D01*
X72312839Y-28348656D01*
X72259000Y-28077988D01*
X72259000Y-27802012D01*
X72312839Y-27531344D01*
X72418449Y-27276379D01*
X72469325Y-27200237D01*
X72571772Y-27046914D01*
X72766914Y-26851772D01*
X72996378Y-26698450D01*
X72996379Y-26698449D01*
X73145733Y-26636585D01*
X73251343Y-26592839D01*
X73341567Y-26574893D01*
X73522012Y-26539000D01*
X73797988Y-26539000D01*
X73978433Y-26574893D01*
G37*
G36*
X40325048Y-25833122D02*
G01*
X40359387Y-25843539D01*
X40391036Y-25860456D01*
X40418778Y-25883222D01*
X40441544Y-25910964D01*
X40458461Y-25942613D01*
X40468878Y-25976952D01*
X40473000Y-26018807D01*
X40473000Y-29141193D01*
X40468878Y-29183048D01*
X40458461Y-29217387D01*
X40441544Y-29249036D01*
X40418778Y-29276778D01*
X40391036Y-29299544D01*
X40359387Y-29316461D01*
X40325048Y-29326878D01*
X40283193Y-29331000D01*
X39060807Y-29331000D01*
X39018952Y-29326878D01*
X38984613Y-29316461D01*
X38952964Y-29299544D01*
X38925222Y-29276778D01*
X38902456Y-29249036D01*
X38885539Y-29217387D01*
X38875122Y-29183048D01*
X38871000Y-29141193D01*
X38871000Y-26018807D01*
X38875122Y-25976952D01*
X38885539Y-25942613D01*
X38902456Y-25910964D01*
X38925222Y-25883222D01*
X38952964Y-25860456D01*
X38984613Y-25843539D01*
X39018952Y-25833122D01*
X39060807Y-25829000D01*
X40283193Y-25829000D01*
X40325048Y-25833122D01*
G37*
G36*
X33625048Y-25833122D02*
G01*
X33659387Y-25843539D01*
X33691036Y-25860456D01*
X33718778Y-25883222D01*
X33741544Y-25910964D01*
X33758461Y-25942613D01*
X33768878Y-25976952D01*
X33773000Y-26018807D01*
X33773000Y-29141193D01*
X33768878Y-29183048D01*
X33758461Y-29217387D01*
X33741544Y-29249036D01*
X33718778Y-29276778D01*
X33691036Y-29299544D01*
X33659387Y-29316461D01*
X33625048Y-29326878D01*
X33583193Y-29331000D01*
X32360807Y-29331000D01*
X32318952Y-29326878D01*
X32284613Y-29316461D01*
X32252964Y-29299544D01*
X32225222Y-29276778D01*
X32202456Y-29249036D01*
X32185539Y-29217387D01*
X32175122Y-29183048D01*
X32171000Y-29141193D01*
X32171000Y-26018807D01*
X32175122Y-25976952D01*
X32185539Y-25942613D01*
X32202456Y-25910964D01*
X32225222Y-25883222D01*
X32252964Y-25860456D01*
X32284613Y-25843539D01*
X32318952Y-25833122D01*
X32360807Y-25829000D01*
X33583193Y-25829000D01*
X33625048Y-25833122D01*
G37*
G36*
X57263512Y-25773927D02*
G01*
X57412812Y-25803624D01*
X57576784Y-25871544D01*
X57724354Y-25970147D01*
X57849853Y-26095646D01*
X57948456Y-26243216D01*
X58016376Y-26407188D01*
X58051000Y-26581259D01*
X58051000Y-26758741D01*
X58016376Y-26932812D01*
X57948456Y-27096784D01*
X57849853Y-27244354D01*
X57724354Y-27369853D01*
X57576784Y-27468456D01*
X57412812Y-27536376D01*
X57263512Y-27566073D01*
X57238742Y-27571000D01*
X57061258Y-27571000D01*
X57036488Y-27566073D01*
X56887188Y-27536376D01*
X56723216Y-27468456D01*
X56575646Y-27369853D01*
X56450147Y-27244354D01*
X56351544Y-27096784D01*
X56283624Y-26932812D01*
X56249000Y-26758741D01*
X56249000Y-26581259D01*
X56283624Y-26407188D01*
X56351544Y-26243216D01*
X56450147Y-26095646D01*
X56575646Y-25970147D01*
X56723216Y-25871544D01*
X56887188Y-25803624D01*
X57036488Y-25773927D01*
X57061258Y-25769000D01*
X57238742Y-25769000D01*
X57263512Y-25773927D01*
G37*
G36*
X54723512Y-25773927D02*
G01*
X54872812Y-25803624D01*
X55036784Y-25871544D01*
X55184354Y-25970147D01*
X55309853Y-26095646D01*
X55408456Y-26243216D01*
X55476376Y-26407188D01*
X55511000Y-26581259D01*
X55511000Y-26758741D01*
X55476376Y-26932812D01*
X55408456Y-27096784D01*
X55309853Y-27244354D01*
X55184354Y-27369853D01*
X55036784Y-27468456D01*
X54872812Y-27536376D01*
X54723512Y-27566073D01*
X54698742Y-27571000D01*
X54521258Y-27571000D01*
X54496488Y-27566073D01*
X54347188Y-27536376D01*
X54183216Y-27468456D01*
X54035646Y-27369853D01*
X53910147Y-27244354D01*
X53811544Y-27096784D01*
X53743624Y-26932812D01*
X53709000Y-26758741D01*
X53709000Y-26581259D01*
X53743624Y-26407188D01*
X53811544Y-26243216D01*
X53910147Y-26095646D01*
X54035646Y-25970147D01*
X54183216Y-25871544D01*
X54347188Y-25803624D01*
X54496488Y-25773927D01*
X54521258Y-25769000D01*
X54698742Y-25769000D01*
X54723512Y-25773927D01*
G37*
G36*
X52183512Y-25773927D02*
G01*
X52332812Y-25803624D01*
X52496784Y-25871544D01*
X52644354Y-25970147D01*
X52769853Y-26095646D01*
X52868456Y-26243216D01*
X52936376Y-26407188D01*
X52971000Y-26581259D01*
X52971000Y-26758741D01*
X52936376Y-26932812D01*
X52868456Y-27096784D01*
X52769853Y-27244354D01*
X52644354Y-27369853D01*
X52496784Y-27468456D01*
X52332812Y-27536376D01*
X52183512Y-27566073D01*
X52158742Y-27571000D01*
X51981258Y-27571000D01*
X51956488Y-27566073D01*
X51807188Y-27536376D01*
X51643216Y-27468456D01*
X51495646Y-27369853D01*
X51370147Y-27244354D01*
X51271544Y-27096784D01*
X51203624Y-26932812D01*
X51169000Y-26758741D01*
X51169000Y-26581259D01*
X51203624Y-26407188D01*
X51271544Y-26243216D01*
X51370147Y-26095646D01*
X51495646Y-25970147D01*
X51643216Y-25871544D01*
X51807188Y-25803624D01*
X51956488Y-25773927D01*
X51981258Y-25769000D01*
X52158742Y-25769000D01*
X52183512Y-25773927D01*
G37*
G36*
X49643512Y-25773927D02*
G01*
X49792812Y-25803624D01*
X49956784Y-25871544D01*
X50104354Y-25970147D01*
X50229853Y-26095646D01*
X50328456Y-26243216D01*
X50396376Y-26407188D01*
X50431000Y-26581259D01*
X50431000Y-26758741D01*
X50396376Y-26932812D01*
X50328456Y-27096784D01*
X50229853Y-27244354D01*
X50104354Y-27369853D01*
X49956784Y-27468456D01*
X49792812Y-27536376D01*
X49643512Y-27566073D01*
X49618742Y-27571000D01*
X49441258Y-27571000D01*
X49416488Y-27566073D01*
X49267188Y-27536376D01*
X49103216Y-27468456D01*
X48955646Y-27369853D01*
X48830147Y-27244354D01*
X48731544Y-27096784D01*
X48663624Y-26932812D01*
X48629000Y-26758741D01*
X48629000Y-26581259D01*
X48663624Y-26407188D01*
X48731544Y-26243216D01*
X48830147Y-26095646D01*
X48955646Y-25970147D01*
X49103216Y-25871544D01*
X49267188Y-25803624D01*
X49416488Y-25773927D01*
X49441258Y-25769000D01*
X49618742Y-25769000D01*
X49643512Y-25773927D01*
G37*
G36*
X44563512Y-25773927D02*
G01*
X44712812Y-25803624D01*
X44876784Y-25871544D01*
X45024354Y-25970147D01*
X45149853Y-26095646D01*
X45248456Y-26243216D01*
X45316376Y-26407188D01*
X45351000Y-26581259D01*
X45351000Y-26758741D01*
X45316376Y-26932812D01*
X45248456Y-27096784D01*
X45149853Y-27244354D01*
X45024354Y-27369853D01*
X44876784Y-27468456D01*
X44712812Y-27536376D01*
X44563512Y-27566073D01*
X44538742Y-27571000D01*
X44361258Y-27571000D01*
X44336488Y-27566073D01*
X44187188Y-27536376D01*
X44023216Y-27468456D01*
X43875646Y-27369853D01*
X43750147Y-27244354D01*
X43651544Y-27096784D01*
X43583624Y-26932812D01*
X43549000Y-26758741D01*
X43549000Y-26581259D01*
X43583624Y-26407188D01*
X43651544Y-26243216D01*
X43750147Y-26095646D01*
X43875646Y-25970147D01*
X44023216Y-25871544D01*
X44187188Y-25803624D01*
X44336488Y-25773927D01*
X44361258Y-25769000D01*
X44538742Y-25769000D01*
X44563512Y-25773927D01*
G37*
G36*
X42023512Y-25773927D02*
G01*
X42172812Y-25803624D01*
X42336784Y-25871544D01*
X42484354Y-25970147D01*
X42609853Y-26095646D01*
X42708456Y-26243216D01*
X42776376Y-26407188D01*
X42811000Y-26581259D01*
X42811000Y-26758741D01*
X42776376Y-26932812D01*
X42708456Y-27096784D01*
X42609853Y-27244354D01*
X42484354Y-27369853D01*
X42336784Y-27468456D01*
X42172812Y-27536376D01*
X42023512Y-27566073D01*
X41998742Y-27571000D01*
X41821258Y-27571000D01*
X41796488Y-27566073D01*
X41647188Y-27536376D01*
X41483216Y-27468456D01*
X41335646Y-27369853D01*
X41210147Y-27244354D01*
X41111544Y-27096784D01*
X41043624Y-26932812D01*
X41009000Y-26758741D01*
X41009000Y-26581259D01*
X41043624Y-26407188D01*
X41111544Y-26243216D01*
X41210147Y-26095646D01*
X41335646Y-25970147D01*
X41483216Y-25871544D01*
X41647188Y-25803624D01*
X41796488Y-25773927D01*
X41821258Y-25769000D01*
X41998742Y-25769000D01*
X42023512Y-25773927D01*
G37*
G36*
X59803512Y-25773927D02*
G01*
X59952812Y-25803624D01*
X60116784Y-25871544D01*
X60264354Y-25970147D01*
X60389853Y-26095646D01*
X60488456Y-26243216D01*
X60556376Y-26407188D01*
X60591000Y-26581259D01*
X60591000Y-26758741D01*
X60556376Y-26932812D01*
X60488456Y-27096784D01*
X60389853Y-27244354D01*
X60264354Y-27369853D01*
X60116784Y-27468456D01*
X59952812Y-27536376D01*
X59803512Y-27566073D01*
X59778742Y-27571000D01*
X59601258Y-27571000D01*
X59576488Y-27566073D01*
X59427188Y-27536376D01*
X59263216Y-27468456D01*
X59115646Y-27369853D01*
X58990147Y-27244354D01*
X58891544Y-27096784D01*
X58823624Y-26932812D01*
X58789000Y-26758741D01*
X58789000Y-26581259D01*
X58823624Y-26407188D01*
X58891544Y-26243216D01*
X58990147Y-26095646D01*
X59115646Y-25970147D01*
X59263216Y-25871544D01*
X59427188Y-25803624D01*
X59576488Y-25773927D01*
X59601258Y-25769000D01*
X59778742Y-25769000D01*
X59803512Y-25773927D01*
G37*
G36*
X62343512Y-25773927D02*
G01*
X62492812Y-25803624D01*
X62656784Y-25871544D01*
X62804354Y-25970147D01*
X62929853Y-26095646D01*
X63028456Y-26243216D01*
X63096376Y-26407188D01*
X63131000Y-26581259D01*
X63131000Y-26758741D01*
X63096376Y-26932812D01*
X63028456Y-27096784D01*
X62929853Y-27244354D01*
X62804354Y-27369853D01*
X62656784Y-27468456D01*
X62492812Y-27536376D01*
X62343512Y-27566073D01*
X62318742Y-27571000D01*
X62141258Y-27571000D01*
X62116488Y-27566073D01*
X61967188Y-27536376D01*
X61803216Y-27468456D01*
X61655646Y-27369853D01*
X61530147Y-27244354D01*
X61431544Y-27096784D01*
X61363624Y-26932812D01*
X61329000Y-26758741D01*
X61329000Y-26581259D01*
X61363624Y-26407188D01*
X61431544Y-26243216D01*
X61530147Y-26095646D01*
X61655646Y-25970147D01*
X61803216Y-25871544D01*
X61967188Y-25803624D01*
X62116488Y-25773927D01*
X62141258Y-25769000D01*
X62318742Y-25769000D01*
X62343512Y-25773927D01*
G37*
G36*
X64883512Y-25773927D02*
G01*
X65032812Y-25803624D01*
X65196784Y-25871544D01*
X65344354Y-25970147D01*
X65469853Y-26095646D01*
X65568456Y-26243216D01*
X65636376Y-26407188D01*
X65671000Y-26581259D01*
X65671000Y-26758741D01*
X65636376Y-26932812D01*
X65568456Y-27096784D01*
X65469853Y-27244354D01*
X65344354Y-27369853D01*
X65196784Y-27468456D01*
X65032812Y-27536376D01*
X64883512Y-27566073D01*
X64858742Y-27571000D01*
X64681258Y-27571000D01*
X64656488Y-27566073D01*
X64507188Y-27536376D01*
X64343216Y-27468456D01*
X64195646Y-27369853D01*
X64070147Y-27244354D01*
X63971544Y-27096784D01*
X63903624Y-26932812D01*
X63869000Y-26758741D01*
X63869000Y-26581259D01*
X63903624Y-26407188D01*
X63971544Y-26243216D01*
X64070147Y-26095646D01*
X64195646Y-25970147D01*
X64343216Y-25871544D01*
X64507188Y-25803624D01*
X64656488Y-25773927D01*
X64681258Y-25769000D01*
X64858742Y-25769000D01*
X64883512Y-25773927D01*
G37*
G36*
X67423512Y-25773927D02*
G01*
X67572812Y-25803624D01*
X67736784Y-25871544D01*
X67884354Y-25970147D01*
X68009853Y-26095646D01*
X68108456Y-26243216D01*
X68176376Y-26407188D01*
X68211000Y-26581259D01*
X68211000Y-26758741D01*
X68176376Y-26932812D01*
X68108456Y-27096784D01*
X68009853Y-27244354D01*
X67884354Y-27369853D01*
X67736784Y-27468456D01*
X67572812Y-27536376D01*
X67423512Y-27566073D01*
X67398742Y-27571000D01*
X67221258Y-27571000D01*
X67196488Y-27566073D01*
X67047188Y-27536376D01*
X66883216Y-27468456D01*
X66735646Y-27369853D01*
X66610147Y-27244354D01*
X66511544Y-27096784D01*
X66443624Y-26932812D01*
X66409000Y-26758741D01*
X66409000Y-26581259D01*
X66443624Y-26407188D01*
X66511544Y-26243216D01*
X66610147Y-26095646D01*
X66735646Y-25970147D01*
X66883216Y-25871544D01*
X67047188Y-25803624D01*
X67196488Y-25773927D01*
X67221258Y-25769000D01*
X67398742Y-25769000D01*
X67423512Y-25773927D01*
G37*
G36*
X70751000Y-27571000D02*
G01*
X68949000Y-27571000D01*
X68949000Y-25769000D01*
X70751000Y-25769000D01*
X70751000Y-27571000D01*
G37*
G36*
X47103512Y-25773927D02*
G01*
X47252812Y-25803624D01*
X47416784Y-25871544D01*
X47564354Y-25970147D01*
X47689853Y-26095646D01*
X47788456Y-26243216D01*
X47856376Y-26407188D01*
X47891000Y-26581259D01*
X47891000Y-26758741D01*
X47856376Y-26932812D01*
X47788456Y-27096784D01*
X47689853Y-27244354D01*
X47564354Y-27369853D01*
X47416784Y-27468456D01*
X47252812Y-27536376D01*
X47103512Y-27566073D01*
X47078742Y-27571000D01*
X46901258Y-27571000D01*
X46876488Y-27566073D01*
X46727188Y-27536376D01*
X46563216Y-27468456D01*
X46415646Y-27369853D01*
X46290147Y-27244354D01*
X46191544Y-27096784D01*
X46123624Y-26932812D01*
X46089000Y-26758741D01*
X46089000Y-26581259D01*
X46123624Y-26407188D01*
X46191544Y-26243216D01*
X46290147Y-26095646D01*
X46415646Y-25970147D01*
X46563216Y-25871544D01*
X46727188Y-25803624D01*
X46876488Y-25773927D01*
X46901258Y-25769000D01*
X47078742Y-25769000D01*
X47103512Y-25773927D01*
G37*
M02*
