G04 #@! TF.GenerationSoftware,KiCad,Pcbnew,(5.1.6)-1*
G04 #@! TF.CreationDate,2021-03-27T23:23:02-04:00*
G04 #@! TF.ProjectId,STM8Feather,53544d38-4665-4617-9468-65722e6b6963,rev?*
G04 #@! TF.SameCoordinates,Original*
G04 #@! TF.FileFunction,Legend,Bot*
G04 #@! TF.FilePolarity,Positive*
%FSLAX46Y46*%
G04 Gerber Fmt 4.6, Leading zero omitted, Abs format (unit mm)*
G04 Created by KiCad (PCBNEW (5.1.6)-1) date 2021-03-27 23:23:02*
%MOMM*%
%LPD*%
G01*
G04 APERTURE LIST*
%ADD10C,0.150000*%
%ADD11C,0.120000*%
%ADD12C,2.802000*%
%ADD13R,1.802000X1.802000*%
%ADD14O,1.802000X1.802000*%
G04 APERTURE END LIST*
D10*
X53617142Y-35584761D02*
X53474285Y-35632380D01*
X53236190Y-35632380D01*
X53140952Y-35584761D01*
X53093333Y-35537142D01*
X53045714Y-35441904D01*
X53045714Y-35346666D01*
X53093333Y-35251428D01*
X53140952Y-35203809D01*
X53236190Y-35156190D01*
X53426666Y-35108571D01*
X53521904Y-35060952D01*
X53569523Y-35013333D01*
X53617142Y-34918095D01*
X53617142Y-34822857D01*
X53569523Y-34727619D01*
X53521904Y-34680000D01*
X53426666Y-34632380D01*
X53188571Y-34632380D01*
X53045714Y-34680000D01*
X52760000Y-34632380D02*
X52188571Y-34632380D01*
X52474285Y-35632380D02*
X52474285Y-34632380D01*
X51855238Y-35632380D02*
X51855238Y-34632380D01*
X51521904Y-35346666D01*
X51188571Y-34632380D01*
X51188571Y-35632380D01*
X50569523Y-35060952D02*
X50664761Y-35013333D01*
X50712380Y-34965714D01*
X50760000Y-34870476D01*
X50760000Y-34822857D01*
X50712380Y-34727619D01*
X50664761Y-34680000D01*
X50569523Y-34632380D01*
X50379047Y-34632380D01*
X50283809Y-34680000D01*
X50236190Y-34727619D01*
X50188571Y-34822857D01*
X50188571Y-34870476D01*
X50236190Y-34965714D01*
X50283809Y-35013333D01*
X50379047Y-35060952D01*
X50569523Y-35060952D01*
X50664761Y-35108571D01*
X50712380Y-35156190D01*
X50760000Y-35251428D01*
X50760000Y-35441904D01*
X50712380Y-35537142D01*
X50664761Y-35584761D01*
X50569523Y-35632380D01*
X50379047Y-35632380D01*
X50283809Y-35584761D01*
X50236190Y-35537142D01*
X50188571Y-35441904D01*
X50188571Y-35251428D01*
X50236190Y-35156190D01*
X50283809Y-35108571D01*
X50379047Y-35060952D01*
X49807619Y-35584761D02*
X49664761Y-35632380D01*
X49426666Y-35632380D01*
X49331428Y-35584761D01*
X49283809Y-35537142D01*
X49236190Y-35441904D01*
X49236190Y-35346666D01*
X49283809Y-35251428D01*
X49331428Y-35203809D01*
X49426666Y-35156190D01*
X49617142Y-35108571D01*
X49712380Y-35060952D01*
X49760000Y-35013333D01*
X49807619Y-34918095D01*
X49807619Y-34822857D01*
X49760000Y-34727619D01*
X49712380Y-34680000D01*
X49617142Y-34632380D01*
X49379047Y-34632380D01*
X49236190Y-34680000D01*
X47712380Y-35108571D02*
X48045714Y-35108571D01*
X48045714Y-35632380D02*
X48045714Y-34632380D01*
X47569523Y-34632380D01*
X46807619Y-35584761D02*
X46902857Y-35632380D01*
X47093333Y-35632380D01*
X47188571Y-35584761D01*
X47236190Y-35489523D01*
X47236190Y-35108571D01*
X47188571Y-35013333D01*
X47093333Y-34965714D01*
X46902857Y-34965714D01*
X46807619Y-35013333D01*
X46760000Y-35108571D01*
X46760000Y-35203809D01*
X47236190Y-35299047D01*
X45902857Y-35632380D02*
X45902857Y-35108571D01*
X45950476Y-35013333D01*
X46045714Y-34965714D01*
X46236190Y-34965714D01*
X46331428Y-35013333D01*
X45902857Y-35584761D02*
X45998095Y-35632380D01*
X46236190Y-35632380D01*
X46331428Y-35584761D01*
X46379047Y-35489523D01*
X46379047Y-35394285D01*
X46331428Y-35299047D01*
X46236190Y-35251428D01*
X45998095Y-35251428D01*
X45902857Y-35203809D01*
X45569523Y-34965714D02*
X45188571Y-34965714D01*
X45426666Y-34632380D02*
X45426666Y-35489523D01*
X45379047Y-35584761D01*
X45283809Y-35632380D01*
X45188571Y-35632380D01*
X44855238Y-35632380D02*
X44855238Y-34632380D01*
X44426666Y-35632380D02*
X44426666Y-35108571D01*
X44474285Y-35013333D01*
X44569523Y-34965714D01*
X44712380Y-34965714D01*
X44807619Y-35013333D01*
X44855238Y-35060952D01*
X43569523Y-35584761D02*
X43664761Y-35632380D01*
X43855238Y-35632380D01*
X43950476Y-35584761D01*
X43998095Y-35489523D01*
X43998095Y-35108571D01*
X43950476Y-35013333D01*
X43855238Y-34965714D01*
X43664761Y-34965714D01*
X43569523Y-35013333D01*
X43521904Y-35108571D01*
X43521904Y-35203809D01*
X43998095Y-35299047D01*
X43093333Y-35632380D02*
X43093333Y-34965714D01*
X43093333Y-35156190D02*
X43045714Y-35060952D01*
X42998095Y-35013333D01*
X42902857Y-34965714D01*
X42807619Y-34965714D01*
X51593333Y-37282380D02*
X51593333Y-36282380D01*
X51593333Y-36663333D02*
X51498095Y-36615714D01*
X51307619Y-36615714D01*
X51212380Y-36663333D01*
X51164761Y-36710952D01*
X51117142Y-36806190D01*
X51117142Y-37091904D01*
X51164761Y-37187142D01*
X51212380Y-37234761D01*
X51307619Y-37282380D01*
X51498095Y-37282380D01*
X51593333Y-37234761D01*
X50783809Y-36615714D02*
X50545714Y-37282380D01*
X50307619Y-36615714D02*
X50545714Y-37282380D01*
X50640952Y-37520476D01*
X50688571Y-37568095D01*
X50783809Y-37615714D01*
X49164761Y-37282380D02*
X49164761Y-36615714D01*
X49164761Y-36806190D02*
X49117142Y-36710952D01*
X49069523Y-36663333D01*
X48974285Y-36615714D01*
X48879047Y-36615714D01*
X48117142Y-36615714D02*
X48117142Y-37425238D01*
X48164761Y-37520476D01*
X48212380Y-37568095D01*
X48307619Y-37615714D01*
X48450476Y-37615714D01*
X48545714Y-37568095D01*
X48117142Y-37234761D02*
X48212380Y-37282380D01*
X48402857Y-37282380D01*
X48498095Y-37234761D01*
X48545714Y-37187142D01*
X48593333Y-37091904D01*
X48593333Y-36806190D01*
X48545714Y-36710952D01*
X48498095Y-36663333D01*
X48402857Y-36615714D01*
X48212380Y-36615714D01*
X48117142Y-36663333D01*
X47498095Y-37282380D02*
X47593333Y-37234761D01*
X47640952Y-37139523D01*
X47640952Y-36282380D01*
X46736190Y-37234761D02*
X46831428Y-37282380D01*
X47021904Y-37282380D01*
X47117142Y-37234761D01*
X47164761Y-37139523D01*
X47164761Y-36758571D01*
X47117142Y-36663333D01*
X47021904Y-36615714D01*
X46831428Y-36615714D01*
X46736190Y-36663333D01*
X46688571Y-36758571D01*
X46688571Y-36853809D01*
X47164761Y-36949047D01*
X46260000Y-36615714D02*
X46260000Y-37282380D01*
X46260000Y-36710952D02*
X46212380Y-36663333D01*
X46117142Y-36615714D01*
X45974285Y-36615714D01*
X45879047Y-36663333D01*
X45831428Y-36758571D01*
X45831428Y-37282380D01*
X45355238Y-36615714D02*
X45355238Y-37282380D01*
X45355238Y-36710952D02*
X45307619Y-36663333D01*
X45212380Y-36615714D01*
X45069523Y-36615714D01*
X44974285Y-36663333D01*
X44926666Y-36758571D01*
X44926666Y-37282380D01*
X53117142Y-38027619D02*
X53069523Y-37980000D01*
X52974285Y-37932380D01*
X52736190Y-37932380D01*
X52640952Y-37980000D01*
X52593333Y-38027619D01*
X52545714Y-38122857D01*
X52545714Y-38218095D01*
X52593333Y-38360952D01*
X53164761Y-38932380D01*
X52545714Y-38932380D01*
X51926666Y-37932380D02*
X51831428Y-37932380D01*
X51736190Y-37980000D01*
X51688571Y-38027619D01*
X51640952Y-38122857D01*
X51593333Y-38313333D01*
X51593333Y-38551428D01*
X51640952Y-38741904D01*
X51688571Y-38837142D01*
X51736190Y-38884761D01*
X51831428Y-38932380D01*
X51926666Y-38932380D01*
X52021904Y-38884761D01*
X52069523Y-38837142D01*
X52117142Y-38741904D01*
X52164761Y-38551428D01*
X52164761Y-38313333D01*
X52117142Y-38122857D01*
X52069523Y-38027619D01*
X52021904Y-37980000D01*
X51926666Y-37932380D01*
X51212380Y-38027619D02*
X51164761Y-37980000D01*
X51069523Y-37932380D01*
X50831428Y-37932380D01*
X50736190Y-37980000D01*
X50688571Y-38027619D01*
X50640952Y-38122857D01*
X50640952Y-38218095D01*
X50688571Y-38360952D01*
X51260000Y-38932380D01*
X50640952Y-38932380D01*
X49688571Y-38932380D02*
X50260000Y-38932380D01*
X49974285Y-38932380D02*
X49974285Y-37932380D01*
X50069523Y-38075238D01*
X50164761Y-38170476D01*
X50260000Y-38218095D01*
X49260000Y-38551428D02*
X48498095Y-38551428D01*
X47831428Y-37932380D02*
X47736190Y-37932380D01*
X47640952Y-37980000D01*
X47593333Y-38027619D01*
X47545714Y-38122857D01*
X47498095Y-38313333D01*
X47498095Y-38551428D01*
X47545714Y-38741904D01*
X47593333Y-38837142D01*
X47640952Y-38884761D01*
X47736190Y-38932380D01*
X47831428Y-38932380D01*
X47926666Y-38884761D01*
X47974285Y-38837142D01*
X48021904Y-38741904D01*
X48069523Y-38551428D01*
X48069523Y-38313333D01*
X48021904Y-38122857D01*
X47974285Y-38027619D01*
X47926666Y-37980000D01*
X47831428Y-37932380D01*
X47164761Y-37932380D02*
X46545714Y-37932380D01*
X46879047Y-38313333D01*
X46736190Y-38313333D01*
X46640952Y-38360952D01*
X46593333Y-38408571D01*
X46545714Y-38503809D01*
X46545714Y-38741904D01*
X46593333Y-38837142D01*
X46640952Y-38884761D01*
X46736190Y-38932380D01*
X47021904Y-38932380D01*
X47117142Y-38884761D01*
X47164761Y-38837142D01*
X46117142Y-38551428D02*
X45355238Y-38551428D01*
X44926666Y-38027619D02*
X44879047Y-37980000D01*
X44783809Y-37932380D01*
X44545714Y-37932380D01*
X44450476Y-37980000D01*
X44402857Y-38027619D01*
X44355238Y-38122857D01*
X44355238Y-38218095D01*
X44402857Y-38360952D01*
X44974285Y-38932380D01*
X44355238Y-38932380D01*
X43450476Y-37932380D02*
X43926666Y-37932380D01*
X43974285Y-38408571D01*
X43926666Y-38360952D01*
X43831428Y-38313333D01*
X43593333Y-38313333D01*
X43498095Y-38360952D01*
X43450476Y-38408571D01*
X43402857Y-38503809D01*
X43402857Y-38741904D01*
X43450476Y-38837142D01*
X43498095Y-38884761D01*
X43593333Y-38932380D01*
X43831428Y-38932380D01*
X43926666Y-38884761D01*
X43974285Y-38837142D01*
D11*
X71180000Y-48320000D02*
X71180000Y-46990000D01*
X69850000Y-48320000D02*
X71180000Y-48320000D01*
X68580000Y-48320000D02*
X68580000Y-45660000D01*
X68580000Y-45660000D02*
X30420000Y-45660000D01*
X68580000Y-48320000D02*
X30420000Y-48320000D01*
X30420000Y-48320000D02*
X30420000Y-45660000D01*
X71180000Y-28000000D02*
X71180000Y-26670000D01*
X69850000Y-28000000D02*
X71180000Y-28000000D01*
X68580000Y-28000000D02*
X68580000Y-25340000D01*
X68580000Y-25340000D02*
X40580000Y-25340000D01*
X68580000Y-28000000D02*
X40580000Y-28000000D01*
X40580000Y-28000000D02*
X40580000Y-25340000D01*
X35319580Y-40003000D02*
X35038420Y-40003000D01*
X35319580Y-41023000D02*
X35038420Y-41023000D01*
X35052000Y-39390000D02*
X31602000Y-39390000D01*
X35052000Y-39390000D02*
X37002000Y-39390000D01*
X35052000Y-34270000D02*
X33102000Y-34270000D01*
X35052000Y-34270000D02*
X37002000Y-34270000D01*
X36843580Y-33784000D02*
X36562420Y-33784000D01*
X36843580Y-32764000D02*
X36562420Y-32764000D01*
D10*
X38742857Y-40870142D02*
X38790476Y-40917761D01*
X38933333Y-40965380D01*
X39028571Y-40965380D01*
X39171428Y-40917761D01*
X39266666Y-40822523D01*
X39314285Y-40727285D01*
X39361904Y-40536809D01*
X39361904Y-40393952D01*
X39314285Y-40203476D01*
X39266666Y-40108238D01*
X39171428Y-40013000D01*
X39028571Y-39965380D01*
X38933333Y-39965380D01*
X38790476Y-40013000D01*
X38742857Y-40060619D01*
X37790476Y-40965380D02*
X38361904Y-40965380D01*
X38076190Y-40965380D02*
X38076190Y-39965380D01*
X38171428Y-40108238D01*
X38266666Y-40203476D01*
X38361904Y-40251095D01*
X36838095Y-40965380D02*
X37409523Y-40965380D01*
X37123809Y-40965380D02*
X37123809Y-39965380D01*
X37219047Y-40108238D01*
X37314285Y-40203476D01*
X37409523Y-40251095D01*
X39076380Y-36068095D02*
X39885904Y-36068095D01*
X39981142Y-36115714D01*
X40028761Y-36163333D01*
X40076380Y-36258571D01*
X40076380Y-36449047D01*
X40028761Y-36544285D01*
X39981142Y-36591904D01*
X39885904Y-36639523D01*
X39076380Y-36639523D01*
X39409714Y-37544285D02*
X40076380Y-37544285D01*
X39028761Y-37306190D02*
X39743047Y-37068095D01*
X39743047Y-37687142D01*
X37345857Y-32201142D02*
X37393476Y-32248761D01*
X37536333Y-32296380D01*
X37631571Y-32296380D01*
X37774428Y-32248761D01*
X37869666Y-32153523D01*
X37917285Y-32058285D01*
X37964904Y-31867809D01*
X37964904Y-31724952D01*
X37917285Y-31534476D01*
X37869666Y-31439238D01*
X37774428Y-31344000D01*
X37631571Y-31296380D01*
X37536333Y-31296380D01*
X37393476Y-31344000D01*
X37345857Y-31391619D01*
X36393476Y-32296380D02*
X36964904Y-32296380D01*
X36679190Y-32296380D02*
X36679190Y-31296380D01*
X36774428Y-31439238D01*
X36869666Y-31534476D01*
X36964904Y-31582095D01*
X36012523Y-31391619D02*
X35964904Y-31344000D01*
X35869666Y-31296380D01*
X35631571Y-31296380D01*
X35536333Y-31344000D01*
X35488714Y-31391619D01*
X35441095Y-31486857D01*
X35441095Y-31582095D01*
X35488714Y-31724952D01*
X36060142Y-32296380D01*
X35441095Y-32296380D01*
%LPC*%
D12*
X73660000Y-27940000D03*
X73660000Y-45720000D03*
X27940000Y-45720000D03*
X27940000Y-27940000D03*
D13*
X69850000Y-46990000D03*
D14*
X67310000Y-46990000D03*
X64770000Y-46990000D03*
X62230000Y-46990000D03*
X59690000Y-46990000D03*
X57150000Y-46990000D03*
X54610000Y-46990000D03*
X52070000Y-46990000D03*
X49530000Y-46990000D03*
X46990000Y-46990000D03*
X44450000Y-46990000D03*
X41910000Y-46990000D03*
X39370000Y-46990000D03*
X36830000Y-46990000D03*
X34290000Y-46990000D03*
X31750000Y-46990000D03*
D13*
X69850000Y-26670000D03*
D14*
X67310000Y-26670000D03*
X64770000Y-26670000D03*
X62230000Y-26670000D03*
X59690000Y-26670000D03*
X57150000Y-26670000D03*
X54610000Y-26670000D03*
X52070000Y-26670000D03*
X49530000Y-26670000D03*
X46990000Y-26670000D03*
X44450000Y-26670000D03*
X41910000Y-26670000D03*
D13*
X73660000Y-40640000D03*
D14*
X73660000Y-38100000D03*
X73660000Y-35560000D03*
X73660000Y-33020000D03*
G36*
G01*
X34905000Y-40237500D02*
X34905000Y-40788500D01*
G75*
G02*
X34654500Y-41039000I-250500J0D01*
G01*
X34153500Y-41039000D01*
G75*
G02*
X33903000Y-40788500I0J250500D01*
G01*
X33903000Y-40237500D01*
G75*
G02*
X34153500Y-39987000I250500J0D01*
G01*
X34654500Y-39987000D01*
G75*
G02*
X34905000Y-40237500I0J-250500D01*
G01*
G37*
G36*
G01*
X36455000Y-40237500D02*
X36455000Y-40788500D01*
G75*
G02*
X36204500Y-41039000I-250500J0D01*
G01*
X35703500Y-41039000D01*
G75*
G02*
X35453000Y-40788500I0J250500D01*
G01*
X35453000Y-40237500D01*
G75*
G02*
X35703500Y-39987000I250500J0D01*
G01*
X36204500Y-39987000D01*
G75*
G02*
X36455000Y-40237500I0J-250500D01*
G01*
G37*
G36*
G01*
X31551000Y-38910500D02*
X31551000Y-38559500D01*
G75*
G02*
X31726500Y-38384000I175500J0D01*
G01*
X33427500Y-38384000D01*
G75*
G02*
X33603000Y-38559500I0J-175500D01*
G01*
X33603000Y-38910500D01*
G75*
G02*
X33427500Y-39086000I-175500J0D01*
G01*
X31726500Y-39086000D01*
G75*
G02*
X31551000Y-38910500I0J175500D01*
G01*
G37*
G36*
G01*
X31551000Y-37640500D02*
X31551000Y-37289500D01*
G75*
G02*
X31726500Y-37114000I175500J0D01*
G01*
X33427500Y-37114000D01*
G75*
G02*
X33603000Y-37289500I0J-175500D01*
G01*
X33603000Y-37640500D01*
G75*
G02*
X33427500Y-37816000I-175500J0D01*
G01*
X31726500Y-37816000D01*
G75*
G02*
X31551000Y-37640500I0J175500D01*
G01*
G37*
G36*
G01*
X31551000Y-36370500D02*
X31551000Y-36019500D01*
G75*
G02*
X31726500Y-35844000I175500J0D01*
G01*
X33427500Y-35844000D01*
G75*
G02*
X33603000Y-36019500I0J-175500D01*
G01*
X33603000Y-36370500D01*
G75*
G02*
X33427500Y-36546000I-175500J0D01*
G01*
X31726500Y-36546000D01*
G75*
G02*
X31551000Y-36370500I0J175500D01*
G01*
G37*
G36*
G01*
X31551000Y-35100500D02*
X31551000Y-34749500D01*
G75*
G02*
X31726500Y-34574000I175500J0D01*
G01*
X33427500Y-34574000D01*
G75*
G02*
X33603000Y-34749500I0J-175500D01*
G01*
X33603000Y-35100500D01*
G75*
G02*
X33427500Y-35276000I-175500J0D01*
G01*
X31726500Y-35276000D01*
G75*
G02*
X31551000Y-35100500I0J175500D01*
G01*
G37*
G36*
G01*
X36501000Y-35100500D02*
X36501000Y-34749500D01*
G75*
G02*
X36676500Y-34574000I175500J0D01*
G01*
X38377500Y-34574000D01*
G75*
G02*
X38553000Y-34749500I0J-175500D01*
G01*
X38553000Y-35100500D01*
G75*
G02*
X38377500Y-35276000I-175500J0D01*
G01*
X36676500Y-35276000D01*
G75*
G02*
X36501000Y-35100500I0J175500D01*
G01*
G37*
G36*
G01*
X36501000Y-36370500D02*
X36501000Y-36019500D01*
G75*
G02*
X36676500Y-35844000I175500J0D01*
G01*
X38377500Y-35844000D01*
G75*
G02*
X38553000Y-36019500I0J-175500D01*
G01*
X38553000Y-36370500D01*
G75*
G02*
X38377500Y-36546000I-175500J0D01*
G01*
X36676500Y-36546000D01*
G75*
G02*
X36501000Y-36370500I0J175500D01*
G01*
G37*
G36*
G01*
X36501000Y-37640500D02*
X36501000Y-37289500D01*
G75*
G02*
X36676500Y-37114000I175500J0D01*
G01*
X38377500Y-37114000D01*
G75*
G02*
X38553000Y-37289500I0J-175500D01*
G01*
X38553000Y-37640500D01*
G75*
G02*
X38377500Y-37816000I-175500J0D01*
G01*
X36676500Y-37816000D01*
G75*
G02*
X36501000Y-37640500I0J175500D01*
G01*
G37*
G36*
G01*
X36501000Y-38910500D02*
X36501000Y-38559500D01*
G75*
G02*
X36676500Y-38384000I175500J0D01*
G01*
X38377500Y-38384000D01*
G75*
G02*
X38553000Y-38559500I0J-175500D01*
G01*
X38553000Y-38910500D01*
G75*
G02*
X38377500Y-39086000I-175500J0D01*
G01*
X36676500Y-39086000D01*
G75*
G02*
X36501000Y-38910500I0J175500D01*
G01*
G37*
G36*
G01*
X37979000Y-32998500D02*
X37979000Y-33549500D01*
G75*
G02*
X37728500Y-33800000I-250500J0D01*
G01*
X37227500Y-33800000D01*
G75*
G02*
X36977000Y-33549500I0J250500D01*
G01*
X36977000Y-32998500D01*
G75*
G02*
X37227500Y-32748000I250500J0D01*
G01*
X37728500Y-32748000D01*
G75*
G02*
X37979000Y-32998500I0J-250500D01*
G01*
G37*
G36*
G01*
X36429000Y-32998500D02*
X36429000Y-33549500D01*
G75*
G02*
X36178500Y-33800000I-250500J0D01*
G01*
X35677500Y-33800000D01*
G75*
G02*
X35427000Y-33549500I0J250500D01*
G01*
X35427000Y-32998500D01*
G75*
G02*
X35677500Y-32748000I250500J0D01*
G01*
X36178500Y-32748000D01*
G75*
G02*
X36429000Y-32998500I0J-250500D01*
G01*
G37*
M02*
