G04 #@! TF.GenerationSoftware,KiCad,Pcbnew,(5.1.6)-1*
G04 #@! TF.CreationDate,2021-03-27T23:23:02-04:00*
G04 #@! TF.ProjectId,STM8Feather,53544d38-4665-4617-9468-65722e6b6963,rev?*
G04 #@! TF.SameCoordinates,Original*
G04 #@! TF.FileFunction,Legend,Top*
G04 #@! TF.FilePolarity,Positive*
%FSLAX46Y46*%
G04 Gerber Fmt 4.6, Leading zero omitted, Abs format (unit mm)*
G04 Created by KiCad (PCBNEW (5.1.6)-1) date 2021-03-27 23:23:02*
%MOMM*%
%LPD*%
G01*
G04 APERTURE LIST*
%ADD10C,0.100000*%
%ADD11C,0.150000*%
%ADD12C,0.120000*%
%ADD13C,2.802000*%
%ADD14R,1.802000X1.802000*%
%ADD15O,1.802000X1.802000*%
%ADD16R,1.302000X1.002000*%
%ADD17R,1.482000X0.552000*%
%ADD18R,1.652000X1.527000*%
%ADD19R,1.402000X1.752000*%
%ADD20R,2.002000X1.902000*%
%ADD21R,2.002000X1.102000*%
%ADD22R,1.162000X0.752000*%
%ADD23R,2.102000X4.602000*%
G04 APERTURE END LIST*
D10*
X46073333Y-27920190D02*
X46240000Y-28420190D01*
X46406666Y-27920190D01*
X46573333Y-27920190D02*
X46573333Y-28324952D01*
X46597142Y-28372571D01*
X46620952Y-28396380D01*
X46668571Y-28420190D01*
X46763809Y-28420190D01*
X46811428Y-28396380D01*
X46835238Y-28372571D01*
X46859047Y-28324952D01*
X46859047Y-27920190D01*
X47073333Y-28396380D02*
X47144761Y-28420190D01*
X47263809Y-28420190D01*
X47311428Y-28396380D01*
X47335238Y-28372571D01*
X47359047Y-28324952D01*
X47359047Y-28277333D01*
X47335238Y-28229714D01*
X47311428Y-28205904D01*
X47263809Y-28182095D01*
X47168571Y-28158285D01*
X47120952Y-28134476D01*
X47097142Y-28110666D01*
X47073333Y-28063047D01*
X47073333Y-28015428D01*
X47097142Y-27967809D01*
X47120952Y-27944000D01*
X47168571Y-27920190D01*
X47287619Y-27920190D01*
X47359047Y-27944000D01*
X47740000Y-28158285D02*
X47811428Y-28182095D01*
X47835238Y-28205904D01*
X47859047Y-28253523D01*
X47859047Y-28324952D01*
X47835238Y-28372571D01*
X47811428Y-28396380D01*
X47763809Y-28420190D01*
X47573333Y-28420190D01*
X47573333Y-27920190D01*
X47740000Y-27920190D01*
X47787619Y-27944000D01*
X47811428Y-27967809D01*
X47835238Y-28015428D01*
X47835238Y-28063047D01*
X47811428Y-28110666D01*
X47787619Y-28134476D01*
X47740000Y-28158285D01*
X47573333Y-28158285D01*
X41088571Y-28301190D02*
X41255238Y-28801190D01*
X41421904Y-28301190D01*
X41755238Y-28539285D02*
X41826666Y-28563095D01*
X41850476Y-28586904D01*
X41874285Y-28634523D01*
X41874285Y-28705952D01*
X41850476Y-28753571D01*
X41826666Y-28777380D01*
X41779047Y-28801190D01*
X41588571Y-28801190D01*
X41588571Y-28301190D01*
X41755238Y-28301190D01*
X41802857Y-28325000D01*
X41826666Y-28348809D01*
X41850476Y-28396428D01*
X41850476Y-28444047D01*
X41826666Y-28491666D01*
X41802857Y-28515476D01*
X41755238Y-28539285D01*
X41588571Y-28539285D01*
X42064761Y-28658333D02*
X42302857Y-28658333D01*
X42017142Y-28801190D02*
X42183809Y-28301190D01*
X42350476Y-28801190D01*
X42445714Y-28301190D02*
X42731428Y-28301190D01*
X42588571Y-28801190D02*
X42588571Y-28301190D01*
D11*
X43896428Y-28521428D02*
X44146428Y-28521428D01*
X44253571Y-28914285D02*
X43896428Y-28914285D01*
X43896428Y-28164285D01*
X44253571Y-28164285D01*
X44575000Y-28914285D02*
X44575000Y-28164285D01*
X45003571Y-28914285D01*
X45003571Y-28164285D01*
D10*
X49363333Y-28158285D02*
X49196666Y-28158285D01*
X49196666Y-28420190D02*
X49196666Y-27920190D01*
X49434761Y-27920190D01*
X49839523Y-27920190D02*
X49744285Y-27920190D01*
X49696666Y-27944000D01*
X49672857Y-27967809D01*
X49625238Y-28039238D01*
X49601428Y-28134476D01*
X49601428Y-28324952D01*
X49625238Y-28372571D01*
X49649047Y-28396380D01*
X49696666Y-28420190D01*
X49791904Y-28420190D01*
X49839523Y-28396380D01*
X49863333Y-28372571D01*
X49887142Y-28324952D01*
X49887142Y-28205904D01*
X49863333Y-28158285D01*
X49839523Y-28134476D01*
X49791904Y-28110666D01*
X49696666Y-28110666D01*
X49649047Y-28134476D01*
X49625238Y-28158285D01*
X49601428Y-28205904D01*
D11*
X51820000Y-28521428D02*
X51570000Y-28521428D01*
X51570000Y-28914285D02*
X51570000Y-28164285D01*
X51927142Y-28164285D01*
X52570000Y-28164285D02*
X52212857Y-28164285D01*
X52177142Y-28521428D01*
X52212857Y-28485714D01*
X52284285Y-28450000D01*
X52462857Y-28450000D01*
X52534285Y-28485714D01*
X52570000Y-28521428D01*
X52605714Y-28592857D01*
X52605714Y-28771428D01*
X52570000Y-28842857D01*
X52534285Y-28878571D01*
X52462857Y-28914285D01*
X52284285Y-28914285D01*
X52212857Y-28878571D01*
X52177142Y-28842857D01*
X54360000Y-28521428D02*
X54110000Y-28521428D01*
X54110000Y-28914285D02*
X54110000Y-28164285D01*
X54467142Y-28164285D01*
X55074285Y-28414285D02*
X55074285Y-28914285D01*
X54895714Y-28128571D02*
X54717142Y-28664285D01*
X55181428Y-28664285D01*
X56900000Y-28521428D02*
X56650000Y-28521428D01*
X56650000Y-28914285D02*
X56650000Y-28164285D01*
X57007142Y-28164285D01*
X57221428Y-28164285D02*
X57685714Y-28164285D01*
X57435714Y-28450000D01*
X57542857Y-28450000D01*
X57614285Y-28485714D01*
X57650000Y-28521428D01*
X57685714Y-28592857D01*
X57685714Y-28771428D01*
X57650000Y-28842857D01*
X57614285Y-28878571D01*
X57542857Y-28914285D01*
X57328571Y-28914285D01*
X57257142Y-28878571D01*
X57221428Y-28842857D01*
X59440000Y-28521428D02*
X59190000Y-28521428D01*
X59190000Y-28914285D02*
X59190000Y-28164285D01*
X59547142Y-28164285D01*
X59797142Y-28235714D02*
X59832857Y-28200000D01*
X59904285Y-28164285D01*
X60082857Y-28164285D01*
X60154285Y-28200000D01*
X60190000Y-28235714D01*
X60225714Y-28307142D01*
X60225714Y-28378571D01*
X60190000Y-28485714D01*
X59761428Y-28914285D01*
X60225714Y-28914285D01*
X61980000Y-28521428D02*
X61730000Y-28521428D01*
X61730000Y-28914285D02*
X61730000Y-28164285D01*
X62087142Y-28164285D01*
X62765714Y-28914285D02*
X62337142Y-28914285D01*
X62551428Y-28914285D02*
X62551428Y-28164285D01*
X62480000Y-28271428D01*
X62408571Y-28342857D01*
X62337142Y-28378571D01*
X64520000Y-28521428D02*
X64270000Y-28521428D01*
X64270000Y-28914285D02*
X64270000Y-28164285D01*
X64627142Y-28164285D01*
X65055714Y-28164285D02*
X65127142Y-28164285D01*
X65198571Y-28200000D01*
X65234285Y-28235714D01*
X65270000Y-28307142D01*
X65305714Y-28450000D01*
X65305714Y-28628571D01*
X65270000Y-28771428D01*
X65234285Y-28842857D01*
X65198571Y-28878571D01*
X65127142Y-28914285D01*
X65055714Y-28914285D01*
X64984285Y-28878571D01*
X64948571Y-28842857D01*
X64912857Y-28771428D01*
X64877142Y-28628571D01*
X64877142Y-28450000D01*
X64912857Y-28307142D01*
X64948571Y-28235714D01*
X64984285Y-28200000D01*
X65055714Y-28164285D01*
X66417142Y-28878571D02*
X66524285Y-28914285D01*
X66702857Y-28914285D01*
X66774285Y-28878571D01*
X66810000Y-28842857D01*
X66845714Y-28771428D01*
X66845714Y-28700000D01*
X66810000Y-28628571D01*
X66774285Y-28592857D01*
X66702857Y-28557142D01*
X66560000Y-28521428D01*
X66488571Y-28485714D01*
X66452857Y-28450000D01*
X66417142Y-28378571D01*
X66417142Y-28307142D01*
X66452857Y-28235714D01*
X66488571Y-28200000D01*
X66560000Y-28164285D01*
X66738571Y-28164285D01*
X66845714Y-28200000D01*
X67595714Y-28842857D02*
X67560000Y-28878571D01*
X67452857Y-28914285D01*
X67381428Y-28914285D01*
X67274285Y-28878571D01*
X67202857Y-28807142D01*
X67167142Y-28735714D01*
X67131428Y-28592857D01*
X67131428Y-28485714D01*
X67167142Y-28342857D01*
X67202857Y-28271428D01*
X67274285Y-28200000D01*
X67381428Y-28164285D01*
X67452857Y-28164285D01*
X67560000Y-28200000D01*
X67595714Y-28235714D01*
X68274285Y-28914285D02*
X67917142Y-28914285D01*
X67917142Y-28164285D01*
X68939285Y-28878571D02*
X69046428Y-28914285D01*
X69225000Y-28914285D01*
X69296428Y-28878571D01*
X69332142Y-28842857D01*
X69367857Y-28771428D01*
X69367857Y-28700000D01*
X69332142Y-28628571D01*
X69296428Y-28592857D01*
X69225000Y-28557142D01*
X69082142Y-28521428D01*
X69010714Y-28485714D01*
X68975000Y-28450000D01*
X68939285Y-28378571D01*
X68939285Y-28307142D01*
X68975000Y-28235714D01*
X69010714Y-28200000D01*
X69082142Y-28164285D01*
X69260714Y-28164285D01*
X69367857Y-28200000D01*
X69689285Y-28914285D02*
X69689285Y-28164285D01*
X69867857Y-28164285D01*
X69975000Y-28200000D01*
X70046428Y-28271428D01*
X70082142Y-28342857D01*
X70117857Y-28485714D01*
X70117857Y-28592857D01*
X70082142Y-28735714D01*
X70046428Y-28807142D01*
X69975000Y-28878571D01*
X69867857Y-28914285D01*
X69689285Y-28914285D01*
X70403571Y-28700000D02*
X70760714Y-28700000D01*
X70332142Y-28914285D02*
X70582142Y-28164285D01*
X70832142Y-28914285D01*
D10*
X69219047Y-45049285D02*
X69052380Y-45049285D01*
X69052380Y-45311190D02*
X69052380Y-44811190D01*
X69290476Y-44811190D01*
X69766666Y-45311190D02*
X69600000Y-45073095D01*
X69480952Y-45311190D02*
X69480952Y-44811190D01*
X69671428Y-44811190D01*
X69719047Y-44835000D01*
X69742857Y-44858809D01*
X69766666Y-44906428D01*
X69766666Y-44977857D01*
X69742857Y-45025476D01*
X69719047Y-45049285D01*
X69671428Y-45073095D01*
X69480952Y-45073095D01*
X69980952Y-45049285D02*
X70147619Y-45049285D01*
X70219047Y-45311190D02*
X69980952Y-45311190D01*
X69980952Y-44811190D01*
X70219047Y-44811190D01*
X70433333Y-45049285D02*
X70600000Y-45049285D01*
X70671428Y-45311190D02*
X70433333Y-45311190D01*
X70433333Y-44811190D01*
X70671428Y-44811190D01*
D11*
X66738571Y-44674285D02*
X67167142Y-44674285D01*
X66952857Y-45424285D02*
X66952857Y-44674285D01*
X67345714Y-44674285D02*
X67845714Y-45424285D01*
X67845714Y-44674285D02*
X67345714Y-45424285D01*
X64645000Y-45424285D02*
X64395000Y-45067142D01*
X64216428Y-45424285D02*
X64216428Y-44674285D01*
X64502142Y-44674285D01*
X64573571Y-44710000D01*
X64609285Y-44745714D01*
X64645000Y-44817142D01*
X64645000Y-44924285D01*
X64609285Y-44995714D01*
X64573571Y-45031428D01*
X64502142Y-45067142D01*
X64216428Y-45067142D01*
X64895000Y-44674285D02*
X65395000Y-45424285D01*
X65395000Y-44674285D02*
X64895000Y-45424285D01*
D10*
X61444285Y-45311190D02*
X61444285Y-44811190D01*
X61610952Y-45168333D01*
X61777619Y-44811190D01*
X61777619Y-45311190D01*
X62015714Y-45311190D02*
X62015714Y-44811190D01*
X62230000Y-45287380D02*
X62301428Y-45311190D01*
X62420476Y-45311190D01*
X62468095Y-45287380D01*
X62491904Y-45263571D01*
X62515714Y-45215952D01*
X62515714Y-45168333D01*
X62491904Y-45120714D01*
X62468095Y-45096904D01*
X62420476Y-45073095D01*
X62325238Y-45049285D01*
X62277619Y-45025476D01*
X62253809Y-45001666D01*
X62230000Y-44954047D01*
X62230000Y-44906428D01*
X62253809Y-44858809D01*
X62277619Y-44835000D01*
X62325238Y-44811190D01*
X62444285Y-44811190D01*
X62515714Y-44835000D01*
X62825238Y-44811190D02*
X62920476Y-44811190D01*
X62968095Y-44835000D01*
X63015714Y-44882619D01*
X63039523Y-44977857D01*
X63039523Y-45144523D01*
X63015714Y-45239761D01*
X62968095Y-45287380D01*
X62920476Y-45311190D01*
X62825238Y-45311190D01*
X62777619Y-45287380D01*
X62730000Y-45239761D01*
X62706190Y-45144523D01*
X62706190Y-44977857D01*
X62730000Y-44882619D01*
X62777619Y-44835000D01*
X62825238Y-44811190D01*
X58904285Y-45311190D02*
X58904285Y-44811190D01*
X59070952Y-45168333D01*
X59237619Y-44811190D01*
X59237619Y-45311190D01*
X59570952Y-44811190D02*
X59666190Y-44811190D01*
X59713809Y-44835000D01*
X59761428Y-44882619D01*
X59785238Y-44977857D01*
X59785238Y-45144523D01*
X59761428Y-45239761D01*
X59713809Y-45287380D01*
X59666190Y-45311190D01*
X59570952Y-45311190D01*
X59523333Y-45287380D01*
X59475714Y-45239761D01*
X59451904Y-45144523D01*
X59451904Y-44977857D01*
X59475714Y-44882619D01*
X59523333Y-44835000D01*
X59570952Y-44811190D01*
X59975714Y-45287380D02*
X60047142Y-45311190D01*
X60166190Y-45311190D01*
X60213809Y-45287380D01*
X60237619Y-45263571D01*
X60261428Y-45215952D01*
X60261428Y-45168333D01*
X60237619Y-45120714D01*
X60213809Y-45096904D01*
X60166190Y-45073095D01*
X60070952Y-45049285D01*
X60023333Y-45025476D01*
X59999523Y-45001666D01*
X59975714Y-44954047D01*
X59975714Y-44906428D01*
X59999523Y-44858809D01*
X60023333Y-44835000D01*
X60070952Y-44811190D01*
X60190000Y-44811190D01*
X60261428Y-44835000D01*
X60475714Y-45311190D02*
X60475714Y-44811190D01*
D11*
X56185714Y-45388571D02*
X56292857Y-45424285D01*
X56471428Y-45424285D01*
X56542857Y-45388571D01*
X56578571Y-45352857D01*
X56614285Y-45281428D01*
X56614285Y-45210000D01*
X56578571Y-45138571D01*
X56542857Y-45102857D01*
X56471428Y-45067142D01*
X56328571Y-45031428D01*
X56257142Y-44995714D01*
X56221428Y-44960000D01*
X56185714Y-44888571D01*
X56185714Y-44817142D01*
X56221428Y-44745714D01*
X56257142Y-44710000D01*
X56328571Y-44674285D01*
X56507142Y-44674285D01*
X56614285Y-44710000D01*
X57364285Y-45352857D02*
X57328571Y-45388571D01*
X57221428Y-45424285D01*
X57150000Y-45424285D01*
X57042857Y-45388571D01*
X56971428Y-45317142D01*
X56935714Y-45245714D01*
X56900000Y-45102857D01*
X56900000Y-44995714D01*
X56935714Y-44852857D01*
X56971428Y-44781428D01*
X57042857Y-44710000D01*
X57150000Y-44674285D01*
X57221428Y-44674285D01*
X57328571Y-44710000D01*
X57364285Y-44745714D01*
X57685714Y-45424285D02*
X57685714Y-44674285D01*
X58114285Y-45424285D02*
X57792857Y-44995714D01*
X58114285Y-44674285D02*
X57685714Y-45102857D01*
X54074285Y-45210000D02*
X54431428Y-45210000D01*
X54002857Y-45424285D02*
X54252857Y-44674285D01*
X54502857Y-45424285D01*
X55110000Y-44674285D02*
X54752857Y-44674285D01*
X54717142Y-45031428D01*
X54752857Y-44995714D01*
X54824285Y-44960000D01*
X55002857Y-44960000D01*
X55074285Y-44995714D01*
X55110000Y-45031428D01*
X55145714Y-45102857D01*
X55145714Y-45281428D01*
X55110000Y-45352857D01*
X55074285Y-45388571D01*
X55002857Y-45424285D01*
X54824285Y-45424285D01*
X54752857Y-45388571D01*
X54717142Y-45352857D01*
X51534285Y-45210000D02*
X51891428Y-45210000D01*
X51462857Y-45424285D02*
X51712857Y-44674285D01*
X51962857Y-45424285D01*
X52534285Y-44924285D02*
X52534285Y-45424285D01*
X52355714Y-44638571D02*
X52177142Y-45174285D01*
X52641428Y-45174285D01*
X48994285Y-45210000D02*
X49351428Y-45210000D01*
X48922857Y-45424285D02*
X49172857Y-44674285D01*
X49422857Y-45424285D01*
X49601428Y-44674285D02*
X50065714Y-44674285D01*
X49815714Y-44960000D01*
X49922857Y-44960000D01*
X49994285Y-44995714D01*
X50030000Y-45031428D01*
X50065714Y-45102857D01*
X50065714Y-45281428D01*
X50030000Y-45352857D01*
X49994285Y-45388571D01*
X49922857Y-45424285D01*
X49708571Y-45424285D01*
X49637142Y-45388571D01*
X49601428Y-45352857D01*
X46454285Y-45210000D02*
X46811428Y-45210000D01*
X46382857Y-45424285D02*
X46632857Y-44674285D01*
X46882857Y-45424285D01*
X47097142Y-44745714D02*
X47132857Y-44710000D01*
X47204285Y-44674285D01*
X47382857Y-44674285D01*
X47454285Y-44710000D01*
X47490000Y-44745714D01*
X47525714Y-44817142D01*
X47525714Y-44888571D01*
X47490000Y-44995714D01*
X47061428Y-45424285D01*
X47525714Y-45424285D01*
X43914285Y-45210000D02*
X44271428Y-45210000D01*
X43842857Y-45424285D02*
X44092857Y-44674285D01*
X44342857Y-45424285D01*
X44985714Y-45424285D02*
X44557142Y-45424285D01*
X44771428Y-45424285D02*
X44771428Y-44674285D01*
X44700000Y-44781428D01*
X44628571Y-44852857D01*
X44557142Y-44888571D01*
D10*
X41552857Y-46057333D02*
X41790952Y-46057333D01*
X41505238Y-46200190D02*
X41671904Y-45700190D01*
X41838571Y-46200190D01*
X42100476Y-45700190D02*
X42148095Y-45700190D01*
X42195714Y-45724000D01*
X42219523Y-45747809D01*
X42243333Y-45795428D01*
X42267142Y-45890666D01*
X42267142Y-46009714D01*
X42243333Y-46104952D01*
X42219523Y-46152571D01*
X42195714Y-46176380D01*
X42148095Y-46200190D01*
X42100476Y-46200190D01*
X42052857Y-46176380D01*
X42029047Y-46152571D01*
X42005238Y-46104952D01*
X41981428Y-46009714D01*
X41981428Y-45890666D01*
X42005238Y-45795428D01*
X42029047Y-45747809D01*
X42052857Y-45724000D01*
X42100476Y-45700190D01*
X38989047Y-45724000D02*
X38941428Y-45700190D01*
X38870000Y-45700190D01*
X38798571Y-45724000D01*
X38750952Y-45771619D01*
X38727142Y-45819238D01*
X38703333Y-45914476D01*
X38703333Y-45985904D01*
X38727142Y-46081142D01*
X38750952Y-46128761D01*
X38798571Y-46176380D01*
X38870000Y-46200190D01*
X38917619Y-46200190D01*
X38989047Y-46176380D01*
X39012857Y-46152571D01*
X39012857Y-45985904D01*
X38917619Y-45985904D01*
X39227142Y-46200190D02*
X39227142Y-45700190D01*
X39512857Y-46200190D01*
X39512857Y-45700190D01*
X39750952Y-46200190D02*
X39750952Y-45700190D01*
X39870000Y-45700190D01*
X39941428Y-45724000D01*
X39989047Y-45771619D01*
X40012857Y-45819238D01*
X40036666Y-45914476D01*
X40036666Y-45985904D01*
X40012857Y-46081142D01*
X39989047Y-46128761D01*
X39941428Y-46176380D01*
X39870000Y-46200190D01*
X39750952Y-46200190D01*
X33670952Y-45700190D02*
X33980476Y-45700190D01*
X33813809Y-45890666D01*
X33885238Y-45890666D01*
X33932857Y-45914476D01*
X33956666Y-45938285D01*
X33980476Y-45985904D01*
X33980476Y-46104952D01*
X33956666Y-46152571D01*
X33932857Y-46176380D01*
X33885238Y-46200190D01*
X33742380Y-46200190D01*
X33694761Y-46176380D01*
X33670952Y-46152571D01*
X34123333Y-45700190D02*
X34290000Y-46200190D01*
X34456666Y-45700190D01*
X34575714Y-45700190D02*
X34885238Y-45700190D01*
X34718571Y-45890666D01*
X34790000Y-45890666D01*
X34837619Y-45914476D01*
X34861428Y-45938285D01*
X34885238Y-45985904D01*
X34885238Y-46104952D01*
X34861428Y-46152571D01*
X34837619Y-46176380D01*
X34790000Y-46200190D01*
X34647142Y-46200190D01*
X34599523Y-46176380D01*
X34575714Y-46152571D01*
X31071428Y-45484000D02*
X31571428Y-45484000D01*
X31476190Y-46200190D02*
X31309523Y-45962095D01*
X31190476Y-46200190D02*
X31190476Y-45700190D01*
X31380952Y-45700190D01*
X31428571Y-45724000D01*
X31452380Y-45747809D01*
X31476190Y-45795428D01*
X31476190Y-45866857D01*
X31452380Y-45914476D01*
X31428571Y-45938285D01*
X31380952Y-45962095D01*
X31190476Y-45962095D01*
X31571428Y-45484000D02*
X32047619Y-45484000D01*
X31666666Y-46176380D02*
X31738095Y-46200190D01*
X31857142Y-46200190D01*
X31904761Y-46176380D01*
X31928571Y-46152571D01*
X31952380Y-46104952D01*
X31952380Y-46057333D01*
X31928571Y-46009714D01*
X31904761Y-45985904D01*
X31857142Y-45962095D01*
X31761904Y-45938285D01*
X31714285Y-45914476D01*
X31690476Y-45890666D01*
X31666666Y-45843047D01*
X31666666Y-45795428D01*
X31690476Y-45747809D01*
X31714285Y-45724000D01*
X31761904Y-45700190D01*
X31880952Y-45700190D01*
X31952380Y-45724000D01*
X32047619Y-45484000D02*
X32428571Y-45484000D01*
X32095238Y-45700190D02*
X32380952Y-45700190D01*
X32238095Y-46200190D02*
X32238095Y-45700190D01*
D12*
X56080000Y-33520000D02*
X54765000Y-33520000D01*
X56080000Y-33220000D02*
X56080000Y-33520000D01*
X56380000Y-33220000D02*
X56080000Y-33220000D01*
X63300000Y-33220000D02*
X63300000Y-33520000D01*
X63000000Y-33220000D02*
X63300000Y-33220000D01*
X56080000Y-40440000D02*
X56080000Y-40140000D01*
X56380000Y-40440000D02*
X56080000Y-40440000D01*
X63300000Y-40440000D02*
X63300000Y-40140000D01*
X63000000Y-40440000D02*
X63300000Y-40440000D01*
X29047221Y-41400000D02*
X29372779Y-41400000D01*
X29047221Y-42420000D02*
X29372779Y-42420000D01*
X31548000Y-43683422D02*
X31548000Y-44200578D01*
X32968000Y-43683422D02*
X32968000Y-44200578D01*
X33532578Y-39930000D02*
X33015422Y-39930000D01*
X33532578Y-41350000D02*
X33015422Y-41350000D01*
X40842000Y-43683422D02*
X40842000Y-44200578D01*
X39422000Y-43683422D02*
X39422000Y-44200578D01*
X41654000Y-43779221D02*
X41654000Y-44104779D01*
X42674000Y-43779221D02*
X42674000Y-44104779D01*
X52740779Y-37340000D02*
X52415221Y-37340000D01*
X52740779Y-36320000D02*
X52415221Y-36320000D01*
X52740779Y-38098000D02*
X52415221Y-38098000D01*
X52740779Y-39118000D02*
X52415221Y-39118000D01*
X31789000Y-37565000D02*
X34074000Y-37565000D01*
X31789000Y-36095000D02*
X31789000Y-37565000D01*
X34074000Y-36095000D02*
X31789000Y-36095000D01*
X39386000Y-41874000D02*
X39386000Y-37974000D01*
X41386000Y-41874000D02*
X41386000Y-37974000D01*
X39386000Y-41874000D02*
X41386000Y-41874000D01*
X25340000Y-33020000D02*
X25600000Y-33020000D01*
X27880000Y-33020000D02*
X29650000Y-33020000D01*
X29650000Y-33020000D02*
X29650000Y-33400000D01*
X29650000Y-40640000D02*
X27880000Y-40640000D01*
X25600000Y-40640000D02*
X25340000Y-40640000D01*
X29650000Y-40640000D02*
X29650000Y-40260000D01*
X37246779Y-36320000D02*
X36921221Y-36320000D01*
X37246779Y-37340000D02*
X36921221Y-37340000D01*
X29047221Y-32260000D02*
X29372779Y-32260000D01*
X29047221Y-31240000D02*
X29372779Y-31240000D01*
X33111221Y-38098000D02*
X33436779Y-38098000D01*
X33111221Y-39118000D02*
X33436779Y-39118000D01*
X33780000Y-44104779D02*
X33780000Y-43779221D01*
X34800000Y-44104779D02*
X34800000Y-43779221D01*
X37984000Y-38014000D02*
X35534000Y-38014000D01*
X36184000Y-41234000D02*
X37984000Y-41234000D01*
X36184000Y-45552000D02*
X37984000Y-45552000D01*
X37984000Y-42332000D02*
X35534000Y-42332000D01*
X38662000Y-25970000D02*
X33982000Y-25970000D01*
X33282000Y-32190000D02*
X34562000Y-32190000D01*
X33282000Y-33790000D02*
X33282000Y-32190000D01*
X32262000Y-33790000D02*
X33282000Y-33790000D01*
X32262000Y-29540000D02*
X32262000Y-33790000D01*
X38082000Y-32190000D02*
X38082000Y-35080000D01*
X39362000Y-32190000D02*
X38082000Y-32190000D01*
X39362000Y-33790000D02*
X39362000Y-32190000D01*
X40382000Y-33790000D02*
X39362000Y-33790000D01*
X40382000Y-29540000D02*
X40382000Y-33790000D01*
X52415221Y-30732000D02*
X52740779Y-30732000D01*
X52415221Y-31752000D02*
X52740779Y-31752000D01*
X52415221Y-40896000D02*
X52740779Y-40896000D01*
X52415221Y-39876000D02*
X52740779Y-39876000D01*
X45710000Y-28606000D02*
X45710000Y-41206000D01*
X50810000Y-28606000D02*
X45710000Y-28606000D01*
X50810000Y-41206000D02*
X50810000Y-28606000D01*
X74990000Y-41970000D02*
X73660000Y-41970000D01*
X74990000Y-40640000D02*
X74990000Y-41970000D01*
X74990000Y-39370000D02*
X72330000Y-39370000D01*
X72330000Y-39370000D02*
X72330000Y-31690000D01*
X74990000Y-39370000D02*
X74990000Y-31690000D01*
X74990000Y-31690000D02*
X72330000Y-31690000D01*
X71630000Y-36992779D02*
X71630000Y-36667221D01*
X70610000Y-36992779D02*
X70610000Y-36667221D01*
X52718580Y-32510000D02*
X52437420Y-32510000D01*
X52718580Y-33530000D02*
X52437420Y-33530000D01*
X67845000Y-33694000D02*
X67845000Y-35979000D01*
X69315000Y-33694000D02*
X67845000Y-33694000D01*
X69315000Y-35979000D02*
X69315000Y-33694000D01*
X43280000Y-37122000D02*
X43280000Y-34837000D01*
X43280000Y-34837000D02*
X41810000Y-34837000D01*
X41810000Y-34837000D02*
X41810000Y-37122000D01*
X66183742Y-39736500D02*
X66658258Y-39736500D01*
X66183742Y-40781500D02*
X66658258Y-40781500D01*
X69102500Y-38718258D02*
X69102500Y-38243742D01*
X68057500Y-38718258D02*
X68057500Y-38243742D01*
X42022500Y-39861258D02*
X42022500Y-39386742D01*
X43067500Y-39861258D02*
X43067500Y-39386742D01*
X64351000Y-29291000D02*
X68491000Y-29291000D01*
X68491000Y-32131000D02*
X68491000Y-32431000D01*
X68491000Y-32431000D02*
X64351000Y-32431000D01*
X64351000Y-29591000D02*
X64351000Y-29291000D01*
X64351000Y-32431000D02*
X64351000Y-32131000D01*
X68491000Y-29291000D02*
X68491000Y-29591000D01*
X68491000Y-41229000D02*
X68491000Y-41529000D01*
X64351000Y-44369000D02*
X64351000Y-44069000D01*
X64351000Y-41529000D02*
X64351000Y-41229000D01*
X68491000Y-44369000D02*
X64351000Y-44369000D01*
X68491000Y-44069000D02*
X68491000Y-44369000D01*
X64351000Y-41229000D02*
X68491000Y-41229000D01*
D11*
X58928095Y-30402380D02*
X58928095Y-31211904D01*
X58975714Y-31307142D01*
X59023333Y-31354761D01*
X59118571Y-31402380D01*
X59309047Y-31402380D01*
X59404285Y-31354761D01*
X59451904Y-31307142D01*
X59499523Y-31211904D01*
X59499523Y-30402380D01*
X60499523Y-31402380D02*
X59928095Y-31402380D01*
X60213809Y-31402380D02*
X60213809Y-30402380D01*
X60118571Y-30545238D01*
X60023333Y-30640476D01*
X59928095Y-30688095D01*
X29043333Y-43791142D02*
X28995714Y-43838761D01*
X28852857Y-43886380D01*
X28757619Y-43886380D01*
X28614761Y-43838761D01*
X28519523Y-43743523D01*
X28471904Y-43648285D01*
X28424285Y-43457809D01*
X28424285Y-43314952D01*
X28471904Y-43124476D01*
X28519523Y-43029238D01*
X28614761Y-42934000D01*
X28757619Y-42886380D01*
X28852857Y-42886380D01*
X28995714Y-42934000D01*
X29043333Y-42981619D01*
X29995714Y-43886380D02*
X29424285Y-43886380D01*
X29710000Y-43886380D02*
X29710000Y-42886380D01*
X29614761Y-43029238D01*
X29519523Y-43124476D01*
X29424285Y-43172095D01*
X32091333Y-42521142D02*
X32043714Y-42568761D01*
X31900857Y-42616380D01*
X31805619Y-42616380D01*
X31662761Y-42568761D01*
X31567523Y-42473523D01*
X31519904Y-42378285D01*
X31472285Y-42187809D01*
X31472285Y-42044952D01*
X31519904Y-41854476D01*
X31567523Y-41759238D01*
X31662761Y-41664000D01*
X31805619Y-41616380D01*
X31900857Y-41616380D01*
X32043714Y-41664000D01*
X32091333Y-41711619D01*
X32472285Y-41711619D02*
X32519904Y-41664000D01*
X32615142Y-41616380D01*
X32853238Y-41616380D01*
X32948476Y-41664000D01*
X32996095Y-41711619D01*
X33043714Y-41806857D01*
X33043714Y-41902095D01*
X32996095Y-42044952D01*
X32424666Y-42616380D01*
X33043714Y-42616380D01*
X31599142Y-40806666D02*
X31646761Y-40854285D01*
X31694380Y-40997142D01*
X31694380Y-41092380D01*
X31646761Y-41235238D01*
X31551523Y-41330476D01*
X31456285Y-41378095D01*
X31265809Y-41425714D01*
X31122952Y-41425714D01*
X30932476Y-41378095D01*
X30837238Y-41330476D01*
X30742000Y-41235238D01*
X30694380Y-41092380D01*
X30694380Y-40997142D01*
X30742000Y-40854285D01*
X30789619Y-40806666D01*
X30694380Y-40473333D02*
X30694380Y-39854285D01*
X31075333Y-40187619D01*
X31075333Y-40044761D01*
X31122952Y-39949523D01*
X31170571Y-39901904D01*
X31265809Y-39854285D01*
X31503904Y-39854285D01*
X31599142Y-39901904D01*
X31646761Y-39949523D01*
X31694380Y-40044761D01*
X31694380Y-40330476D01*
X31646761Y-40425714D01*
X31599142Y-40473333D01*
X43791142Y-43854666D02*
X43838761Y-43902285D01*
X43886380Y-44045142D01*
X43886380Y-44140380D01*
X43838761Y-44283238D01*
X43743523Y-44378476D01*
X43648285Y-44426095D01*
X43457809Y-44473714D01*
X43314952Y-44473714D01*
X43124476Y-44426095D01*
X43029238Y-44378476D01*
X42934000Y-44283238D01*
X42886380Y-44140380D01*
X42886380Y-44045142D01*
X42934000Y-43902285D01*
X42981619Y-43854666D01*
X43219714Y-42997523D02*
X43886380Y-42997523D01*
X42838761Y-43235619D02*
X43553047Y-43473714D01*
X43553047Y-42854666D01*
X45061142Y-43854666D02*
X45108761Y-43902285D01*
X45156380Y-44045142D01*
X45156380Y-44140380D01*
X45108761Y-44283238D01*
X45013523Y-44378476D01*
X44918285Y-44426095D01*
X44727809Y-44473714D01*
X44584952Y-44473714D01*
X44394476Y-44426095D01*
X44299238Y-44378476D01*
X44204000Y-44283238D01*
X44156380Y-44140380D01*
X44156380Y-44045142D01*
X44204000Y-43902285D01*
X44251619Y-43854666D01*
X44156380Y-42949904D02*
X44156380Y-43426095D01*
X44632571Y-43473714D01*
X44584952Y-43426095D01*
X44537333Y-43330857D01*
X44537333Y-43092761D01*
X44584952Y-42997523D01*
X44632571Y-42949904D01*
X44727809Y-42902285D01*
X44965904Y-42902285D01*
X45061142Y-42949904D01*
X45108761Y-42997523D01*
X45156380Y-43092761D01*
X45156380Y-43330857D01*
X45108761Y-43426095D01*
X45061142Y-43473714D01*
X52411333Y-35917142D02*
X52363714Y-35964761D01*
X52220857Y-36012380D01*
X52125619Y-36012380D01*
X51982761Y-35964761D01*
X51887523Y-35869523D01*
X51839904Y-35774285D01*
X51792285Y-35583809D01*
X51792285Y-35440952D01*
X51839904Y-35250476D01*
X51887523Y-35155238D01*
X51982761Y-35060000D01*
X52125619Y-35012380D01*
X52220857Y-35012380D01*
X52363714Y-35060000D01*
X52411333Y-35107619D01*
X53268476Y-35012380D02*
X53078000Y-35012380D01*
X52982761Y-35060000D01*
X52935142Y-35107619D01*
X52839904Y-35250476D01*
X52792285Y-35440952D01*
X52792285Y-35821904D01*
X52839904Y-35917142D01*
X52887523Y-35964761D01*
X52982761Y-36012380D01*
X53173238Y-36012380D01*
X53268476Y-35964761D01*
X53316095Y-35917142D01*
X53363714Y-35821904D01*
X53363714Y-35583809D01*
X53316095Y-35488571D01*
X53268476Y-35440952D01*
X53173238Y-35393333D01*
X52982761Y-35393333D01*
X52887523Y-35440952D01*
X52839904Y-35488571D01*
X52792285Y-35583809D01*
X52411333Y-42775142D02*
X52363714Y-42822761D01*
X52220857Y-42870380D01*
X52125619Y-42870380D01*
X51982761Y-42822761D01*
X51887523Y-42727523D01*
X51839904Y-42632285D01*
X51792285Y-42441809D01*
X51792285Y-42298952D01*
X51839904Y-42108476D01*
X51887523Y-42013238D01*
X51982761Y-41918000D01*
X52125619Y-41870380D01*
X52220857Y-41870380D01*
X52363714Y-41918000D01*
X52411333Y-41965619D01*
X52744666Y-41870380D02*
X53411333Y-41870380D01*
X52982761Y-42870380D01*
X31694380Y-37314095D02*
X30694380Y-37314095D01*
X30694380Y-37076000D01*
X30742000Y-36933142D01*
X30837238Y-36837904D01*
X30932476Y-36790285D01*
X31122952Y-36742666D01*
X31265809Y-36742666D01*
X31456285Y-36790285D01*
X31551523Y-36837904D01*
X31646761Y-36933142D01*
X31694380Y-37076000D01*
X31694380Y-37314095D01*
X31694380Y-35790285D02*
X31694380Y-36361714D01*
X31694380Y-36076000D02*
X30694380Y-36076000D01*
X30837238Y-36171238D01*
X30932476Y-36266476D01*
X30980095Y-36361714D01*
X41806904Y-42235380D02*
X41806904Y-41235380D01*
X42045000Y-41235380D01*
X42187857Y-41283000D01*
X42283095Y-41378238D01*
X42330714Y-41473476D01*
X42378333Y-41663952D01*
X42378333Y-41806809D01*
X42330714Y-41997285D01*
X42283095Y-42092523D01*
X42187857Y-42187761D01*
X42045000Y-42235380D01*
X41806904Y-42235380D01*
X42759285Y-41330619D02*
X42806904Y-41283000D01*
X42902142Y-41235380D01*
X43140238Y-41235380D01*
X43235476Y-41283000D01*
X43283095Y-41330619D01*
X43330714Y-41425857D01*
X43330714Y-41521095D01*
X43283095Y-41663952D01*
X42711666Y-42235380D01*
X43330714Y-42235380D01*
X26336666Y-31202380D02*
X26336666Y-31916666D01*
X26289047Y-32059523D01*
X26193809Y-32154761D01*
X26050952Y-32202380D01*
X25955714Y-32202380D01*
X26717619Y-31202380D02*
X27336666Y-31202380D01*
X27003333Y-31583333D01*
X27146190Y-31583333D01*
X27241428Y-31630952D01*
X27289047Y-31678571D01*
X27336666Y-31773809D01*
X27336666Y-32011904D01*
X27289047Y-32107142D01*
X27241428Y-32154761D01*
X27146190Y-32202380D01*
X26860476Y-32202380D01*
X26765238Y-32154761D01*
X26717619Y-32107142D01*
X39457333Y-37282380D02*
X39124000Y-36806190D01*
X38885904Y-37282380D02*
X38885904Y-36282380D01*
X39266857Y-36282380D01*
X39362095Y-36330000D01*
X39409714Y-36377619D01*
X39457333Y-36472857D01*
X39457333Y-36615714D01*
X39409714Y-36710952D01*
X39362095Y-36758571D01*
X39266857Y-36806190D01*
X38885904Y-36806190D01*
X40409714Y-37282380D02*
X39838285Y-37282380D01*
X40124000Y-37282380D02*
X40124000Y-36282380D01*
X40028761Y-36425238D01*
X39933523Y-36520476D01*
X39838285Y-36568095D01*
X29043333Y-30772380D02*
X28710000Y-30296190D01*
X28471904Y-30772380D02*
X28471904Y-29772380D01*
X28852857Y-29772380D01*
X28948095Y-29820000D01*
X28995714Y-29867619D01*
X29043333Y-29962857D01*
X29043333Y-30105714D01*
X28995714Y-30200952D01*
X28948095Y-30248571D01*
X28852857Y-30296190D01*
X28471904Y-30296190D01*
X29424285Y-29867619D02*
X29471904Y-29820000D01*
X29567142Y-29772380D01*
X29805238Y-29772380D01*
X29900476Y-29820000D01*
X29948095Y-29867619D01*
X29995714Y-29962857D01*
X29995714Y-30058095D01*
X29948095Y-30200952D01*
X29376666Y-30772380D01*
X29995714Y-30772380D01*
X31694380Y-38774666D02*
X31218190Y-39108000D01*
X31694380Y-39346095D02*
X30694380Y-39346095D01*
X30694380Y-38965142D01*
X30742000Y-38869904D01*
X30789619Y-38822285D01*
X30884857Y-38774666D01*
X31027714Y-38774666D01*
X31122952Y-38822285D01*
X31170571Y-38869904D01*
X31218190Y-38965142D01*
X31218190Y-39346095D01*
X30694380Y-38441333D02*
X30694380Y-37822285D01*
X31075333Y-38155619D01*
X31075333Y-38012761D01*
X31122952Y-37917523D01*
X31170571Y-37869904D01*
X31265809Y-37822285D01*
X31503904Y-37822285D01*
X31599142Y-37869904D01*
X31646761Y-37917523D01*
X31694380Y-38012761D01*
X31694380Y-38298476D01*
X31646761Y-38393714D01*
X31599142Y-38441333D01*
X34123333Y-42616380D02*
X33790000Y-42140190D01*
X33551904Y-42616380D02*
X33551904Y-41616380D01*
X33932857Y-41616380D01*
X34028095Y-41664000D01*
X34075714Y-41711619D01*
X34123333Y-41806857D01*
X34123333Y-41949714D01*
X34075714Y-42044952D01*
X34028095Y-42092571D01*
X33932857Y-42140190D01*
X33551904Y-42140190D01*
X34980476Y-41949714D02*
X34980476Y-42616380D01*
X34742380Y-41568761D02*
X34504285Y-42283047D01*
X35123333Y-42283047D01*
X37592095Y-39076380D02*
X37592095Y-39885904D01*
X37639714Y-39981142D01*
X37687333Y-40028761D01*
X37782571Y-40076380D01*
X37973047Y-40076380D01*
X38068285Y-40028761D01*
X38115904Y-39981142D01*
X38163523Y-39885904D01*
X38163523Y-39076380D01*
X38592095Y-39171619D02*
X38639714Y-39124000D01*
X38734952Y-39076380D01*
X38973047Y-39076380D01*
X39068285Y-39124000D01*
X39115904Y-39171619D01*
X39163523Y-39266857D01*
X39163523Y-39362095D01*
X39115904Y-39504952D01*
X38544476Y-40076380D01*
X39163523Y-40076380D01*
X37592095Y-43394380D02*
X37592095Y-44203904D01*
X37639714Y-44299142D01*
X37687333Y-44346761D01*
X37782571Y-44394380D01*
X37973047Y-44394380D01*
X38068285Y-44346761D01*
X38115904Y-44299142D01*
X38163523Y-44203904D01*
X38163523Y-43394380D01*
X38544476Y-43394380D02*
X39163523Y-43394380D01*
X38830190Y-43775333D01*
X38973047Y-43775333D01*
X39068285Y-43822952D01*
X39115904Y-43870571D01*
X39163523Y-43965809D01*
X39163523Y-44203904D01*
X39115904Y-44299142D01*
X39068285Y-44346761D01*
X38973047Y-44394380D01*
X38687333Y-44394380D01*
X38592095Y-44346761D01*
X38544476Y-44299142D01*
X32432666Y-34250380D02*
X32432666Y-34964666D01*
X32385047Y-35107523D01*
X32289809Y-35202761D01*
X32146952Y-35250380D01*
X32051714Y-35250380D01*
X33337428Y-34583714D02*
X33337428Y-35250380D01*
X33099333Y-34202761D02*
X32861238Y-34917047D01*
X33480285Y-34917047D01*
X52411333Y-30169142D02*
X52363714Y-30216761D01*
X52220857Y-30264380D01*
X52125619Y-30264380D01*
X51982761Y-30216761D01*
X51887523Y-30121523D01*
X51839904Y-30026285D01*
X51792285Y-29835809D01*
X51792285Y-29692952D01*
X51839904Y-29502476D01*
X51887523Y-29407238D01*
X51982761Y-29312000D01*
X52125619Y-29264380D01*
X52220857Y-29264380D01*
X52363714Y-29312000D01*
X52411333Y-29359619D01*
X52982761Y-29692952D02*
X52887523Y-29645333D01*
X52839904Y-29597714D01*
X52792285Y-29502476D01*
X52792285Y-29454857D01*
X52839904Y-29359619D01*
X52887523Y-29312000D01*
X52982761Y-29264380D01*
X53173238Y-29264380D01*
X53268476Y-29312000D01*
X53316095Y-29359619D01*
X53363714Y-29454857D01*
X53363714Y-29502476D01*
X53316095Y-29597714D01*
X53268476Y-29645333D01*
X53173238Y-29692952D01*
X52982761Y-29692952D01*
X52887523Y-29740571D01*
X52839904Y-29788190D01*
X52792285Y-29883428D01*
X52792285Y-30073904D01*
X52839904Y-30169142D01*
X52887523Y-30216761D01*
X52982761Y-30264380D01*
X53173238Y-30264380D01*
X53268476Y-30216761D01*
X53316095Y-30169142D01*
X53363714Y-30073904D01*
X53363714Y-29883428D01*
X53316095Y-29788190D01*
X53268476Y-29740571D01*
X53173238Y-29692952D01*
X52411333Y-44045142D02*
X52363714Y-44092761D01*
X52220857Y-44140380D01*
X52125619Y-44140380D01*
X51982761Y-44092761D01*
X51887523Y-43997523D01*
X51839904Y-43902285D01*
X51792285Y-43711809D01*
X51792285Y-43568952D01*
X51839904Y-43378476D01*
X51887523Y-43283238D01*
X51982761Y-43188000D01*
X52125619Y-43140380D01*
X52220857Y-43140380D01*
X52363714Y-43188000D01*
X52411333Y-43235619D01*
X52887523Y-44140380D02*
X53078000Y-44140380D01*
X53173238Y-44092761D01*
X53220857Y-44045142D01*
X53316095Y-43902285D01*
X53363714Y-43711809D01*
X53363714Y-43330857D01*
X53316095Y-43235619D01*
X53268476Y-43188000D01*
X53173238Y-43140380D01*
X52982761Y-43140380D01*
X52887523Y-43188000D01*
X52839904Y-43235619D01*
X52792285Y-43330857D01*
X52792285Y-43568952D01*
X52839904Y-43664190D01*
X52887523Y-43711809D01*
X52982761Y-43759428D01*
X53173238Y-43759428D01*
X53268476Y-43711809D01*
X53316095Y-43664190D01*
X53363714Y-43568952D01*
X44934190Y-35782190D02*
X45410380Y-35782190D01*
X44410380Y-36115523D02*
X44934190Y-35782190D01*
X44410380Y-35448857D01*
X45410380Y-34591714D02*
X45410380Y-35163142D01*
X45410380Y-34877428D02*
X44410380Y-34877428D01*
X44553238Y-34972666D01*
X44648476Y-35067904D01*
X44696095Y-35163142D01*
X73326666Y-42422380D02*
X73326666Y-43136666D01*
X73279047Y-43279523D01*
X73183809Y-43374761D01*
X73040952Y-43422380D01*
X72945714Y-43422380D01*
X74279047Y-42422380D02*
X73802857Y-42422380D01*
X73755238Y-42898571D01*
X73802857Y-42850952D01*
X73898095Y-42803333D01*
X74136190Y-42803333D01*
X74231428Y-42850952D01*
X74279047Y-42898571D01*
X74326666Y-42993809D01*
X74326666Y-43231904D01*
X74279047Y-43327142D01*
X74231428Y-43374761D01*
X74136190Y-43422380D01*
X73898095Y-43422380D01*
X73802857Y-43374761D01*
X73755238Y-43327142D01*
X71572380Y-39536666D02*
X71096190Y-39870000D01*
X71572380Y-40108095D02*
X70572380Y-40108095D01*
X70572380Y-39727142D01*
X70620000Y-39631904D01*
X70667619Y-39584285D01*
X70762857Y-39536666D01*
X70905714Y-39536666D01*
X71000952Y-39584285D01*
X71048571Y-39631904D01*
X71096190Y-39727142D01*
X71096190Y-40108095D01*
X70572380Y-38631904D02*
X70572380Y-39108095D01*
X71048571Y-39155714D01*
X71000952Y-39108095D01*
X70953333Y-39012857D01*
X70953333Y-38774761D01*
X71000952Y-38679523D01*
X71048571Y-38631904D01*
X71143809Y-38584285D01*
X71381904Y-38584285D01*
X71477142Y-38631904D01*
X71524761Y-38679523D01*
X71572380Y-38774761D01*
X71572380Y-39012857D01*
X71524761Y-39108095D01*
X71477142Y-39155714D01*
X51935142Y-34647142D02*
X51887523Y-34694761D01*
X51744666Y-34742380D01*
X51649428Y-34742380D01*
X51506571Y-34694761D01*
X51411333Y-34599523D01*
X51363714Y-34504285D01*
X51316095Y-34313809D01*
X51316095Y-34170952D01*
X51363714Y-33980476D01*
X51411333Y-33885238D01*
X51506571Y-33790000D01*
X51649428Y-33742380D01*
X51744666Y-33742380D01*
X51887523Y-33790000D01*
X51935142Y-33837619D01*
X52887523Y-34742380D02*
X52316095Y-34742380D01*
X52601809Y-34742380D02*
X52601809Y-33742380D01*
X52506571Y-33885238D01*
X52411333Y-33980476D01*
X52316095Y-34028095D01*
X53506571Y-33742380D02*
X53601809Y-33742380D01*
X53697047Y-33790000D01*
X53744666Y-33837619D01*
X53792285Y-33932857D01*
X53839904Y-34123333D01*
X53839904Y-34361428D01*
X53792285Y-34551904D01*
X53744666Y-34647142D01*
X53697047Y-34694761D01*
X53601809Y-34742380D01*
X53506571Y-34742380D01*
X53411333Y-34694761D01*
X53363714Y-34647142D01*
X53316095Y-34551904D01*
X53268476Y-34361428D01*
X53268476Y-34123333D01*
X53316095Y-33932857D01*
X53363714Y-33837619D01*
X53411333Y-33790000D01*
X53506571Y-33742380D01*
X67635380Y-35917095D02*
X66635380Y-35917095D01*
X66635380Y-35679000D01*
X66683000Y-35536142D01*
X66778238Y-35440904D01*
X66873476Y-35393285D01*
X67063952Y-35345666D01*
X67206809Y-35345666D01*
X67397285Y-35393285D01*
X67492523Y-35440904D01*
X67587761Y-35536142D01*
X67635380Y-35679000D01*
X67635380Y-35917095D01*
X66635380Y-35012333D02*
X66635380Y-34393285D01*
X67016333Y-34726619D01*
X67016333Y-34583761D01*
X67063952Y-34488523D01*
X67111571Y-34440904D01*
X67206809Y-34393285D01*
X67444904Y-34393285D01*
X67540142Y-34440904D01*
X67587761Y-34488523D01*
X67635380Y-34583761D01*
X67635380Y-34869476D01*
X67587761Y-34964714D01*
X67540142Y-35012333D01*
X42997380Y-34520095D02*
X41997380Y-34520095D01*
X41997380Y-34282000D01*
X42045000Y-34139142D01*
X42140238Y-34043904D01*
X42235476Y-33996285D01*
X42425952Y-33948666D01*
X42568809Y-33948666D01*
X42759285Y-33996285D01*
X42854523Y-34043904D01*
X42949761Y-34139142D01*
X42997380Y-34282000D01*
X42997380Y-34520095D01*
X42330714Y-33091523D02*
X42997380Y-33091523D01*
X41949761Y-33329619D02*
X42664047Y-33567714D01*
X42664047Y-32948666D01*
X68667333Y-40965380D02*
X68334000Y-40489190D01*
X68095904Y-40965380D02*
X68095904Y-39965380D01*
X68476857Y-39965380D01*
X68572095Y-40013000D01*
X68619714Y-40060619D01*
X68667333Y-40155857D01*
X68667333Y-40298714D01*
X68619714Y-40393952D01*
X68572095Y-40441571D01*
X68476857Y-40489190D01*
X68095904Y-40489190D01*
X69524476Y-39965380D02*
X69334000Y-39965380D01*
X69238761Y-40013000D01*
X69191142Y-40060619D01*
X69095904Y-40203476D01*
X69048285Y-40393952D01*
X69048285Y-40774904D01*
X69095904Y-40870142D01*
X69143523Y-40917761D01*
X69238761Y-40965380D01*
X69429238Y-40965380D01*
X69524476Y-40917761D01*
X69572095Y-40870142D01*
X69619714Y-40774904D01*
X69619714Y-40536809D01*
X69572095Y-40441571D01*
X69524476Y-40393952D01*
X69429238Y-40346333D01*
X69238761Y-40346333D01*
X69143523Y-40393952D01*
X69095904Y-40441571D01*
X69048285Y-40536809D01*
X67602380Y-38647666D02*
X67126190Y-38981000D01*
X67602380Y-39219095D02*
X66602380Y-39219095D01*
X66602380Y-38838142D01*
X66650000Y-38742904D01*
X66697619Y-38695285D01*
X66792857Y-38647666D01*
X66935714Y-38647666D01*
X67030952Y-38695285D01*
X67078571Y-38742904D01*
X67126190Y-38838142D01*
X67126190Y-39219095D01*
X66602380Y-38314333D02*
X66602380Y-37647666D01*
X67602380Y-38076238D01*
X44521380Y-39790666D02*
X44045190Y-40124000D01*
X44521380Y-40362095D02*
X43521380Y-40362095D01*
X43521380Y-39981142D01*
X43569000Y-39885904D01*
X43616619Y-39838285D01*
X43711857Y-39790666D01*
X43854714Y-39790666D01*
X43949952Y-39838285D01*
X43997571Y-39885904D01*
X44045190Y-39981142D01*
X44045190Y-40362095D01*
X43949952Y-39219238D02*
X43902333Y-39314476D01*
X43854714Y-39362095D01*
X43759476Y-39409714D01*
X43711857Y-39409714D01*
X43616619Y-39362095D01*
X43569000Y-39314476D01*
X43521380Y-39219238D01*
X43521380Y-39028761D01*
X43569000Y-38933523D01*
X43616619Y-38885904D01*
X43711857Y-38838285D01*
X43759476Y-38838285D01*
X43854714Y-38885904D01*
X43902333Y-38933523D01*
X43949952Y-39028761D01*
X43949952Y-39219238D01*
X43997571Y-39314476D01*
X44045190Y-39362095D01*
X44140428Y-39409714D01*
X44330904Y-39409714D01*
X44426142Y-39362095D01*
X44473761Y-39314476D01*
X44521380Y-39219238D01*
X44521380Y-39028761D01*
X44473761Y-38933523D01*
X44426142Y-38885904D01*
X44330904Y-38838285D01*
X44140428Y-38838285D01*
X44045190Y-38885904D01*
X43997571Y-38933523D01*
X43949952Y-39028761D01*
X70381761Y-32194333D02*
X70429380Y-32051476D01*
X70429380Y-31813380D01*
X70381761Y-31718142D01*
X70334142Y-31670523D01*
X70238904Y-31622904D01*
X70143666Y-31622904D01*
X70048428Y-31670523D01*
X70000809Y-31718142D01*
X69953190Y-31813380D01*
X69905571Y-32003857D01*
X69857952Y-32099095D01*
X69810333Y-32146714D01*
X69715095Y-32194333D01*
X69619857Y-32194333D01*
X69524619Y-32146714D01*
X69477000Y-32099095D01*
X69429380Y-32003857D01*
X69429380Y-31765761D01*
X69477000Y-31622904D01*
X69429380Y-31289571D02*
X70429380Y-31051476D01*
X69715095Y-30861000D01*
X70429380Y-30670523D01*
X69429380Y-30432428D01*
X70429380Y-29527666D02*
X70429380Y-30099095D01*
X70429380Y-29813380D02*
X69429380Y-29813380D01*
X69572238Y-29908619D01*
X69667476Y-30003857D01*
X69715095Y-30099095D01*
X70381761Y-44132333D02*
X70429380Y-43989476D01*
X70429380Y-43751380D01*
X70381761Y-43656142D01*
X70334142Y-43608523D01*
X70238904Y-43560904D01*
X70143666Y-43560904D01*
X70048428Y-43608523D01*
X70000809Y-43656142D01*
X69953190Y-43751380D01*
X69905571Y-43941857D01*
X69857952Y-44037095D01*
X69810333Y-44084714D01*
X69715095Y-44132333D01*
X69619857Y-44132333D01*
X69524619Y-44084714D01*
X69477000Y-44037095D01*
X69429380Y-43941857D01*
X69429380Y-43703761D01*
X69477000Y-43560904D01*
X69429380Y-43227571D02*
X70429380Y-42989476D01*
X69715095Y-42799000D01*
X70429380Y-42608523D01*
X69429380Y-42370428D01*
X69524619Y-42037095D02*
X69477000Y-41989476D01*
X69429380Y-41894238D01*
X69429380Y-41656142D01*
X69477000Y-41560904D01*
X69524619Y-41513285D01*
X69619857Y-41465666D01*
X69715095Y-41465666D01*
X69857952Y-41513285D01*
X70429380Y-42084714D01*
X70429380Y-41465666D01*
%LPC*%
D13*
X73660000Y-27940000D03*
X73660000Y-45720000D03*
X27940000Y-45720000D03*
X27940000Y-27940000D03*
D14*
X69850000Y-46990000D03*
D15*
X67310000Y-46990000D03*
X64770000Y-46990000D03*
X62230000Y-46990000D03*
X59690000Y-46990000D03*
X57150000Y-46990000D03*
X54610000Y-46990000D03*
X52070000Y-46990000D03*
X49530000Y-46990000D03*
X46990000Y-46990000D03*
X44450000Y-46990000D03*
X41910000Y-46990000D03*
X39370000Y-46990000D03*
X36830000Y-46990000D03*
X34290000Y-46990000D03*
X31750000Y-46990000D03*
D14*
X69850000Y-26670000D03*
D15*
X67310000Y-26670000D03*
X64770000Y-26670000D03*
X62230000Y-26670000D03*
X59690000Y-26670000D03*
X57150000Y-26670000D03*
X54610000Y-26670000D03*
X52070000Y-26670000D03*
X49530000Y-26670000D03*
X46990000Y-26670000D03*
X44450000Y-26670000D03*
X41910000Y-26670000D03*
G36*
G01*
X54714000Y-34180500D02*
X54714000Y-33879500D01*
G75*
G02*
X54864500Y-33729000I150500J0D01*
G01*
X56165500Y-33729000D01*
G75*
G02*
X56316000Y-33879500I0J-150500D01*
G01*
X56316000Y-34180500D01*
G75*
G02*
X56165500Y-34331000I-150500J0D01*
G01*
X54864500Y-34331000D01*
G75*
G02*
X54714000Y-34180500I0J150500D01*
G01*
G37*
G36*
G01*
X54714000Y-34980500D02*
X54714000Y-34679500D01*
G75*
G02*
X54864500Y-34529000I150500J0D01*
G01*
X56165500Y-34529000D01*
G75*
G02*
X56316000Y-34679500I0J-150500D01*
G01*
X56316000Y-34980500D01*
G75*
G02*
X56165500Y-35131000I-150500J0D01*
G01*
X54864500Y-35131000D01*
G75*
G02*
X54714000Y-34980500I0J150500D01*
G01*
G37*
G36*
G01*
X54714000Y-35780500D02*
X54714000Y-35479500D01*
G75*
G02*
X54864500Y-35329000I150500J0D01*
G01*
X56165500Y-35329000D01*
G75*
G02*
X56316000Y-35479500I0J-150500D01*
G01*
X56316000Y-35780500D01*
G75*
G02*
X56165500Y-35931000I-150500J0D01*
G01*
X54864500Y-35931000D01*
G75*
G02*
X54714000Y-35780500I0J150500D01*
G01*
G37*
G36*
G01*
X54714000Y-36580500D02*
X54714000Y-36279500D01*
G75*
G02*
X54864500Y-36129000I150500J0D01*
G01*
X56165500Y-36129000D01*
G75*
G02*
X56316000Y-36279500I0J-150500D01*
G01*
X56316000Y-36580500D01*
G75*
G02*
X56165500Y-36731000I-150500J0D01*
G01*
X54864500Y-36731000D01*
G75*
G02*
X54714000Y-36580500I0J150500D01*
G01*
G37*
G36*
G01*
X54714000Y-37380500D02*
X54714000Y-37079500D01*
G75*
G02*
X54864500Y-36929000I150500J0D01*
G01*
X56165500Y-36929000D01*
G75*
G02*
X56316000Y-37079500I0J-150500D01*
G01*
X56316000Y-37380500D01*
G75*
G02*
X56165500Y-37531000I-150500J0D01*
G01*
X54864500Y-37531000D01*
G75*
G02*
X54714000Y-37380500I0J150500D01*
G01*
G37*
G36*
G01*
X54714000Y-38180500D02*
X54714000Y-37879500D01*
G75*
G02*
X54864500Y-37729000I150500J0D01*
G01*
X56165500Y-37729000D01*
G75*
G02*
X56316000Y-37879500I0J-150500D01*
G01*
X56316000Y-38180500D01*
G75*
G02*
X56165500Y-38331000I-150500J0D01*
G01*
X54864500Y-38331000D01*
G75*
G02*
X54714000Y-38180500I0J150500D01*
G01*
G37*
G36*
G01*
X54714000Y-38980500D02*
X54714000Y-38679500D01*
G75*
G02*
X54864500Y-38529000I150500J0D01*
G01*
X56165500Y-38529000D01*
G75*
G02*
X56316000Y-38679500I0J-150500D01*
G01*
X56316000Y-38980500D01*
G75*
G02*
X56165500Y-39131000I-150500J0D01*
G01*
X54864500Y-39131000D01*
G75*
G02*
X54714000Y-38980500I0J150500D01*
G01*
G37*
G36*
G01*
X54714000Y-39780500D02*
X54714000Y-39479500D01*
G75*
G02*
X54864500Y-39329000I150500J0D01*
G01*
X56165500Y-39329000D01*
G75*
G02*
X56316000Y-39479500I0J-150500D01*
G01*
X56316000Y-39780500D01*
G75*
G02*
X56165500Y-39931000I-150500J0D01*
G01*
X54864500Y-39931000D01*
G75*
G02*
X54714000Y-39780500I0J150500D01*
G01*
G37*
G36*
G01*
X56589000Y-41655500D02*
X56589000Y-40354500D01*
G75*
G02*
X56739500Y-40204000I150500J0D01*
G01*
X57040500Y-40204000D01*
G75*
G02*
X57191000Y-40354500I0J-150500D01*
G01*
X57191000Y-41655500D01*
G75*
G02*
X57040500Y-41806000I-150500J0D01*
G01*
X56739500Y-41806000D01*
G75*
G02*
X56589000Y-41655500I0J150500D01*
G01*
G37*
G36*
G01*
X57389000Y-41655500D02*
X57389000Y-40354500D01*
G75*
G02*
X57539500Y-40204000I150500J0D01*
G01*
X57840500Y-40204000D01*
G75*
G02*
X57991000Y-40354500I0J-150500D01*
G01*
X57991000Y-41655500D01*
G75*
G02*
X57840500Y-41806000I-150500J0D01*
G01*
X57539500Y-41806000D01*
G75*
G02*
X57389000Y-41655500I0J150500D01*
G01*
G37*
G36*
G01*
X58189000Y-41655500D02*
X58189000Y-40354500D01*
G75*
G02*
X58339500Y-40204000I150500J0D01*
G01*
X58640500Y-40204000D01*
G75*
G02*
X58791000Y-40354500I0J-150500D01*
G01*
X58791000Y-41655500D01*
G75*
G02*
X58640500Y-41806000I-150500J0D01*
G01*
X58339500Y-41806000D01*
G75*
G02*
X58189000Y-41655500I0J150500D01*
G01*
G37*
G36*
G01*
X58989000Y-41655500D02*
X58989000Y-40354500D01*
G75*
G02*
X59139500Y-40204000I150500J0D01*
G01*
X59440500Y-40204000D01*
G75*
G02*
X59591000Y-40354500I0J-150500D01*
G01*
X59591000Y-41655500D01*
G75*
G02*
X59440500Y-41806000I-150500J0D01*
G01*
X59139500Y-41806000D01*
G75*
G02*
X58989000Y-41655500I0J150500D01*
G01*
G37*
G36*
G01*
X59789000Y-41655500D02*
X59789000Y-40354500D01*
G75*
G02*
X59939500Y-40204000I150500J0D01*
G01*
X60240500Y-40204000D01*
G75*
G02*
X60391000Y-40354500I0J-150500D01*
G01*
X60391000Y-41655500D01*
G75*
G02*
X60240500Y-41806000I-150500J0D01*
G01*
X59939500Y-41806000D01*
G75*
G02*
X59789000Y-41655500I0J150500D01*
G01*
G37*
G36*
G01*
X60589000Y-41655500D02*
X60589000Y-40354500D01*
G75*
G02*
X60739500Y-40204000I150500J0D01*
G01*
X61040500Y-40204000D01*
G75*
G02*
X61191000Y-40354500I0J-150500D01*
G01*
X61191000Y-41655500D01*
G75*
G02*
X61040500Y-41806000I-150500J0D01*
G01*
X60739500Y-41806000D01*
G75*
G02*
X60589000Y-41655500I0J150500D01*
G01*
G37*
G36*
G01*
X61389000Y-41655500D02*
X61389000Y-40354500D01*
G75*
G02*
X61539500Y-40204000I150500J0D01*
G01*
X61840500Y-40204000D01*
G75*
G02*
X61991000Y-40354500I0J-150500D01*
G01*
X61991000Y-41655500D01*
G75*
G02*
X61840500Y-41806000I-150500J0D01*
G01*
X61539500Y-41806000D01*
G75*
G02*
X61389000Y-41655500I0J150500D01*
G01*
G37*
G36*
G01*
X62189000Y-41655500D02*
X62189000Y-40354500D01*
G75*
G02*
X62339500Y-40204000I150500J0D01*
G01*
X62640500Y-40204000D01*
G75*
G02*
X62791000Y-40354500I0J-150500D01*
G01*
X62791000Y-41655500D01*
G75*
G02*
X62640500Y-41806000I-150500J0D01*
G01*
X62339500Y-41806000D01*
G75*
G02*
X62189000Y-41655500I0J150500D01*
G01*
G37*
G36*
G01*
X63064000Y-39780500D02*
X63064000Y-39479500D01*
G75*
G02*
X63214500Y-39329000I150500J0D01*
G01*
X64515500Y-39329000D01*
G75*
G02*
X64666000Y-39479500I0J-150500D01*
G01*
X64666000Y-39780500D01*
G75*
G02*
X64515500Y-39931000I-150500J0D01*
G01*
X63214500Y-39931000D01*
G75*
G02*
X63064000Y-39780500I0J150500D01*
G01*
G37*
G36*
G01*
X63064000Y-38980500D02*
X63064000Y-38679500D01*
G75*
G02*
X63214500Y-38529000I150500J0D01*
G01*
X64515500Y-38529000D01*
G75*
G02*
X64666000Y-38679500I0J-150500D01*
G01*
X64666000Y-38980500D01*
G75*
G02*
X64515500Y-39131000I-150500J0D01*
G01*
X63214500Y-39131000D01*
G75*
G02*
X63064000Y-38980500I0J150500D01*
G01*
G37*
G36*
G01*
X63064000Y-38180500D02*
X63064000Y-37879500D01*
G75*
G02*
X63214500Y-37729000I150500J0D01*
G01*
X64515500Y-37729000D01*
G75*
G02*
X64666000Y-37879500I0J-150500D01*
G01*
X64666000Y-38180500D01*
G75*
G02*
X64515500Y-38331000I-150500J0D01*
G01*
X63214500Y-38331000D01*
G75*
G02*
X63064000Y-38180500I0J150500D01*
G01*
G37*
G36*
G01*
X63064000Y-37380500D02*
X63064000Y-37079500D01*
G75*
G02*
X63214500Y-36929000I150500J0D01*
G01*
X64515500Y-36929000D01*
G75*
G02*
X64666000Y-37079500I0J-150500D01*
G01*
X64666000Y-37380500D01*
G75*
G02*
X64515500Y-37531000I-150500J0D01*
G01*
X63214500Y-37531000D01*
G75*
G02*
X63064000Y-37380500I0J150500D01*
G01*
G37*
G36*
G01*
X63064000Y-36580500D02*
X63064000Y-36279500D01*
G75*
G02*
X63214500Y-36129000I150500J0D01*
G01*
X64515500Y-36129000D01*
G75*
G02*
X64666000Y-36279500I0J-150500D01*
G01*
X64666000Y-36580500D01*
G75*
G02*
X64515500Y-36731000I-150500J0D01*
G01*
X63214500Y-36731000D01*
G75*
G02*
X63064000Y-36580500I0J150500D01*
G01*
G37*
G36*
G01*
X63064000Y-35780500D02*
X63064000Y-35479500D01*
G75*
G02*
X63214500Y-35329000I150500J0D01*
G01*
X64515500Y-35329000D01*
G75*
G02*
X64666000Y-35479500I0J-150500D01*
G01*
X64666000Y-35780500D01*
G75*
G02*
X64515500Y-35931000I-150500J0D01*
G01*
X63214500Y-35931000D01*
G75*
G02*
X63064000Y-35780500I0J150500D01*
G01*
G37*
G36*
G01*
X63064000Y-34980500D02*
X63064000Y-34679500D01*
G75*
G02*
X63214500Y-34529000I150500J0D01*
G01*
X64515500Y-34529000D01*
G75*
G02*
X64666000Y-34679500I0J-150500D01*
G01*
X64666000Y-34980500D01*
G75*
G02*
X64515500Y-35131000I-150500J0D01*
G01*
X63214500Y-35131000D01*
G75*
G02*
X63064000Y-34980500I0J150500D01*
G01*
G37*
G36*
G01*
X63064000Y-34180500D02*
X63064000Y-33879500D01*
G75*
G02*
X63214500Y-33729000I150500J0D01*
G01*
X64515500Y-33729000D01*
G75*
G02*
X64666000Y-33879500I0J-150500D01*
G01*
X64666000Y-34180500D01*
G75*
G02*
X64515500Y-34331000I-150500J0D01*
G01*
X63214500Y-34331000D01*
G75*
G02*
X63064000Y-34180500I0J150500D01*
G01*
G37*
G36*
G01*
X62189000Y-33305500D02*
X62189000Y-32004500D01*
G75*
G02*
X62339500Y-31854000I150500J0D01*
G01*
X62640500Y-31854000D01*
G75*
G02*
X62791000Y-32004500I0J-150500D01*
G01*
X62791000Y-33305500D01*
G75*
G02*
X62640500Y-33456000I-150500J0D01*
G01*
X62339500Y-33456000D01*
G75*
G02*
X62189000Y-33305500I0J150500D01*
G01*
G37*
G36*
G01*
X61389000Y-33305500D02*
X61389000Y-32004500D01*
G75*
G02*
X61539500Y-31854000I150500J0D01*
G01*
X61840500Y-31854000D01*
G75*
G02*
X61991000Y-32004500I0J-150500D01*
G01*
X61991000Y-33305500D01*
G75*
G02*
X61840500Y-33456000I-150500J0D01*
G01*
X61539500Y-33456000D01*
G75*
G02*
X61389000Y-33305500I0J150500D01*
G01*
G37*
G36*
G01*
X60589000Y-33305500D02*
X60589000Y-32004500D01*
G75*
G02*
X60739500Y-31854000I150500J0D01*
G01*
X61040500Y-31854000D01*
G75*
G02*
X61191000Y-32004500I0J-150500D01*
G01*
X61191000Y-33305500D01*
G75*
G02*
X61040500Y-33456000I-150500J0D01*
G01*
X60739500Y-33456000D01*
G75*
G02*
X60589000Y-33305500I0J150500D01*
G01*
G37*
G36*
G01*
X59789000Y-33305500D02*
X59789000Y-32004500D01*
G75*
G02*
X59939500Y-31854000I150500J0D01*
G01*
X60240500Y-31854000D01*
G75*
G02*
X60391000Y-32004500I0J-150500D01*
G01*
X60391000Y-33305500D01*
G75*
G02*
X60240500Y-33456000I-150500J0D01*
G01*
X59939500Y-33456000D01*
G75*
G02*
X59789000Y-33305500I0J150500D01*
G01*
G37*
G36*
G01*
X58989000Y-33305500D02*
X58989000Y-32004500D01*
G75*
G02*
X59139500Y-31854000I150500J0D01*
G01*
X59440500Y-31854000D01*
G75*
G02*
X59591000Y-32004500I0J-150500D01*
G01*
X59591000Y-33305500D01*
G75*
G02*
X59440500Y-33456000I-150500J0D01*
G01*
X59139500Y-33456000D01*
G75*
G02*
X58989000Y-33305500I0J150500D01*
G01*
G37*
G36*
G01*
X58189000Y-33305500D02*
X58189000Y-32004500D01*
G75*
G02*
X58339500Y-31854000I150500J0D01*
G01*
X58640500Y-31854000D01*
G75*
G02*
X58791000Y-32004500I0J-150500D01*
G01*
X58791000Y-33305500D01*
G75*
G02*
X58640500Y-33456000I-150500J0D01*
G01*
X58339500Y-33456000D01*
G75*
G02*
X58189000Y-33305500I0J150500D01*
G01*
G37*
G36*
G01*
X57389000Y-33305500D02*
X57389000Y-32004500D01*
G75*
G02*
X57539500Y-31854000I150500J0D01*
G01*
X57840500Y-31854000D01*
G75*
G02*
X57991000Y-32004500I0J-150500D01*
G01*
X57991000Y-33305500D01*
G75*
G02*
X57840500Y-33456000I-150500J0D01*
G01*
X57539500Y-33456000D01*
G75*
G02*
X57389000Y-33305500I0J150500D01*
G01*
G37*
G36*
G01*
X56589000Y-33305500D02*
X56589000Y-32004500D01*
G75*
G02*
X56739500Y-31854000I150500J0D01*
G01*
X57040500Y-31854000D01*
G75*
G02*
X57191000Y-32004500I0J-150500D01*
G01*
X57191000Y-33305500D01*
G75*
G02*
X57040500Y-33456000I-150500J0D01*
G01*
X56739500Y-33456000D01*
G75*
G02*
X56589000Y-33305500I0J150500D01*
G01*
G37*
G36*
G01*
X29509000Y-42191750D02*
X29509000Y-41628250D01*
G75*
G02*
X29753250Y-41384000I244250J0D01*
G01*
X30241750Y-41384000D01*
G75*
G02*
X30486000Y-41628250I0J-244250D01*
G01*
X30486000Y-42191750D01*
G75*
G02*
X30241750Y-42436000I-244250J0D01*
G01*
X29753250Y-42436000D01*
G75*
G02*
X29509000Y-42191750I0J244250D01*
G01*
G37*
G36*
G01*
X27934000Y-42191750D02*
X27934000Y-41628250D01*
G75*
G02*
X28178250Y-41384000I244250J0D01*
G01*
X28666750Y-41384000D01*
G75*
G02*
X28911000Y-41628250I0J-244250D01*
G01*
X28911000Y-42191750D01*
G75*
G02*
X28666750Y-42436000I-244250J0D01*
G01*
X28178250Y-42436000D01*
G75*
G02*
X27934000Y-42191750I0J244250D01*
G01*
G37*
G36*
G01*
X31776250Y-42466000D02*
X32739750Y-42466000D01*
G75*
G02*
X33009000Y-42735250I0J-269250D01*
G01*
X33009000Y-43273750D01*
G75*
G02*
X32739750Y-43543000I-269250J0D01*
G01*
X31776250Y-43543000D01*
G75*
G02*
X31507000Y-43273750I0J269250D01*
G01*
X31507000Y-42735250D01*
G75*
G02*
X31776250Y-42466000I269250J0D01*
G01*
G37*
G36*
G01*
X31776250Y-44341000D02*
X32739750Y-44341000D01*
G75*
G02*
X33009000Y-44610250I0J-269250D01*
G01*
X33009000Y-45148750D01*
G75*
G02*
X32739750Y-45418000I-269250J0D01*
G01*
X31776250Y-45418000D01*
G75*
G02*
X31507000Y-45148750I0J269250D01*
G01*
X31507000Y-44610250D01*
G75*
G02*
X31776250Y-44341000I269250J0D01*
G01*
G37*
G36*
G01*
X34750000Y-40158250D02*
X34750000Y-41121750D01*
G75*
G02*
X34480750Y-41391000I-269250J0D01*
G01*
X33942250Y-41391000D01*
G75*
G02*
X33673000Y-41121750I0J269250D01*
G01*
X33673000Y-40158250D01*
G75*
G02*
X33942250Y-39889000I269250J0D01*
G01*
X34480750Y-39889000D01*
G75*
G02*
X34750000Y-40158250I0J-269250D01*
G01*
G37*
G36*
G01*
X32875000Y-40158250D02*
X32875000Y-41121750D01*
G75*
G02*
X32605750Y-41391000I-269250J0D01*
G01*
X32067250Y-41391000D01*
G75*
G02*
X31798000Y-41121750I0J269250D01*
G01*
X31798000Y-40158250D01*
G75*
G02*
X32067250Y-39889000I269250J0D01*
G01*
X32605750Y-39889000D01*
G75*
G02*
X32875000Y-40158250I0J-269250D01*
G01*
G37*
G36*
G01*
X39650250Y-44341000D02*
X40613750Y-44341000D01*
G75*
G02*
X40883000Y-44610250I0J-269250D01*
G01*
X40883000Y-45148750D01*
G75*
G02*
X40613750Y-45418000I-269250J0D01*
G01*
X39650250Y-45418000D01*
G75*
G02*
X39381000Y-45148750I0J269250D01*
G01*
X39381000Y-44610250D01*
G75*
G02*
X39650250Y-44341000I269250J0D01*
G01*
G37*
G36*
G01*
X39650250Y-42466000D02*
X40613750Y-42466000D01*
G75*
G02*
X40883000Y-42735250I0J-269250D01*
G01*
X40883000Y-43273750D01*
G75*
G02*
X40613750Y-43543000I-269250J0D01*
G01*
X39650250Y-43543000D01*
G75*
G02*
X39381000Y-43273750I0J269250D01*
G01*
X39381000Y-42735250D01*
G75*
G02*
X39650250Y-42466000I269250J0D01*
G01*
G37*
G36*
G01*
X41882250Y-42666000D02*
X42445750Y-42666000D01*
G75*
G02*
X42690000Y-42910250I0J-244250D01*
G01*
X42690000Y-43398750D01*
G75*
G02*
X42445750Y-43643000I-244250J0D01*
G01*
X41882250Y-43643000D01*
G75*
G02*
X41638000Y-43398750I0J244250D01*
G01*
X41638000Y-42910250D01*
G75*
G02*
X41882250Y-42666000I244250J0D01*
G01*
G37*
G36*
G01*
X41882250Y-44241000D02*
X42445750Y-44241000D01*
G75*
G02*
X42690000Y-44485250I0J-244250D01*
G01*
X42690000Y-44973750D01*
G75*
G02*
X42445750Y-45218000I-244250J0D01*
G01*
X41882250Y-45218000D01*
G75*
G02*
X41638000Y-44973750I0J244250D01*
G01*
X41638000Y-44485250D01*
G75*
G02*
X41882250Y-44241000I244250J0D01*
G01*
G37*
G36*
G01*
X52279000Y-36548250D02*
X52279000Y-37111750D01*
G75*
G02*
X52034750Y-37356000I-244250J0D01*
G01*
X51546250Y-37356000D01*
G75*
G02*
X51302000Y-37111750I0J244250D01*
G01*
X51302000Y-36548250D01*
G75*
G02*
X51546250Y-36304000I244250J0D01*
G01*
X52034750Y-36304000D01*
G75*
G02*
X52279000Y-36548250I0J-244250D01*
G01*
G37*
G36*
G01*
X53854000Y-36548250D02*
X53854000Y-37111750D01*
G75*
G02*
X53609750Y-37356000I-244250J0D01*
G01*
X53121250Y-37356000D01*
G75*
G02*
X52877000Y-37111750I0J244250D01*
G01*
X52877000Y-36548250D01*
G75*
G02*
X53121250Y-36304000I244250J0D01*
G01*
X53609750Y-36304000D01*
G75*
G02*
X53854000Y-36548250I0J-244250D01*
G01*
G37*
G36*
G01*
X53854000Y-38326250D02*
X53854000Y-38889750D01*
G75*
G02*
X53609750Y-39134000I-244250J0D01*
G01*
X53121250Y-39134000D01*
G75*
G02*
X52877000Y-38889750I0J244250D01*
G01*
X52877000Y-38326250D01*
G75*
G02*
X53121250Y-38082000I244250J0D01*
G01*
X53609750Y-38082000D01*
G75*
G02*
X53854000Y-38326250I0J-244250D01*
G01*
G37*
G36*
G01*
X52279000Y-38326250D02*
X52279000Y-38889750D01*
G75*
G02*
X52034750Y-39134000I-244250J0D01*
G01*
X51546250Y-39134000D01*
G75*
G02*
X51302000Y-38889750I0J244250D01*
G01*
X51302000Y-38326250D01*
G75*
G02*
X51546250Y-38082000I244250J0D01*
G01*
X52034750Y-38082000D01*
G75*
G02*
X52279000Y-38326250I0J-244250D01*
G01*
G37*
G36*
G01*
X31998000Y-37111750D02*
X31998000Y-36548250D01*
G75*
G02*
X32242250Y-36304000I244250J0D01*
G01*
X32730750Y-36304000D01*
G75*
G02*
X32975000Y-36548250I0J-244250D01*
G01*
X32975000Y-37111750D01*
G75*
G02*
X32730750Y-37356000I-244250J0D01*
G01*
X32242250Y-37356000D01*
G75*
G02*
X31998000Y-37111750I0J244250D01*
G01*
G37*
G36*
G01*
X33573000Y-37111750D02*
X33573000Y-36548250D01*
G75*
G02*
X33817250Y-36304000I244250J0D01*
G01*
X34305750Y-36304000D01*
G75*
G02*
X34550000Y-36548250I0J-244250D01*
G01*
X34550000Y-37111750D01*
G75*
G02*
X34305750Y-37356000I-244250J0D01*
G01*
X33817250Y-37356000D01*
G75*
G02*
X33573000Y-37111750I0J244250D01*
G01*
G37*
D16*
X40386000Y-41274000D03*
X40386000Y-37974000D03*
D17*
X29400000Y-35530000D03*
X29400000Y-36180000D03*
X29400000Y-36830000D03*
X29400000Y-37480000D03*
X29400000Y-38130000D03*
D18*
X29315000Y-34342500D03*
X29315000Y-39317500D03*
D19*
X26740000Y-33455000D03*
X26740000Y-40205000D03*
D20*
X26740000Y-35680000D03*
D21*
X26740000Y-38380000D03*
G36*
G01*
X38360000Y-36548250D02*
X38360000Y-37111750D01*
G75*
G02*
X38115750Y-37356000I-244250J0D01*
G01*
X37627250Y-37356000D01*
G75*
G02*
X37383000Y-37111750I0J244250D01*
G01*
X37383000Y-36548250D01*
G75*
G02*
X37627250Y-36304000I244250J0D01*
G01*
X38115750Y-36304000D01*
G75*
G02*
X38360000Y-36548250I0J-244250D01*
G01*
G37*
G36*
G01*
X36785000Y-36548250D02*
X36785000Y-37111750D01*
G75*
G02*
X36540750Y-37356000I-244250J0D01*
G01*
X36052250Y-37356000D01*
G75*
G02*
X35808000Y-37111750I0J244250D01*
G01*
X35808000Y-36548250D01*
G75*
G02*
X36052250Y-36304000I244250J0D01*
G01*
X36540750Y-36304000D01*
G75*
G02*
X36785000Y-36548250I0J-244250D01*
G01*
G37*
G36*
G01*
X27934000Y-32031750D02*
X27934000Y-31468250D01*
G75*
G02*
X28178250Y-31224000I244250J0D01*
G01*
X28666750Y-31224000D01*
G75*
G02*
X28911000Y-31468250I0J-244250D01*
G01*
X28911000Y-32031750D01*
G75*
G02*
X28666750Y-32276000I-244250J0D01*
G01*
X28178250Y-32276000D01*
G75*
G02*
X27934000Y-32031750I0J244250D01*
G01*
G37*
G36*
G01*
X29509000Y-32031750D02*
X29509000Y-31468250D01*
G75*
G02*
X29753250Y-31224000I244250J0D01*
G01*
X30241750Y-31224000D01*
G75*
G02*
X30486000Y-31468250I0J-244250D01*
G01*
X30486000Y-32031750D01*
G75*
G02*
X30241750Y-32276000I-244250J0D01*
G01*
X29753250Y-32276000D01*
G75*
G02*
X29509000Y-32031750I0J244250D01*
G01*
G37*
G36*
G01*
X33573000Y-38889750D02*
X33573000Y-38326250D01*
G75*
G02*
X33817250Y-38082000I244250J0D01*
G01*
X34305750Y-38082000D01*
G75*
G02*
X34550000Y-38326250I0J-244250D01*
G01*
X34550000Y-38889750D01*
G75*
G02*
X34305750Y-39134000I-244250J0D01*
G01*
X33817250Y-39134000D01*
G75*
G02*
X33573000Y-38889750I0J244250D01*
G01*
G37*
G36*
G01*
X31998000Y-38889750D02*
X31998000Y-38326250D01*
G75*
G02*
X32242250Y-38082000I244250J0D01*
G01*
X32730750Y-38082000D01*
G75*
G02*
X32975000Y-38326250I0J-244250D01*
G01*
X32975000Y-38889750D01*
G75*
G02*
X32730750Y-39134000I-244250J0D01*
G01*
X32242250Y-39134000D01*
G75*
G02*
X31998000Y-38889750I0J244250D01*
G01*
G37*
G36*
G01*
X34571750Y-43643000D02*
X34008250Y-43643000D01*
G75*
G02*
X33764000Y-43398750I0J244250D01*
G01*
X33764000Y-42910250D01*
G75*
G02*
X34008250Y-42666000I244250J0D01*
G01*
X34571750Y-42666000D01*
G75*
G02*
X34816000Y-42910250I0J-244250D01*
G01*
X34816000Y-43398750D01*
G75*
G02*
X34571750Y-43643000I-244250J0D01*
G01*
G37*
G36*
G01*
X34571750Y-45218000D02*
X34008250Y-45218000D01*
G75*
G02*
X33764000Y-44973750I0J244250D01*
G01*
X33764000Y-44485250D01*
G75*
G02*
X34008250Y-44241000I244250J0D01*
G01*
X34571750Y-44241000D01*
G75*
G02*
X34816000Y-44485250I0J-244250D01*
G01*
X34816000Y-44973750D01*
G75*
G02*
X34571750Y-45218000I-244250J0D01*
G01*
G37*
D22*
X35984000Y-38674000D03*
X35984000Y-39624000D03*
X35984000Y-40574000D03*
X38184000Y-40574000D03*
X38184000Y-38674000D03*
X38184000Y-42992000D03*
X38184000Y-44892000D03*
X35984000Y-44892000D03*
X35984000Y-43942000D03*
X35984000Y-42992000D03*
G36*
G01*
X37873000Y-31804500D02*
X37873000Y-34855500D01*
G75*
G02*
X37597500Y-35131000I-275500J0D01*
G01*
X37046500Y-35131000D01*
G75*
G02*
X36771000Y-34855500I0J275500D01*
G01*
X36771000Y-31804500D01*
G75*
G02*
X37046500Y-31529000I275500J0D01*
G01*
X37597500Y-31529000D01*
G75*
G02*
X37873000Y-31804500I0J-275500D01*
G01*
G37*
G36*
G01*
X35873000Y-31804500D02*
X35873000Y-34855500D01*
G75*
G02*
X35597500Y-35131000I-275500J0D01*
G01*
X35046500Y-35131000D01*
G75*
G02*
X34771000Y-34855500I0J275500D01*
G01*
X34771000Y-31804500D01*
G75*
G02*
X35046500Y-31529000I275500J0D01*
G01*
X35597500Y-31529000D01*
G75*
G02*
X35873000Y-31804500I0J-275500D01*
G01*
G37*
G36*
G01*
X40473000Y-26096000D02*
X40473000Y-29064000D01*
G75*
G02*
X40206000Y-29331000I-267000J0D01*
G01*
X39138000Y-29331000D01*
G75*
G02*
X38871000Y-29064000I0J267000D01*
G01*
X38871000Y-26096000D01*
G75*
G02*
X39138000Y-25829000I267000J0D01*
G01*
X40206000Y-25829000D01*
G75*
G02*
X40473000Y-26096000I0J-267000D01*
G01*
G37*
G36*
G01*
X33773000Y-26096000D02*
X33773000Y-29064000D01*
G75*
G02*
X33506000Y-29331000I-267000J0D01*
G01*
X32438000Y-29331000D01*
G75*
G02*
X32171000Y-29064000I0J267000D01*
G01*
X32171000Y-26096000D01*
G75*
G02*
X32438000Y-25829000I267000J0D01*
G01*
X33506000Y-25829000D01*
G75*
G02*
X33773000Y-26096000I0J-267000D01*
G01*
G37*
G36*
G01*
X52877000Y-31523750D02*
X52877000Y-30960250D01*
G75*
G02*
X53121250Y-30716000I244250J0D01*
G01*
X53609750Y-30716000D01*
G75*
G02*
X53854000Y-30960250I0J-244250D01*
G01*
X53854000Y-31523750D01*
G75*
G02*
X53609750Y-31768000I-244250J0D01*
G01*
X53121250Y-31768000D01*
G75*
G02*
X52877000Y-31523750I0J244250D01*
G01*
G37*
G36*
G01*
X51302000Y-31523750D02*
X51302000Y-30960250D01*
G75*
G02*
X51546250Y-30716000I244250J0D01*
G01*
X52034750Y-30716000D01*
G75*
G02*
X52279000Y-30960250I0J-244250D01*
G01*
X52279000Y-31523750D01*
G75*
G02*
X52034750Y-31768000I-244250J0D01*
G01*
X51546250Y-31768000D01*
G75*
G02*
X51302000Y-31523750I0J244250D01*
G01*
G37*
G36*
G01*
X51302000Y-40667750D02*
X51302000Y-40104250D01*
G75*
G02*
X51546250Y-39860000I244250J0D01*
G01*
X52034750Y-39860000D01*
G75*
G02*
X52279000Y-40104250I0J-244250D01*
G01*
X52279000Y-40667750D01*
G75*
G02*
X52034750Y-40912000I-244250J0D01*
G01*
X51546250Y-40912000D01*
G75*
G02*
X51302000Y-40667750I0J244250D01*
G01*
G37*
G36*
G01*
X52877000Y-40667750D02*
X52877000Y-40104250D01*
G75*
G02*
X53121250Y-39860000I244250J0D01*
G01*
X53609750Y-39860000D01*
G75*
G02*
X53854000Y-40104250I0J-244250D01*
G01*
X53854000Y-40667750D01*
G75*
G02*
X53609750Y-40912000I-244250J0D01*
G01*
X53121250Y-40912000D01*
G75*
G02*
X52877000Y-40667750I0J244250D01*
G01*
G37*
D23*
X48260000Y-31056000D03*
X48260000Y-39556000D03*
D14*
X73660000Y-40640000D03*
D15*
X73660000Y-38100000D03*
X73660000Y-35560000D03*
X73660000Y-33020000D03*
G36*
G01*
X71401750Y-38106000D02*
X70838250Y-38106000D01*
G75*
G02*
X70594000Y-37861750I0J244250D01*
G01*
X70594000Y-37373250D01*
G75*
G02*
X70838250Y-37129000I244250J0D01*
G01*
X71401750Y-37129000D01*
G75*
G02*
X71646000Y-37373250I0J-244250D01*
G01*
X71646000Y-37861750D01*
G75*
G02*
X71401750Y-38106000I-244250J0D01*
G01*
G37*
G36*
G01*
X71401750Y-36531000D02*
X70838250Y-36531000D01*
G75*
G02*
X70594000Y-36286750I0J244250D01*
G01*
X70594000Y-35798250D01*
G75*
G02*
X70838250Y-35554000I244250J0D01*
G01*
X71401750Y-35554000D01*
G75*
G02*
X71646000Y-35798250I0J-244250D01*
G01*
X71646000Y-36286750D01*
G75*
G02*
X71401750Y-36531000I-244250J0D01*
G01*
G37*
G36*
G01*
X53854000Y-32744500D02*
X53854000Y-33295500D01*
G75*
G02*
X53603500Y-33546000I-250500J0D01*
G01*
X53102500Y-33546000D01*
G75*
G02*
X52852000Y-33295500I0J250500D01*
G01*
X52852000Y-32744500D01*
G75*
G02*
X53102500Y-32494000I250500J0D01*
G01*
X53603500Y-32494000D01*
G75*
G02*
X53854000Y-32744500I0J-250500D01*
G01*
G37*
G36*
G01*
X52304000Y-32744500D02*
X52304000Y-33295500D01*
G75*
G02*
X52053500Y-33546000I-250500J0D01*
G01*
X51552500Y-33546000D01*
G75*
G02*
X51302000Y-33295500I0J250500D01*
G01*
X51302000Y-32744500D01*
G75*
G02*
X51552500Y-32494000I250500J0D01*
G01*
X52053500Y-32494000D01*
G75*
G02*
X52304000Y-32744500I0J-250500D01*
G01*
G37*
G36*
G01*
X68298250Y-35478000D02*
X68861750Y-35478000D01*
G75*
G02*
X69106000Y-35722250I0J-244250D01*
G01*
X69106000Y-36210750D01*
G75*
G02*
X68861750Y-36455000I-244250J0D01*
G01*
X68298250Y-36455000D01*
G75*
G02*
X68054000Y-36210750I0J244250D01*
G01*
X68054000Y-35722250D01*
G75*
G02*
X68298250Y-35478000I244250J0D01*
G01*
G37*
G36*
G01*
X68298250Y-33903000D02*
X68861750Y-33903000D01*
G75*
G02*
X69106000Y-34147250I0J-244250D01*
G01*
X69106000Y-34635750D01*
G75*
G02*
X68861750Y-34880000I-244250J0D01*
G01*
X68298250Y-34880000D01*
G75*
G02*
X68054000Y-34635750I0J244250D01*
G01*
X68054000Y-34147250D01*
G75*
G02*
X68298250Y-33903000I244250J0D01*
G01*
G37*
G36*
G01*
X42263250Y-35046000D02*
X42826750Y-35046000D01*
G75*
G02*
X43071000Y-35290250I0J-244250D01*
G01*
X43071000Y-35778750D01*
G75*
G02*
X42826750Y-36023000I-244250J0D01*
G01*
X42263250Y-36023000D01*
G75*
G02*
X42019000Y-35778750I0J244250D01*
G01*
X42019000Y-35290250D01*
G75*
G02*
X42263250Y-35046000I244250J0D01*
G01*
G37*
G36*
G01*
X42263250Y-36621000D02*
X42826750Y-36621000D01*
G75*
G02*
X43071000Y-36865250I0J-244250D01*
G01*
X43071000Y-37353750D01*
G75*
G02*
X42826750Y-37598000I-244250J0D01*
G01*
X42263250Y-37598000D01*
G75*
G02*
X42019000Y-37353750I0J244250D01*
G01*
X42019000Y-36865250D01*
G75*
G02*
X42263250Y-36621000I244250J0D01*
G01*
G37*
G36*
G01*
X65145000Y-40559500D02*
X65145000Y-39958500D01*
G75*
G02*
X65370500Y-39733000I225500J0D01*
G01*
X65821500Y-39733000D01*
G75*
G02*
X66047000Y-39958500I0J-225500D01*
G01*
X66047000Y-40559500D01*
G75*
G02*
X65821500Y-40785000I-225500J0D01*
G01*
X65370500Y-40785000D01*
G75*
G02*
X65145000Y-40559500I0J225500D01*
G01*
G37*
G36*
G01*
X66795000Y-40559500D02*
X66795000Y-39958500D01*
G75*
G02*
X67020500Y-39733000I225500J0D01*
G01*
X67471500Y-39733000D01*
G75*
G02*
X67697000Y-39958500I0J-225500D01*
G01*
X67697000Y-40559500D01*
G75*
G02*
X67471500Y-40785000I-225500J0D01*
G01*
X67020500Y-40785000D01*
G75*
G02*
X66795000Y-40559500I0J225500D01*
G01*
G37*
G36*
G01*
X68880500Y-38107000D02*
X68279500Y-38107000D01*
G75*
G02*
X68054000Y-37881500I0J225500D01*
G01*
X68054000Y-37430500D01*
G75*
G02*
X68279500Y-37205000I225500J0D01*
G01*
X68880500Y-37205000D01*
G75*
G02*
X69106000Y-37430500I0J-225500D01*
G01*
X69106000Y-37881500D01*
G75*
G02*
X68880500Y-38107000I-225500J0D01*
G01*
G37*
G36*
G01*
X68880500Y-39757000D02*
X68279500Y-39757000D01*
G75*
G02*
X68054000Y-39531500I0J225500D01*
G01*
X68054000Y-39080500D01*
G75*
G02*
X68279500Y-38855000I225500J0D01*
G01*
X68880500Y-38855000D01*
G75*
G02*
X69106000Y-39080500I0J-225500D01*
G01*
X69106000Y-39531500D01*
G75*
G02*
X68880500Y-39757000I-225500J0D01*
G01*
G37*
G36*
G01*
X42845500Y-40900000D02*
X42244500Y-40900000D01*
G75*
G02*
X42019000Y-40674500I0J225500D01*
G01*
X42019000Y-40223500D01*
G75*
G02*
X42244500Y-39998000I225500J0D01*
G01*
X42845500Y-39998000D01*
G75*
G02*
X43071000Y-40223500I0J-225500D01*
G01*
X43071000Y-40674500D01*
G75*
G02*
X42845500Y-40900000I-225500J0D01*
G01*
G37*
G36*
G01*
X42845500Y-39250000D02*
X42244500Y-39250000D01*
G75*
G02*
X42019000Y-39024500I0J225500D01*
G01*
X42019000Y-38573500D01*
G75*
G02*
X42244500Y-38348000I225500J0D01*
G01*
X42845500Y-38348000D01*
G75*
G02*
X43071000Y-38573500I0J-225500D01*
G01*
X43071000Y-39024500D01*
G75*
G02*
X42845500Y-39250000I-225500J0D01*
G01*
G37*
G36*
G01*
X68070000Y-31686500D02*
X68070000Y-30035500D01*
G75*
G02*
X68295500Y-29810000I225500J0D01*
G01*
X68746500Y-29810000D01*
G75*
G02*
X68972000Y-30035500I0J-225500D01*
G01*
X68972000Y-31686500D01*
G75*
G02*
X68746500Y-31912000I-225500J0D01*
G01*
X68295500Y-31912000D01*
G75*
G02*
X68070000Y-31686500I0J225500D01*
G01*
G37*
G36*
G01*
X63870000Y-31686500D02*
X63870000Y-30035500D01*
G75*
G02*
X64095500Y-29810000I225500J0D01*
G01*
X64546500Y-29810000D01*
G75*
G02*
X64772000Y-30035500I0J-225500D01*
G01*
X64772000Y-31686500D01*
G75*
G02*
X64546500Y-31912000I-225500J0D01*
G01*
X64095500Y-31912000D01*
G75*
G02*
X63870000Y-31686500I0J225500D01*
G01*
G37*
G36*
G01*
X63870000Y-43624500D02*
X63870000Y-41973500D01*
G75*
G02*
X64095500Y-41748000I225500J0D01*
G01*
X64546500Y-41748000D01*
G75*
G02*
X64772000Y-41973500I0J-225500D01*
G01*
X64772000Y-43624500D01*
G75*
G02*
X64546500Y-43850000I-225500J0D01*
G01*
X64095500Y-43850000D01*
G75*
G02*
X63870000Y-43624500I0J225500D01*
G01*
G37*
G36*
G01*
X68070000Y-43624500D02*
X68070000Y-41973500D01*
G75*
G02*
X68295500Y-41748000I225500J0D01*
G01*
X68746500Y-41748000D01*
G75*
G02*
X68972000Y-41973500I0J-225500D01*
G01*
X68972000Y-43624500D01*
G75*
G02*
X68746500Y-43850000I-225500J0D01*
G01*
X68295500Y-43850000D01*
G75*
G02*
X68070000Y-43624500I0J225500D01*
G01*
G37*
M02*
