G04 #@! TF.GenerationSoftware,KiCad,Pcbnew,(5.1.5)-3*
G04 #@! TF.CreationDate,2020-04-05T19:30:44-04:00*
G04 #@! TF.ProjectId,STM8Feather,53544d38-4665-4617-9468-65722e6b6963,rev?*
G04 #@! TF.SameCoordinates,Original*
G04 #@! TF.FileFunction,Copper,L2,Bot*
G04 #@! TF.FilePolarity,Positive*
%FSLAX46Y46*%
G04 Gerber Fmt 4.6, Leading zero omitted, Abs format (unit mm)*
G04 Created by KiCad (PCBNEW (5.1.5)-3) date 2020-04-05 19:30:44*
%MOMM*%
%LPD*%
G04 APERTURE LIST*
%ADD10R,1.700000X1.700000*%
%ADD11O,1.700000X1.700000*%
%ADD12C,0.800000*%
%ADD13C,0.250000*%
%ADD14C,0.203800*%
G04 APERTURE END LIST*
D10*
X69850000Y-46990000D03*
D11*
X67310000Y-46990000D03*
X64770000Y-46990000D03*
X62230000Y-46990000D03*
X59690000Y-46990000D03*
X57150000Y-46990000D03*
X54610000Y-46990000D03*
X52070000Y-46990000D03*
X49530000Y-46990000D03*
X46990000Y-46990000D03*
X44450000Y-46990000D03*
X41910000Y-46990000D03*
X39370000Y-46990000D03*
X36830000Y-46990000D03*
X34290000Y-46990000D03*
X31750000Y-46990000D03*
D10*
X69850000Y-26670000D03*
D11*
X67310000Y-26670000D03*
X64770000Y-26670000D03*
X62230000Y-26670000D03*
X59690000Y-26670000D03*
X57150000Y-26670000D03*
X54610000Y-26670000D03*
X52070000Y-26670000D03*
X49530000Y-26670000D03*
X46990000Y-26670000D03*
X44450000Y-26670000D03*
X41910000Y-26670000D03*
D10*
X73660000Y-40640000D03*
D11*
X73660000Y-38100000D03*
X73660000Y-35560000D03*
X73660000Y-33020000D03*
D12*
X59365000Y-31242000D03*
X58852509Y-33985827D03*
X59685347Y-34539347D03*
X59690000Y-35560000D03*
X58928000Y-36322000D03*
X57150000Y-36322000D03*
X27940000Y-37338000D03*
X35306000Y-30734000D03*
X35310653Y-36571347D03*
X31242000Y-40640000D03*
X41148000Y-43942000D03*
X33274000Y-43942000D03*
X29972000Y-40894000D03*
X29972000Y-32766000D03*
X37084000Y-43688000D03*
X54610000Y-31242000D03*
X52578000Y-41656000D03*
X66298653Y-44953347D03*
X55880000Y-45720000D03*
X71120000Y-40640000D03*
X54356000Y-41656000D03*
X62484000Y-36355000D03*
X69850000Y-36322000D03*
X62484000Y-37355003D03*
X67310000Y-37338000D03*
X44450000Y-40640000D03*
X37053998Y-44704000D03*
X57150000Y-34036000D03*
X61722000Y-31242000D03*
X34061500Y-35839500D03*
X36068000Y-41656000D03*
X40386000Y-39116000D03*
D13*
X59365000Y-31242000D02*
X61722000Y-33599000D01*
X61722000Y-33599000D02*
X61722000Y-43688000D01*
X61722000Y-43688000D02*
X62230000Y-44196000D01*
X64516000Y-44196000D02*
X67310000Y-46990000D01*
X62230000Y-44196000D02*
X64516000Y-44196000D01*
X62738000Y-44958000D02*
X64770000Y-46990000D01*
X59310336Y-33528000D02*
X60452000Y-33528000D01*
X61976000Y-44958000D02*
X62738000Y-44958000D01*
X58852509Y-33985827D02*
X59310336Y-33528000D01*
X61214000Y-34290000D02*
X61214000Y-44196000D01*
X61214000Y-44196000D02*
X61976000Y-44958000D01*
X60452000Y-33528000D02*
X61214000Y-34290000D01*
X60038001Y-34834999D02*
X60452000Y-35248998D01*
X59685347Y-34539347D02*
X59980999Y-34834999D01*
X59980999Y-34834999D02*
X60038001Y-34834999D01*
X60452000Y-45212000D02*
X62230000Y-46990000D01*
X60452000Y-35248998D02*
X60452000Y-45212000D01*
X59690000Y-46990000D02*
X59690000Y-35560000D01*
X58928000Y-45212000D02*
X57150000Y-46990000D01*
X58928000Y-36322000D02*
X58928000Y-45212000D01*
X70612000Y-40640000D02*
X66298653Y-44953347D01*
X55880000Y-45720000D02*
X55880000Y-43180000D01*
X73660000Y-40640000D02*
X71120000Y-40640000D01*
X71120000Y-40640000D02*
X70612000Y-40640000D01*
X55880000Y-43180000D02*
X54356000Y-41656000D01*
X62484000Y-36355000D02*
X69817000Y-36355000D01*
X69817000Y-36355000D02*
X69850000Y-36322000D01*
X62484000Y-37355003D02*
X67292997Y-37355003D01*
X67292997Y-37355003D02*
X67310000Y-37338000D01*
X44196000Y-40894000D02*
X44450000Y-40640000D01*
X41910000Y-43180000D02*
X44196000Y-40894000D01*
X40132000Y-43180000D02*
X41910000Y-43180000D01*
X37053998Y-44704000D02*
X38608000Y-44704000D01*
X38608000Y-44704000D02*
X40132000Y-43180000D01*
X33274000Y-45466000D02*
X31750000Y-46990000D01*
X57150000Y-34036000D02*
X52127002Y-34036000D01*
X33274000Y-45466000D02*
X38608000Y-45466000D01*
X38608000Y-45466000D02*
X39370000Y-44704000D01*
X41459002Y-44704000D02*
X52127002Y-34036000D01*
X39370000Y-44704000D02*
X41459002Y-44704000D01*
X57150000Y-31242000D02*
X57150000Y-34036000D01*
X58674000Y-29718000D02*
X57150000Y-31242000D01*
X58674000Y-29718000D02*
X67310000Y-29718000D01*
X70612000Y-33020000D02*
X73660000Y-33020000D01*
X67310000Y-29718000D02*
X70612000Y-33020000D01*
X66802000Y-31242000D02*
X73660000Y-38100000D01*
X61722000Y-31242000D02*
X66802000Y-31242000D01*
X38100000Y-35560000D02*
X46990000Y-26670000D01*
X34341000Y-35560000D02*
X34061500Y-35839500D01*
X38100000Y-35560000D02*
X34341000Y-35560000D01*
X36068000Y-41656000D02*
X38608000Y-39116000D01*
X38608000Y-39116000D02*
X40386000Y-39116000D01*
D14*
G36*
X27850628Y-25849303D02*
G01*
X27917611Y-25855900D01*
X41018699Y-25855900D01*
X40973316Y-25901283D01*
X40841345Y-26098792D01*
X40750442Y-26318252D01*
X40704100Y-26551229D01*
X40704100Y-26788771D01*
X40750442Y-27021748D01*
X40841345Y-27241208D01*
X40973316Y-27438717D01*
X41141283Y-27606684D01*
X41338792Y-27738655D01*
X41558252Y-27829558D01*
X41791229Y-27875900D01*
X42028771Y-27875900D01*
X42261748Y-27829558D01*
X42481208Y-27738655D01*
X42678717Y-27606684D01*
X42846684Y-27438717D01*
X42978655Y-27241208D01*
X43069558Y-27021748D01*
X43115900Y-26788771D01*
X43115900Y-26551229D01*
X43069558Y-26318252D01*
X42978655Y-26098792D01*
X42846684Y-25901283D01*
X42801301Y-25855900D01*
X43558699Y-25855900D01*
X43513316Y-25901283D01*
X43381345Y-26098792D01*
X43290442Y-26318252D01*
X43244100Y-26551229D01*
X43244100Y-26788771D01*
X43290442Y-27021748D01*
X43381345Y-27241208D01*
X43513316Y-27438717D01*
X43681283Y-27606684D01*
X43878792Y-27738655D01*
X44098252Y-27829558D01*
X44331229Y-27875900D01*
X44568771Y-27875900D01*
X44801748Y-27829558D01*
X45021208Y-27738655D01*
X45218717Y-27606684D01*
X45386684Y-27438717D01*
X45518655Y-27241208D01*
X45609558Y-27021748D01*
X45655900Y-26788771D01*
X45655900Y-26551229D01*
X45609558Y-26318252D01*
X45518655Y-26098792D01*
X45386684Y-25901283D01*
X45341301Y-25855900D01*
X46098699Y-25855900D01*
X46053316Y-25901283D01*
X45921345Y-26098792D01*
X45830442Y-26318252D01*
X45784100Y-26551229D01*
X45784100Y-26788771D01*
X45830442Y-27021748D01*
X45867849Y-27112056D01*
X37900806Y-35079100D01*
X34364609Y-35079100D01*
X34341000Y-35076775D01*
X34317391Y-35079100D01*
X34317384Y-35079100D01*
X34246727Y-35086059D01*
X34207751Y-35097882D01*
X34135950Y-35083600D01*
X33987050Y-35083600D01*
X33841012Y-35112649D01*
X33703447Y-35169631D01*
X33579642Y-35252354D01*
X33474354Y-35357642D01*
X33391631Y-35481447D01*
X33334649Y-35619012D01*
X33305600Y-35765050D01*
X33305600Y-35913950D01*
X33334649Y-36059988D01*
X33391631Y-36197553D01*
X33474354Y-36321358D01*
X33579642Y-36426646D01*
X33703447Y-36509369D01*
X33841012Y-36566351D01*
X33987050Y-36595400D01*
X34135950Y-36595400D01*
X34281988Y-36566351D01*
X34419553Y-36509369D01*
X34543358Y-36426646D01*
X34648646Y-36321358D01*
X34731369Y-36197553D01*
X34788351Y-36059988D01*
X34792148Y-36040900D01*
X38076391Y-36040900D01*
X38100000Y-36043225D01*
X38123609Y-36040900D01*
X38123616Y-36040900D01*
X38194273Y-36033941D01*
X38284923Y-36006443D01*
X38368466Y-35961788D01*
X38441692Y-35901692D01*
X38456750Y-35883344D01*
X46547944Y-27792151D01*
X46638252Y-27829558D01*
X46871229Y-27875900D01*
X47108771Y-27875900D01*
X47341748Y-27829558D01*
X47561208Y-27738655D01*
X47758717Y-27606684D01*
X47926684Y-27438717D01*
X48058655Y-27241208D01*
X48149558Y-27021748D01*
X48195900Y-26788771D01*
X48195900Y-26551229D01*
X48149558Y-26318252D01*
X48058655Y-26098792D01*
X47926684Y-25901283D01*
X47881301Y-25855900D01*
X48638699Y-25855900D01*
X48593316Y-25901283D01*
X48461345Y-26098792D01*
X48370442Y-26318252D01*
X48324100Y-26551229D01*
X48324100Y-26788771D01*
X48370442Y-27021748D01*
X48461345Y-27241208D01*
X48593316Y-27438717D01*
X48761283Y-27606684D01*
X48958792Y-27738655D01*
X49178252Y-27829558D01*
X49411229Y-27875900D01*
X49648771Y-27875900D01*
X49881748Y-27829558D01*
X50101208Y-27738655D01*
X50298717Y-27606684D01*
X50466684Y-27438717D01*
X50598655Y-27241208D01*
X50689558Y-27021748D01*
X50735900Y-26788771D01*
X50735900Y-26551229D01*
X50689558Y-26318252D01*
X50598655Y-26098792D01*
X50466684Y-25901283D01*
X50421301Y-25855900D01*
X51178699Y-25855900D01*
X51133316Y-25901283D01*
X51001345Y-26098792D01*
X50910442Y-26318252D01*
X50864100Y-26551229D01*
X50864100Y-26788771D01*
X50910442Y-27021748D01*
X51001345Y-27241208D01*
X51133316Y-27438717D01*
X51301283Y-27606684D01*
X51498792Y-27738655D01*
X51718252Y-27829558D01*
X51951229Y-27875900D01*
X52188771Y-27875900D01*
X52421748Y-27829558D01*
X52641208Y-27738655D01*
X52838717Y-27606684D01*
X53006684Y-27438717D01*
X53138655Y-27241208D01*
X53229558Y-27021748D01*
X53275900Y-26788771D01*
X53275900Y-26551229D01*
X53229558Y-26318252D01*
X53138655Y-26098792D01*
X53006684Y-25901283D01*
X52961301Y-25855900D01*
X53718699Y-25855900D01*
X53673316Y-25901283D01*
X53541345Y-26098792D01*
X53450442Y-26318252D01*
X53404100Y-26551229D01*
X53404100Y-26788771D01*
X53450442Y-27021748D01*
X53541345Y-27241208D01*
X53673316Y-27438717D01*
X53841283Y-27606684D01*
X54038792Y-27738655D01*
X54258252Y-27829558D01*
X54491229Y-27875900D01*
X54728771Y-27875900D01*
X54961748Y-27829558D01*
X55181208Y-27738655D01*
X55378717Y-27606684D01*
X55546684Y-27438717D01*
X55678655Y-27241208D01*
X55769558Y-27021748D01*
X55815900Y-26788771D01*
X55815900Y-26551229D01*
X55769558Y-26318252D01*
X55678655Y-26098792D01*
X55546684Y-25901283D01*
X55501301Y-25855900D01*
X56258699Y-25855900D01*
X56213316Y-25901283D01*
X56081345Y-26098792D01*
X55990442Y-26318252D01*
X55944100Y-26551229D01*
X55944100Y-26788771D01*
X55990442Y-27021748D01*
X56081345Y-27241208D01*
X56213316Y-27438717D01*
X56381283Y-27606684D01*
X56578792Y-27738655D01*
X56798252Y-27829558D01*
X57031229Y-27875900D01*
X57268771Y-27875900D01*
X57501748Y-27829558D01*
X57721208Y-27738655D01*
X57918717Y-27606684D01*
X58086684Y-27438717D01*
X58218655Y-27241208D01*
X58309558Y-27021748D01*
X58355900Y-26788771D01*
X58355900Y-26551229D01*
X58309558Y-26318252D01*
X58218655Y-26098792D01*
X58086684Y-25901283D01*
X58041301Y-25855900D01*
X58798699Y-25855900D01*
X58753316Y-25901283D01*
X58621345Y-26098792D01*
X58530442Y-26318252D01*
X58484100Y-26551229D01*
X58484100Y-26788771D01*
X58530442Y-27021748D01*
X58621345Y-27241208D01*
X58753316Y-27438717D01*
X58921283Y-27606684D01*
X59118792Y-27738655D01*
X59338252Y-27829558D01*
X59571229Y-27875900D01*
X59808771Y-27875900D01*
X60041748Y-27829558D01*
X60261208Y-27738655D01*
X60458717Y-27606684D01*
X60626684Y-27438717D01*
X60758655Y-27241208D01*
X60849558Y-27021748D01*
X60895900Y-26788771D01*
X60895900Y-26551229D01*
X60849558Y-26318252D01*
X60758655Y-26098792D01*
X60626684Y-25901283D01*
X60581301Y-25855900D01*
X61338699Y-25855900D01*
X61293316Y-25901283D01*
X61161345Y-26098792D01*
X61070442Y-26318252D01*
X61024100Y-26551229D01*
X61024100Y-26788771D01*
X61070442Y-27021748D01*
X61161345Y-27241208D01*
X61293316Y-27438717D01*
X61461283Y-27606684D01*
X61658792Y-27738655D01*
X61878252Y-27829558D01*
X62111229Y-27875900D01*
X62348771Y-27875900D01*
X62581748Y-27829558D01*
X62801208Y-27738655D01*
X62998717Y-27606684D01*
X63166684Y-27438717D01*
X63298655Y-27241208D01*
X63389558Y-27021748D01*
X63435900Y-26788771D01*
X63435900Y-26551229D01*
X63389558Y-26318252D01*
X63298655Y-26098792D01*
X63166684Y-25901283D01*
X63121301Y-25855900D01*
X63878699Y-25855900D01*
X63833316Y-25901283D01*
X63701345Y-26098792D01*
X63610442Y-26318252D01*
X63564100Y-26551229D01*
X63564100Y-26788771D01*
X63610442Y-27021748D01*
X63701345Y-27241208D01*
X63833316Y-27438717D01*
X64001283Y-27606684D01*
X64198792Y-27738655D01*
X64418252Y-27829558D01*
X64651229Y-27875900D01*
X64888771Y-27875900D01*
X65121748Y-27829558D01*
X65341208Y-27738655D01*
X65538717Y-27606684D01*
X65706684Y-27438717D01*
X65838655Y-27241208D01*
X65929558Y-27021748D01*
X65975900Y-26788771D01*
X65975900Y-26551229D01*
X65929558Y-26318252D01*
X65838655Y-26098792D01*
X65706684Y-25901283D01*
X65661301Y-25855900D01*
X66418699Y-25855900D01*
X66373316Y-25901283D01*
X66241345Y-26098792D01*
X66150442Y-26318252D01*
X66104100Y-26551229D01*
X66104100Y-26788771D01*
X66150442Y-27021748D01*
X66241345Y-27241208D01*
X66373316Y-27438717D01*
X66541283Y-27606684D01*
X66738792Y-27738655D01*
X66958252Y-27829558D01*
X67191229Y-27875900D01*
X67428771Y-27875900D01*
X67661748Y-27829558D01*
X67881208Y-27738655D01*
X68078717Y-27606684D01*
X68246684Y-27438717D01*
X68378655Y-27241208D01*
X68469558Y-27021748D01*
X68515900Y-26788771D01*
X68515900Y-26551229D01*
X68469558Y-26318252D01*
X68378655Y-26098792D01*
X68246684Y-25901283D01*
X68201301Y-25855900D01*
X68642378Y-25855900D01*
X68642378Y-27520000D01*
X68649250Y-27589769D01*
X68669600Y-27656856D01*
X68702648Y-27718684D01*
X68747123Y-27772877D01*
X68801316Y-27817352D01*
X68863144Y-27850400D01*
X68930231Y-27870750D01*
X69000000Y-27877622D01*
X70700000Y-27877622D01*
X70769769Y-27870750D01*
X70836856Y-27850400D01*
X70898684Y-27817352D01*
X70952877Y-27772877D01*
X70953609Y-27771984D01*
X71954100Y-27771984D01*
X71954100Y-28108016D01*
X72019657Y-28437593D01*
X72148251Y-28748047D01*
X72334941Y-29027448D01*
X72572552Y-29265059D01*
X72851953Y-29451749D01*
X73162407Y-29580343D01*
X73491984Y-29645900D01*
X73828016Y-29645900D01*
X74157593Y-29580343D01*
X74468047Y-29451749D01*
X74747448Y-29265059D01*
X74985059Y-29027448D01*
X75171749Y-28748047D01*
X75300343Y-28437593D01*
X75365900Y-28108016D01*
X75365900Y-27771984D01*
X75300343Y-27442407D01*
X75171749Y-27131953D01*
X74985059Y-26852552D01*
X74747448Y-26614941D01*
X74468047Y-26428251D01*
X74157593Y-26299657D01*
X73828016Y-26234100D01*
X73491984Y-26234100D01*
X73162407Y-26299657D01*
X72851953Y-26428251D01*
X72572552Y-26614941D01*
X72334941Y-26852552D01*
X72148251Y-27131953D01*
X72019657Y-27442407D01*
X71954100Y-27771984D01*
X70953609Y-27771984D01*
X70997352Y-27718684D01*
X71030400Y-27656856D01*
X71050750Y-27589769D01*
X71057622Y-27520000D01*
X71057622Y-25855900D01*
X73682389Y-25855900D01*
X73749372Y-25849303D01*
X73768241Y-25843579D01*
X74069255Y-25873094D01*
X74462929Y-25991950D01*
X74826016Y-26185007D01*
X75144688Y-26444910D01*
X75406812Y-26761765D01*
X75602397Y-27123492D01*
X75723998Y-27516323D01*
X75756964Y-27829970D01*
X75750697Y-27850629D01*
X75744100Y-27917612D01*
X75744101Y-45742389D01*
X75750698Y-45809372D01*
X75756421Y-45828238D01*
X75726906Y-46129256D01*
X75608049Y-46522930D01*
X75414994Y-46886014D01*
X75155089Y-47204688D01*
X74838239Y-47466809D01*
X74476511Y-47662395D01*
X74083681Y-47783997D01*
X73770031Y-47816964D01*
X73749372Y-47810697D01*
X73682389Y-47804100D01*
X71057622Y-47804100D01*
X71057622Y-46140000D01*
X71050750Y-46070231D01*
X71030400Y-46003144D01*
X70997352Y-45941316D01*
X70952877Y-45887123D01*
X70898684Y-45842648D01*
X70836856Y-45809600D01*
X70769769Y-45789250D01*
X70700000Y-45782378D01*
X69000000Y-45782378D01*
X68930231Y-45789250D01*
X68863144Y-45809600D01*
X68801316Y-45842648D01*
X68747123Y-45887123D01*
X68702648Y-45941316D01*
X68669600Y-46003144D01*
X68649250Y-46070231D01*
X68642378Y-46140000D01*
X68642378Y-47804100D01*
X68201301Y-47804100D01*
X68246684Y-47758717D01*
X68378655Y-47561208D01*
X68469558Y-47341748D01*
X68515900Y-47108771D01*
X68515900Y-46871229D01*
X68469558Y-46638252D01*
X68378655Y-46418792D01*
X68246684Y-46221283D01*
X68078717Y-46053316D01*
X67881208Y-45921345D01*
X67661748Y-45830442D01*
X67428771Y-45784100D01*
X67191229Y-45784100D01*
X66958252Y-45830442D01*
X66867944Y-45867849D01*
X66633092Y-45632997D01*
X66656706Y-45623216D01*
X66763313Y-45551984D01*
X71954100Y-45551984D01*
X71954100Y-45888016D01*
X72019657Y-46217593D01*
X72148251Y-46528047D01*
X72334941Y-46807448D01*
X72572552Y-47045059D01*
X72851953Y-47231749D01*
X73162407Y-47360343D01*
X73491984Y-47425900D01*
X73828016Y-47425900D01*
X74157593Y-47360343D01*
X74468047Y-47231749D01*
X74747448Y-47045059D01*
X74985059Y-46807448D01*
X75171749Y-46528047D01*
X75300343Y-46217593D01*
X75365900Y-45888016D01*
X75365900Y-45551984D01*
X75300343Y-45222407D01*
X75171749Y-44911953D01*
X74985059Y-44632552D01*
X74747448Y-44394941D01*
X74468047Y-44208251D01*
X74157593Y-44079657D01*
X73828016Y-44014100D01*
X73491984Y-44014100D01*
X73162407Y-44079657D01*
X72851953Y-44208251D01*
X72572552Y-44394941D01*
X72334941Y-44632552D01*
X72148251Y-44911953D01*
X72019657Y-45222407D01*
X71954100Y-45551984D01*
X66763313Y-45551984D01*
X66780511Y-45540493D01*
X66885799Y-45435205D01*
X66968522Y-45311400D01*
X67025504Y-45173835D01*
X67054553Y-45027797D01*
X67054553Y-44878897D01*
X67054328Y-44877766D01*
X70678190Y-41253905D01*
X70761947Y-41309869D01*
X70899512Y-41366851D01*
X71045550Y-41395900D01*
X71194450Y-41395900D01*
X71340488Y-41366851D01*
X71478053Y-41309869D01*
X71601858Y-41227146D01*
X71707146Y-41121858D01*
X71707786Y-41120900D01*
X72452378Y-41120900D01*
X72452378Y-41490000D01*
X72459250Y-41559769D01*
X72479600Y-41626856D01*
X72512648Y-41688684D01*
X72557123Y-41742877D01*
X72611316Y-41787352D01*
X72673144Y-41820400D01*
X72740231Y-41840750D01*
X72810000Y-41847622D01*
X74510000Y-41847622D01*
X74579769Y-41840750D01*
X74646856Y-41820400D01*
X74708684Y-41787352D01*
X74762877Y-41742877D01*
X74807352Y-41688684D01*
X74840400Y-41626856D01*
X74860750Y-41559769D01*
X74867622Y-41490000D01*
X74867622Y-39790000D01*
X74860750Y-39720231D01*
X74840400Y-39653144D01*
X74807352Y-39591316D01*
X74762877Y-39537123D01*
X74708684Y-39492648D01*
X74646856Y-39459600D01*
X74579769Y-39439250D01*
X74510000Y-39432378D01*
X72810000Y-39432378D01*
X72740231Y-39439250D01*
X72673144Y-39459600D01*
X72611316Y-39492648D01*
X72557123Y-39537123D01*
X72512648Y-39591316D01*
X72479600Y-39653144D01*
X72459250Y-39720231D01*
X72452378Y-39790000D01*
X72452378Y-40159100D01*
X71707786Y-40159100D01*
X71707146Y-40158142D01*
X71601858Y-40052854D01*
X71478053Y-39970131D01*
X71340488Y-39913149D01*
X71194450Y-39884100D01*
X71045550Y-39884100D01*
X70899512Y-39913149D01*
X70761947Y-39970131D01*
X70638142Y-40052854D01*
X70532854Y-40158142D01*
X70528257Y-40165022D01*
X70517727Y-40166059D01*
X70427077Y-40193557D01*
X70343534Y-40238212D01*
X70270308Y-40298308D01*
X70255254Y-40316651D01*
X66374234Y-44197672D01*
X66373103Y-44197447D01*
X66224203Y-44197447D01*
X66078165Y-44226496D01*
X65940600Y-44283478D01*
X65816795Y-44366201D01*
X65711507Y-44471489D01*
X65628784Y-44595294D01*
X65619003Y-44618908D01*
X64872750Y-43872656D01*
X64857692Y-43854308D01*
X64784466Y-43794212D01*
X64700923Y-43749557D01*
X64610273Y-43722059D01*
X64539616Y-43715100D01*
X64539609Y-43715100D01*
X64516000Y-43712775D01*
X64492391Y-43715100D01*
X62429195Y-43715100D01*
X62202900Y-43488806D01*
X62202900Y-38056747D01*
X62263512Y-38081854D01*
X62409550Y-38110903D01*
X62558450Y-38110903D01*
X62704488Y-38081854D01*
X62842053Y-38024872D01*
X62965858Y-37942149D01*
X63071146Y-37836861D01*
X63071786Y-37835903D01*
X66738899Y-37835903D01*
X66828142Y-37925146D01*
X66951947Y-38007869D01*
X67089512Y-38064851D01*
X67235550Y-38093900D01*
X67384450Y-38093900D01*
X67530488Y-38064851D01*
X67668053Y-38007869D01*
X67791858Y-37925146D01*
X67897146Y-37819858D01*
X67979869Y-37696053D01*
X68036851Y-37558488D01*
X68065900Y-37412450D01*
X68065900Y-37263550D01*
X68036851Y-37117512D01*
X67979869Y-36979947D01*
X67897146Y-36856142D01*
X67876904Y-36835900D01*
X69294896Y-36835900D01*
X69368142Y-36909146D01*
X69491947Y-36991869D01*
X69629512Y-37048851D01*
X69775550Y-37077900D01*
X69924450Y-37077900D01*
X70070488Y-37048851D01*
X70208053Y-36991869D01*
X70331858Y-36909146D01*
X70437146Y-36803858D01*
X70519869Y-36680053D01*
X70576851Y-36542488D01*
X70605900Y-36396450D01*
X70605900Y-36247550D01*
X70576851Y-36101512D01*
X70519869Y-35963947D01*
X70437146Y-35840142D01*
X70331858Y-35734854D01*
X70208053Y-35652131D01*
X70070488Y-35595149D01*
X69924450Y-35566100D01*
X69775550Y-35566100D01*
X69629512Y-35595149D01*
X69491947Y-35652131D01*
X69368142Y-35734854D01*
X69262854Y-35840142D01*
X69240164Y-35874100D01*
X63071786Y-35874100D01*
X63071146Y-35873142D01*
X62965858Y-35767854D01*
X62842053Y-35685131D01*
X62704488Y-35628149D01*
X62558450Y-35599100D01*
X62409550Y-35599100D01*
X62263512Y-35628149D01*
X62202900Y-35653256D01*
X62202900Y-33622605D01*
X62205225Y-33598999D01*
X62202900Y-33575393D01*
X62202900Y-33575384D01*
X62195941Y-33504727D01*
X62168443Y-33414077D01*
X62123788Y-33330534D01*
X62063692Y-33257308D01*
X62045349Y-33242254D01*
X60120675Y-31317581D01*
X60120900Y-31316450D01*
X60120900Y-31167550D01*
X60966100Y-31167550D01*
X60966100Y-31316450D01*
X60995149Y-31462488D01*
X61052131Y-31600053D01*
X61134854Y-31723858D01*
X61240142Y-31829146D01*
X61363947Y-31911869D01*
X61501512Y-31968851D01*
X61647550Y-31997900D01*
X61796450Y-31997900D01*
X61942488Y-31968851D01*
X62080053Y-31911869D01*
X62203858Y-31829146D01*
X62309146Y-31723858D01*
X62309786Y-31722900D01*
X66602806Y-31722900D01*
X72537849Y-37657944D01*
X72500442Y-37748252D01*
X72454100Y-37981229D01*
X72454100Y-38218771D01*
X72500442Y-38451748D01*
X72591345Y-38671208D01*
X72723316Y-38868717D01*
X72891283Y-39036684D01*
X73088792Y-39168655D01*
X73308252Y-39259558D01*
X73541229Y-39305900D01*
X73778771Y-39305900D01*
X74011748Y-39259558D01*
X74231208Y-39168655D01*
X74428717Y-39036684D01*
X74596684Y-38868717D01*
X74728655Y-38671208D01*
X74819558Y-38451748D01*
X74865900Y-38218771D01*
X74865900Y-37981229D01*
X74819558Y-37748252D01*
X74728655Y-37528792D01*
X74596684Y-37331283D01*
X74428717Y-37163316D01*
X74231208Y-37031345D01*
X74011748Y-36940442D01*
X73778771Y-36894100D01*
X73541229Y-36894100D01*
X73308252Y-36940442D01*
X73217944Y-36977849D01*
X72013489Y-35773394D01*
X72473131Y-35773394D01*
X72481813Y-35817043D01*
X72554598Y-36041957D01*
X72669863Y-36248350D01*
X72823179Y-36428290D01*
X73008653Y-36574862D01*
X73219158Y-36682433D01*
X73446605Y-36746870D01*
X73634900Y-36676665D01*
X73634900Y-35585100D01*
X73685100Y-35585100D01*
X73685100Y-36676665D01*
X73873395Y-36746870D01*
X74100842Y-36682433D01*
X74311347Y-36574862D01*
X74496821Y-36428290D01*
X74650137Y-36248350D01*
X74765402Y-36041957D01*
X74838187Y-35817043D01*
X74846869Y-35773394D01*
X74776643Y-35585100D01*
X73685100Y-35585100D01*
X73634900Y-35585100D01*
X72543357Y-35585100D01*
X72473131Y-35773394D01*
X72013489Y-35773394D01*
X71586701Y-35346606D01*
X72473131Y-35346606D01*
X72543357Y-35534900D01*
X73634900Y-35534900D01*
X73634900Y-34443335D01*
X73685100Y-34443335D01*
X73685100Y-35534900D01*
X74776643Y-35534900D01*
X74846869Y-35346606D01*
X74838187Y-35302957D01*
X74765402Y-35078043D01*
X74650137Y-34871650D01*
X74496821Y-34691710D01*
X74311347Y-34545138D01*
X74100842Y-34437567D01*
X73873395Y-34373130D01*
X73685100Y-34443335D01*
X73634900Y-34443335D01*
X73446605Y-34373130D01*
X73219158Y-34437567D01*
X73008653Y-34545138D01*
X72823179Y-34691710D01*
X72669863Y-34871650D01*
X72554598Y-35078043D01*
X72481813Y-35302957D01*
X72473131Y-35346606D01*
X71586701Y-35346606D01*
X67158750Y-30918656D01*
X67143692Y-30900308D01*
X67070466Y-30840212D01*
X66986923Y-30795557D01*
X66896273Y-30768059D01*
X66825616Y-30761100D01*
X66825609Y-30761100D01*
X66802000Y-30758775D01*
X66778391Y-30761100D01*
X62309786Y-30761100D01*
X62309146Y-30760142D01*
X62203858Y-30654854D01*
X62080053Y-30572131D01*
X61942488Y-30515149D01*
X61796450Y-30486100D01*
X61647550Y-30486100D01*
X61501512Y-30515149D01*
X61363947Y-30572131D01*
X61240142Y-30654854D01*
X61134854Y-30760142D01*
X61052131Y-30883947D01*
X60995149Y-31021512D01*
X60966100Y-31167550D01*
X60120900Y-31167550D01*
X60091851Y-31021512D01*
X60034869Y-30883947D01*
X59952146Y-30760142D01*
X59846858Y-30654854D01*
X59723053Y-30572131D01*
X59585488Y-30515149D01*
X59439450Y-30486100D01*
X59290550Y-30486100D01*
X59144512Y-30515149D01*
X59006947Y-30572131D01*
X58883142Y-30654854D01*
X58777854Y-30760142D01*
X58695131Y-30883947D01*
X58638149Y-31021512D01*
X58609100Y-31167550D01*
X58609100Y-31316450D01*
X58638149Y-31462488D01*
X58695131Y-31600053D01*
X58777854Y-31723858D01*
X58883142Y-31829146D01*
X59006947Y-31911869D01*
X59144512Y-31968851D01*
X59290550Y-31997900D01*
X59439450Y-31997900D01*
X59440581Y-31997675D01*
X60491577Y-33048672D01*
X60475616Y-33047100D01*
X60475609Y-33047100D01*
X60452000Y-33044775D01*
X60428391Y-33047100D01*
X59333944Y-33047100D01*
X59310335Y-33044775D01*
X59286726Y-33047100D01*
X59286720Y-33047100D01*
X59216063Y-33054059D01*
X59125413Y-33081557D01*
X59041870Y-33126212D01*
X58968644Y-33186308D01*
X58953590Y-33204651D01*
X58928089Y-33230152D01*
X58926959Y-33229927D01*
X58778059Y-33229927D01*
X58632021Y-33258976D01*
X58494456Y-33315958D01*
X58370651Y-33398681D01*
X58265363Y-33503969D01*
X58182640Y-33627774D01*
X58125658Y-33765339D01*
X58096609Y-33911377D01*
X58096609Y-34060277D01*
X58125658Y-34206315D01*
X58182640Y-34343880D01*
X58265363Y-34467685D01*
X58370651Y-34572973D01*
X58494456Y-34655696D01*
X58632021Y-34712678D01*
X58778059Y-34741727D01*
X58926959Y-34741727D01*
X58953831Y-34736382D01*
X58958496Y-34759835D01*
X59015478Y-34897400D01*
X59098201Y-35021205D01*
X59128996Y-35052000D01*
X59102854Y-35078142D01*
X59020131Y-35201947D01*
X58963149Y-35339512D01*
X58934100Y-35485550D01*
X58934100Y-35566100D01*
X58853550Y-35566100D01*
X58707512Y-35595149D01*
X58569947Y-35652131D01*
X58446142Y-35734854D01*
X58340854Y-35840142D01*
X58258131Y-35963947D01*
X58201149Y-36101512D01*
X58172100Y-36247550D01*
X58172100Y-36396450D01*
X58201149Y-36542488D01*
X58258131Y-36680053D01*
X58340854Y-36803858D01*
X58446142Y-36909146D01*
X58447100Y-36909786D01*
X58447101Y-45012804D01*
X57592057Y-45867849D01*
X57501748Y-45830442D01*
X57268771Y-45784100D01*
X57031229Y-45784100D01*
X56798252Y-45830442D01*
X56613520Y-45906960D01*
X56635900Y-45794450D01*
X56635900Y-45645550D01*
X56606851Y-45499512D01*
X56549869Y-45361947D01*
X56467146Y-45238142D01*
X56361858Y-45132854D01*
X56360900Y-45132214D01*
X56360900Y-43203605D01*
X56363225Y-43179999D01*
X56360900Y-43156393D01*
X56360900Y-43156384D01*
X56353941Y-43085727D01*
X56326443Y-42995077D01*
X56281788Y-42911534D01*
X56221692Y-42838308D01*
X56203349Y-42823254D01*
X55111675Y-41731581D01*
X55111900Y-41730450D01*
X55111900Y-41581550D01*
X55082851Y-41435512D01*
X55025869Y-41297947D01*
X54943146Y-41174142D01*
X54837858Y-41068854D01*
X54714053Y-40986131D01*
X54576488Y-40929149D01*
X54430450Y-40900100D01*
X54281550Y-40900100D01*
X54135512Y-40929149D01*
X53997947Y-40986131D01*
X53874142Y-41068854D01*
X53768854Y-41174142D01*
X53686131Y-41297947D01*
X53629149Y-41435512D01*
X53600100Y-41581550D01*
X53600100Y-41730450D01*
X53629149Y-41876488D01*
X53686131Y-42014053D01*
X53768854Y-42137858D01*
X53874142Y-42243146D01*
X53997947Y-42325869D01*
X54135512Y-42382851D01*
X54281550Y-42411900D01*
X54430450Y-42411900D01*
X54431581Y-42411675D01*
X55399101Y-43379196D01*
X55399100Y-45132214D01*
X55398142Y-45132854D01*
X55292854Y-45238142D01*
X55210131Y-45361947D01*
X55153149Y-45499512D01*
X55124100Y-45645550D01*
X55124100Y-45794450D01*
X55146480Y-45906960D01*
X54961748Y-45830442D01*
X54728771Y-45784100D01*
X54491229Y-45784100D01*
X54258252Y-45830442D01*
X54038792Y-45921345D01*
X53841283Y-46053316D01*
X53673316Y-46221283D01*
X53541345Y-46418792D01*
X53450442Y-46638252D01*
X53404100Y-46871229D01*
X53404100Y-47108771D01*
X53450442Y-47341748D01*
X53541345Y-47561208D01*
X53673316Y-47758717D01*
X53718699Y-47804100D01*
X52961301Y-47804100D01*
X53006684Y-47758717D01*
X53138655Y-47561208D01*
X53229558Y-47341748D01*
X53275900Y-47108771D01*
X53275900Y-46871229D01*
X53229558Y-46638252D01*
X53138655Y-46418792D01*
X53006684Y-46221283D01*
X52838717Y-46053316D01*
X52641208Y-45921345D01*
X52421748Y-45830442D01*
X52188771Y-45784100D01*
X51951229Y-45784100D01*
X51718252Y-45830442D01*
X51498792Y-45921345D01*
X51301283Y-46053316D01*
X51133316Y-46221283D01*
X51001345Y-46418792D01*
X50910442Y-46638252D01*
X50864100Y-46871229D01*
X50864100Y-47108771D01*
X50910442Y-47341748D01*
X51001345Y-47561208D01*
X51133316Y-47758717D01*
X51178699Y-47804100D01*
X50421301Y-47804100D01*
X50466684Y-47758717D01*
X50598655Y-47561208D01*
X50689558Y-47341748D01*
X50735900Y-47108771D01*
X50735900Y-46871229D01*
X50689558Y-46638252D01*
X50598655Y-46418792D01*
X50466684Y-46221283D01*
X50298717Y-46053316D01*
X50101208Y-45921345D01*
X49881748Y-45830442D01*
X49648771Y-45784100D01*
X49411229Y-45784100D01*
X49178252Y-45830442D01*
X48958792Y-45921345D01*
X48761283Y-46053316D01*
X48593316Y-46221283D01*
X48461345Y-46418792D01*
X48370442Y-46638252D01*
X48324100Y-46871229D01*
X48324100Y-47108771D01*
X48370442Y-47341748D01*
X48461345Y-47561208D01*
X48593316Y-47758717D01*
X48638699Y-47804100D01*
X47881301Y-47804100D01*
X47926684Y-47758717D01*
X48058655Y-47561208D01*
X48149558Y-47341748D01*
X48195900Y-47108771D01*
X48195900Y-46871229D01*
X48149558Y-46638252D01*
X48058655Y-46418792D01*
X47926684Y-46221283D01*
X47758717Y-46053316D01*
X47561208Y-45921345D01*
X47341748Y-45830442D01*
X47108771Y-45784100D01*
X46871229Y-45784100D01*
X46638252Y-45830442D01*
X46418792Y-45921345D01*
X46221283Y-46053316D01*
X46053316Y-46221283D01*
X45921345Y-46418792D01*
X45830442Y-46638252D01*
X45784100Y-46871229D01*
X45784100Y-47108771D01*
X45830442Y-47341748D01*
X45921345Y-47561208D01*
X46053316Y-47758717D01*
X46098699Y-47804100D01*
X45341301Y-47804100D01*
X45386684Y-47758717D01*
X45518655Y-47561208D01*
X45609558Y-47341748D01*
X45655900Y-47108771D01*
X45655900Y-46871229D01*
X45609558Y-46638252D01*
X45518655Y-46418792D01*
X45386684Y-46221283D01*
X45218717Y-46053316D01*
X45021208Y-45921345D01*
X44801748Y-45830442D01*
X44568771Y-45784100D01*
X44331229Y-45784100D01*
X44098252Y-45830442D01*
X43878792Y-45921345D01*
X43681283Y-46053316D01*
X43513316Y-46221283D01*
X43381345Y-46418792D01*
X43290442Y-46638252D01*
X43244100Y-46871229D01*
X43244100Y-47108771D01*
X43290442Y-47341748D01*
X43381345Y-47561208D01*
X43513316Y-47758717D01*
X43558699Y-47804100D01*
X42801301Y-47804100D01*
X42846684Y-47758717D01*
X42978655Y-47561208D01*
X43069558Y-47341748D01*
X43115900Y-47108771D01*
X43115900Y-46871229D01*
X43069558Y-46638252D01*
X42978655Y-46418792D01*
X42846684Y-46221283D01*
X42678717Y-46053316D01*
X42481208Y-45921345D01*
X42261748Y-45830442D01*
X42028771Y-45784100D01*
X41791229Y-45784100D01*
X41558252Y-45830442D01*
X41338792Y-45921345D01*
X41141283Y-46053316D01*
X40973316Y-46221283D01*
X40841345Y-46418792D01*
X40750442Y-46638252D01*
X40704100Y-46871229D01*
X40704100Y-47108771D01*
X40750442Y-47341748D01*
X40841345Y-47561208D01*
X40973316Y-47758717D01*
X41018699Y-47804100D01*
X40256245Y-47804100D01*
X40384862Y-47641347D01*
X40492433Y-47430842D01*
X40556870Y-47203395D01*
X40486665Y-47015100D01*
X39395100Y-47015100D01*
X39395100Y-47035100D01*
X39344900Y-47035100D01*
X39344900Y-47015100D01*
X38253335Y-47015100D01*
X38183130Y-47203395D01*
X38247567Y-47430842D01*
X38355138Y-47641347D01*
X38483755Y-47804100D01*
X37721301Y-47804100D01*
X37766684Y-47758717D01*
X37898655Y-47561208D01*
X37989558Y-47341748D01*
X38035900Y-47108771D01*
X38035900Y-46871229D01*
X38017079Y-46776605D01*
X38183130Y-46776605D01*
X38253335Y-46964900D01*
X39344900Y-46964900D01*
X39344900Y-45873357D01*
X39395100Y-45873357D01*
X39395100Y-46964900D01*
X40486665Y-46964900D01*
X40556870Y-46776605D01*
X40492433Y-46549158D01*
X40384862Y-46338653D01*
X40238290Y-46153179D01*
X40058350Y-45999863D01*
X39851957Y-45884598D01*
X39627043Y-45811813D01*
X39583394Y-45803131D01*
X39395100Y-45873357D01*
X39344900Y-45873357D01*
X39156606Y-45803131D01*
X39112957Y-45811813D01*
X38888043Y-45884598D01*
X38681650Y-45999863D01*
X38501710Y-46153179D01*
X38355138Y-46338653D01*
X38247567Y-46549158D01*
X38183130Y-46776605D01*
X38017079Y-46776605D01*
X37989558Y-46638252D01*
X37898655Y-46418792D01*
X37766684Y-46221283D01*
X37598717Y-46053316D01*
X37439454Y-45946900D01*
X38584391Y-45946900D01*
X38608000Y-45949225D01*
X38631609Y-45946900D01*
X38631616Y-45946900D01*
X38702273Y-45939941D01*
X38792923Y-45912443D01*
X38876466Y-45867788D01*
X38949692Y-45807692D01*
X38964750Y-45789344D01*
X39569195Y-45184900D01*
X41435393Y-45184900D01*
X41459002Y-45187225D01*
X41482611Y-45184900D01*
X41482618Y-45184900D01*
X41553275Y-45177941D01*
X41643925Y-45150443D01*
X41727468Y-45105788D01*
X41800694Y-45045692D01*
X41815752Y-45027344D01*
X52326197Y-34516900D01*
X56562214Y-34516900D01*
X56562854Y-34517858D01*
X56668142Y-34623146D01*
X56791947Y-34705869D01*
X56929512Y-34762851D01*
X57075550Y-34791900D01*
X57224450Y-34791900D01*
X57370488Y-34762851D01*
X57508053Y-34705869D01*
X57631858Y-34623146D01*
X57737146Y-34517858D01*
X57819869Y-34394053D01*
X57876851Y-34256488D01*
X57905900Y-34110450D01*
X57905900Y-33961550D01*
X57876851Y-33815512D01*
X57819869Y-33677947D01*
X57737146Y-33554142D01*
X57631858Y-33448854D01*
X57630900Y-33448214D01*
X57630900Y-31441194D01*
X58873195Y-30198900D01*
X67110806Y-30198900D01*
X70255254Y-33343349D01*
X70270308Y-33361692D01*
X70343534Y-33421788D01*
X70394171Y-33448854D01*
X70427077Y-33466443D01*
X70517726Y-33493941D01*
X70527633Y-33494917D01*
X70588384Y-33500900D01*
X70588390Y-33500900D01*
X70611999Y-33503225D01*
X70635608Y-33500900D01*
X72553938Y-33500900D01*
X72591345Y-33591208D01*
X72723316Y-33788717D01*
X72891283Y-33956684D01*
X73088792Y-34088655D01*
X73308252Y-34179558D01*
X73541229Y-34225900D01*
X73778771Y-34225900D01*
X74011748Y-34179558D01*
X74231208Y-34088655D01*
X74428717Y-33956684D01*
X74596684Y-33788717D01*
X74728655Y-33591208D01*
X74819558Y-33371748D01*
X74865900Y-33138771D01*
X74865900Y-32901229D01*
X74819558Y-32668252D01*
X74728655Y-32448792D01*
X74596684Y-32251283D01*
X74428717Y-32083316D01*
X74231208Y-31951345D01*
X74011748Y-31860442D01*
X73778771Y-31814100D01*
X73541229Y-31814100D01*
X73308252Y-31860442D01*
X73088792Y-31951345D01*
X72891283Y-32083316D01*
X72723316Y-32251283D01*
X72591345Y-32448792D01*
X72553938Y-32539100D01*
X70811195Y-32539100D01*
X67666750Y-29394656D01*
X67651692Y-29376308D01*
X67578466Y-29316212D01*
X67494923Y-29271557D01*
X67404273Y-29244059D01*
X67333616Y-29237100D01*
X67333609Y-29237100D01*
X67310000Y-29234775D01*
X67286391Y-29237100D01*
X58697605Y-29237100D01*
X58673999Y-29234775D01*
X58650393Y-29237100D01*
X58650384Y-29237100D01*
X58579727Y-29244059D01*
X58489077Y-29271557D01*
X58405534Y-29316212D01*
X58332308Y-29376308D01*
X58317254Y-29394651D01*
X56826656Y-30885250D01*
X56808308Y-30900308D01*
X56748212Y-30973534D01*
X56703557Y-31057078D01*
X56676059Y-31147728D01*
X56669100Y-31218385D01*
X56669100Y-31218391D01*
X56666775Y-31242000D01*
X56669100Y-31265609D01*
X56669101Y-33448213D01*
X56668142Y-33448854D01*
X56562854Y-33554142D01*
X56562214Y-33555100D01*
X52150607Y-33555100D01*
X52127001Y-33552775D01*
X52103395Y-33555100D01*
X52103386Y-33555100D01*
X52032729Y-33562059D01*
X51942079Y-33589557D01*
X51858536Y-33634212D01*
X51785310Y-33694308D01*
X51770256Y-33712651D01*
X45143620Y-40339287D01*
X45119869Y-40281947D01*
X45037146Y-40158142D01*
X44931858Y-40052854D01*
X44808053Y-39970131D01*
X44670488Y-39913149D01*
X44524450Y-39884100D01*
X44375550Y-39884100D01*
X44229512Y-39913149D01*
X44091947Y-39970131D01*
X43968142Y-40052854D01*
X43862854Y-40158142D01*
X43780131Y-40281947D01*
X43723149Y-40419512D01*
X43694100Y-40565550D01*
X43694100Y-40714450D01*
X43694325Y-40715580D01*
X41710806Y-42699100D01*
X40155605Y-42699100D01*
X40131999Y-42696775D01*
X40108393Y-42699100D01*
X40108384Y-42699100D01*
X40037727Y-42706059D01*
X39947077Y-42733557D01*
X39863534Y-42778212D01*
X39790308Y-42838308D01*
X39775254Y-42856651D01*
X38408806Y-44223100D01*
X37641784Y-44223100D01*
X37641144Y-44222142D01*
X37535856Y-44116854D01*
X37412051Y-44034131D01*
X37274486Y-43977149D01*
X37128448Y-43948100D01*
X36979548Y-43948100D01*
X36833510Y-43977149D01*
X36695945Y-44034131D01*
X36572140Y-44116854D01*
X36466852Y-44222142D01*
X36384129Y-44345947D01*
X36327147Y-44483512D01*
X36298098Y-44629550D01*
X36298098Y-44778450D01*
X36327147Y-44924488D01*
X36352254Y-44985100D01*
X33297605Y-44985100D01*
X33273999Y-44982775D01*
X33250393Y-44985100D01*
X33250384Y-44985100D01*
X33179727Y-44992059D01*
X33089077Y-45019557D01*
X33005534Y-45064212D01*
X32932308Y-45124308D01*
X32917254Y-45142651D01*
X32192057Y-45867849D01*
X32101748Y-45830442D01*
X31868771Y-45784100D01*
X31631229Y-45784100D01*
X31398252Y-45830442D01*
X31178792Y-45921345D01*
X30981283Y-46053316D01*
X30813316Y-46221283D01*
X30681345Y-46418792D01*
X30590442Y-46638252D01*
X30544100Y-46871229D01*
X30544100Y-47108771D01*
X30590442Y-47341748D01*
X30681345Y-47561208D01*
X30813316Y-47758717D01*
X30858699Y-47804100D01*
X27917611Y-47804100D01*
X27850628Y-47810697D01*
X27831759Y-47816421D01*
X27530744Y-47786906D01*
X27137070Y-47668049D01*
X26773986Y-47474994D01*
X26455312Y-47215089D01*
X26193191Y-46898239D01*
X25997605Y-46536511D01*
X25876003Y-46143681D01*
X25843036Y-45830031D01*
X25849303Y-45809372D01*
X25855900Y-45742389D01*
X25855900Y-45551984D01*
X26234100Y-45551984D01*
X26234100Y-45888016D01*
X26299657Y-46217593D01*
X26428251Y-46528047D01*
X26614941Y-46807448D01*
X26852552Y-47045059D01*
X27131953Y-47231749D01*
X27442407Y-47360343D01*
X27771984Y-47425900D01*
X28108016Y-47425900D01*
X28437593Y-47360343D01*
X28748047Y-47231749D01*
X29027448Y-47045059D01*
X29265059Y-46807448D01*
X29451749Y-46528047D01*
X29580343Y-46217593D01*
X29645900Y-45888016D01*
X29645900Y-45551984D01*
X29580343Y-45222407D01*
X29451749Y-44911953D01*
X29265059Y-44632552D01*
X29027448Y-44394941D01*
X28748047Y-44208251D01*
X28437593Y-44079657D01*
X28108016Y-44014100D01*
X27771984Y-44014100D01*
X27442407Y-44079657D01*
X27131953Y-44208251D01*
X26852552Y-44394941D01*
X26614941Y-44632552D01*
X26428251Y-44911953D01*
X26299657Y-45222407D01*
X26234100Y-45551984D01*
X25855900Y-45551984D01*
X25855900Y-41581550D01*
X35312100Y-41581550D01*
X35312100Y-41730450D01*
X35341149Y-41876488D01*
X35398131Y-42014053D01*
X35480854Y-42137858D01*
X35586142Y-42243146D01*
X35709947Y-42325869D01*
X35847512Y-42382851D01*
X35993550Y-42411900D01*
X36142450Y-42411900D01*
X36288488Y-42382851D01*
X36426053Y-42325869D01*
X36549858Y-42243146D01*
X36655146Y-42137858D01*
X36737869Y-42014053D01*
X36794851Y-41876488D01*
X36823900Y-41730450D01*
X36823900Y-41581550D01*
X36823675Y-41580419D01*
X38807195Y-39596900D01*
X39798214Y-39596900D01*
X39798854Y-39597858D01*
X39904142Y-39703146D01*
X40027947Y-39785869D01*
X40165512Y-39842851D01*
X40311550Y-39871900D01*
X40460450Y-39871900D01*
X40606488Y-39842851D01*
X40744053Y-39785869D01*
X40867858Y-39703146D01*
X40973146Y-39597858D01*
X41055869Y-39474053D01*
X41112851Y-39336488D01*
X41141900Y-39190450D01*
X41141900Y-39041550D01*
X41112851Y-38895512D01*
X41055869Y-38757947D01*
X40973146Y-38634142D01*
X40867858Y-38528854D01*
X40744053Y-38446131D01*
X40606488Y-38389149D01*
X40460450Y-38360100D01*
X40311550Y-38360100D01*
X40165512Y-38389149D01*
X40027947Y-38446131D01*
X39904142Y-38528854D01*
X39798854Y-38634142D01*
X39798214Y-38635100D01*
X38631605Y-38635100D01*
X38607999Y-38632775D01*
X38584393Y-38635100D01*
X38584384Y-38635100D01*
X38513727Y-38642059D01*
X38423077Y-38669557D01*
X38339534Y-38714212D01*
X38266308Y-38774308D01*
X38251254Y-38792651D01*
X36143581Y-40900325D01*
X36142450Y-40900100D01*
X35993550Y-40900100D01*
X35847512Y-40929149D01*
X35709947Y-40986131D01*
X35586142Y-41068854D01*
X35480854Y-41174142D01*
X35398131Y-41297947D01*
X35341149Y-41435512D01*
X35312100Y-41581550D01*
X25855900Y-41581550D01*
X25855900Y-27917611D01*
X25849303Y-27850628D01*
X25843579Y-27831759D01*
X25849440Y-27771984D01*
X26234100Y-27771984D01*
X26234100Y-28108016D01*
X26299657Y-28437593D01*
X26428251Y-28748047D01*
X26614941Y-29027448D01*
X26852552Y-29265059D01*
X27131953Y-29451749D01*
X27442407Y-29580343D01*
X27771984Y-29645900D01*
X28108016Y-29645900D01*
X28437593Y-29580343D01*
X28748047Y-29451749D01*
X29027448Y-29265059D01*
X29265059Y-29027448D01*
X29451749Y-28748047D01*
X29580343Y-28437593D01*
X29645900Y-28108016D01*
X29645900Y-27771984D01*
X29580343Y-27442407D01*
X29451749Y-27131953D01*
X29265059Y-26852552D01*
X29027448Y-26614941D01*
X28748047Y-26428251D01*
X28437593Y-26299657D01*
X28108016Y-26234100D01*
X27771984Y-26234100D01*
X27442407Y-26299657D01*
X27131953Y-26428251D01*
X26852552Y-26614941D01*
X26614941Y-26852552D01*
X26428251Y-27131953D01*
X26299657Y-27442407D01*
X26234100Y-27771984D01*
X25849440Y-27771984D01*
X25873094Y-27530745D01*
X25991950Y-27137071D01*
X26185007Y-26773984D01*
X26444910Y-26455312D01*
X26761765Y-26193188D01*
X27123492Y-25997603D01*
X27516323Y-25876002D01*
X27829969Y-25843036D01*
X27850628Y-25849303D01*
G37*
X27850628Y-25849303D02*
X27917611Y-25855900D01*
X41018699Y-25855900D01*
X40973316Y-25901283D01*
X40841345Y-26098792D01*
X40750442Y-26318252D01*
X40704100Y-26551229D01*
X40704100Y-26788771D01*
X40750442Y-27021748D01*
X40841345Y-27241208D01*
X40973316Y-27438717D01*
X41141283Y-27606684D01*
X41338792Y-27738655D01*
X41558252Y-27829558D01*
X41791229Y-27875900D01*
X42028771Y-27875900D01*
X42261748Y-27829558D01*
X42481208Y-27738655D01*
X42678717Y-27606684D01*
X42846684Y-27438717D01*
X42978655Y-27241208D01*
X43069558Y-27021748D01*
X43115900Y-26788771D01*
X43115900Y-26551229D01*
X43069558Y-26318252D01*
X42978655Y-26098792D01*
X42846684Y-25901283D01*
X42801301Y-25855900D01*
X43558699Y-25855900D01*
X43513316Y-25901283D01*
X43381345Y-26098792D01*
X43290442Y-26318252D01*
X43244100Y-26551229D01*
X43244100Y-26788771D01*
X43290442Y-27021748D01*
X43381345Y-27241208D01*
X43513316Y-27438717D01*
X43681283Y-27606684D01*
X43878792Y-27738655D01*
X44098252Y-27829558D01*
X44331229Y-27875900D01*
X44568771Y-27875900D01*
X44801748Y-27829558D01*
X45021208Y-27738655D01*
X45218717Y-27606684D01*
X45386684Y-27438717D01*
X45518655Y-27241208D01*
X45609558Y-27021748D01*
X45655900Y-26788771D01*
X45655900Y-26551229D01*
X45609558Y-26318252D01*
X45518655Y-26098792D01*
X45386684Y-25901283D01*
X45341301Y-25855900D01*
X46098699Y-25855900D01*
X46053316Y-25901283D01*
X45921345Y-26098792D01*
X45830442Y-26318252D01*
X45784100Y-26551229D01*
X45784100Y-26788771D01*
X45830442Y-27021748D01*
X45867849Y-27112056D01*
X37900806Y-35079100D01*
X34364609Y-35079100D01*
X34341000Y-35076775D01*
X34317391Y-35079100D01*
X34317384Y-35079100D01*
X34246727Y-35086059D01*
X34207751Y-35097882D01*
X34135950Y-35083600D01*
X33987050Y-35083600D01*
X33841012Y-35112649D01*
X33703447Y-35169631D01*
X33579642Y-35252354D01*
X33474354Y-35357642D01*
X33391631Y-35481447D01*
X33334649Y-35619012D01*
X33305600Y-35765050D01*
X33305600Y-35913950D01*
X33334649Y-36059988D01*
X33391631Y-36197553D01*
X33474354Y-36321358D01*
X33579642Y-36426646D01*
X33703447Y-36509369D01*
X33841012Y-36566351D01*
X33987050Y-36595400D01*
X34135950Y-36595400D01*
X34281988Y-36566351D01*
X34419553Y-36509369D01*
X34543358Y-36426646D01*
X34648646Y-36321358D01*
X34731369Y-36197553D01*
X34788351Y-36059988D01*
X34792148Y-36040900D01*
X38076391Y-36040900D01*
X38100000Y-36043225D01*
X38123609Y-36040900D01*
X38123616Y-36040900D01*
X38194273Y-36033941D01*
X38284923Y-36006443D01*
X38368466Y-35961788D01*
X38441692Y-35901692D01*
X38456750Y-35883344D01*
X46547944Y-27792151D01*
X46638252Y-27829558D01*
X46871229Y-27875900D01*
X47108771Y-27875900D01*
X47341748Y-27829558D01*
X47561208Y-27738655D01*
X47758717Y-27606684D01*
X47926684Y-27438717D01*
X48058655Y-27241208D01*
X48149558Y-27021748D01*
X48195900Y-26788771D01*
X48195900Y-26551229D01*
X48149558Y-26318252D01*
X48058655Y-26098792D01*
X47926684Y-25901283D01*
X47881301Y-25855900D01*
X48638699Y-25855900D01*
X48593316Y-25901283D01*
X48461345Y-26098792D01*
X48370442Y-26318252D01*
X48324100Y-26551229D01*
X48324100Y-26788771D01*
X48370442Y-27021748D01*
X48461345Y-27241208D01*
X48593316Y-27438717D01*
X48761283Y-27606684D01*
X48958792Y-27738655D01*
X49178252Y-27829558D01*
X49411229Y-27875900D01*
X49648771Y-27875900D01*
X49881748Y-27829558D01*
X50101208Y-27738655D01*
X50298717Y-27606684D01*
X50466684Y-27438717D01*
X50598655Y-27241208D01*
X50689558Y-27021748D01*
X50735900Y-26788771D01*
X50735900Y-26551229D01*
X50689558Y-26318252D01*
X50598655Y-26098792D01*
X50466684Y-25901283D01*
X50421301Y-25855900D01*
X51178699Y-25855900D01*
X51133316Y-25901283D01*
X51001345Y-26098792D01*
X50910442Y-26318252D01*
X50864100Y-26551229D01*
X50864100Y-26788771D01*
X50910442Y-27021748D01*
X51001345Y-27241208D01*
X51133316Y-27438717D01*
X51301283Y-27606684D01*
X51498792Y-27738655D01*
X51718252Y-27829558D01*
X51951229Y-27875900D01*
X52188771Y-27875900D01*
X52421748Y-27829558D01*
X52641208Y-27738655D01*
X52838717Y-27606684D01*
X53006684Y-27438717D01*
X53138655Y-27241208D01*
X53229558Y-27021748D01*
X53275900Y-26788771D01*
X53275900Y-26551229D01*
X53229558Y-26318252D01*
X53138655Y-26098792D01*
X53006684Y-25901283D01*
X52961301Y-25855900D01*
X53718699Y-25855900D01*
X53673316Y-25901283D01*
X53541345Y-26098792D01*
X53450442Y-26318252D01*
X53404100Y-26551229D01*
X53404100Y-26788771D01*
X53450442Y-27021748D01*
X53541345Y-27241208D01*
X53673316Y-27438717D01*
X53841283Y-27606684D01*
X54038792Y-27738655D01*
X54258252Y-27829558D01*
X54491229Y-27875900D01*
X54728771Y-27875900D01*
X54961748Y-27829558D01*
X55181208Y-27738655D01*
X55378717Y-27606684D01*
X55546684Y-27438717D01*
X55678655Y-27241208D01*
X55769558Y-27021748D01*
X55815900Y-26788771D01*
X55815900Y-26551229D01*
X55769558Y-26318252D01*
X55678655Y-26098792D01*
X55546684Y-25901283D01*
X55501301Y-25855900D01*
X56258699Y-25855900D01*
X56213316Y-25901283D01*
X56081345Y-26098792D01*
X55990442Y-26318252D01*
X55944100Y-26551229D01*
X55944100Y-26788771D01*
X55990442Y-27021748D01*
X56081345Y-27241208D01*
X56213316Y-27438717D01*
X56381283Y-27606684D01*
X56578792Y-27738655D01*
X56798252Y-27829558D01*
X57031229Y-27875900D01*
X57268771Y-27875900D01*
X57501748Y-27829558D01*
X57721208Y-27738655D01*
X57918717Y-27606684D01*
X58086684Y-27438717D01*
X58218655Y-27241208D01*
X58309558Y-27021748D01*
X58355900Y-26788771D01*
X58355900Y-26551229D01*
X58309558Y-26318252D01*
X58218655Y-26098792D01*
X58086684Y-25901283D01*
X58041301Y-25855900D01*
X58798699Y-25855900D01*
X58753316Y-25901283D01*
X58621345Y-26098792D01*
X58530442Y-26318252D01*
X58484100Y-26551229D01*
X58484100Y-26788771D01*
X58530442Y-27021748D01*
X58621345Y-27241208D01*
X58753316Y-27438717D01*
X58921283Y-27606684D01*
X59118792Y-27738655D01*
X59338252Y-27829558D01*
X59571229Y-27875900D01*
X59808771Y-27875900D01*
X60041748Y-27829558D01*
X60261208Y-27738655D01*
X60458717Y-27606684D01*
X60626684Y-27438717D01*
X60758655Y-27241208D01*
X60849558Y-27021748D01*
X60895900Y-26788771D01*
X60895900Y-26551229D01*
X60849558Y-26318252D01*
X60758655Y-26098792D01*
X60626684Y-25901283D01*
X60581301Y-25855900D01*
X61338699Y-25855900D01*
X61293316Y-25901283D01*
X61161345Y-26098792D01*
X61070442Y-26318252D01*
X61024100Y-26551229D01*
X61024100Y-26788771D01*
X61070442Y-27021748D01*
X61161345Y-27241208D01*
X61293316Y-27438717D01*
X61461283Y-27606684D01*
X61658792Y-27738655D01*
X61878252Y-27829558D01*
X62111229Y-27875900D01*
X62348771Y-27875900D01*
X62581748Y-27829558D01*
X62801208Y-27738655D01*
X62998717Y-27606684D01*
X63166684Y-27438717D01*
X63298655Y-27241208D01*
X63389558Y-27021748D01*
X63435900Y-26788771D01*
X63435900Y-26551229D01*
X63389558Y-26318252D01*
X63298655Y-26098792D01*
X63166684Y-25901283D01*
X63121301Y-25855900D01*
X63878699Y-25855900D01*
X63833316Y-25901283D01*
X63701345Y-26098792D01*
X63610442Y-26318252D01*
X63564100Y-26551229D01*
X63564100Y-26788771D01*
X63610442Y-27021748D01*
X63701345Y-27241208D01*
X63833316Y-27438717D01*
X64001283Y-27606684D01*
X64198792Y-27738655D01*
X64418252Y-27829558D01*
X64651229Y-27875900D01*
X64888771Y-27875900D01*
X65121748Y-27829558D01*
X65341208Y-27738655D01*
X65538717Y-27606684D01*
X65706684Y-27438717D01*
X65838655Y-27241208D01*
X65929558Y-27021748D01*
X65975900Y-26788771D01*
X65975900Y-26551229D01*
X65929558Y-26318252D01*
X65838655Y-26098792D01*
X65706684Y-25901283D01*
X65661301Y-25855900D01*
X66418699Y-25855900D01*
X66373316Y-25901283D01*
X66241345Y-26098792D01*
X66150442Y-26318252D01*
X66104100Y-26551229D01*
X66104100Y-26788771D01*
X66150442Y-27021748D01*
X66241345Y-27241208D01*
X66373316Y-27438717D01*
X66541283Y-27606684D01*
X66738792Y-27738655D01*
X66958252Y-27829558D01*
X67191229Y-27875900D01*
X67428771Y-27875900D01*
X67661748Y-27829558D01*
X67881208Y-27738655D01*
X68078717Y-27606684D01*
X68246684Y-27438717D01*
X68378655Y-27241208D01*
X68469558Y-27021748D01*
X68515900Y-26788771D01*
X68515900Y-26551229D01*
X68469558Y-26318252D01*
X68378655Y-26098792D01*
X68246684Y-25901283D01*
X68201301Y-25855900D01*
X68642378Y-25855900D01*
X68642378Y-27520000D01*
X68649250Y-27589769D01*
X68669600Y-27656856D01*
X68702648Y-27718684D01*
X68747123Y-27772877D01*
X68801316Y-27817352D01*
X68863144Y-27850400D01*
X68930231Y-27870750D01*
X69000000Y-27877622D01*
X70700000Y-27877622D01*
X70769769Y-27870750D01*
X70836856Y-27850400D01*
X70898684Y-27817352D01*
X70952877Y-27772877D01*
X70953609Y-27771984D01*
X71954100Y-27771984D01*
X71954100Y-28108016D01*
X72019657Y-28437593D01*
X72148251Y-28748047D01*
X72334941Y-29027448D01*
X72572552Y-29265059D01*
X72851953Y-29451749D01*
X73162407Y-29580343D01*
X73491984Y-29645900D01*
X73828016Y-29645900D01*
X74157593Y-29580343D01*
X74468047Y-29451749D01*
X74747448Y-29265059D01*
X74985059Y-29027448D01*
X75171749Y-28748047D01*
X75300343Y-28437593D01*
X75365900Y-28108016D01*
X75365900Y-27771984D01*
X75300343Y-27442407D01*
X75171749Y-27131953D01*
X74985059Y-26852552D01*
X74747448Y-26614941D01*
X74468047Y-26428251D01*
X74157593Y-26299657D01*
X73828016Y-26234100D01*
X73491984Y-26234100D01*
X73162407Y-26299657D01*
X72851953Y-26428251D01*
X72572552Y-26614941D01*
X72334941Y-26852552D01*
X72148251Y-27131953D01*
X72019657Y-27442407D01*
X71954100Y-27771984D01*
X70953609Y-27771984D01*
X70997352Y-27718684D01*
X71030400Y-27656856D01*
X71050750Y-27589769D01*
X71057622Y-27520000D01*
X71057622Y-25855900D01*
X73682389Y-25855900D01*
X73749372Y-25849303D01*
X73768241Y-25843579D01*
X74069255Y-25873094D01*
X74462929Y-25991950D01*
X74826016Y-26185007D01*
X75144688Y-26444910D01*
X75406812Y-26761765D01*
X75602397Y-27123492D01*
X75723998Y-27516323D01*
X75756964Y-27829970D01*
X75750697Y-27850629D01*
X75744100Y-27917612D01*
X75744101Y-45742389D01*
X75750698Y-45809372D01*
X75756421Y-45828238D01*
X75726906Y-46129256D01*
X75608049Y-46522930D01*
X75414994Y-46886014D01*
X75155089Y-47204688D01*
X74838239Y-47466809D01*
X74476511Y-47662395D01*
X74083681Y-47783997D01*
X73770031Y-47816964D01*
X73749372Y-47810697D01*
X73682389Y-47804100D01*
X71057622Y-47804100D01*
X71057622Y-46140000D01*
X71050750Y-46070231D01*
X71030400Y-46003144D01*
X70997352Y-45941316D01*
X70952877Y-45887123D01*
X70898684Y-45842648D01*
X70836856Y-45809600D01*
X70769769Y-45789250D01*
X70700000Y-45782378D01*
X69000000Y-45782378D01*
X68930231Y-45789250D01*
X68863144Y-45809600D01*
X68801316Y-45842648D01*
X68747123Y-45887123D01*
X68702648Y-45941316D01*
X68669600Y-46003144D01*
X68649250Y-46070231D01*
X68642378Y-46140000D01*
X68642378Y-47804100D01*
X68201301Y-47804100D01*
X68246684Y-47758717D01*
X68378655Y-47561208D01*
X68469558Y-47341748D01*
X68515900Y-47108771D01*
X68515900Y-46871229D01*
X68469558Y-46638252D01*
X68378655Y-46418792D01*
X68246684Y-46221283D01*
X68078717Y-46053316D01*
X67881208Y-45921345D01*
X67661748Y-45830442D01*
X67428771Y-45784100D01*
X67191229Y-45784100D01*
X66958252Y-45830442D01*
X66867944Y-45867849D01*
X66633092Y-45632997D01*
X66656706Y-45623216D01*
X66763313Y-45551984D01*
X71954100Y-45551984D01*
X71954100Y-45888016D01*
X72019657Y-46217593D01*
X72148251Y-46528047D01*
X72334941Y-46807448D01*
X72572552Y-47045059D01*
X72851953Y-47231749D01*
X73162407Y-47360343D01*
X73491984Y-47425900D01*
X73828016Y-47425900D01*
X74157593Y-47360343D01*
X74468047Y-47231749D01*
X74747448Y-47045059D01*
X74985059Y-46807448D01*
X75171749Y-46528047D01*
X75300343Y-46217593D01*
X75365900Y-45888016D01*
X75365900Y-45551984D01*
X75300343Y-45222407D01*
X75171749Y-44911953D01*
X74985059Y-44632552D01*
X74747448Y-44394941D01*
X74468047Y-44208251D01*
X74157593Y-44079657D01*
X73828016Y-44014100D01*
X73491984Y-44014100D01*
X73162407Y-44079657D01*
X72851953Y-44208251D01*
X72572552Y-44394941D01*
X72334941Y-44632552D01*
X72148251Y-44911953D01*
X72019657Y-45222407D01*
X71954100Y-45551984D01*
X66763313Y-45551984D01*
X66780511Y-45540493D01*
X66885799Y-45435205D01*
X66968522Y-45311400D01*
X67025504Y-45173835D01*
X67054553Y-45027797D01*
X67054553Y-44878897D01*
X67054328Y-44877766D01*
X70678190Y-41253905D01*
X70761947Y-41309869D01*
X70899512Y-41366851D01*
X71045550Y-41395900D01*
X71194450Y-41395900D01*
X71340488Y-41366851D01*
X71478053Y-41309869D01*
X71601858Y-41227146D01*
X71707146Y-41121858D01*
X71707786Y-41120900D01*
X72452378Y-41120900D01*
X72452378Y-41490000D01*
X72459250Y-41559769D01*
X72479600Y-41626856D01*
X72512648Y-41688684D01*
X72557123Y-41742877D01*
X72611316Y-41787352D01*
X72673144Y-41820400D01*
X72740231Y-41840750D01*
X72810000Y-41847622D01*
X74510000Y-41847622D01*
X74579769Y-41840750D01*
X74646856Y-41820400D01*
X74708684Y-41787352D01*
X74762877Y-41742877D01*
X74807352Y-41688684D01*
X74840400Y-41626856D01*
X74860750Y-41559769D01*
X74867622Y-41490000D01*
X74867622Y-39790000D01*
X74860750Y-39720231D01*
X74840400Y-39653144D01*
X74807352Y-39591316D01*
X74762877Y-39537123D01*
X74708684Y-39492648D01*
X74646856Y-39459600D01*
X74579769Y-39439250D01*
X74510000Y-39432378D01*
X72810000Y-39432378D01*
X72740231Y-39439250D01*
X72673144Y-39459600D01*
X72611316Y-39492648D01*
X72557123Y-39537123D01*
X72512648Y-39591316D01*
X72479600Y-39653144D01*
X72459250Y-39720231D01*
X72452378Y-39790000D01*
X72452378Y-40159100D01*
X71707786Y-40159100D01*
X71707146Y-40158142D01*
X71601858Y-40052854D01*
X71478053Y-39970131D01*
X71340488Y-39913149D01*
X71194450Y-39884100D01*
X71045550Y-39884100D01*
X70899512Y-39913149D01*
X70761947Y-39970131D01*
X70638142Y-40052854D01*
X70532854Y-40158142D01*
X70528257Y-40165022D01*
X70517727Y-40166059D01*
X70427077Y-40193557D01*
X70343534Y-40238212D01*
X70270308Y-40298308D01*
X70255254Y-40316651D01*
X66374234Y-44197672D01*
X66373103Y-44197447D01*
X66224203Y-44197447D01*
X66078165Y-44226496D01*
X65940600Y-44283478D01*
X65816795Y-44366201D01*
X65711507Y-44471489D01*
X65628784Y-44595294D01*
X65619003Y-44618908D01*
X64872750Y-43872656D01*
X64857692Y-43854308D01*
X64784466Y-43794212D01*
X64700923Y-43749557D01*
X64610273Y-43722059D01*
X64539616Y-43715100D01*
X64539609Y-43715100D01*
X64516000Y-43712775D01*
X64492391Y-43715100D01*
X62429195Y-43715100D01*
X62202900Y-43488806D01*
X62202900Y-38056747D01*
X62263512Y-38081854D01*
X62409550Y-38110903D01*
X62558450Y-38110903D01*
X62704488Y-38081854D01*
X62842053Y-38024872D01*
X62965858Y-37942149D01*
X63071146Y-37836861D01*
X63071786Y-37835903D01*
X66738899Y-37835903D01*
X66828142Y-37925146D01*
X66951947Y-38007869D01*
X67089512Y-38064851D01*
X67235550Y-38093900D01*
X67384450Y-38093900D01*
X67530488Y-38064851D01*
X67668053Y-38007869D01*
X67791858Y-37925146D01*
X67897146Y-37819858D01*
X67979869Y-37696053D01*
X68036851Y-37558488D01*
X68065900Y-37412450D01*
X68065900Y-37263550D01*
X68036851Y-37117512D01*
X67979869Y-36979947D01*
X67897146Y-36856142D01*
X67876904Y-36835900D01*
X69294896Y-36835900D01*
X69368142Y-36909146D01*
X69491947Y-36991869D01*
X69629512Y-37048851D01*
X69775550Y-37077900D01*
X69924450Y-37077900D01*
X70070488Y-37048851D01*
X70208053Y-36991869D01*
X70331858Y-36909146D01*
X70437146Y-36803858D01*
X70519869Y-36680053D01*
X70576851Y-36542488D01*
X70605900Y-36396450D01*
X70605900Y-36247550D01*
X70576851Y-36101512D01*
X70519869Y-35963947D01*
X70437146Y-35840142D01*
X70331858Y-35734854D01*
X70208053Y-35652131D01*
X70070488Y-35595149D01*
X69924450Y-35566100D01*
X69775550Y-35566100D01*
X69629512Y-35595149D01*
X69491947Y-35652131D01*
X69368142Y-35734854D01*
X69262854Y-35840142D01*
X69240164Y-35874100D01*
X63071786Y-35874100D01*
X63071146Y-35873142D01*
X62965858Y-35767854D01*
X62842053Y-35685131D01*
X62704488Y-35628149D01*
X62558450Y-35599100D01*
X62409550Y-35599100D01*
X62263512Y-35628149D01*
X62202900Y-35653256D01*
X62202900Y-33622605D01*
X62205225Y-33598999D01*
X62202900Y-33575393D01*
X62202900Y-33575384D01*
X62195941Y-33504727D01*
X62168443Y-33414077D01*
X62123788Y-33330534D01*
X62063692Y-33257308D01*
X62045349Y-33242254D01*
X60120675Y-31317581D01*
X60120900Y-31316450D01*
X60120900Y-31167550D01*
X60966100Y-31167550D01*
X60966100Y-31316450D01*
X60995149Y-31462488D01*
X61052131Y-31600053D01*
X61134854Y-31723858D01*
X61240142Y-31829146D01*
X61363947Y-31911869D01*
X61501512Y-31968851D01*
X61647550Y-31997900D01*
X61796450Y-31997900D01*
X61942488Y-31968851D01*
X62080053Y-31911869D01*
X62203858Y-31829146D01*
X62309146Y-31723858D01*
X62309786Y-31722900D01*
X66602806Y-31722900D01*
X72537849Y-37657944D01*
X72500442Y-37748252D01*
X72454100Y-37981229D01*
X72454100Y-38218771D01*
X72500442Y-38451748D01*
X72591345Y-38671208D01*
X72723316Y-38868717D01*
X72891283Y-39036684D01*
X73088792Y-39168655D01*
X73308252Y-39259558D01*
X73541229Y-39305900D01*
X73778771Y-39305900D01*
X74011748Y-39259558D01*
X74231208Y-39168655D01*
X74428717Y-39036684D01*
X74596684Y-38868717D01*
X74728655Y-38671208D01*
X74819558Y-38451748D01*
X74865900Y-38218771D01*
X74865900Y-37981229D01*
X74819558Y-37748252D01*
X74728655Y-37528792D01*
X74596684Y-37331283D01*
X74428717Y-37163316D01*
X74231208Y-37031345D01*
X74011748Y-36940442D01*
X73778771Y-36894100D01*
X73541229Y-36894100D01*
X73308252Y-36940442D01*
X73217944Y-36977849D01*
X72013489Y-35773394D01*
X72473131Y-35773394D01*
X72481813Y-35817043D01*
X72554598Y-36041957D01*
X72669863Y-36248350D01*
X72823179Y-36428290D01*
X73008653Y-36574862D01*
X73219158Y-36682433D01*
X73446605Y-36746870D01*
X73634900Y-36676665D01*
X73634900Y-35585100D01*
X73685100Y-35585100D01*
X73685100Y-36676665D01*
X73873395Y-36746870D01*
X74100842Y-36682433D01*
X74311347Y-36574862D01*
X74496821Y-36428290D01*
X74650137Y-36248350D01*
X74765402Y-36041957D01*
X74838187Y-35817043D01*
X74846869Y-35773394D01*
X74776643Y-35585100D01*
X73685100Y-35585100D01*
X73634900Y-35585100D01*
X72543357Y-35585100D01*
X72473131Y-35773394D01*
X72013489Y-35773394D01*
X71586701Y-35346606D01*
X72473131Y-35346606D01*
X72543357Y-35534900D01*
X73634900Y-35534900D01*
X73634900Y-34443335D01*
X73685100Y-34443335D01*
X73685100Y-35534900D01*
X74776643Y-35534900D01*
X74846869Y-35346606D01*
X74838187Y-35302957D01*
X74765402Y-35078043D01*
X74650137Y-34871650D01*
X74496821Y-34691710D01*
X74311347Y-34545138D01*
X74100842Y-34437567D01*
X73873395Y-34373130D01*
X73685100Y-34443335D01*
X73634900Y-34443335D01*
X73446605Y-34373130D01*
X73219158Y-34437567D01*
X73008653Y-34545138D01*
X72823179Y-34691710D01*
X72669863Y-34871650D01*
X72554598Y-35078043D01*
X72481813Y-35302957D01*
X72473131Y-35346606D01*
X71586701Y-35346606D01*
X67158750Y-30918656D01*
X67143692Y-30900308D01*
X67070466Y-30840212D01*
X66986923Y-30795557D01*
X66896273Y-30768059D01*
X66825616Y-30761100D01*
X66825609Y-30761100D01*
X66802000Y-30758775D01*
X66778391Y-30761100D01*
X62309786Y-30761100D01*
X62309146Y-30760142D01*
X62203858Y-30654854D01*
X62080053Y-30572131D01*
X61942488Y-30515149D01*
X61796450Y-30486100D01*
X61647550Y-30486100D01*
X61501512Y-30515149D01*
X61363947Y-30572131D01*
X61240142Y-30654854D01*
X61134854Y-30760142D01*
X61052131Y-30883947D01*
X60995149Y-31021512D01*
X60966100Y-31167550D01*
X60120900Y-31167550D01*
X60091851Y-31021512D01*
X60034869Y-30883947D01*
X59952146Y-30760142D01*
X59846858Y-30654854D01*
X59723053Y-30572131D01*
X59585488Y-30515149D01*
X59439450Y-30486100D01*
X59290550Y-30486100D01*
X59144512Y-30515149D01*
X59006947Y-30572131D01*
X58883142Y-30654854D01*
X58777854Y-30760142D01*
X58695131Y-30883947D01*
X58638149Y-31021512D01*
X58609100Y-31167550D01*
X58609100Y-31316450D01*
X58638149Y-31462488D01*
X58695131Y-31600053D01*
X58777854Y-31723858D01*
X58883142Y-31829146D01*
X59006947Y-31911869D01*
X59144512Y-31968851D01*
X59290550Y-31997900D01*
X59439450Y-31997900D01*
X59440581Y-31997675D01*
X60491577Y-33048672D01*
X60475616Y-33047100D01*
X60475609Y-33047100D01*
X60452000Y-33044775D01*
X60428391Y-33047100D01*
X59333944Y-33047100D01*
X59310335Y-33044775D01*
X59286726Y-33047100D01*
X59286720Y-33047100D01*
X59216063Y-33054059D01*
X59125413Y-33081557D01*
X59041870Y-33126212D01*
X58968644Y-33186308D01*
X58953590Y-33204651D01*
X58928089Y-33230152D01*
X58926959Y-33229927D01*
X58778059Y-33229927D01*
X58632021Y-33258976D01*
X58494456Y-33315958D01*
X58370651Y-33398681D01*
X58265363Y-33503969D01*
X58182640Y-33627774D01*
X58125658Y-33765339D01*
X58096609Y-33911377D01*
X58096609Y-34060277D01*
X58125658Y-34206315D01*
X58182640Y-34343880D01*
X58265363Y-34467685D01*
X58370651Y-34572973D01*
X58494456Y-34655696D01*
X58632021Y-34712678D01*
X58778059Y-34741727D01*
X58926959Y-34741727D01*
X58953831Y-34736382D01*
X58958496Y-34759835D01*
X59015478Y-34897400D01*
X59098201Y-35021205D01*
X59128996Y-35052000D01*
X59102854Y-35078142D01*
X59020131Y-35201947D01*
X58963149Y-35339512D01*
X58934100Y-35485550D01*
X58934100Y-35566100D01*
X58853550Y-35566100D01*
X58707512Y-35595149D01*
X58569947Y-35652131D01*
X58446142Y-35734854D01*
X58340854Y-35840142D01*
X58258131Y-35963947D01*
X58201149Y-36101512D01*
X58172100Y-36247550D01*
X58172100Y-36396450D01*
X58201149Y-36542488D01*
X58258131Y-36680053D01*
X58340854Y-36803858D01*
X58446142Y-36909146D01*
X58447100Y-36909786D01*
X58447101Y-45012804D01*
X57592057Y-45867849D01*
X57501748Y-45830442D01*
X57268771Y-45784100D01*
X57031229Y-45784100D01*
X56798252Y-45830442D01*
X56613520Y-45906960D01*
X56635900Y-45794450D01*
X56635900Y-45645550D01*
X56606851Y-45499512D01*
X56549869Y-45361947D01*
X56467146Y-45238142D01*
X56361858Y-45132854D01*
X56360900Y-45132214D01*
X56360900Y-43203605D01*
X56363225Y-43179999D01*
X56360900Y-43156393D01*
X56360900Y-43156384D01*
X56353941Y-43085727D01*
X56326443Y-42995077D01*
X56281788Y-42911534D01*
X56221692Y-42838308D01*
X56203349Y-42823254D01*
X55111675Y-41731581D01*
X55111900Y-41730450D01*
X55111900Y-41581550D01*
X55082851Y-41435512D01*
X55025869Y-41297947D01*
X54943146Y-41174142D01*
X54837858Y-41068854D01*
X54714053Y-40986131D01*
X54576488Y-40929149D01*
X54430450Y-40900100D01*
X54281550Y-40900100D01*
X54135512Y-40929149D01*
X53997947Y-40986131D01*
X53874142Y-41068854D01*
X53768854Y-41174142D01*
X53686131Y-41297947D01*
X53629149Y-41435512D01*
X53600100Y-41581550D01*
X53600100Y-41730450D01*
X53629149Y-41876488D01*
X53686131Y-42014053D01*
X53768854Y-42137858D01*
X53874142Y-42243146D01*
X53997947Y-42325869D01*
X54135512Y-42382851D01*
X54281550Y-42411900D01*
X54430450Y-42411900D01*
X54431581Y-42411675D01*
X55399101Y-43379196D01*
X55399100Y-45132214D01*
X55398142Y-45132854D01*
X55292854Y-45238142D01*
X55210131Y-45361947D01*
X55153149Y-45499512D01*
X55124100Y-45645550D01*
X55124100Y-45794450D01*
X55146480Y-45906960D01*
X54961748Y-45830442D01*
X54728771Y-45784100D01*
X54491229Y-45784100D01*
X54258252Y-45830442D01*
X54038792Y-45921345D01*
X53841283Y-46053316D01*
X53673316Y-46221283D01*
X53541345Y-46418792D01*
X53450442Y-46638252D01*
X53404100Y-46871229D01*
X53404100Y-47108771D01*
X53450442Y-47341748D01*
X53541345Y-47561208D01*
X53673316Y-47758717D01*
X53718699Y-47804100D01*
X52961301Y-47804100D01*
X53006684Y-47758717D01*
X53138655Y-47561208D01*
X53229558Y-47341748D01*
X53275900Y-47108771D01*
X53275900Y-46871229D01*
X53229558Y-46638252D01*
X53138655Y-46418792D01*
X53006684Y-46221283D01*
X52838717Y-46053316D01*
X52641208Y-45921345D01*
X52421748Y-45830442D01*
X52188771Y-45784100D01*
X51951229Y-45784100D01*
X51718252Y-45830442D01*
X51498792Y-45921345D01*
X51301283Y-46053316D01*
X51133316Y-46221283D01*
X51001345Y-46418792D01*
X50910442Y-46638252D01*
X50864100Y-46871229D01*
X50864100Y-47108771D01*
X50910442Y-47341748D01*
X51001345Y-47561208D01*
X51133316Y-47758717D01*
X51178699Y-47804100D01*
X50421301Y-47804100D01*
X50466684Y-47758717D01*
X50598655Y-47561208D01*
X50689558Y-47341748D01*
X50735900Y-47108771D01*
X50735900Y-46871229D01*
X50689558Y-46638252D01*
X50598655Y-46418792D01*
X50466684Y-46221283D01*
X50298717Y-46053316D01*
X50101208Y-45921345D01*
X49881748Y-45830442D01*
X49648771Y-45784100D01*
X49411229Y-45784100D01*
X49178252Y-45830442D01*
X48958792Y-45921345D01*
X48761283Y-46053316D01*
X48593316Y-46221283D01*
X48461345Y-46418792D01*
X48370442Y-46638252D01*
X48324100Y-46871229D01*
X48324100Y-47108771D01*
X48370442Y-47341748D01*
X48461345Y-47561208D01*
X48593316Y-47758717D01*
X48638699Y-47804100D01*
X47881301Y-47804100D01*
X47926684Y-47758717D01*
X48058655Y-47561208D01*
X48149558Y-47341748D01*
X48195900Y-47108771D01*
X48195900Y-46871229D01*
X48149558Y-46638252D01*
X48058655Y-46418792D01*
X47926684Y-46221283D01*
X47758717Y-46053316D01*
X47561208Y-45921345D01*
X47341748Y-45830442D01*
X47108771Y-45784100D01*
X46871229Y-45784100D01*
X46638252Y-45830442D01*
X46418792Y-45921345D01*
X46221283Y-46053316D01*
X46053316Y-46221283D01*
X45921345Y-46418792D01*
X45830442Y-46638252D01*
X45784100Y-46871229D01*
X45784100Y-47108771D01*
X45830442Y-47341748D01*
X45921345Y-47561208D01*
X46053316Y-47758717D01*
X46098699Y-47804100D01*
X45341301Y-47804100D01*
X45386684Y-47758717D01*
X45518655Y-47561208D01*
X45609558Y-47341748D01*
X45655900Y-47108771D01*
X45655900Y-46871229D01*
X45609558Y-46638252D01*
X45518655Y-46418792D01*
X45386684Y-46221283D01*
X45218717Y-46053316D01*
X45021208Y-45921345D01*
X44801748Y-45830442D01*
X44568771Y-45784100D01*
X44331229Y-45784100D01*
X44098252Y-45830442D01*
X43878792Y-45921345D01*
X43681283Y-46053316D01*
X43513316Y-46221283D01*
X43381345Y-46418792D01*
X43290442Y-46638252D01*
X43244100Y-46871229D01*
X43244100Y-47108771D01*
X43290442Y-47341748D01*
X43381345Y-47561208D01*
X43513316Y-47758717D01*
X43558699Y-47804100D01*
X42801301Y-47804100D01*
X42846684Y-47758717D01*
X42978655Y-47561208D01*
X43069558Y-47341748D01*
X43115900Y-47108771D01*
X43115900Y-46871229D01*
X43069558Y-46638252D01*
X42978655Y-46418792D01*
X42846684Y-46221283D01*
X42678717Y-46053316D01*
X42481208Y-45921345D01*
X42261748Y-45830442D01*
X42028771Y-45784100D01*
X41791229Y-45784100D01*
X41558252Y-45830442D01*
X41338792Y-45921345D01*
X41141283Y-46053316D01*
X40973316Y-46221283D01*
X40841345Y-46418792D01*
X40750442Y-46638252D01*
X40704100Y-46871229D01*
X40704100Y-47108771D01*
X40750442Y-47341748D01*
X40841345Y-47561208D01*
X40973316Y-47758717D01*
X41018699Y-47804100D01*
X40256245Y-47804100D01*
X40384862Y-47641347D01*
X40492433Y-47430842D01*
X40556870Y-47203395D01*
X40486665Y-47015100D01*
X39395100Y-47015100D01*
X39395100Y-47035100D01*
X39344900Y-47035100D01*
X39344900Y-47015100D01*
X38253335Y-47015100D01*
X38183130Y-47203395D01*
X38247567Y-47430842D01*
X38355138Y-47641347D01*
X38483755Y-47804100D01*
X37721301Y-47804100D01*
X37766684Y-47758717D01*
X37898655Y-47561208D01*
X37989558Y-47341748D01*
X38035900Y-47108771D01*
X38035900Y-46871229D01*
X38017079Y-46776605D01*
X38183130Y-46776605D01*
X38253335Y-46964900D01*
X39344900Y-46964900D01*
X39344900Y-45873357D01*
X39395100Y-45873357D01*
X39395100Y-46964900D01*
X40486665Y-46964900D01*
X40556870Y-46776605D01*
X40492433Y-46549158D01*
X40384862Y-46338653D01*
X40238290Y-46153179D01*
X40058350Y-45999863D01*
X39851957Y-45884598D01*
X39627043Y-45811813D01*
X39583394Y-45803131D01*
X39395100Y-45873357D01*
X39344900Y-45873357D01*
X39156606Y-45803131D01*
X39112957Y-45811813D01*
X38888043Y-45884598D01*
X38681650Y-45999863D01*
X38501710Y-46153179D01*
X38355138Y-46338653D01*
X38247567Y-46549158D01*
X38183130Y-46776605D01*
X38017079Y-46776605D01*
X37989558Y-46638252D01*
X37898655Y-46418792D01*
X37766684Y-46221283D01*
X37598717Y-46053316D01*
X37439454Y-45946900D01*
X38584391Y-45946900D01*
X38608000Y-45949225D01*
X38631609Y-45946900D01*
X38631616Y-45946900D01*
X38702273Y-45939941D01*
X38792923Y-45912443D01*
X38876466Y-45867788D01*
X38949692Y-45807692D01*
X38964750Y-45789344D01*
X39569195Y-45184900D01*
X41435393Y-45184900D01*
X41459002Y-45187225D01*
X41482611Y-45184900D01*
X41482618Y-45184900D01*
X41553275Y-45177941D01*
X41643925Y-45150443D01*
X41727468Y-45105788D01*
X41800694Y-45045692D01*
X41815752Y-45027344D01*
X52326197Y-34516900D01*
X56562214Y-34516900D01*
X56562854Y-34517858D01*
X56668142Y-34623146D01*
X56791947Y-34705869D01*
X56929512Y-34762851D01*
X57075550Y-34791900D01*
X57224450Y-34791900D01*
X57370488Y-34762851D01*
X57508053Y-34705869D01*
X57631858Y-34623146D01*
X57737146Y-34517858D01*
X57819869Y-34394053D01*
X57876851Y-34256488D01*
X57905900Y-34110450D01*
X57905900Y-33961550D01*
X57876851Y-33815512D01*
X57819869Y-33677947D01*
X57737146Y-33554142D01*
X57631858Y-33448854D01*
X57630900Y-33448214D01*
X57630900Y-31441194D01*
X58873195Y-30198900D01*
X67110806Y-30198900D01*
X70255254Y-33343349D01*
X70270308Y-33361692D01*
X70343534Y-33421788D01*
X70394171Y-33448854D01*
X70427077Y-33466443D01*
X70517726Y-33493941D01*
X70527633Y-33494917D01*
X70588384Y-33500900D01*
X70588390Y-33500900D01*
X70611999Y-33503225D01*
X70635608Y-33500900D01*
X72553938Y-33500900D01*
X72591345Y-33591208D01*
X72723316Y-33788717D01*
X72891283Y-33956684D01*
X73088792Y-34088655D01*
X73308252Y-34179558D01*
X73541229Y-34225900D01*
X73778771Y-34225900D01*
X74011748Y-34179558D01*
X74231208Y-34088655D01*
X74428717Y-33956684D01*
X74596684Y-33788717D01*
X74728655Y-33591208D01*
X74819558Y-33371748D01*
X74865900Y-33138771D01*
X74865900Y-32901229D01*
X74819558Y-32668252D01*
X74728655Y-32448792D01*
X74596684Y-32251283D01*
X74428717Y-32083316D01*
X74231208Y-31951345D01*
X74011748Y-31860442D01*
X73778771Y-31814100D01*
X73541229Y-31814100D01*
X73308252Y-31860442D01*
X73088792Y-31951345D01*
X72891283Y-32083316D01*
X72723316Y-32251283D01*
X72591345Y-32448792D01*
X72553938Y-32539100D01*
X70811195Y-32539100D01*
X67666750Y-29394656D01*
X67651692Y-29376308D01*
X67578466Y-29316212D01*
X67494923Y-29271557D01*
X67404273Y-29244059D01*
X67333616Y-29237100D01*
X67333609Y-29237100D01*
X67310000Y-29234775D01*
X67286391Y-29237100D01*
X58697605Y-29237100D01*
X58673999Y-29234775D01*
X58650393Y-29237100D01*
X58650384Y-29237100D01*
X58579727Y-29244059D01*
X58489077Y-29271557D01*
X58405534Y-29316212D01*
X58332308Y-29376308D01*
X58317254Y-29394651D01*
X56826656Y-30885250D01*
X56808308Y-30900308D01*
X56748212Y-30973534D01*
X56703557Y-31057078D01*
X56676059Y-31147728D01*
X56669100Y-31218385D01*
X56669100Y-31218391D01*
X56666775Y-31242000D01*
X56669100Y-31265609D01*
X56669101Y-33448213D01*
X56668142Y-33448854D01*
X56562854Y-33554142D01*
X56562214Y-33555100D01*
X52150607Y-33555100D01*
X52127001Y-33552775D01*
X52103395Y-33555100D01*
X52103386Y-33555100D01*
X52032729Y-33562059D01*
X51942079Y-33589557D01*
X51858536Y-33634212D01*
X51785310Y-33694308D01*
X51770256Y-33712651D01*
X45143620Y-40339287D01*
X45119869Y-40281947D01*
X45037146Y-40158142D01*
X44931858Y-40052854D01*
X44808053Y-39970131D01*
X44670488Y-39913149D01*
X44524450Y-39884100D01*
X44375550Y-39884100D01*
X44229512Y-39913149D01*
X44091947Y-39970131D01*
X43968142Y-40052854D01*
X43862854Y-40158142D01*
X43780131Y-40281947D01*
X43723149Y-40419512D01*
X43694100Y-40565550D01*
X43694100Y-40714450D01*
X43694325Y-40715580D01*
X41710806Y-42699100D01*
X40155605Y-42699100D01*
X40131999Y-42696775D01*
X40108393Y-42699100D01*
X40108384Y-42699100D01*
X40037727Y-42706059D01*
X39947077Y-42733557D01*
X39863534Y-42778212D01*
X39790308Y-42838308D01*
X39775254Y-42856651D01*
X38408806Y-44223100D01*
X37641784Y-44223100D01*
X37641144Y-44222142D01*
X37535856Y-44116854D01*
X37412051Y-44034131D01*
X37274486Y-43977149D01*
X37128448Y-43948100D01*
X36979548Y-43948100D01*
X36833510Y-43977149D01*
X36695945Y-44034131D01*
X36572140Y-44116854D01*
X36466852Y-44222142D01*
X36384129Y-44345947D01*
X36327147Y-44483512D01*
X36298098Y-44629550D01*
X36298098Y-44778450D01*
X36327147Y-44924488D01*
X36352254Y-44985100D01*
X33297605Y-44985100D01*
X33273999Y-44982775D01*
X33250393Y-44985100D01*
X33250384Y-44985100D01*
X33179727Y-44992059D01*
X33089077Y-45019557D01*
X33005534Y-45064212D01*
X32932308Y-45124308D01*
X32917254Y-45142651D01*
X32192057Y-45867849D01*
X32101748Y-45830442D01*
X31868771Y-45784100D01*
X31631229Y-45784100D01*
X31398252Y-45830442D01*
X31178792Y-45921345D01*
X30981283Y-46053316D01*
X30813316Y-46221283D01*
X30681345Y-46418792D01*
X30590442Y-46638252D01*
X30544100Y-46871229D01*
X30544100Y-47108771D01*
X30590442Y-47341748D01*
X30681345Y-47561208D01*
X30813316Y-47758717D01*
X30858699Y-47804100D01*
X27917611Y-47804100D01*
X27850628Y-47810697D01*
X27831759Y-47816421D01*
X27530744Y-47786906D01*
X27137070Y-47668049D01*
X26773986Y-47474994D01*
X26455312Y-47215089D01*
X26193191Y-46898239D01*
X25997605Y-46536511D01*
X25876003Y-46143681D01*
X25843036Y-45830031D01*
X25849303Y-45809372D01*
X25855900Y-45742389D01*
X25855900Y-45551984D01*
X26234100Y-45551984D01*
X26234100Y-45888016D01*
X26299657Y-46217593D01*
X26428251Y-46528047D01*
X26614941Y-46807448D01*
X26852552Y-47045059D01*
X27131953Y-47231749D01*
X27442407Y-47360343D01*
X27771984Y-47425900D01*
X28108016Y-47425900D01*
X28437593Y-47360343D01*
X28748047Y-47231749D01*
X29027448Y-47045059D01*
X29265059Y-46807448D01*
X29451749Y-46528047D01*
X29580343Y-46217593D01*
X29645900Y-45888016D01*
X29645900Y-45551984D01*
X29580343Y-45222407D01*
X29451749Y-44911953D01*
X29265059Y-44632552D01*
X29027448Y-44394941D01*
X28748047Y-44208251D01*
X28437593Y-44079657D01*
X28108016Y-44014100D01*
X27771984Y-44014100D01*
X27442407Y-44079657D01*
X27131953Y-44208251D01*
X26852552Y-44394941D01*
X26614941Y-44632552D01*
X26428251Y-44911953D01*
X26299657Y-45222407D01*
X26234100Y-45551984D01*
X25855900Y-45551984D01*
X25855900Y-41581550D01*
X35312100Y-41581550D01*
X35312100Y-41730450D01*
X35341149Y-41876488D01*
X35398131Y-42014053D01*
X35480854Y-42137858D01*
X35586142Y-42243146D01*
X35709947Y-42325869D01*
X35847512Y-42382851D01*
X35993550Y-42411900D01*
X36142450Y-42411900D01*
X36288488Y-42382851D01*
X36426053Y-42325869D01*
X36549858Y-42243146D01*
X36655146Y-42137858D01*
X36737869Y-42014053D01*
X36794851Y-41876488D01*
X36823900Y-41730450D01*
X36823900Y-41581550D01*
X36823675Y-41580419D01*
X38807195Y-39596900D01*
X39798214Y-39596900D01*
X39798854Y-39597858D01*
X39904142Y-39703146D01*
X40027947Y-39785869D01*
X40165512Y-39842851D01*
X40311550Y-39871900D01*
X40460450Y-39871900D01*
X40606488Y-39842851D01*
X40744053Y-39785869D01*
X40867858Y-39703146D01*
X40973146Y-39597858D01*
X41055869Y-39474053D01*
X41112851Y-39336488D01*
X41141900Y-39190450D01*
X41141900Y-39041550D01*
X41112851Y-38895512D01*
X41055869Y-38757947D01*
X40973146Y-38634142D01*
X40867858Y-38528854D01*
X40744053Y-38446131D01*
X40606488Y-38389149D01*
X40460450Y-38360100D01*
X40311550Y-38360100D01*
X40165512Y-38389149D01*
X40027947Y-38446131D01*
X39904142Y-38528854D01*
X39798854Y-38634142D01*
X39798214Y-38635100D01*
X38631605Y-38635100D01*
X38607999Y-38632775D01*
X38584393Y-38635100D01*
X38584384Y-38635100D01*
X38513727Y-38642059D01*
X38423077Y-38669557D01*
X38339534Y-38714212D01*
X38266308Y-38774308D01*
X38251254Y-38792651D01*
X36143581Y-40900325D01*
X36142450Y-40900100D01*
X35993550Y-40900100D01*
X35847512Y-40929149D01*
X35709947Y-40986131D01*
X35586142Y-41068854D01*
X35480854Y-41174142D01*
X35398131Y-41297947D01*
X35341149Y-41435512D01*
X35312100Y-41581550D01*
X25855900Y-41581550D01*
X25855900Y-27917611D01*
X25849303Y-27850628D01*
X25843579Y-27831759D01*
X25849440Y-27771984D01*
X26234100Y-27771984D01*
X26234100Y-28108016D01*
X26299657Y-28437593D01*
X26428251Y-28748047D01*
X26614941Y-29027448D01*
X26852552Y-29265059D01*
X27131953Y-29451749D01*
X27442407Y-29580343D01*
X27771984Y-29645900D01*
X28108016Y-29645900D01*
X28437593Y-29580343D01*
X28748047Y-29451749D01*
X29027448Y-29265059D01*
X29265059Y-29027448D01*
X29451749Y-28748047D01*
X29580343Y-28437593D01*
X29645900Y-28108016D01*
X29645900Y-27771984D01*
X29580343Y-27442407D01*
X29451749Y-27131953D01*
X29265059Y-26852552D01*
X29027448Y-26614941D01*
X28748047Y-26428251D01*
X28437593Y-26299657D01*
X28108016Y-26234100D01*
X27771984Y-26234100D01*
X27442407Y-26299657D01*
X27131953Y-26428251D01*
X26852552Y-26614941D01*
X26614941Y-26852552D01*
X26428251Y-27131953D01*
X26299657Y-27442407D01*
X26234100Y-27771984D01*
X25849440Y-27771984D01*
X25873094Y-27530745D01*
X25991950Y-27137071D01*
X26185007Y-26773984D01*
X26444910Y-26455312D01*
X26761765Y-26193188D01*
X27123492Y-25997603D01*
X27516323Y-25876002D01*
X27829969Y-25843036D01*
X27850628Y-25849303D01*
G36*
X41259808Y-44223100D02*
G01*
X39768995Y-44223100D01*
X40331195Y-43660900D01*
X41822008Y-43660900D01*
X41259808Y-44223100D01*
G37*
X41259808Y-44223100D02*
X39768995Y-44223100D01*
X40331195Y-43660900D01*
X41822008Y-43660900D01*
X41259808Y-44223100D01*
M02*
