M48
; DRILL file {KiCad (5.1.6)-1} date 03/27/21 23:23:04
; FORMAT={-:-/ absolute / inch / decimal}
; #@! TF.CreationDate,2021-03-27T23:23:04-04:00
; #@! TF.GenerationSoftware,Kicad,Pcbnew,(5.1.6)-1
FMAT,2
INCH
T1C0.0157
T2C0.0394
T3C0.1063
%
G90
G05
T1
X1.1Y-1.47
X1.18Y-1.29
X1.18Y-1.61
X1.215Y-1.345
X1.215Y-1.43
X1.215Y-1.49
X1.23Y-1.6
X1.31Y-1.73
X1.39Y-1.21
X1.3902Y-1.4398
X1.42Y-1.64
X1.4588Y-1.76
X1.46Y-1.72
X1.59Y-1.54
X1.62Y-1.73
X1.75Y-1.6
X1.97Y-1.3
X2.07Y-1.64
X2.14Y-1.64
X2.15Y-1.23
X2.2Y-1.8
X2.2357Y-1.4343
X2.2402Y-1.3398
X2.25Y-1.55
X2.28Y-1.338
X2.2813Y-1.3813
X2.3Y-1.235
X2.32Y-1.43
X2.3498Y-1.3598
X2.35Y-1.4
X2.43Y-1.23
X2.46Y-1.4313
X2.46Y-1.4707
X2.53Y-1.28
X2.575Y-1.685
X2.6102Y-1.7698
X2.65Y-1.47
X2.7Y-1.155
X2.7Y-1.3
X2.75Y-1.43
X2.8Y-1.6
T2
X1.65Y-1.05
X1.75Y-1.05
X1.85Y-1.05
X1.95Y-1.05
X2.05Y-1.05
X2.15Y-1.05
X2.25Y-1.05
X2.35Y-1.05
X2.45Y-1.05
X2.55Y-1.05
X2.65Y-1.05
X2.75Y-1.05
X1.25Y-1.85
X1.35Y-1.85
X1.45Y-1.85
X1.55Y-1.85
X1.65Y-1.85
X1.75Y-1.85
X1.85Y-1.85
X1.95Y-1.85
X2.05Y-1.85
X2.15Y-1.85
X2.25Y-1.85
X2.35Y-1.85
X2.45Y-1.85
X2.55Y-1.85
X2.65Y-1.85
X2.75Y-1.85
X2.9Y-1.3
X2.9Y-1.4
X2.9Y-1.5
X2.9Y-1.6
T3
X1.1Y-1.1
X2.9Y-1.1
X1.1Y-1.8
X2.9Y-1.8
T0
M30
