G04 #@! TF.GenerationSoftware,KiCad,Pcbnew,(5.1.6)-1*
G04 #@! TF.CreationDate,2021-03-27T23:23:02-04:00*
G04 #@! TF.ProjectId,STM8Feather,53544d38-4665-4617-9468-65722e6b6963,rev?*
G04 #@! TF.SameCoordinates,Original*
G04 #@! TF.FileFunction,Paste,Top*
G04 #@! TF.FilePolarity,Positive*
%FSLAX46Y46*%
G04 Gerber Fmt 4.6, Leading zero omitted, Abs format (unit mm)*
G04 Created by KiCad (PCBNEW (5.1.6)-1) date 2021-03-27 23:23:02*
%MOMM*%
%LPD*%
G01*
G04 APERTURE LIST*
%ADD10R,1.200000X0.900000*%
%ADD11R,1.380000X0.450000*%
%ADD12R,1.550000X1.425000*%
%ADD13R,1.300000X1.650000*%
%ADD14R,1.900000X1.800000*%
%ADD15R,1.900000X1.000000*%
%ADD16R,1.060000X0.650000*%
%ADD17R,2.000000X4.500000*%
G04 APERTURE END LIST*
G36*
G01*
X54765000Y-34155000D02*
X54765000Y-33905000D01*
G75*
G02*
X54890000Y-33780000I125000J0D01*
G01*
X56140000Y-33780000D01*
G75*
G02*
X56265000Y-33905000I0J-125000D01*
G01*
X56265000Y-34155000D01*
G75*
G02*
X56140000Y-34280000I-125000J0D01*
G01*
X54890000Y-34280000D01*
G75*
G02*
X54765000Y-34155000I0J125000D01*
G01*
G37*
G36*
G01*
X54765000Y-34955000D02*
X54765000Y-34705000D01*
G75*
G02*
X54890000Y-34580000I125000J0D01*
G01*
X56140000Y-34580000D01*
G75*
G02*
X56265000Y-34705000I0J-125000D01*
G01*
X56265000Y-34955000D01*
G75*
G02*
X56140000Y-35080000I-125000J0D01*
G01*
X54890000Y-35080000D01*
G75*
G02*
X54765000Y-34955000I0J125000D01*
G01*
G37*
G36*
G01*
X54765000Y-35755000D02*
X54765000Y-35505000D01*
G75*
G02*
X54890000Y-35380000I125000J0D01*
G01*
X56140000Y-35380000D01*
G75*
G02*
X56265000Y-35505000I0J-125000D01*
G01*
X56265000Y-35755000D01*
G75*
G02*
X56140000Y-35880000I-125000J0D01*
G01*
X54890000Y-35880000D01*
G75*
G02*
X54765000Y-35755000I0J125000D01*
G01*
G37*
G36*
G01*
X54765000Y-36555000D02*
X54765000Y-36305000D01*
G75*
G02*
X54890000Y-36180000I125000J0D01*
G01*
X56140000Y-36180000D01*
G75*
G02*
X56265000Y-36305000I0J-125000D01*
G01*
X56265000Y-36555000D01*
G75*
G02*
X56140000Y-36680000I-125000J0D01*
G01*
X54890000Y-36680000D01*
G75*
G02*
X54765000Y-36555000I0J125000D01*
G01*
G37*
G36*
G01*
X54765000Y-37355000D02*
X54765000Y-37105000D01*
G75*
G02*
X54890000Y-36980000I125000J0D01*
G01*
X56140000Y-36980000D01*
G75*
G02*
X56265000Y-37105000I0J-125000D01*
G01*
X56265000Y-37355000D01*
G75*
G02*
X56140000Y-37480000I-125000J0D01*
G01*
X54890000Y-37480000D01*
G75*
G02*
X54765000Y-37355000I0J125000D01*
G01*
G37*
G36*
G01*
X54765000Y-38155000D02*
X54765000Y-37905000D01*
G75*
G02*
X54890000Y-37780000I125000J0D01*
G01*
X56140000Y-37780000D01*
G75*
G02*
X56265000Y-37905000I0J-125000D01*
G01*
X56265000Y-38155000D01*
G75*
G02*
X56140000Y-38280000I-125000J0D01*
G01*
X54890000Y-38280000D01*
G75*
G02*
X54765000Y-38155000I0J125000D01*
G01*
G37*
G36*
G01*
X54765000Y-38955000D02*
X54765000Y-38705000D01*
G75*
G02*
X54890000Y-38580000I125000J0D01*
G01*
X56140000Y-38580000D01*
G75*
G02*
X56265000Y-38705000I0J-125000D01*
G01*
X56265000Y-38955000D01*
G75*
G02*
X56140000Y-39080000I-125000J0D01*
G01*
X54890000Y-39080000D01*
G75*
G02*
X54765000Y-38955000I0J125000D01*
G01*
G37*
G36*
G01*
X54765000Y-39755000D02*
X54765000Y-39505000D01*
G75*
G02*
X54890000Y-39380000I125000J0D01*
G01*
X56140000Y-39380000D01*
G75*
G02*
X56265000Y-39505000I0J-125000D01*
G01*
X56265000Y-39755000D01*
G75*
G02*
X56140000Y-39880000I-125000J0D01*
G01*
X54890000Y-39880000D01*
G75*
G02*
X54765000Y-39755000I0J125000D01*
G01*
G37*
G36*
G01*
X56640000Y-41630000D02*
X56640000Y-40380000D01*
G75*
G02*
X56765000Y-40255000I125000J0D01*
G01*
X57015000Y-40255000D01*
G75*
G02*
X57140000Y-40380000I0J-125000D01*
G01*
X57140000Y-41630000D01*
G75*
G02*
X57015000Y-41755000I-125000J0D01*
G01*
X56765000Y-41755000D01*
G75*
G02*
X56640000Y-41630000I0J125000D01*
G01*
G37*
G36*
G01*
X57440000Y-41630000D02*
X57440000Y-40380000D01*
G75*
G02*
X57565000Y-40255000I125000J0D01*
G01*
X57815000Y-40255000D01*
G75*
G02*
X57940000Y-40380000I0J-125000D01*
G01*
X57940000Y-41630000D01*
G75*
G02*
X57815000Y-41755000I-125000J0D01*
G01*
X57565000Y-41755000D01*
G75*
G02*
X57440000Y-41630000I0J125000D01*
G01*
G37*
G36*
G01*
X58240000Y-41630000D02*
X58240000Y-40380000D01*
G75*
G02*
X58365000Y-40255000I125000J0D01*
G01*
X58615000Y-40255000D01*
G75*
G02*
X58740000Y-40380000I0J-125000D01*
G01*
X58740000Y-41630000D01*
G75*
G02*
X58615000Y-41755000I-125000J0D01*
G01*
X58365000Y-41755000D01*
G75*
G02*
X58240000Y-41630000I0J125000D01*
G01*
G37*
G36*
G01*
X59040000Y-41630000D02*
X59040000Y-40380000D01*
G75*
G02*
X59165000Y-40255000I125000J0D01*
G01*
X59415000Y-40255000D01*
G75*
G02*
X59540000Y-40380000I0J-125000D01*
G01*
X59540000Y-41630000D01*
G75*
G02*
X59415000Y-41755000I-125000J0D01*
G01*
X59165000Y-41755000D01*
G75*
G02*
X59040000Y-41630000I0J125000D01*
G01*
G37*
G36*
G01*
X59840000Y-41630000D02*
X59840000Y-40380000D01*
G75*
G02*
X59965000Y-40255000I125000J0D01*
G01*
X60215000Y-40255000D01*
G75*
G02*
X60340000Y-40380000I0J-125000D01*
G01*
X60340000Y-41630000D01*
G75*
G02*
X60215000Y-41755000I-125000J0D01*
G01*
X59965000Y-41755000D01*
G75*
G02*
X59840000Y-41630000I0J125000D01*
G01*
G37*
G36*
G01*
X60640000Y-41630000D02*
X60640000Y-40380000D01*
G75*
G02*
X60765000Y-40255000I125000J0D01*
G01*
X61015000Y-40255000D01*
G75*
G02*
X61140000Y-40380000I0J-125000D01*
G01*
X61140000Y-41630000D01*
G75*
G02*
X61015000Y-41755000I-125000J0D01*
G01*
X60765000Y-41755000D01*
G75*
G02*
X60640000Y-41630000I0J125000D01*
G01*
G37*
G36*
G01*
X61440000Y-41630000D02*
X61440000Y-40380000D01*
G75*
G02*
X61565000Y-40255000I125000J0D01*
G01*
X61815000Y-40255000D01*
G75*
G02*
X61940000Y-40380000I0J-125000D01*
G01*
X61940000Y-41630000D01*
G75*
G02*
X61815000Y-41755000I-125000J0D01*
G01*
X61565000Y-41755000D01*
G75*
G02*
X61440000Y-41630000I0J125000D01*
G01*
G37*
G36*
G01*
X62240000Y-41630000D02*
X62240000Y-40380000D01*
G75*
G02*
X62365000Y-40255000I125000J0D01*
G01*
X62615000Y-40255000D01*
G75*
G02*
X62740000Y-40380000I0J-125000D01*
G01*
X62740000Y-41630000D01*
G75*
G02*
X62615000Y-41755000I-125000J0D01*
G01*
X62365000Y-41755000D01*
G75*
G02*
X62240000Y-41630000I0J125000D01*
G01*
G37*
G36*
G01*
X63115000Y-39755000D02*
X63115000Y-39505000D01*
G75*
G02*
X63240000Y-39380000I125000J0D01*
G01*
X64490000Y-39380000D01*
G75*
G02*
X64615000Y-39505000I0J-125000D01*
G01*
X64615000Y-39755000D01*
G75*
G02*
X64490000Y-39880000I-125000J0D01*
G01*
X63240000Y-39880000D01*
G75*
G02*
X63115000Y-39755000I0J125000D01*
G01*
G37*
G36*
G01*
X63115000Y-38955000D02*
X63115000Y-38705000D01*
G75*
G02*
X63240000Y-38580000I125000J0D01*
G01*
X64490000Y-38580000D01*
G75*
G02*
X64615000Y-38705000I0J-125000D01*
G01*
X64615000Y-38955000D01*
G75*
G02*
X64490000Y-39080000I-125000J0D01*
G01*
X63240000Y-39080000D01*
G75*
G02*
X63115000Y-38955000I0J125000D01*
G01*
G37*
G36*
G01*
X63115000Y-38155000D02*
X63115000Y-37905000D01*
G75*
G02*
X63240000Y-37780000I125000J0D01*
G01*
X64490000Y-37780000D01*
G75*
G02*
X64615000Y-37905000I0J-125000D01*
G01*
X64615000Y-38155000D01*
G75*
G02*
X64490000Y-38280000I-125000J0D01*
G01*
X63240000Y-38280000D01*
G75*
G02*
X63115000Y-38155000I0J125000D01*
G01*
G37*
G36*
G01*
X63115000Y-37355000D02*
X63115000Y-37105000D01*
G75*
G02*
X63240000Y-36980000I125000J0D01*
G01*
X64490000Y-36980000D01*
G75*
G02*
X64615000Y-37105000I0J-125000D01*
G01*
X64615000Y-37355000D01*
G75*
G02*
X64490000Y-37480000I-125000J0D01*
G01*
X63240000Y-37480000D01*
G75*
G02*
X63115000Y-37355000I0J125000D01*
G01*
G37*
G36*
G01*
X63115000Y-36555000D02*
X63115000Y-36305000D01*
G75*
G02*
X63240000Y-36180000I125000J0D01*
G01*
X64490000Y-36180000D01*
G75*
G02*
X64615000Y-36305000I0J-125000D01*
G01*
X64615000Y-36555000D01*
G75*
G02*
X64490000Y-36680000I-125000J0D01*
G01*
X63240000Y-36680000D01*
G75*
G02*
X63115000Y-36555000I0J125000D01*
G01*
G37*
G36*
G01*
X63115000Y-35755000D02*
X63115000Y-35505000D01*
G75*
G02*
X63240000Y-35380000I125000J0D01*
G01*
X64490000Y-35380000D01*
G75*
G02*
X64615000Y-35505000I0J-125000D01*
G01*
X64615000Y-35755000D01*
G75*
G02*
X64490000Y-35880000I-125000J0D01*
G01*
X63240000Y-35880000D01*
G75*
G02*
X63115000Y-35755000I0J125000D01*
G01*
G37*
G36*
G01*
X63115000Y-34955000D02*
X63115000Y-34705000D01*
G75*
G02*
X63240000Y-34580000I125000J0D01*
G01*
X64490000Y-34580000D01*
G75*
G02*
X64615000Y-34705000I0J-125000D01*
G01*
X64615000Y-34955000D01*
G75*
G02*
X64490000Y-35080000I-125000J0D01*
G01*
X63240000Y-35080000D01*
G75*
G02*
X63115000Y-34955000I0J125000D01*
G01*
G37*
G36*
G01*
X63115000Y-34155000D02*
X63115000Y-33905000D01*
G75*
G02*
X63240000Y-33780000I125000J0D01*
G01*
X64490000Y-33780000D01*
G75*
G02*
X64615000Y-33905000I0J-125000D01*
G01*
X64615000Y-34155000D01*
G75*
G02*
X64490000Y-34280000I-125000J0D01*
G01*
X63240000Y-34280000D01*
G75*
G02*
X63115000Y-34155000I0J125000D01*
G01*
G37*
G36*
G01*
X62240000Y-33280000D02*
X62240000Y-32030000D01*
G75*
G02*
X62365000Y-31905000I125000J0D01*
G01*
X62615000Y-31905000D01*
G75*
G02*
X62740000Y-32030000I0J-125000D01*
G01*
X62740000Y-33280000D01*
G75*
G02*
X62615000Y-33405000I-125000J0D01*
G01*
X62365000Y-33405000D01*
G75*
G02*
X62240000Y-33280000I0J125000D01*
G01*
G37*
G36*
G01*
X61440000Y-33280000D02*
X61440000Y-32030000D01*
G75*
G02*
X61565000Y-31905000I125000J0D01*
G01*
X61815000Y-31905000D01*
G75*
G02*
X61940000Y-32030000I0J-125000D01*
G01*
X61940000Y-33280000D01*
G75*
G02*
X61815000Y-33405000I-125000J0D01*
G01*
X61565000Y-33405000D01*
G75*
G02*
X61440000Y-33280000I0J125000D01*
G01*
G37*
G36*
G01*
X60640000Y-33280000D02*
X60640000Y-32030000D01*
G75*
G02*
X60765000Y-31905000I125000J0D01*
G01*
X61015000Y-31905000D01*
G75*
G02*
X61140000Y-32030000I0J-125000D01*
G01*
X61140000Y-33280000D01*
G75*
G02*
X61015000Y-33405000I-125000J0D01*
G01*
X60765000Y-33405000D01*
G75*
G02*
X60640000Y-33280000I0J125000D01*
G01*
G37*
G36*
G01*
X59840000Y-33280000D02*
X59840000Y-32030000D01*
G75*
G02*
X59965000Y-31905000I125000J0D01*
G01*
X60215000Y-31905000D01*
G75*
G02*
X60340000Y-32030000I0J-125000D01*
G01*
X60340000Y-33280000D01*
G75*
G02*
X60215000Y-33405000I-125000J0D01*
G01*
X59965000Y-33405000D01*
G75*
G02*
X59840000Y-33280000I0J125000D01*
G01*
G37*
G36*
G01*
X59040000Y-33280000D02*
X59040000Y-32030000D01*
G75*
G02*
X59165000Y-31905000I125000J0D01*
G01*
X59415000Y-31905000D01*
G75*
G02*
X59540000Y-32030000I0J-125000D01*
G01*
X59540000Y-33280000D01*
G75*
G02*
X59415000Y-33405000I-125000J0D01*
G01*
X59165000Y-33405000D01*
G75*
G02*
X59040000Y-33280000I0J125000D01*
G01*
G37*
G36*
G01*
X58240000Y-33280000D02*
X58240000Y-32030000D01*
G75*
G02*
X58365000Y-31905000I125000J0D01*
G01*
X58615000Y-31905000D01*
G75*
G02*
X58740000Y-32030000I0J-125000D01*
G01*
X58740000Y-33280000D01*
G75*
G02*
X58615000Y-33405000I-125000J0D01*
G01*
X58365000Y-33405000D01*
G75*
G02*
X58240000Y-33280000I0J125000D01*
G01*
G37*
G36*
G01*
X57440000Y-33280000D02*
X57440000Y-32030000D01*
G75*
G02*
X57565000Y-31905000I125000J0D01*
G01*
X57815000Y-31905000D01*
G75*
G02*
X57940000Y-32030000I0J-125000D01*
G01*
X57940000Y-33280000D01*
G75*
G02*
X57815000Y-33405000I-125000J0D01*
G01*
X57565000Y-33405000D01*
G75*
G02*
X57440000Y-33280000I0J125000D01*
G01*
G37*
G36*
G01*
X56640000Y-33280000D02*
X56640000Y-32030000D01*
G75*
G02*
X56765000Y-31905000I125000J0D01*
G01*
X57015000Y-31905000D01*
G75*
G02*
X57140000Y-32030000I0J-125000D01*
G01*
X57140000Y-33280000D01*
G75*
G02*
X57015000Y-33405000I-125000J0D01*
G01*
X56765000Y-33405000D01*
G75*
G02*
X56640000Y-33280000I0J125000D01*
G01*
G37*
G36*
G01*
X29560000Y-42166250D02*
X29560000Y-41653750D01*
G75*
G02*
X29778750Y-41435000I218750J0D01*
G01*
X30216250Y-41435000D01*
G75*
G02*
X30435000Y-41653750I0J-218750D01*
G01*
X30435000Y-42166250D01*
G75*
G02*
X30216250Y-42385000I-218750J0D01*
G01*
X29778750Y-42385000D01*
G75*
G02*
X29560000Y-42166250I0J218750D01*
G01*
G37*
G36*
G01*
X27985000Y-42166250D02*
X27985000Y-41653750D01*
G75*
G02*
X28203750Y-41435000I218750J0D01*
G01*
X28641250Y-41435000D01*
G75*
G02*
X28860000Y-41653750I0J-218750D01*
G01*
X28860000Y-42166250D01*
G75*
G02*
X28641250Y-42385000I-218750J0D01*
G01*
X28203750Y-42385000D01*
G75*
G02*
X27985000Y-42166250I0J218750D01*
G01*
G37*
G36*
G01*
X31801750Y-42517000D02*
X32714250Y-42517000D01*
G75*
G02*
X32958000Y-42760750I0J-243750D01*
G01*
X32958000Y-43248250D01*
G75*
G02*
X32714250Y-43492000I-243750J0D01*
G01*
X31801750Y-43492000D01*
G75*
G02*
X31558000Y-43248250I0J243750D01*
G01*
X31558000Y-42760750D01*
G75*
G02*
X31801750Y-42517000I243750J0D01*
G01*
G37*
G36*
G01*
X31801750Y-44392000D02*
X32714250Y-44392000D01*
G75*
G02*
X32958000Y-44635750I0J-243750D01*
G01*
X32958000Y-45123250D01*
G75*
G02*
X32714250Y-45367000I-243750J0D01*
G01*
X31801750Y-45367000D01*
G75*
G02*
X31558000Y-45123250I0J243750D01*
G01*
X31558000Y-44635750D01*
G75*
G02*
X31801750Y-44392000I243750J0D01*
G01*
G37*
G36*
G01*
X34699000Y-40183750D02*
X34699000Y-41096250D01*
G75*
G02*
X34455250Y-41340000I-243750J0D01*
G01*
X33967750Y-41340000D01*
G75*
G02*
X33724000Y-41096250I0J243750D01*
G01*
X33724000Y-40183750D01*
G75*
G02*
X33967750Y-39940000I243750J0D01*
G01*
X34455250Y-39940000D01*
G75*
G02*
X34699000Y-40183750I0J-243750D01*
G01*
G37*
G36*
G01*
X32824000Y-40183750D02*
X32824000Y-41096250D01*
G75*
G02*
X32580250Y-41340000I-243750J0D01*
G01*
X32092750Y-41340000D01*
G75*
G02*
X31849000Y-41096250I0J243750D01*
G01*
X31849000Y-40183750D01*
G75*
G02*
X32092750Y-39940000I243750J0D01*
G01*
X32580250Y-39940000D01*
G75*
G02*
X32824000Y-40183750I0J-243750D01*
G01*
G37*
G36*
G01*
X39675750Y-44392000D02*
X40588250Y-44392000D01*
G75*
G02*
X40832000Y-44635750I0J-243750D01*
G01*
X40832000Y-45123250D01*
G75*
G02*
X40588250Y-45367000I-243750J0D01*
G01*
X39675750Y-45367000D01*
G75*
G02*
X39432000Y-45123250I0J243750D01*
G01*
X39432000Y-44635750D01*
G75*
G02*
X39675750Y-44392000I243750J0D01*
G01*
G37*
G36*
G01*
X39675750Y-42517000D02*
X40588250Y-42517000D01*
G75*
G02*
X40832000Y-42760750I0J-243750D01*
G01*
X40832000Y-43248250D01*
G75*
G02*
X40588250Y-43492000I-243750J0D01*
G01*
X39675750Y-43492000D01*
G75*
G02*
X39432000Y-43248250I0J243750D01*
G01*
X39432000Y-42760750D01*
G75*
G02*
X39675750Y-42517000I243750J0D01*
G01*
G37*
G36*
G01*
X41907750Y-42717000D02*
X42420250Y-42717000D01*
G75*
G02*
X42639000Y-42935750I0J-218750D01*
G01*
X42639000Y-43373250D01*
G75*
G02*
X42420250Y-43592000I-218750J0D01*
G01*
X41907750Y-43592000D01*
G75*
G02*
X41689000Y-43373250I0J218750D01*
G01*
X41689000Y-42935750D01*
G75*
G02*
X41907750Y-42717000I218750J0D01*
G01*
G37*
G36*
G01*
X41907750Y-44292000D02*
X42420250Y-44292000D01*
G75*
G02*
X42639000Y-44510750I0J-218750D01*
G01*
X42639000Y-44948250D01*
G75*
G02*
X42420250Y-45167000I-218750J0D01*
G01*
X41907750Y-45167000D01*
G75*
G02*
X41689000Y-44948250I0J218750D01*
G01*
X41689000Y-44510750D01*
G75*
G02*
X41907750Y-44292000I218750J0D01*
G01*
G37*
G36*
G01*
X52228000Y-36573750D02*
X52228000Y-37086250D01*
G75*
G02*
X52009250Y-37305000I-218750J0D01*
G01*
X51571750Y-37305000D01*
G75*
G02*
X51353000Y-37086250I0J218750D01*
G01*
X51353000Y-36573750D01*
G75*
G02*
X51571750Y-36355000I218750J0D01*
G01*
X52009250Y-36355000D01*
G75*
G02*
X52228000Y-36573750I0J-218750D01*
G01*
G37*
G36*
G01*
X53803000Y-36573750D02*
X53803000Y-37086250D01*
G75*
G02*
X53584250Y-37305000I-218750J0D01*
G01*
X53146750Y-37305000D01*
G75*
G02*
X52928000Y-37086250I0J218750D01*
G01*
X52928000Y-36573750D01*
G75*
G02*
X53146750Y-36355000I218750J0D01*
G01*
X53584250Y-36355000D01*
G75*
G02*
X53803000Y-36573750I0J-218750D01*
G01*
G37*
G36*
G01*
X53803000Y-38351750D02*
X53803000Y-38864250D01*
G75*
G02*
X53584250Y-39083000I-218750J0D01*
G01*
X53146750Y-39083000D01*
G75*
G02*
X52928000Y-38864250I0J218750D01*
G01*
X52928000Y-38351750D01*
G75*
G02*
X53146750Y-38133000I218750J0D01*
G01*
X53584250Y-38133000D01*
G75*
G02*
X53803000Y-38351750I0J-218750D01*
G01*
G37*
G36*
G01*
X52228000Y-38351750D02*
X52228000Y-38864250D01*
G75*
G02*
X52009250Y-39083000I-218750J0D01*
G01*
X51571750Y-39083000D01*
G75*
G02*
X51353000Y-38864250I0J218750D01*
G01*
X51353000Y-38351750D01*
G75*
G02*
X51571750Y-38133000I218750J0D01*
G01*
X52009250Y-38133000D01*
G75*
G02*
X52228000Y-38351750I0J-218750D01*
G01*
G37*
G36*
G01*
X32049000Y-37086250D02*
X32049000Y-36573750D01*
G75*
G02*
X32267750Y-36355000I218750J0D01*
G01*
X32705250Y-36355000D01*
G75*
G02*
X32924000Y-36573750I0J-218750D01*
G01*
X32924000Y-37086250D01*
G75*
G02*
X32705250Y-37305000I-218750J0D01*
G01*
X32267750Y-37305000D01*
G75*
G02*
X32049000Y-37086250I0J218750D01*
G01*
G37*
G36*
G01*
X33624000Y-37086250D02*
X33624000Y-36573750D01*
G75*
G02*
X33842750Y-36355000I218750J0D01*
G01*
X34280250Y-36355000D01*
G75*
G02*
X34499000Y-36573750I0J-218750D01*
G01*
X34499000Y-37086250D01*
G75*
G02*
X34280250Y-37305000I-218750J0D01*
G01*
X33842750Y-37305000D01*
G75*
G02*
X33624000Y-37086250I0J218750D01*
G01*
G37*
D10*
X40386000Y-41274000D03*
X40386000Y-37974000D03*
D11*
X29400000Y-35530000D03*
X29400000Y-36180000D03*
X29400000Y-36830000D03*
X29400000Y-37480000D03*
X29400000Y-38130000D03*
D12*
X29315000Y-34342500D03*
X29315000Y-39317500D03*
D13*
X26740000Y-33455000D03*
X26740000Y-40205000D03*
D14*
X26740000Y-35680000D03*
D15*
X26740000Y-38380000D03*
G36*
G01*
X38309000Y-36573750D02*
X38309000Y-37086250D01*
G75*
G02*
X38090250Y-37305000I-218750J0D01*
G01*
X37652750Y-37305000D01*
G75*
G02*
X37434000Y-37086250I0J218750D01*
G01*
X37434000Y-36573750D01*
G75*
G02*
X37652750Y-36355000I218750J0D01*
G01*
X38090250Y-36355000D01*
G75*
G02*
X38309000Y-36573750I0J-218750D01*
G01*
G37*
G36*
G01*
X36734000Y-36573750D02*
X36734000Y-37086250D01*
G75*
G02*
X36515250Y-37305000I-218750J0D01*
G01*
X36077750Y-37305000D01*
G75*
G02*
X35859000Y-37086250I0J218750D01*
G01*
X35859000Y-36573750D01*
G75*
G02*
X36077750Y-36355000I218750J0D01*
G01*
X36515250Y-36355000D01*
G75*
G02*
X36734000Y-36573750I0J-218750D01*
G01*
G37*
G36*
G01*
X27985000Y-32006250D02*
X27985000Y-31493750D01*
G75*
G02*
X28203750Y-31275000I218750J0D01*
G01*
X28641250Y-31275000D01*
G75*
G02*
X28860000Y-31493750I0J-218750D01*
G01*
X28860000Y-32006250D01*
G75*
G02*
X28641250Y-32225000I-218750J0D01*
G01*
X28203750Y-32225000D01*
G75*
G02*
X27985000Y-32006250I0J218750D01*
G01*
G37*
G36*
G01*
X29560000Y-32006250D02*
X29560000Y-31493750D01*
G75*
G02*
X29778750Y-31275000I218750J0D01*
G01*
X30216250Y-31275000D01*
G75*
G02*
X30435000Y-31493750I0J-218750D01*
G01*
X30435000Y-32006250D01*
G75*
G02*
X30216250Y-32225000I-218750J0D01*
G01*
X29778750Y-32225000D01*
G75*
G02*
X29560000Y-32006250I0J218750D01*
G01*
G37*
G36*
G01*
X33624000Y-38864250D02*
X33624000Y-38351750D01*
G75*
G02*
X33842750Y-38133000I218750J0D01*
G01*
X34280250Y-38133000D01*
G75*
G02*
X34499000Y-38351750I0J-218750D01*
G01*
X34499000Y-38864250D01*
G75*
G02*
X34280250Y-39083000I-218750J0D01*
G01*
X33842750Y-39083000D01*
G75*
G02*
X33624000Y-38864250I0J218750D01*
G01*
G37*
G36*
G01*
X32049000Y-38864250D02*
X32049000Y-38351750D01*
G75*
G02*
X32267750Y-38133000I218750J0D01*
G01*
X32705250Y-38133000D01*
G75*
G02*
X32924000Y-38351750I0J-218750D01*
G01*
X32924000Y-38864250D01*
G75*
G02*
X32705250Y-39083000I-218750J0D01*
G01*
X32267750Y-39083000D01*
G75*
G02*
X32049000Y-38864250I0J218750D01*
G01*
G37*
G36*
G01*
X34546250Y-43592000D02*
X34033750Y-43592000D01*
G75*
G02*
X33815000Y-43373250I0J218750D01*
G01*
X33815000Y-42935750D01*
G75*
G02*
X34033750Y-42717000I218750J0D01*
G01*
X34546250Y-42717000D01*
G75*
G02*
X34765000Y-42935750I0J-218750D01*
G01*
X34765000Y-43373250D01*
G75*
G02*
X34546250Y-43592000I-218750J0D01*
G01*
G37*
G36*
G01*
X34546250Y-45167000D02*
X34033750Y-45167000D01*
G75*
G02*
X33815000Y-44948250I0J218750D01*
G01*
X33815000Y-44510750D01*
G75*
G02*
X34033750Y-44292000I218750J0D01*
G01*
X34546250Y-44292000D01*
G75*
G02*
X34765000Y-44510750I0J-218750D01*
G01*
X34765000Y-44948250D01*
G75*
G02*
X34546250Y-45167000I-218750J0D01*
G01*
G37*
D16*
X35984000Y-38674000D03*
X35984000Y-39624000D03*
X35984000Y-40574000D03*
X38184000Y-40574000D03*
X38184000Y-38674000D03*
X38184000Y-42992000D03*
X38184000Y-44892000D03*
X35984000Y-44892000D03*
X35984000Y-43942000D03*
X35984000Y-42992000D03*
G36*
G01*
X37822000Y-31830000D02*
X37822000Y-34830000D01*
G75*
G02*
X37572000Y-35080000I-250000J0D01*
G01*
X37072000Y-35080000D01*
G75*
G02*
X36822000Y-34830000I0J250000D01*
G01*
X36822000Y-31830000D01*
G75*
G02*
X37072000Y-31580000I250000J0D01*
G01*
X37572000Y-31580000D01*
G75*
G02*
X37822000Y-31830000I0J-250000D01*
G01*
G37*
G36*
G01*
X35822000Y-31830000D02*
X35822000Y-34830000D01*
G75*
G02*
X35572000Y-35080000I-250000J0D01*
G01*
X35072000Y-35080000D01*
G75*
G02*
X34822000Y-34830000I0J250000D01*
G01*
X34822000Y-31830000D01*
G75*
G02*
X35072000Y-31580000I250000J0D01*
G01*
X35572000Y-31580000D01*
G75*
G02*
X35822000Y-31830000I0J-250000D01*
G01*
G37*
G36*
G01*
X40422000Y-26130000D02*
X40422000Y-29030000D01*
G75*
G02*
X40172000Y-29280000I-250000J0D01*
G01*
X39172000Y-29280000D01*
G75*
G02*
X38922000Y-29030000I0J250000D01*
G01*
X38922000Y-26130000D01*
G75*
G02*
X39172000Y-25880000I250000J0D01*
G01*
X40172000Y-25880000D01*
G75*
G02*
X40422000Y-26130000I0J-250000D01*
G01*
G37*
G36*
G01*
X33722000Y-26130000D02*
X33722000Y-29030000D01*
G75*
G02*
X33472000Y-29280000I-250000J0D01*
G01*
X32472000Y-29280000D01*
G75*
G02*
X32222000Y-29030000I0J250000D01*
G01*
X32222000Y-26130000D01*
G75*
G02*
X32472000Y-25880000I250000J0D01*
G01*
X33472000Y-25880000D01*
G75*
G02*
X33722000Y-26130000I0J-250000D01*
G01*
G37*
G36*
G01*
X52928000Y-31498250D02*
X52928000Y-30985750D01*
G75*
G02*
X53146750Y-30767000I218750J0D01*
G01*
X53584250Y-30767000D01*
G75*
G02*
X53803000Y-30985750I0J-218750D01*
G01*
X53803000Y-31498250D01*
G75*
G02*
X53584250Y-31717000I-218750J0D01*
G01*
X53146750Y-31717000D01*
G75*
G02*
X52928000Y-31498250I0J218750D01*
G01*
G37*
G36*
G01*
X51353000Y-31498250D02*
X51353000Y-30985750D01*
G75*
G02*
X51571750Y-30767000I218750J0D01*
G01*
X52009250Y-30767000D01*
G75*
G02*
X52228000Y-30985750I0J-218750D01*
G01*
X52228000Y-31498250D01*
G75*
G02*
X52009250Y-31717000I-218750J0D01*
G01*
X51571750Y-31717000D01*
G75*
G02*
X51353000Y-31498250I0J218750D01*
G01*
G37*
G36*
G01*
X51353000Y-40642250D02*
X51353000Y-40129750D01*
G75*
G02*
X51571750Y-39911000I218750J0D01*
G01*
X52009250Y-39911000D01*
G75*
G02*
X52228000Y-40129750I0J-218750D01*
G01*
X52228000Y-40642250D01*
G75*
G02*
X52009250Y-40861000I-218750J0D01*
G01*
X51571750Y-40861000D01*
G75*
G02*
X51353000Y-40642250I0J218750D01*
G01*
G37*
G36*
G01*
X52928000Y-40642250D02*
X52928000Y-40129750D01*
G75*
G02*
X53146750Y-39911000I218750J0D01*
G01*
X53584250Y-39911000D01*
G75*
G02*
X53803000Y-40129750I0J-218750D01*
G01*
X53803000Y-40642250D01*
G75*
G02*
X53584250Y-40861000I-218750J0D01*
G01*
X53146750Y-40861000D01*
G75*
G02*
X52928000Y-40642250I0J218750D01*
G01*
G37*
D17*
X48260000Y-31056000D03*
X48260000Y-39556000D03*
G36*
G01*
X71376250Y-38055000D02*
X70863750Y-38055000D01*
G75*
G02*
X70645000Y-37836250I0J218750D01*
G01*
X70645000Y-37398750D01*
G75*
G02*
X70863750Y-37180000I218750J0D01*
G01*
X71376250Y-37180000D01*
G75*
G02*
X71595000Y-37398750I0J-218750D01*
G01*
X71595000Y-37836250D01*
G75*
G02*
X71376250Y-38055000I-218750J0D01*
G01*
G37*
G36*
G01*
X71376250Y-36480000D02*
X70863750Y-36480000D01*
G75*
G02*
X70645000Y-36261250I0J218750D01*
G01*
X70645000Y-35823750D01*
G75*
G02*
X70863750Y-35605000I218750J0D01*
G01*
X71376250Y-35605000D01*
G75*
G02*
X71595000Y-35823750I0J-218750D01*
G01*
X71595000Y-36261250D01*
G75*
G02*
X71376250Y-36480000I-218750J0D01*
G01*
G37*
G36*
G01*
X53803000Y-32770000D02*
X53803000Y-33270000D01*
G75*
G02*
X53578000Y-33495000I-225000J0D01*
G01*
X53128000Y-33495000D01*
G75*
G02*
X52903000Y-33270000I0J225000D01*
G01*
X52903000Y-32770000D01*
G75*
G02*
X53128000Y-32545000I225000J0D01*
G01*
X53578000Y-32545000D01*
G75*
G02*
X53803000Y-32770000I0J-225000D01*
G01*
G37*
G36*
G01*
X52253000Y-32770000D02*
X52253000Y-33270000D01*
G75*
G02*
X52028000Y-33495000I-225000J0D01*
G01*
X51578000Y-33495000D01*
G75*
G02*
X51353000Y-33270000I0J225000D01*
G01*
X51353000Y-32770000D01*
G75*
G02*
X51578000Y-32545000I225000J0D01*
G01*
X52028000Y-32545000D01*
G75*
G02*
X52253000Y-32770000I0J-225000D01*
G01*
G37*
G36*
G01*
X68323750Y-35529000D02*
X68836250Y-35529000D01*
G75*
G02*
X69055000Y-35747750I0J-218750D01*
G01*
X69055000Y-36185250D01*
G75*
G02*
X68836250Y-36404000I-218750J0D01*
G01*
X68323750Y-36404000D01*
G75*
G02*
X68105000Y-36185250I0J218750D01*
G01*
X68105000Y-35747750D01*
G75*
G02*
X68323750Y-35529000I218750J0D01*
G01*
G37*
G36*
G01*
X68323750Y-33954000D02*
X68836250Y-33954000D01*
G75*
G02*
X69055000Y-34172750I0J-218750D01*
G01*
X69055000Y-34610250D01*
G75*
G02*
X68836250Y-34829000I-218750J0D01*
G01*
X68323750Y-34829000D01*
G75*
G02*
X68105000Y-34610250I0J218750D01*
G01*
X68105000Y-34172750D01*
G75*
G02*
X68323750Y-33954000I218750J0D01*
G01*
G37*
G36*
G01*
X42288750Y-35097000D02*
X42801250Y-35097000D01*
G75*
G02*
X43020000Y-35315750I0J-218750D01*
G01*
X43020000Y-35753250D01*
G75*
G02*
X42801250Y-35972000I-218750J0D01*
G01*
X42288750Y-35972000D01*
G75*
G02*
X42070000Y-35753250I0J218750D01*
G01*
X42070000Y-35315750D01*
G75*
G02*
X42288750Y-35097000I218750J0D01*
G01*
G37*
G36*
G01*
X42288750Y-36672000D02*
X42801250Y-36672000D01*
G75*
G02*
X43020000Y-36890750I0J-218750D01*
G01*
X43020000Y-37328250D01*
G75*
G02*
X42801250Y-37547000I-218750J0D01*
G01*
X42288750Y-37547000D01*
G75*
G02*
X42070000Y-37328250I0J218750D01*
G01*
X42070000Y-36890750D01*
G75*
G02*
X42288750Y-36672000I218750J0D01*
G01*
G37*
G36*
G01*
X65196000Y-40534000D02*
X65196000Y-39984000D01*
G75*
G02*
X65396000Y-39784000I200000J0D01*
G01*
X65796000Y-39784000D01*
G75*
G02*
X65996000Y-39984000I0J-200000D01*
G01*
X65996000Y-40534000D01*
G75*
G02*
X65796000Y-40734000I-200000J0D01*
G01*
X65396000Y-40734000D01*
G75*
G02*
X65196000Y-40534000I0J200000D01*
G01*
G37*
G36*
G01*
X66846000Y-40534000D02*
X66846000Y-39984000D01*
G75*
G02*
X67046000Y-39784000I200000J0D01*
G01*
X67446000Y-39784000D01*
G75*
G02*
X67646000Y-39984000I0J-200000D01*
G01*
X67646000Y-40534000D01*
G75*
G02*
X67446000Y-40734000I-200000J0D01*
G01*
X67046000Y-40734000D01*
G75*
G02*
X66846000Y-40534000I0J200000D01*
G01*
G37*
G36*
G01*
X68855000Y-38056000D02*
X68305000Y-38056000D01*
G75*
G02*
X68105000Y-37856000I0J200000D01*
G01*
X68105000Y-37456000D01*
G75*
G02*
X68305000Y-37256000I200000J0D01*
G01*
X68855000Y-37256000D01*
G75*
G02*
X69055000Y-37456000I0J-200000D01*
G01*
X69055000Y-37856000D01*
G75*
G02*
X68855000Y-38056000I-200000J0D01*
G01*
G37*
G36*
G01*
X68855000Y-39706000D02*
X68305000Y-39706000D01*
G75*
G02*
X68105000Y-39506000I0J200000D01*
G01*
X68105000Y-39106000D01*
G75*
G02*
X68305000Y-38906000I200000J0D01*
G01*
X68855000Y-38906000D01*
G75*
G02*
X69055000Y-39106000I0J-200000D01*
G01*
X69055000Y-39506000D01*
G75*
G02*
X68855000Y-39706000I-200000J0D01*
G01*
G37*
G36*
G01*
X42820000Y-40849000D02*
X42270000Y-40849000D01*
G75*
G02*
X42070000Y-40649000I0J200000D01*
G01*
X42070000Y-40249000D01*
G75*
G02*
X42270000Y-40049000I200000J0D01*
G01*
X42820000Y-40049000D01*
G75*
G02*
X43020000Y-40249000I0J-200000D01*
G01*
X43020000Y-40649000D01*
G75*
G02*
X42820000Y-40849000I-200000J0D01*
G01*
G37*
G36*
G01*
X42820000Y-39199000D02*
X42270000Y-39199000D01*
G75*
G02*
X42070000Y-38999000I0J200000D01*
G01*
X42070000Y-38599000D01*
G75*
G02*
X42270000Y-38399000I200000J0D01*
G01*
X42820000Y-38399000D01*
G75*
G02*
X43020000Y-38599000I0J-200000D01*
G01*
X43020000Y-38999000D01*
G75*
G02*
X42820000Y-39199000I-200000J0D01*
G01*
G37*
G36*
G01*
X68121000Y-31661000D02*
X68121000Y-30061000D01*
G75*
G02*
X68321000Y-29861000I200000J0D01*
G01*
X68721000Y-29861000D01*
G75*
G02*
X68921000Y-30061000I0J-200000D01*
G01*
X68921000Y-31661000D01*
G75*
G02*
X68721000Y-31861000I-200000J0D01*
G01*
X68321000Y-31861000D01*
G75*
G02*
X68121000Y-31661000I0J200000D01*
G01*
G37*
G36*
G01*
X63921000Y-31661000D02*
X63921000Y-30061000D01*
G75*
G02*
X64121000Y-29861000I200000J0D01*
G01*
X64521000Y-29861000D01*
G75*
G02*
X64721000Y-30061000I0J-200000D01*
G01*
X64721000Y-31661000D01*
G75*
G02*
X64521000Y-31861000I-200000J0D01*
G01*
X64121000Y-31861000D01*
G75*
G02*
X63921000Y-31661000I0J200000D01*
G01*
G37*
G36*
G01*
X63921000Y-43599000D02*
X63921000Y-41999000D01*
G75*
G02*
X64121000Y-41799000I200000J0D01*
G01*
X64521000Y-41799000D01*
G75*
G02*
X64721000Y-41999000I0J-200000D01*
G01*
X64721000Y-43599000D01*
G75*
G02*
X64521000Y-43799000I-200000J0D01*
G01*
X64121000Y-43799000D01*
G75*
G02*
X63921000Y-43599000I0J200000D01*
G01*
G37*
G36*
G01*
X68121000Y-43599000D02*
X68121000Y-41999000D01*
G75*
G02*
X68321000Y-41799000I200000J0D01*
G01*
X68721000Y-41799000D01*
G75*
G02*
X68921000Y-41999000I0J-200000D01*
G01*
X68921000Y-43599000D01*
G75*
G02*
X68721000Y-43799000I-200000J0D01*
G01*
X68321000Y-43799000D01*
G75*
G02*
X68121000Y-43599000I0J200000D01*
G01*
G37*
M02*
