M48
INCH,TZ
T1C0.0157
T2C0.0394
T3C0.1063
%
G90
G05
T1
X11000Y-14700
X11800Y-12900
X11800Y-16100
X12300Y-16000
X13100Y-17300
X13410Y-14110
X13900Y-12100
X13902Y-14398
X14200Y-16400
X14588Y-17600
X14600Y-17200
X15900Y-15400
X16200Y-17300
X17500Y-16000
X20700Y-16400
X21400Y-16400
X21500Y-12300
X22000Y-18000
X22500Y-13400
X22500Y-14300
X23170Y-13380
X23200Y-14300
X23372Y-12300
X23498Y-13598
X23500Y-14000
X24300Y-12300
X24600Y-14313
X24600Y-14707
X26102Y-17698
X26500Y-14700
X27500Y-14300
X28000Y-16000
T2
X12500Y-18500
X13500Y-18500
X14500Y-18500
X15500Y-18500
X16500Y-18500
X17500Y-18500
X18500Y-18500
X19500Y-18500
X20500Y-18500
X21500Y-18500
X22500Y-18500
X23500Y-18500
X24500Y-18500
X25500Y-18500
X26500Y-18500
X27500Y-18500
X29000Y-13000
X29000Y-14000
X29000Y-15000
X29000Y-16000
X16500Y-10500
X17500Y-10500
X18500Y-10500
X19500Y-10500
X20500Y-10500
X21500Y-10500
X22500Y-10500
X23500Y-10500
X24500Y-10500
X25500Y-10500
X26500Y-10500
X27500Y-10500
T3
X29000Y-18000
X11000Y-11000
X11000Y-18000
X29000Y-11000
T0
M30
